%TF.GenerationSoftware,KiCad,Pcbnew,(5.1.10)-1*%
%TF.CreationDate,2021-08-14T15:29:17+09:00*%
%TF.ProjectId,pcb,7063622e-6b69-4636-9164-5f7063625858,rev?*%
%TF.SameCoordinates,Original*%
%TF.FileFunction,Profile,NP*%
%FSLAX46Y46*%
G04 Gerber Fmt 4.6, Leading zero omitted, Abs format (unit mm)*
G04 Created by KiCad (PCBNEW (5.1.10)-1) date 2021-08-14 15:29:17*
%MOMM*%
%LPD*%
G01*
G04 APERTURE LIST*
%TA.AperFunction,Profile*%
%ADD10C,0.300000*%
%TD*%
G04 APERTURE END LIST*
D10*
%TO.C,REF\u002A\u002A*%
X26251000Y-118674000D02*
X307251000Y-118674000D01*
X307251000Y-24074000D02*
X48451000Y-24074000D01*
X24251000Y-116674000D02*
X24251000Y-81974000D01*
X24251000Y-81974000D02*
X28051000Y-81974000D01*
X28051000Y-79174000D02*
X24251000Y-79174000D01*
X24251000Y-79174000D02*
X24251000Y-26074000D01*
X309251000Y-81974000D02*
X309251000Y-116674000D01*
X309251000Y-79174000D02*
X309251000Y-26074000D01*
X305451000Y-81974000D02*
X309251000Y-81974000D01*
X305451000Y-79174000D02*
X309251000Y-79174000D01*
X36951000Y-23574000D02*
X47951000Y-23574000D01*
X26251000Y-24074000D02*
X36451000Y-24074000D01*
X26251000Y-24074000D02*
G75*
G03*
X24251000Y-26074000I0J-2000000D01*
G01*
X24251000Y-116674000D02*
G75*
G03*
X26251000Y-118674000I2000000J0D01*
G01*
X307251000Y-118674000D02*
G75*
G03*
X309251000Y-116674000I0J2000000D01*
G01*
X309251000Y-26074000D02*
G75*
G03*
X307251000Y-24074000I-2000000J0D01*
G01*
X29451000Y-80574000D02*
G75*
G03*
X28051000Y-79174000I-1400000J0D01*
G01*
X304051000Y-80574000D02*
G75*
G02*
X305451000Y-79174000I1400000J0D01*
G01*
X305451000Y-81974000D02*
G75*
G02*
X304051000Y-80574000I0J1400000D01*
G01*
X28051000Y-81974000D02*
G75*
G03*
X29451000Y-80574000I0J1400000D01*
G01*
X36451000Y-24074000D02*
G75*
G03*
X36951000Y-23574000I0J500000D01*
G01*
X47951000Y-23574000D02*
G75*
G03*
X48451000Y-24074000I500000J0D01*
G01*
%TD*%
M02*
