M48
; DRILL file {KiCad (5.1.10)-1} date 08/14/21 15:29:15
; FORMAT={-:-/ absolute / metric / decimal}
; #@! TF.CreationDate,2021-08-14T15:29:15+09:00
; #@! TF.GenerationSoftware,Kicad,Pcbnew,(5.1.10)-1
; #@! TF.FileFunction,Plated,1,2,PTH
FMAT,2
METRIC
T1C0.400
T2C0.500
T3C0.600
T4C2.499
T5C2.499
%
G90
G05
T1
X30.988Y-47.879
X31.496Y-43.18
X34.036Y-39.37
X35.031Y-35.302
X36.83Y-41.475
X38.735Y-43.942
X38.748Y-44.955
X38.989Y-38.1
X40.005Y-31.242
X41.402Y-43.942
X41.783Y-40.132
X42.214Y-32.639
X42.249Y-45.0
X43.815Y-40.155
X44.164Y-32.014
X45.768Y-30.463
X47.752Y-101.473
X48.477Y-100.641
X52.451Y-102.198
X52.451Y-104.648
X58.801Y-70.993
X59.563Y-67.056
X59.944Y-37.973
X61.849Y-59.817
X62.992Y-113.157
X64.236Y-97.308
X64.262Y-99.949
X64.352Y-30.797
X69.088Y-52.705
X69.115Y-87.947
X73.877Y-49.847
X74.041Y-107.061
X78.486Y-78.232
X78.64Y-68.897
X82.296Y-77.089
X83.402Y-30.797
X84.074Y-39.624
X88.138Y-88.011
X91.186Y-102.923
X92.927Y-49.847
X96.52Y-30.861
X97.69Y-68.897
X99.187Y-43.434
X101.662Y-79.375
X101.727Y-104.648
X102.597Y-113.202
X102.616Y-30.861
X103.124Y-39.624
X103.505Y-114.3
X104.775Y-113.284
X105.791Y-98.425
X105.791Y-114.3
X107.188Y-106.262
X107.215Y-87.947
X109.76Y-112.392
X109.855Y-107.188
X110.302Y-108.082
X111.977Y-49.847
X112.141Y-99.06
X112.141Y-101.473
X113.478Y-116.276
X114.68Y-111.156
X114.713Y-102.806
X115.025Y-116.332
X115.316Y-30.734
X116.74Y-68.897
X117.475Y-114.206
X118.237Y-114.935
X119.126Y-114.3
X119.539Y-102.933
X120.015Y-116.332
X120.65Y-100.106
X121.666Y-30.861
X122.174Y-100.203
X122.237Y-92.138
X124.841Y-108.712
X124.841Y-111.215
X126.265Y-87.947
X126.714Y-54.324
X130.497Y-113.724
X131.028Y-49.847
X131.826Y-109.601
X133.731Y-109.474
X135.79Y-68.897
X140.552Y-30.797
X145.315Y-87.947
X146.812Y-103.886
X147.574Y-107.188
X150.077Y-49.847
X154.84Y-68.897
X157.607Y-113.792
X159.639Y-30.861
X160.147Y-112.649
X164.025Y-112.2
X164.338Y-100.076
X164.365Y-87.947
X165.608Y-105.029
X165.862Y-113.792
X169.127Y-49.847
X173.89Y-68.897
X178.562Y-30.734
X183.388Y-93.726
X183.415Y-87.947
X188.177Y-49.847
X189.865Y-105.156
X192.659Y-105.283
X192.94Y-68.897
X197.739Y-30.861
X202.438Y-93.853
X202.465Y-87.947
X207.227Y-49.847
X211.99Y-68.897
X216.662Y-30.734
X221.515Y-87.947
X226.278Y-49.847
X231.04Y-68.897
X233.304Y-112.078
X235.802Y-30.797
X240.565Y-87.947
X242.951Y-107.061
X245.327Y-49.847
X250.09Y-68.897
X254.889Y-30.861
X264.377Y-49.847
X266.759Y-106.997
X274.32Y-87.884
X278.892Y-68.834
X283.337Y-33.02
X283.337Y-63.754
X288.417Y-107.188
X302.387Y-52.959
T2
X26.009Y-77.974
X26.009Y-83.174
X28.051Y-77.974
X28.051Y-83.174
X29.889Y-78.736
X29.889Y-82.412
X30.651Y-80.574
X47.151Y-51.974
X47.825Y-50.348
X47.825Y-53.6
X49.451Y-49.674
X49.451Y-54.274
X51.077Y-50.348
X51.077Y-53.6
X51.751Y-51.974
X213.551Y-106.974
X213.551Y-111.574
X214.751Y-106.974
X214.751Y-111.574
X215.951Y-106.974
X215.951Y-111.574
X283.101Y-49.674
X283.101Y-54.274
X284.301Y-49.674
X284.301Y-54.274
X285.501Y-49.657
X285.501Y-54.274
X302.851Y-80.574
X303.613Y-78.736
X303.613Y-82.412
X305.451Y-77.974
X305.451Y-83.174
X307.493Y-77.974
X307.493Y-83.174
T5
X49.451Y-51.974
T3
G00X38.098Y-24.525
M15
G01X38.098Y-25.125
M16
G05
G00X38.098Y-28.455
M15
G01X38.098Y-29.555
M16
G05
G00X46.738Y-24.525
M15
G01X46.738Y-25.125
M16
G05
G00X46.738Y-28.455
M15
G01X46.738Y-29.555
M16
G05
T4
G00X213.5Y-109.274
M15
G01X216.002Y-109.274
M16
G05
G00X283.05Y-51.974
M15
G01X285.552Y-51.974
M16
G05
T0
M30
