%TF.GenerationSoftware,KiCad,Pcbnew,(5.1.10)-1*%
%TF.CreationDate,2021-08-14T15:29:17+09:00*%
%TF.ProjectId,pcb,7063622e-6b69-4636-9164-5f7063625858,rev?*%
%TF.SameCoordinates,Original*%
%TF.FileFunction,Copper,L1,Top*%
%TF.FilePolarity,Positive*%
%FSLAX46Y46*%
G04 Gerber Fmt 4.6, Leading zero omitted, Abs format (unit mm)*
G04 Created by KiCad (PCBNEW (5.1.10)-1) date 2021-08-14 15:29:17*
%MOMM*%
%LPD*%
G01*
G04 APERTURE LIST*
%TA.AperFunction,EtchedComponent*%
%ADD10C,2.501900*%
%TD*%
%TA.AperFunction,ComponentPad*%
%ADD11C,1.000000*%
%TD*%
%TA.AperFunction,ComponentPad*%
%ADD12C,7.000240*%
%TD*%
%TA.AperFunction,ComponentPad*%
%ADD13C,7.001300*%
%TD*%
%TA.AperFunction,ComponentPad*%
%ADD14O,1.000000X2.100000*%
%TD*%
%TA.AperFunction,ComponentPad*%
%ADD15O,1.000000X1.600000*%
%TD*%
%TA.AperFunction,ViaPad*%
%ADD16C,0.800000*%
%TD*%
%TA.AperFunction,Conductor*%
%ADD17C,0.381000*%
%TD*%
%TA.AperFunction,Conductor*%
%ADD18C,0.250000*%
%TD*%
G04 APERTURE END LIST*
D10*
%TO.C,REF\u002A\u002A*%
X24251000Y-77923050D02*
X28051000Y-77923050D01*
X24251000Y-83224950D02*
X28051000Y-83224950D01*
X305451000Y-83224950D02*
X309301000Y-83224950D01*
X305451000Y-77923050D02*
X309251000Y-77923050D01*
X28051000Y-83224950D02*
G75*
G03*
X30701950Y-80574000I0J2650950D01*
G01*
X30701950Y-80574000D02*
G75*
G03*
X28051000Y-77923050I-2650950J0D01*
G01*
X302800050Y-80574000D02*
G75*
G02*
X305451000Y-77923050I2650950J0D01*
G01*
X305451000Y-83224950D02*
G75*
G02*
X302800050Y-80574000I0J2650950D01*
G01*
%TD*%
D11*
%TO.P,REF\u002A\u002A,1*%
%TO.N,N/C*%
X303612522Y-82412478D03*
X305451000Y-83174000D03*
X307493035Y-83174000D03*
X307493035Y-77974000D03*
X305451000Y-77974000D03*
X303612522Y-78735522D03*
X302851000Y-80574000D03*
X26008965Y-83174000D03*
X26008965Y-77974000D03*
X29889478Y-82412478D03*
X29889478Y-78735522D03*
X28051000Y-83174000D03*
X28051000Y-77974000D03*
X30651000Y-80574000D03*
X215951000Y-111574000D03*
X213551000Y-111574000D03*
X213551000Y-106974000D03*
X215951000Y-106974000D03*
X214751000Y-111574000D03*
X214751000Y-106974000D03*
X285501000Y-49657000D03*
X283101000Y-49674000D03*
X283101000Y-54274000D03*
X285501000Y-54274000D03*
X284301000Y-54274000D03*
X284301000Y-49674000D03*
X51077346Y-53600346D03*
X47824654Y-53600346D03*
X51077346Y-50347654D03*
X47824654Y-50347654D03*
X49451000Y-54274000D03*
X51751000Y-51974000D03*
X47151000Y-51974000D03*
X49451000Y-49674000D03*
D12*
X284301000Y-51974000D03*
X214751000Y-109274000D03*
D13*
X49451000Y-51974000D03*
%TD*%
D14*
%TO.P,USB1,13*%
%TO.N,GND*%
X38098000Y-29005000D03*
X46738000Y-29005000D03*
D15*
X38098000Y-24825000D03*
X46738000Y-24825000D03*
%TD*%
D16*
%TO.N,GND*%
X45768002Y-30463499D03*
X44164000Y-32013500D03*
X64235997Y-97308003D03*
X64262000Y-99949000D03*
X62992000Y-113157000D03*
X102597259Y-113201741D03*
X104775000Y-113284000D03*
%TO.N,+5V*%
X114712750Y-102806500D03*
X119538750Y-102933500D03*
X114680500Y-111156250D03*
X36830000Y-41475001D03*
X109759750Y-112392500D03*
X31496000Y-43180000D03*
X34036000Y-39370000D03*
%TO.N,row0*%
X99187000Y-43434000D03*
X105791000Y-98425000D03*
X112141000Y-99060000D03*
X112141000Y-101473000D03*
%TO.N,row1*%
X126713750Y-54323750D03*
X120650000Y-100106248D03*
%TO.N,row2*%
X101662500Y-79375000D03*
X109855000Y-107188000D03*
%TO.N,row3*%
X122237500Y-92137500D03*
X122174000Y-100203000D03*
%TO.N,Net-(D12-Pad2)*%
X82296000Y-77089000D03*
X78486000Y-78232000D03*
%TO.N,Net-(D15-Pad2)*%
X84074000Y-39624000D03*
X96520000Y-30861000D03*
%TO.N,Net-(D19-Pad2)*%
X115316000Y-30734000D03*
X103124000Y-39624000D03*
%TO.N,VCC*%
X42213999Y-32639000D03*
X40005000Y-31242000D03*
X35031161Y-35302147D03*
%TO.N,col0*%
X38989000Y-38100000D03*
X30988000Y-47879000D03*
X103505000Y-114300000D03*
X105791000Y-114300000D03*
X113478268Y-116276282D03*
X115025000Y-116332000D03*
%TO.N,col1*%
X59944000Y-37973000D03*
X69088000Y-52705000D03*
X61849000Y-59817000D03*
X59563000Y-67056000D03*
X58801000Y-70993000D03*
X52451000Y-104648000D03*
X52451000Y-102198000D03*
X101727000Y-104648000D03*
X110302214Y-108082429D03*
%TO.N,col2*%
X74041000Y-107061000D03*
X69115000Y-87947500D03*
X78640000Y-68897500D03*
X73877500Y-49847500D03*
X64352500Y-30797500D03*
%TO.N,col3*%
X88138000Y-88011000D03*
X97690000Y-68897500D03*
X92927500Y-49847500D03*
X83402500Y-30797500D03*
X91186000Y-102923000D03*
%TO.N,col4*%
X102616000Y-30861000D03*
X111977500Y-49847500D03*
X116740000Y-68897500D03*
X107215000Y-87947500D03*
X107188000Y-106262000D03*
%TO.N,col5*%
X121666000Y-30861000D03*
X131027500Y-49847500D03*
X135790000Y-68897500D03*
X126265000Y-87947500D03*
X124841000Y-108712000D03*
%TO.N,col6*%
X147574000Y-107188000D03*
X145315000Y-87947500D03*
X154840000Y-68897500D03*
X150077500Y-49847500D03*
X140552500Y-30797500D03*
%TO.N,col7*%
X159639000Y-30861000D03*
X169127500Y-49847500D03*
X173890000Y-68897500D03*
X164365000Y-87947500D03*
X164338000Y-100076000D03*
%TO.N,col8*%
X178562000Y-30734000D03*
X188177500Y-49847500D03*
X192940000Y-68897500D03*
X183415000Y-87947500D03*
X183388000Y-93726000D03*
X131826000Y-109601000D03*
X124841000Y-111215000D03*
%TO.N,col9*%
X197739000Y-30861000D03*
X207227500Y-49847500D03*
X211990000Y-68897500D03*
X202465000Y-87947500D03*
X202438000Y-93853000D03*
X164025153Y-112199847D03*
X160147000Y-112649000D03*
%TO.N,col10*%
X216662000Y-30734000D03*
X226277500Y-49847500D03*
X231040000Y-68897500D03*
X221515000Y-87947500D03*
X233303750Y-112077500D03*
X165862000Y-113792000D03*
X157607000Y-113792000D03*
X130497153Y-113723847D03*
X120015000Y-116332000D03*
%TO.N,col11*%
X242951000Y-107061000D03*
X240565000Y-87947500D03*
X250090000Y-68897500D03*
X245327500Y-49847500D03*
X235802500Y-30797500D03*
X192659000Y-105283000D03*
X189865000Y-105156000D03*
X165608000Y-105029000D03*
X146812000Y-103886000D03*
X133731000Y-109474000D03*
X119126000Y-114300000D03*
%TO.N,col12*%
X254889000Y-30861000D03*
X264377500Y-49847500D03*
X266758750Y-106997500D03*
X118237000Y-114935000D03*
%TO.N,col13*%
X288417000Y-107188000D03*
X274320000Y-87884000D03*
X278892000Y-68834000D03*
X283337000Y-63754000D03*
X302387000Y-52959000D03*
X283337000Y-33020000D03*
X117475000Y-114206252D03*
%TO.N,D-*%
X41783000Y-40132000D03*
X41402000Y-43942000D03*
X38735000Y-43942000D03*
X47752000Y-101473000D03*
%TO.N,D+*%
X48477000Y-100640949D03*
X38747651Y-44954654D03*
X42248689Y-45000311D03*
X43815000Y-40155500D03*
%TD*%
D17*
%TO.N,GND*%
X45714001Y-30463499D02*
X44164000Y-32013500D01*
X45768002Y-30463499D02*
X45714001Y-30463499D01*
X64755501Y-69804941D02*
X64235997Y-70324445D01*
X62228441Y-59026499D02*
X64755501Y-61553559D01*
X64755501Y-61553559D02*
X64755501Y-69804941D01*
X61469559Y-59026499D02*
X62228441Y-59026499D01*
X64235997Y-70324445D02*
X64235997Y-97308003D01*
X61058499Y-59437559D02*
X61469559Y-59026499D01*
X54891161Y-59437559D02*
X61058499Y-59437559D01*
X54891161Y-50092160D02*
X54891161Y-59437559D01*
X44164000Y-39364999D02*
X54891161Y-50092160D01*
X44164000Y-32013500D02*
X44164000Y-39364999D01*
X62992000Y-106334692D02*
X62992000Y-113157000D01*
X64262000Y-105064692D02*
X62992000Y-106334692D01*
X64262000Y-99949000D02*
X64262000Y-105064692D01*
X104692741Y-113201741D02*
X104775000Y-113284000D01*
X102597259Y-113201741D02*
X104692741Y-113201741D01*
%TO.N,+5V*%
X114839750Y-102933500D02*
X114712750Y-102806500D01*
X119538750Y-102933500D02*
X114839750Y-102933500D01*
X114712750Y-111124000D02*
X114680500Y-111156250D01*
X114712750Y-102806500D02*
X114712750Y-111124000D01*
X78202558Y-112392500D02*
X109759750Y-112392500D01*
X59942441Y-94132383D02*
X78202558Y-112392500D01*
X59942441Y-68605383D02*
X59942441Y-94132383D01*
X45559849Y-54222791D02*
X59942441Y-68605383D01*
X45559849Y-49429407D02*
X45559849Y-54222791D01*
X37605443Y-41475001D02*
X45559849Y-49429407D01*
X36830000Y-41475001D02*
X37605443Y-41475001D01*
X31496000Y-43180000D02*
X32766000Y-41910000D01*
X32766000Y-40640000D02*
X34036000Y-39370000D01*
X32766000Y-41910000D02*
X32766000Y-40640000D01*
D18*
%TO.N,row0*%
X102456099Y-95090099D02*
X105791000Y-98425000D01*
X102456099Y-70324427D02*
X102456099Y-95090099D01*
X103661927Y-69118599D02*
X102456099Y-70324427D01*
X103661927Y-52732929D02*
X103661927Y-69118599D01*
X99187000Y-48258002D02*
X103661927Y-52732929D01*
X99187000Y-43434000D02*
X99187000Y-48258002D01*
X112141000Y-99060000D02*
X112141000Y-100965000D01*
X112141000Y-100965000D02*
X112141000Y-101473000D01*
%TO.N,row1*%
X120650000Y-92489498D02*
X120650000Y-100106248D01*
X127241001Y-68182501D02*
X127241001Y-85898497D01*
X127241001Y-85898497D02*
X120650000Y-92489498D01*
X128190001Y-67233501D02*
X127241001Y-68182501D01*
X128190001Y-55800001D02*
X128190001Y-67233501D01*
X126713750Y-54323750D02*
X128190001Y-55800001D01*
%TO.N,row2*%
X106680328Y-107188000D02*
X109855000Y-107188000D01*
X101662500Y-102170172D02*
X106680328Y-107188000D01*
X101662500Y-79375000D02*
X101662500Y-102170172D01*
%TO.N,row3*%
X122237500Y-100139500D02*
X122174000Y-100203000D01*
X122237500Y-92137500D02*
X122237500Y-100139500D01*
%TO.N,Net-(D12-Pad2)*%
X79629000Y-77089000D02*
X78486000Y-78232000D01*
X82296000Y-77089000D02*
X79629000Y-77089000D01*
%TO.N,Net-(D15-Pad2)*%
X96267998Y-30861000D02*
X96520000Y-30861000D01*
X87504998Y-39624000D02*
X96267998Y-30861000D01*
X84074000Y-39624000D02*
X87504998Y-39624000D01*
%TO.N,Net-(D19-Pad2)*%
X106682974Y-39624000D02*
X103124000Y-39624000D01*
X111856401Y-34450573D02*
X106682974Y-39624000D01*
X111856401Y-34193599D02*
X111856401Y-34450573D01*
X115316000Y-30734000D02*
X111856401Y-34193599D01*
D17*
%TO.N,VCC*%
X41402000Y-32639000D02*
X40005000Y-31242000D01*
X42213999Y-32639000D02*
X41402000Y-32639000D01*
X36240059Y-34093249D02*
X35031161Y-35302147D01*
X36240059Y-33641999D02*
X36240059Y-34093249D01*
X38640058Y-31242000D02*
X36240059Y-33641999D01*
X40005000Y-31242000D02*
X38640058Y-31242000D01*
D18*
%TO.N,col0*%
X30988000Y-46101000D02*
X30988000Y-47879000D01*
X38989000Y-38100000D02*
X30988000Y-46101000D01*
X103505000Y-114300000D02*
X105791000Y-114300000D01*
X114969282Y-116276282D02*
X115025000Y-116332000D01*
X113478268Y-116276282D02*
X114969282Y-116276282D01*
%TO.N,col1*%
X69088000Y-47117000D02*
X69088000Y-52705000D01*
X59944000Y-37973000D02*
X69088000Y-47117000D01*
X61849000Y-64770000D02*
X59563000Y-67056000D01*
X61849000Y-59817000D02*
X61849000Y-64770000D01*
X58801000Y-70993000D02*
X52451000Y-77343000D01*
X52451000Y-102235000D02*
X52451000Y-102198000D01*
X52451000Y-77343000D02*
X52451000Y-102235000D01*
X52451000Y-102235000D02*
X52451000Y-104648000D01*
X105161429Y-108082429D02*
X110302214Y-108082429D01*
X101727000Y-104648000D02*
X105161429Y-108082429D01*
%TO.N,col2*%
X69115000Y-102135000D02*
X69115000Y-87947500D01*
X74041000Y-107061000D02*
X69115000Y-102135000D01*
X69115000Y-78422500D02*
X78640000Y-68897500D01*
X69115000Y-87947500D02*
X69115000Y-78422500D01*
X78640000Y-68897500D02*
X78640000Y-67845000D01*
X73877500Y-63082500D02*
X73877500Y-49847500D01*
X78640000Y-67845000D02*
X73877500Y-63082500D01*
X64352500Y-40322500D02*
X64352500Y-30797500D01*
X73877500Y-49847500D02*
X64352500Y-40322500D01*
%TO.N,col3*%
X97690000Y-78459000D02*
X97690000Y-68897500D01*
X88138000Y-88011000D02*
X97690000Y-78459000D01*
X93732499Y-64939999D02*
X93732499Y-64903499D01*
X97690000Y-68897500D02*
X93732499Y-64939999D01*
X92927500Y-64098500D02*
X92927500Y-49847500D01*
X93732499Y-64903499D02*
X92927500Y-64098500D01*
X83348999Y-30851001D02*
X83402500Y-30797500D01*
X83348999Y-40268999D02*
X83348999Y-30851001D01*
X92927500Y-49847500D02*
X83348999Y-40268999D01*
X88138000Y-99875000D02*
X91186000Y-102923000D01*
X88138000Y-88011000D02*
X88138000Y-99875000D01*
%TO.N,col4*%
X102216001Y-40086001D02*
X111977500Y-49847500D01*
X102216001Y-31260999D02*
X102216001Y-40086001D01*
X102616000Y-30861000D02*
X102216001Y-31260999D01*
X111977500Y-64135000D02*
X116740000Y-68897500D01*
X111977500Y-49847500D02*
X111977500Y-64135000D01*
X116740000Y-78422500D02*
X107215000Y-87947500D01*
X116740000Y-68897500D02*
X116740000Y-78422500D01*
X107215000Y-106235000D02*
X107188000Y-106262000D01*
X107215000Y-87947500D02*
X107215000Y-106235000D01*
%TO.N,col5*%
X121666000Y-40486000D02*
X131027500Y-49847500D01*
X121666000Y-30861000D02*
X121666000Y-40486000D01*
X131027500Y-64135000D02*
X135790000Y-68897500D01*
X131027500Y-49847500D02*
X131027500Y-64135000D01*
X135790000Y-78422500D02*
X126265000Y-87947500D01*
X135790000Y-68897500D02*
X135790000Y-78422500D01*
X126265000Y-107288000D02*
X124841000Y-108712000D01*
X126265000Y-87947500D02*
X126265000Y-107288000D01*
%TO.N,col6*%
X145315000Y-104929000D02*
X145315000Y-87947500D01*
X147574000Y-107188000D02*
X145315000Y-104929000D01*
X145315000Y-78422500D02*
X154840000Y-68897500D01*
X145315000Y-87947500D02*
X145315000Y-78422500D01*
X150077500Y-64135000D02*
X150077500Y-49847500D01*
X154840000Y-68897500D02*
X150077500Y-64135000D01*
X140552500Y-40322500D02*
X140552500Y-30797500D01*
X150077500Y-49847500D02*
X140552500Y-40322500D01*
%TO.N,col7*%
X159639000Y-40359000D02*
X169127500Y-49847500D01*
X159639000Y-30861000D02*
X159639000Y-40359000D01*
X169127500Y-64135000D02*
X173890000Y-68897500D01*
X169127500Y-49847500D02*
X169127500Y-64135000D01*
X173890000Y-78422500D02*
X164365000Y-87947500D01*
X173890000Y-68897500D02*
X173890000Y-78422500D01*
X164365000Y-100049000D02*
X164338000Y-100076000D01*
X164365000Y-87947500D02*
X164365000Y-100049000D01*
%TO.N,col8*%
X178562000Y-40232000D02*
X188177500Y-49847500D01*
X178562000Y-30734000D02*
X178562000Y-40232000D01*
X188177500Y-64135000D02*
X192940000Y-68897500D01*
X188177500Y-49847500D02*
X188177500Y-64135000D01*
X192940000Y-78422500D02*
X183415000Y-87947500D01*
X192940000Y-68897500D02*
X192940000Y-78422500D01*
X183415000Y-93699000D02*
X183388000Y-93726000D01*
X183415000Y-87947500D02*
X183415000Y-93699000D01*
X130212000Y-111215000D02*
X124841000Y-111215000D01*
X131826000Y-109601000D02*
X130212000Y-111215000D01*
%TO.N,col9*%
X197739000Y-40359000D02*
X207227500Y-49847500D01*
X197739000Y-30861000D02*
X197739000Y-40359000D01*
X207227500Y-64135000D02*
X211990000Y-68897500D01*
X207227500Y-49847500D02*
X207227500Y-64135000D01*
X211990000Y-78422500D02*
X202465000Y-87947500D01*
X211990000Y-68897500D02*
X211990000Y-78422500D01*
X202465000Y-93826000D02*
X202438000Y-93853000D01*
X202465000Y-87947500D02*
X202465000Y-93826000D01*
X160596153Y-112199847D02*
X160147000Y-112649000D01*
X164025153Y-112199847D02*
X160596153Y-112199847D01*
%TO.N,col10*%
X216662000Y-40232000D02*
X226277500Y-49847500D01*
X216662000Y-30734000D02*
X216662000Y-40232000D01*
X226277500Y-64135000D02*
X231040000Y-68897500D01*
X226277500Y-49847500D02*
X226277500Y-64135000D01*
X231040000Y-78422500D02*
X221515000Y-87947500D01*
X231040000Y-68897500D02*
X231040000Y-78422500D01*
X221515000Y-97977748D02*
X233303750Y-109766498D01*
X233303750Y-109766498D02*
X233303750Y-112077500D01*
X221515000Y-87947500D02*
X221515000Y-97977748D01*
X165862000Y-113792000D02*
X157607000Y-113792000D01*
X127889000Y-116332000D02*
X120015000Y-116332000D01*
X130497153Y-113723847D02*
X127889000Y-116332000D01*
%TO.N,col11*%
X240565000Y-104675000D02*
X240565000Y-87947500D01*
X242951000Y-107061000D02*
X240565000Y-104675000D01*
X240565000Y-78422500D02*
X250090000Y-68897500D01*
X240565000Y-87947500D02*
X240565000Y-78422500D01*
X245327500Y-64135000D02*
X245327500Y-49847500D01*
X250090000Y-68897500D02*
X245327500Y-64135000D01*
X235802500Y-40322500D02*
X235802500Y-30797500D01*
X245327500Y-49847500D02*
X235802500Y-40322500D01*
X192659000Y-105283000D02*
X189992000Y-105283000D01*
X148065501Y-102632499D02*
X146812000Y-103886000D01*
X163211499Y-102632499D02*
X148065501Y-102632499D01*
X165608000Y-105029000D02*
X163211499Y-102632499D01*
X120326002Y-114300000D02*
X119126000Y-114300000D01*
X125750003Y-108875999D02*
X120326002Y-114300000D01*
X133132999Y-108875999D02*
X125750003Y-108875999D01*
X133731000Y-109474000D02*
X133132999Y-108875999D01*
%TO.N,col12*%
X254889000Y-40359000D02*
X264377500Y-49847500D01*
X254889000Y-30861000D02*
X254889000Y-40359000D01*
X264377500Y-104616250D02*
X266758750Y-106997500D01*
X264377500Y-49847500D02*
X264377500Y-104616250D01*
X118327001Y-115025001D02*
X118237000Y-114935000D01*
X121407999Y-115025001D02*
X118327001Y-115025001D01*
X212914941Y-105448879D02*
X211366320Y-106997500D01*
X259853749Y-113902501D02*
X229152749Y-113902501D01*
X229152749Y-109167501D02*
X225434127Y-105448879D01*
X266758750Y-106997500D02*
X259853749Y-113902501D01*
X228203749Y-112953501D02*
X228203749Y-111201499D01*
X228203749Y-111201499D02*
X229152749Y-110252499D01*
X229152749Y-113902501D02*
X228203749Y-112953501D01*
X211366320Y-106997500D02*
X154017252Y-106997500D01*
X225434127Y-105448879D02*
X212914941Y-105448879D01*
X154017252Y-106997500D02*
X149074751Y-111940001D01*
X124492999Y-111940001D02*
X121407999Y-115025001D01*
X229152749Y-110252499D02*
X229152749Y-109167501D01*
X149074751Y-111940001D02*
X124492999Y-111940001D01*
%TO.N,col13*%
X274320000Y-93091000D02*
X274320000Y-87884000D01*
X288417000Y-107188000D02*
X274320000Y-93091000D01*
X278892000Y-83312000D02*
X278892000Y-68834000D01*
X274320000Y-87884000D02*
X278892000Y-83312000D01*
X278892000Y-68199000D02*
X283337000Y-63754000D01*
X278892000Y-68834000D02*
X278892000Y-68199000D01*
X302387000Y-52070000D02*
X283337000Y-33020000D01*
X302387000Y-52959000D02*
X302387000Y-52070000D01*
X117475000Y-115246002D02*
X117475000Y-114206252D01*
X117888999Y-115660001D02*
X117475000Y-115246002D01*
X281252490Y-114352510D02*
X228966348Y-114352510D01*
X228966348Y-114352510D02*
X226470239Y-111856401D01*
X212914941Y-113099121D02*
X210925879Y-111110059D01*
X217829779Y-111856401D02*
X216587059Y-113099121D01*
X155360713Y-112390011D02*
X124679399Y-112390011D01*
X288417000Y-107188000D02*
X281252490Y-114352510D01*
X216587059Y-113099121D02*
X212914941Y-113099121D01*
X210925879Y-111110059D02*
X156640665Y-111110059D01*
X156640665Y-111110059D02*
X155360713Y-112390011D01*
X124679399Y-112390011D02*
X121594399Y-115475011D01*
X118585001Y-115660001D02*
X117888999Y-115660001D01*
X226470239Y-111856401D02*
X217829779Y-111856401D01*
X121594399Y-115475011D02*
X118769991Y-115475011D01*
X118769991Y-115475011D02*
X118585001Y-115660001D01*
%TO.N,D-*%
X41783000Y-43561000D02*
X41402000Y-43942000D01*
X41783000Y-40132000D02*
X41783000Y-43561000D01*
X38735000Y-43942000D02*
X37084000Y-45593000D01*
X40418901Y-51274427D02*
X40418901Y-56609099D01*
X37084000Y-47939526D02*
X40418901Y-51274427D01*
X37084000Y-45593000D02*
X37084000Y-47939526D01*
X40418901Y-69055099D02*
X40386000Y-69088000D01*
X40418901Y-56609099D02*
X40418901Y-69055099D01*
X42800151Y-70324427D02*
X42800151Y-78103849D01*
X41563724Y-69088000D02*
X42800151Y-70324427D01*
X40386000Y-69088000D02*
X41563724Y-69088000D01*
X42800151Y-84611927D02*
X47752000Y-89563776D01*
X42800151Y-78103849D02*
X42800151Y-84611927D01*
X47752000Y-89563776D02*
X47752000Y-101473000D01*
%TO.N,D+*%
X48477000Y-100640949D02*
X48477000Y-89652366D01*
X48477000Y-89652366D02*
X48202009Y-89377375D01*
X43250160Y-70138026D02*
X41750124Y-68637990D01*
X43250161Y-84425527D02*
X43250160Y-70138026D01*
X48202009Y-89377375D02*
X43250161Y-84425527D01*
X41750124Y-68637990D02*
X40894000Y-68637990D01*
X40894000Y-68637990D02*
X40894000Y-51113116D01*
X40894000Y-51113116D02*
X37534010Y-47753126D01*
X37534010Y-46168295D02*
X38747651Y-44954654D01*
X37534010Y-47753126D02*
X37534010Y-46168295D01*
X43815000Y-43434000D02*
X43815000Y-40155500D01*
X42248689Y-45000311D02*
X43815000Y-43434000D01*
%TD*%
M02*
