%TF.GenerationSoftware,KiCad,Pcbnew,(5.1.10-1-10_14)*%
%TF.CreationDate,2021-08-25T09:42:14+09:00*%
%TF.ProjectId,pcb,7063622e-6b69-4636-9164-5f7063625858,rev?*%
%TF.SameCoordinates,Original*%
%TF.FileFunction,Soldermask,Top*%
%TF.FilePolarity,Negative*%
%FSLAX46Y46*%
G04 Gerber Fmt 4.6, Leading zero omitted, Abs format (unit mm)*
G04 Created by KiCad (PCBNEW (5.1.10-1-10_14)) date 2021-08-25 09:42:14*
%MOMM*%
%LPD*%
G01*
G04 APERTURE LIST*
%ADD10C,2.501900*%
%ADD11C,3.987800*%
%ADD12C,3.048000*%
%ADD13C,1.750000*%
%ADD14C,3.000000*%
%ADD15C,1.000000*%
%ADD16C,7.000240*%
%ADD17C,7.001300*%
%ADD18C,0.750000*%
%ADD19O,1.100000X2.200000*%
%ADD20O,1.100000X1.700000*%
G04 APERTURE END LIST*
D10*
%TO.C,REF\u002A\u002A*%
X24632000Y-83224950D02*
X28432000Y-83224950D01*
X24632000Y-77923050D02*
X28432000Y-77923050D01*
X305832000Y-83224950D02*
X309682000Y-83224950D01*
X305832000Y-77923050D02*
X309632000Y-77923050D01*
X28432000Y-83224950D02*
G75*
G03*
X31082950Y-80574000I0J2650950D01*
G01*
X31082950Y-80574000D02*
G75*
G03*
X28432000Y-77923050I-2650950J0D01*
G01*
X305832000Y-83224950D02*
G75*
G02*
X303181050Y-80574000I0J2650950D01*
G01*
X303181050Y-80574000D02*
G75*
G02*
X305832000Y-77923050I2650950J0D01*
G01*
%TD*%
D11*
%TO.C,MX31*%
X104781350Y-101282500D03*
X204781150Y-101282500D03*
D12*
X104781350Y-116522500D03*
X204781150Y-116522500D03*
D13*
X159861250Y-109537500D03*
X149701250Y-109537500D03*
D14*
X150971250Y-106997500D03*
D11*
X154781250Y-109537500D03*
D14*
X157321250Y-104457500D03*
%TD*%
D15*
%TO.C,REF\u002A\u002A*%
X303993522Y-82412478D03*
X305832000Y-83174000D03*
X307874035Y-83174000D03*
X307874035Y-77974000D03*
X305832000Y-77974000D03*
X303993522Y-78735522D03*
X303232000Y-80574000D03*
X26389965Y-83174000D03*
X26389965Y-77974000D03*
X30270478Y-82412478D03*
X30270478Y-78735522D03*
X28432000Y-83174000D03*
X28432000Y-77974000D03*
X31032000Y-80574000D03*
X216332000Y-111574000D03*
X213932000Y-111574000D03*
X213932000Y-106974000D03*
X216332000Y-106974000D03*
X215132000Y-111574000D03*
X215132000Y-106974000D03*
X285882000Y-49657000D03*
X283482000Y-49674000D03*
X283482000Y-54274000D03*
X285882000Y-54274000D03*
X284682000Y-54274000D03*
X284682000Y-49674000D03*
X51458346Y-53600346D03*
X48205654Y-53600346D03*
X51458346Y-50347654D03*
X48205654Y-50347654D03*
X49832000Y-54274000D03*
X52132000Y-51974000D03*
X47532000Y-51974000D03*
X49832000Y-49674000D03*
D16*
X284682000Y-51974000D03*
X215132000Y-109274000D03*
D17*
X49832000Y-51974000D03*
%TD*%
D18*
%TO.C,USB1*%
X45816000Y-28475000D03*
X40036000Y-28475000D03*
D19*
X38606000Y-29005000D03*
X47246000Y-29005000D03*
D20*
X38606000Y-24825000D03*
X47246000Y-24825000D03*
%TD*%
D13*
%TO.C,MX61*%
X302736250Y-109537500D03*
X292576250Y-109537500D03*
D14*
X293846250Y-106997500D03*
D11*
X297656250Y-109537500D03*
D14*
X300196250Y-104457500D03*
%TD*%
D11*
%TO.C,MX60*%
X271430750Y-98742500D03*
X295306750Y-98742500D03*
D12*
X271430750Y-83502500D03*
X295306750Y-83502500D03*
D13*
X288448750Y-90487500D03*
X278288750Y-90487500D03*
D14*
X279558750Y-87947500D03*
D11*
X283368750Y-90487500D03*
D14*
X285908750Y-85407500D03*
%TD*%
D11*
%TO.C,MX59*%
X276193250Y-79692500D03*
X300069250Y-79692500D03*
D12*
X276193250Y-64452500D03*
X300069250Y-64452500D03*
D13*
X293211250Y-71437500D03*
X283051250Y-71437500D03*
D14*
X284321250Y-68897500D03*
D11*
X288131250Y-71437500D03*
D14*
X290671250Y-66357500D03*
%TD*%
D13*
%TO.C,MX58*%
X290195000Y-52387500D03*
X300355000Y-52387500D03*
D14*
X299085000Y-54927500D03*
D11*
X295275000Y-52387500D03*
D14*
X292735000Y-57467500D03*
%TD*%
D11*
%TO.C,MX57*%
X278574500Y-41592500D03*
X302450500Y-41592500D03*
D12*
X278574500Y-26352500D03*
X302450500Y-26352500D03*
D13*
X295592500Y-33337500D03*
X285432500Y-33337500D03*
D14*
X286702500Y-30797500D03*
D11*
X290512500Y-33337500D03*
D14*
X293052500Y-28257500D03*
%TD*%
D13*
%TO.C,MX56*%
X278923750Y-109537500D03*
X268763750Y-109537500D03*
D14*
X270033750Y-106997500D03*
D11*
X273843750Y-109537500D03*
D14*
X276383750Y-104457500D03*
%TD*%
D13*
%TO.C,MX55*%
X276542500Y-52387500D03*
X266382500Y-52387500D03*
D14*
X267652500Y-49847500D03*
D11*
X271462500Y-52387500D03*
D14*
X274002500Y-47307500D03*
%TD*%
D13*
%TO.C,MX54*%
X267017500Y-33337500D03*
X256857500Y-33337500D03*
D14*
X258127500Y-30797500D03*
D11*
X261937500Y-33337500D03*
D14*
X264477500Y-28257500D03*
%TD*%
D13*
%TO.C,MX53*%
X255111250Y-109537500D03*
X244951250Y-109537500D03*
D14*
X246221250Y-106997500D03*
D11*
X250031250Y-109537500D03*
D14*
X252571250Y-104457500D03*
%TD*%
D13*
%TO.C,MX52*%
X252730000Y-90487500D03*
X242570000Y-90487500D03*
D14*
X243840000Y-87947500D03*
D11*
X247650000Y-90487500D03*
D14*
X250190000Y-85407500D03*
%TD*%
D13*
%TO.C,MX51*%
X262255000Y-71437500D03*
X252095000Y-71437500D03*
D14*
X253365000Y-68897500D03*
D11*
X257175000Y-71437500D03*
D14*
X259715000Y-66357500D03*
%TD*%
D13*
%TO.C,MX50*%
X257492500Y-52387500D03*
X247332500Y-52387500D03*
D14*
X248602500Y-49847500D03*
D11*
X252412500Y-52387500D03*
D14*
X254952500Y-47307500D03*
%TD*%
D13*
%TO.C,MX49*%
X247967500Y-33337500D03*
X237807500Y-33337500D03*
D14*
X239077500Y-30797500D03*
D11*
X242887500Y-33337500D03*
D14*
X245427500Y-28257500D03*
%TD*%
D13*
%TO.C,MX48*%
X221138750Y-109537500D03*
X231298750Y-109537500D03*
D14*
X230028750Y-112077500D03*
D11*
X226218750Y-109537500D03*
D14*
X223678750Y-114617500D03*
%TD*%
D13*
%TO.C,MX47*%
X233680000Y-90487500D03*
X223520000Y-90487500D03*
D14*
X224790000Y-87947500D03*
D11*
X228600000Y-90487500D03*
D14*
X231140000Y-85407500D03*
%TD*%
D13*
%TO.C,MX46*%
X243205000Y-71437500D03*
X233045000Y-71437500D03*
D14*
X234315000Y-68897500D03*
D11*
X238125000Y-71437500D03*
D14*
X240665000Y-66357500D03*
%TD*%
D13*
%TO.C,MX45*%
X238442500Y-52387500D03*
X228282500Y-52387500D03*
D14*
X229552500Y-49847500D03*
D11*
X233362500Y-52387500D03*
D14*
X235902500Y-47307500D03*
%TD*%
D13*
%TO.C,MX44*%
X228917500Y-33337500D03*
X218757500Y-33337500D03*
D14*
X220027500Y-30797500D03*
D11*
X223837500Y-33337500D03*
D14*
X226377500Y-28257500D03*
%TD*%
D13*
%TO.C,MX43*%
X214630000Y-90487500D03*
X204470000Y-90487500D03*
D14*
X205740000Y-87947500D03*
D11*
X209550000Y-90487500D03*
D14*
X212090000Y-85407500D03*
%TD*%
D13*
%TO.C,MX42*%
X224155000Y-71437500D03*
X213995000Y-71437500D03*
D14*
X215265000Y-68897500D03*
D11*
X219075000Y-71437500D03*
D14*
X221615000Y-66357500D03*
%TD*%
D13*
%TO.C,MX41*%
X219392500Y-52387500D03*
X209232500Y-52387500D03*
D14*
X210502500Y-49847500D03*
D11*
X214312500Y-52387500D03*
D14*
X216852500Y-47307500D03*
%TD*%
D13*
%TO.C,MX40*%
X209867500Y-33337500D03*
X199707500Y-33337500D03*
D14*
X200977500Y-30797500D03*
D11*
X204787500Y-33337500D03*
D14*
X207327500Y-28257500D03*
%TD*%
D13*
%TO.C,MX39*%
X195580000Y-90487500D03*
X185420000Y-90487500D03*
D14*
X186690000Y-87947500D03*
D11*
X190500000Y-90487500D03*
D14*
X193040000Y-85407500D03*
%TD*%
D13*
%TO.C,MX38*%
X205105000Y-71437500D03*
X194945000Y-71437500D03*
D14*
X196215000Y-68897500D03*
D11*
X200025000Y-71437500D03*
D14*
X202565000Y-66357500D03*
%TD*%
D13*
%TO.C,MX37*%
X200342500Y-52387500D03*
X190182500Y-52387500D03*
D14*
X191452500Y-49847500D03*
D11*
X195262500Y-52387500D03*
D14*
X197802500Y-47307500D03*
%TD*%
D13*
%TO.C,MX36*%
X190817500Y-33337500D03*
X180657500Y-33337500D03*
D14*
X181927500Y-30797500D03*
D11*
X185737500Y-33337500D03*
D14*
X188277500Y-28257500D03*
%TD*%
D13*
%TO.C,MX35*%
X176530000Y-90487500D03*
X166370000Y-90487500D03*
D14*
X167640000Y-87947500D03*
D11*
X171450000Y-90487500D03*
D14*
X173990000Y-85407500D03*
%TD*%
D13*
%TO.C,MX34*%
X186055000Y-71437500D03*
X175895000Y-71437500D03*
D14*
X177165000Y-68897500D03*
D11*
X180975000Y-71437500D03*
D14*
X183515000Y-66357500D03*
%TD*%
D13*
%TO.C,MX33*%
X181292500Y-52387500D03*
X171132500Y-52387500D03*
D14*
X172402500Y-49847500D03*
D11*
X176212500Y-52387500D03*
D14*
X178752500Y-47307500D03*
%TD*%
D13*
%TO.C,MX32*%
X171767500Y-33337500D03*
X161607500Y-33337500D03*
D14*
X162877500Y-30797500D03*
D11*
X166687500Y-33337500D03*
D14*
X169227500Y-28257500D03*
%TD*%
D13*
%TO.C,MX30*%
X157480000Y-90487500D03*
X147320000Y-90487500D03*
D14*
X148590000Y-87947500D03*
D11*
X152400000Y-90487500D03*
D14*
X154940000Y-85407500D03*
%TD*%
D13*
%TO.C,MX29*%
X167005000Y-71437500D03*
X156845000Y-71437500D03*
D14*
X158115000Y-68897500D03*
D11*
X161925000Y-71437500D03*
D14*
X164465000Y-66357500D03*
%TD*%
D13*
%TO.C,MX28*%
X162242500Y-52387500D03*
X152082500Y-52387500D03*
D14*
X153352500Y-49847500D03*
D11*
X157162500Y-52387500D03*
D14*
X159702500Y-47307500D03*
%TD*%
D13*
%TO.C,MX27*%
X152717500Y-33337500D03*
X142557500Y-33337500D03*
D14*
X143827500Y-30797500D03*
D11*
X147637500Y-33337500D03*
D14*
X150177500Y-28257500D03*
%TD*%
D13*
%TO.C,MX26*%
X138430000Y-90487500D03*
X128270000Y-90487500D03*
D14*
X129540000Y-87947500D03*
D11*
X133350000Y-90487500D03*
D14*
X135890000Y-85407500D03*
%TD*%
D13*
%TO.C,MX25*%
X147955000Y-71437500D03*
X137795000Y-71437500D03*
D14*
X139065000Y-68897500D03*
D11*
X142875000Y-71437500D03*
D14*
X145415000Y-66357500D03*
%TD*%
D13*
%TO.C,MX24*%
X143192500Y-52387500D03*
X133032500Y-52387500D03*
D14*
X134302500Y-49847500D03*
D11*
X138112500Y-52387500D03*
D14*
X140652500Y-47307500D03*
%TD*%
D13*
%TO.C,MX23*%
X133667500Y-33337500D03*
X123507500Y-33337500D03*
D14*
X124777500Y-30797500D03*
D11*
X128587500Y-33337500D03*
D14*
X131127500Y-28257500D03*
%TD*%
D13*
%TO.C,MX22*%
X119380000Y-90487500D03*
X109220000Y-90487500D03*
D14*
X110490000Y-87947500D03*
D11*
X114300000Y-90487500D03*
D14*
X116840000Y-85407500D03*
%TD*%
D13*
%TO.C,MX21*%
X128905000Y-71437500D03*
X118745000Y-71437500D03*
D14*
X120015000Y-68897500D03*
D11*
X123825000Y-71437500D03*
D14*
X126365000Y-66357500D03*
%TD*%
D13*
%TO.C,MX20*%
X124142500Y-52387500D03*
X113982500Y-52387500D03*
D14*
X115252500Y-49847500D03*
D11*
X119062500Y-52387500D03*
D14*
X121602500Y-47307500D03*
%TD*%
D13*
%TO.C,MX19*%
X114617500Y-33337500D03*
X104457500Y-33337500D03*
D14*
X105727500Y-30797500D03*
D11*
X109537500Y-33337500D03*
D14*
X112077500Y-28257500D03*
%TD*%
D13*
%TO.C,MX18*%
X100330000Y-90487500D03*
X90170000Y-90487500D03*
D14*
X91440000Y-87947500D03*
D11*
X95250000Y-90487500D03*
D14*
X97790000Y-85407500D03*
%TD*%
D13*
%TO.C,MX17*%
X109855000Y-71437500D03*
X99695000Y-71437500D03*
D14*
X100965000Y-68897500D03*
D11*
X104775000Y-71437500D03*
D14*
X107315000Y-66357500D03*
%TD*%
D13*
%TO.C,MX16*%
X105092500Y-52387500D03*
X94932500Y-52387500D03*
D14*
X96202500Y-49847500D03*
D11*
X100012500Y-52387500D03*
D14*
X102552500Y-47307500D03*
%TD*%
D13*
%TO.C,MX15*%
X95567500Y-33337500D03*
X85407500Y-33337500D03*
D14*
X86677500Y-30797500D03*
D11*
X90487500Y-33337500D03*
D14*
X93027500Y-28257500D03*
%TD*%
D13*
%TO.C,MX14*%
X88423750Y-109537500D03*
X78263750Y-109537500D03*
D14*
X79533750Y-106997500D03*
D11*
X83343750Y-109537500D03*
D14*
X85883750Y-104457500D03*
%TD*%
D13*
%TO.C,MX13*%
X81280000Y-90487500D03*
X71120000Y-90487500D03*
D14*
X72390000Y-87947500D03*
D11*
X76200000Y-90487500D03*
D14*
X78740000Y-85407500D03*
%TD*%
D13*
%TO.C,MX12*%
X90805000Y-71437500D03*
X80645000Y-71437500D03*
D14*
X81915000Y-68897500D03*
D11*
X85725000Y-71437500D03*
D14*
X88265000Y-66357500D03*
%TD*%
D13*
%TO.C,MX11*%
X86042500Y-52387500D03*
X75882500Y-52387500D03*
D14*
X77152500Y-49847500D03*
D11*
X80962500Y-52387500D03*
D14*
X83502500Y-47307500D03*
%TD*%
D13*
%TO.C,MX10*%
X76517500Y-33337500D03*
X66357500Y-33337500D03*
D14*
X67627500Y-30797500D03*
D11*
X71437500Y-33337500D03*
D14*
X73977500Y-28257500D03*
%TD*%
D13*
%TO.C,MX9*%
X64611250Y-109537500D03*
X54451250Y-109537500D03*
D14*
X55721250Y-106997500D03*
D11*
X59531250Y-109537500D03*
D14*
X62071250Y-104457500D03*
%TD*%
D13*
%TO.C,MX8*%
X71755000Y-71437500D03*
X61595000Y-71437500D03*
D14*
X62865000Y-68897500D03*
D11*
X66675000Y-71437500D03*
D14*
X69215000Y-66357500D03*
%TD*%
D13*
%TO.C,MX7*%
X56832500Y-52387500D03*
X66992500Y-52387500D03*
D14*
X65722500Y-54927500D03*
D11*
X61912500Y-52387500D03*
D14*
X59372500Y-57467500D03*
%TD*%
D13*
%TO.C,MX6*%
X47307500Y-33337500D03*
X57467500Y-33337500D03*
D14*
X56197500Y-35877500D03*
D11*
X52387500Y-33337500D03*
D14*
X49847500Y-38417500D03*
%TD*%
D13*
%TO.C,MX5*%
X40798750Y-109537500D03*
X30638750Y-109537500D03*
D14*
X31908750Y-106997500D03*
D11*
X35718750Y-109537500D03*
D14*
X38258750Y-104457500D03*
%TD*%
D11*
%TO.C,MX4*%
X33305750Y-98742500D03*
X57181750Y-98742500D03*
D12*
X33305750Y-83502500D03*
X57181750Y-83502500D03*
D13*
X50323750Y-90487500D03*
X40163750Y-90487500D03*
D14*
X41433750Y-87947500D03*
D11*
X45243750Y-90487500D03*
D14*
X47783750Y-85407500D03*
%TD*%
D13*
%TO.C,MX3*%
X45561250Y-71437500D03*
X35401250Y-71437500D03*
D14*
X36671250Y-68897500D03*
D11*
X40481250Y-71437500D03*
D14*
X43021250Y-66357500D03*
%TD*%
D13*
%TO.C,MX2*%
X43180000Y-52387500D03*
X33020000Y-52387500D03*
D14*
X34290000Y-49847500D03*
D11*
X38100000Y-52387500D03*
D14*
X40640000Y-47307500D03*
%TD*%
D13*
%TO.C,MX1*%
X28257500Y-33337500D03*
X38417500Y-33337500D03*
D14*
X37147500Y-35877500D03*
D11*
X33337500Y-33337500D03*
D14*
X30797500Y-38417500D03*
%TD*%
M02*
