%TF.GenerationSoftware,KiCad,Pcbnew,(5.1.10)-1*%
%TF.CreationDate,2021-07-03T15:19:39+09:00*%
%TF.ProjectId,pcb,7063622e-6b69-4636-9164-5f7063625858,rev?*%
%TF.SameCoordinates,Original*%
%TF.FileFunction,OtherDrawing,Comment*%
%FSLAX46Y46*%
G04 Gerber Fmt 4.6, Leading zero omitted, Abs format (unit mm)*
G04 Created by KiCad (PCBNEW (5.1.10)-1) date 2021-07-03 15:19:39*
%MOMM*%
%LPD*%
G01*
G04 APERTURE LIST*
%ADD10C,0.150000*%
G04 APERTURE END LIST*
D10*
%TO.C,REF\u002A\u002A*%
X42451000Y-22474000D02*
X42451000Y-25624000D01*
%TO.C,USB1*%
X37948000Y-22225000D02*
X46888000Y-22225000D01*
X37948000Y-22225000D02*
X37948000Y-29525000D01*
X46888000Y-22225000D02*
X46888000Y-29525000D01*
X37948000Y-29525000D02*
X46888000Y-29525000D01*
%TO.C,MX61*%
X285750000Y-119062500D02*
X285750000Y-100012500D01*
X309562500Y-119062500D02*
X285750000Y-119062500D01*
X309562500Y-100012500D02*
X309562500Y-119062500D01*
X285750000Y-100012500D02*
X309562500Y-100012500D01*
X290656250Y-102537500D02*
X290656250Y-104537500D01*
X292656250Y-102537500D02*
X290656250Y-102537500D01*
X290656250Y-116537500D02*
X292656250Y-116537500D01*
X290656250Y-114537500D02*
X290656250Y-116537500D01*
X304656250Y-116537500D02*
X304656250Y-114537500D01*
X302656250Y-116537500D02*
X304656250Y-116537500D01*
X304656250Y-102537500D02*
X304656250Y-104537500D01*
X302656250Y-102537500D02*
X304656250Y-102537500D01*
%TO.C,MX60*%
X257175000Y-100012500D02*
X257175000Y-80962500D01*
X309562500Y-100012500D02*
X257175000Y-100012500D01*
X309562500Y-80962500D02*
X309562500Y-100012500D01*
X257175000Y-80962500D02*
X309562500Y-80962500D01*
X276368750Y-83487500D02*
X276368750Y-85487500D01*
X278368750Y-83487500D02*
X276368750Y-83487500D01*
X276368750Y-97487500D02*
X278368750Y-97487500D01*
X276368750Y-95487500D02*
X276368750Y-97487500D01*
X290368750Y-97487500D02*
X290368750Y-95487500D01*
X288368750Y-97487500D02*
X290368750Y-97487500D01*
X290368750Y-83487500D02*
X290368750Y-85487500D01*
X288368750Y-83487500D02*
X290368750Y-83487500D01*
%TO.C,MX59*%
X266700000Y-80962500D02*
X266700000Y-61912500D01*
X309562500Y-80962500D02*
X266700000Y-80962500D01*
X309562500Y-61912500D02*
X309562500Y-80962500D01*
X266700000Y-61912500D02*
X309562500Y-61912500D01*
X281131250Y-64437500D02*
X281131250Y-66437500D01*
X283131250Y-64437500D02*
X281131250Y-64437500D01*
X281131250Y-78437500D02*
X283131250Y-78437500D01*
X281131250Y-76437500D02*
X281131250Y-78437500D01*
X295131250Y-78437500D02*
X295131250Y-76437500D01*
X293131250Y-78437500D02*
X295131250Y-78437500D01*
X295131250Y-64437500D02*
X295131250Y-66437500D01*
X293131250Y-64437500D02*
X295131250Y-64437500D01*
%TO.C,MX58*%
X309562500Y-42862500D02*
X309562500Y-61912500D01*
X280987500Y-42862500D02*
X309562500Y-42862500D01*
X280987500Y-61912500D02*
X280987500Y-42862500D01*
X309562500Y-61912500D02*
X280987500Y-61912500D01*
X302275000Y-59387500D02*
X302275000Y-57387500D01*
X300275000Y-59387500D02*
X302275000Y-59387500D01*
X302275000Y-45387500D02*
X300275000Y-45387500D01*
X302275000Y-47387500D02*
X302275000Y-45387500D01*
X288275000Y-45387500D02*
X288275000Y-47387500D01*
X290275000Y-45387500D02*
X288275000Y-45387500D01*
X288275000Y-59387500D02*
X288275000Y-57387500D01*
X290275000Y-59387500D02*
X288275000Y-59387500D01*
%TO.C,MX57*%
X271462500Y-42862500D02*
X271462500Y-23812500D01*
X309562500Y-42862500D02*
X271462500Y-42862500D01*
X309562500Y-23812500D02*
X309562500Y-42862500D01*
X271462500Y-23812500D02*
X309562500Y-23812500D01*
X283512500Y-26337500D02*
X283512500Y-28337500D01*
X285512500Y-26337500D02*
X283512500Y-26337500D01*
X283512500Y-40337500D02*
X285512500Y-40337500D01*
X283512500Y-38337500D02*
X283512500Y-40337500D01*
X297512500Y-40337500D02*
X297512500Y-38337500D01*
X295512500Y-40337500D02*
X297512500Y-40337500D01*
X297512500Y-26337500D02*
X297512500Y-28337500D01*
X295512500Y-26337500D02*
X297512500Y-26337500D01*
%TO.C,MX56*%
X261937500Y-119062500D02*
X261937500Y-100012500D01*
X285750000Y-119062500D02*
X261937500Y-119062500D01*
X285750000Y-100012500D02*
X285750000Y-119062500D01*
X261937500Y-100012500D02*
X285750000Y-100012500D01*
X266843750Y-102537500D02*
X266843750Y-104537500D01*
X268843750Y-102537500D02*
X266843750Y-102537500D01*
X266843750Y-116537500D02*
X268843750Y-116537500D01*
X266843750Y-114537500D02*
X266843750Y-116537500D01*
X280843750Y-116537500D02*
X280843750Y-114537500D01*
X278843750Y-116537500D02*
X280843750Y-116537500D01*
X280843750Y-102537500D02*
X280843750Y-104537500D01*
X278843750Y-102537500D02*
X280843750Y-102537500D01*
%TO.C,MX55*%
X261937500Y-61912500D02*
X261937500Y-42862500D01*
X280987500Y-61912500D02*
X261937500Y-61912500D01*
X280987500Y-42862500D02*
X280987500Y-61912500D01*
X261937500Y-42862500D02*
X280987500Y-42862500D01*
X264462500Y-45387500D02*
X264462500Y-47387500D01*
X266462500Y-45387500D02*
X264462500Y-45387500D01*
X264462500Y-59387500D02*
X266462500Y-59387500D01*
X264462500Y-57387500D02*
X264462500Y-59387500D01*
X278462500Y-59387500D02*
X278462500Y-57387500D01*
X276462500Y-59387500D02*
X278462500Y-59387500D01*
X278462500Y-45387500D02*
X278462500Y-47387500D01*
X276462500Y-45387500D02*
X278462500Y-45387500D01*
%TO.C,MX54*%
X252412500Y-42862500D02*
X252412500Y-23812500D01*
X271462500Y-42862500D02*
X252412500Y-42862500D01*
X271462500Y-23812500D02*
X271462500Y-42862500D01*
X252412500Y-23812500D02*
X271462500Y-23812500D01*
X254937500Y-26337500D02*
X254937500Y-28337500D01*
X256937500Y-26337500D02*
X254937500Y-26337500D01*
X254937500Y-40337500D02*
X256937500Y-40337500D01*
X254937500Y-38337500D02*
X254937500Y-40337500D01*
X268937500Y-40337500D02*
X268937500Y-38337500D01*
X266937500Y-40337500D02*
X268937500Y-40337500D01*
X268937500Y-26337500D02*
X268937500Y-28337500D01*
X266937500Y-26337500D02*
X268937500Y-26337500D01*
%TO.C,MX53*%
X238125000Y-119062500D02*
X238125000Y-100012500D01*
X261937500Y-119062500D02*
X238125000Y-119062500D01*
X261937500Y-100012500D02*
X261937500Y-119062500D01*
X238125000Y-100012500D02*
X261937500Y-100012500D01*
X243031250Y-102537500D02*
X243031250Y-104537500D01*
X245031250Y-102537500D02*
X243031250Y-102537500D01*
X243031250Y-116537500D02*
X245031250Y-116537500D01*
X243031250Y-114537500D02*
X243031250Y-116537500D01*
X257031250Y-116537500D02*
X257031250Y-114537500D01*
X255031250Y-116537500D02*
X257031250Y-116537500D01*
X257031250Y-102537500D02*
X257031250Y-104537500D01*
X255031250Y-102537500D02*
X257031250Y-102537500D01*
%TO.C,MX52*%
X238125000Y-100012500D02*
X238125000Y-80962500D01*
X257175000Y-100012500D02*
X238125000Y-100012500D01*
X257175000Y-80962500D02*
X257175000Y-100012500D01*
X238125000Y-80962500D02*
X257175000Y-80962500D01*
X240650000Y-83487500D02*
X240650000Y-85487500D01*
X242650000Y-83487500D02*
X240650000Y-83487500D01*
X240650000Y-97487500D02*
X242650000Y-97487500D01*
X240650000Y-95487500D02*
X240650000Y-97487500D01*
X254650000Y-97487500D02*
X254650000Y-95487500D01*
X252650000Y-97487500D02*
X254650000Y-97487500D01*
X254650000Y-83487500D02*
X254650000Y-85487500D01*
X252650000Y-83487500D02*
X254650000Y-83487500D01*
%TO.C,MX51*%
X247650000Y-80962500D02*
X247650000Y-61912500D01*
X266700000Y-80962500D02*
X247650000Y-80962500D01*
X266700000Y-61912500D02*
X266700000Y-80962500D01*
X247650000Y-61912500D02*
X266700000Y-61912500D01*
X250175000Y-64437500D02*
X250175000Y-66437500D01*
X252175000Y-64437500D02*
X250175000Y-64437500D01*
X250175000Y-78437500D02*
X252175000Y-78437500D01*
X250175000Y-76437500D02*
X250175000Y-78437500D01*
X264175000Y-78437500D02*
X264175000Y-76437500D01*
X262175000Y-78437500D02*
X264175000Y-78437500D01*
X264175000Y-64437500D02*
X264175000Y-66437500D01*
X262175000Y-64437500D02*
X264175000Y-64437500D01*
%TO.C,MX50*%
X242887500Y-61912500D02*
X242887500Y-42862500D01*
X261937500Y-61912500D02*
X242887500Y-61912500D01*
X261937500Y-42862500D02*
X261937500Y-61912500D01*
X242887500Y-42862500D02*
X261937500Y-42862500D01*
X245412500Y-45387500D02*
X245412500Y-47387500D01*
X247412500Y-45387500D02*
X245412500Y-45387500D01*
X245412500Y-59387500D02*
X247412500Y-59387500D01*
X245412500Y-57387500D02*
X245412500Y-59387500D01*
X259412500Y-59387500D02*
X259412500Y-57387500D01*
X257412500Y-59387500D02*
X259412500Y-59387500D01*
X259412500Y-45387500D02*
X259412500Y-47387500D01*
X257412500Y-45387500D02*
X259412500Y-45387500D01*
%TO.C,MX49*%
X233362500Y-42862500D02*
X233362500Y-23812500D01*
X252412500Y-42862500D02*
X233362500Y-42862500D01*
X252412500Y-23812500D02*
X252412500Y-42862500D01*
X233362500Y-23812500D02*
X252412500Y-23812500D01*
X235887500Y-26337500D02*
X235887500Y-28337500D01*
X237887500Y-26337500D02*
X235887500Y-26337500D01*
X235887500Y-40337500D02*
X237887500Y-40337500D01*
X235887500Y-38337500D02*
X235887500Y-40337500D01*
X249887500Y-40337500D02*
X249887500Y-38337500D01*
X247887500Y-40337500D02*
X249887500Y-40337500D01*
X249887500Y-26337500D02*
X249887500Y-28337500D01*
X247887500Y-26337500D02*
X249887500Y-26337500D01*
%TO.C,MX48*%
X238125000Y-100012500D02*
X238125000Y-119062500D01*
X214312500Y-100012500D02*
X238125000Y-100012500D01*
X214312500Y-119062500D02*
X214312500Y-100012500D01*
X238125000Y-119062500D02*
X214312500Y-119062500D01*
X233218750Y-116537500D02*
X233218750Y-114537500D01*
X231218750Y-116537500D02*
X233218750Y-116537500D01*
X233218750Y-102537500D02*
X231218750Y-102537500D01*
X233218750Y-104537500D02*
X233218750Y-102537500D01*
X219218750Y-102537500D02*
X219218750Y-104537500D01*
X221218750Y-102537500D02*
X219218750Y-102537500D01*
X219218750Y-116537500D02*
X219218750Y-114537500D01*
X221218750Y-116537500D02*
X219218750Y-116537500D01*
%TO.C,MX47*%
X219075000Y-100012500D02*
X219075000Y-80962500D01*
X238125000Y-100012500D02*
X219075000Y-100012500D01*
X238125000Y-80962500D02*
X238125000Y-100012500D01*
X219075000Y-80962500D02*
X238125000Y-80962500D01*
X221600000Y-83487500D02*
X221600000Y-85487500D01*
X223600000Y-83487500D02*
X221600000Y-83487500D01*
X221600000Y-97487500D02*
X223600000Y-97487500D01*
X221600000Y-95487500D02*
X221600000Y-97487500D01*
X235600000Y-97487500D02*
X235600000Y-95487500D01*
X233600000Y-97487500D02*
X235600000Y-97487500D01*
X235600000Y-83487500D02*
X235600000Y-85487500D01*
X233600000Y-83487500D02*
X235600000Y-83487500D01*
%TO.C,MX46*%
X228600000Y-80962500D02*
X228600000Y-61912500D01*
X247650000Y-80962500D02*
X228600000Y-80962500D01*
X247650000Y-61912500D02*
X247650000Y-80962500D01*
X228600000Y-61912500D02*
X247650000Y-61912500D01*
X231125000Y-64437500D02*
X231125000Y-66437500D01*
X233125000Y-64437500D02*
X231125000Y-64437500D01*
X231125000Y-78437500D02*
X233125000Y-78437500D01*
X231125000Y-76437500D02*
X231125000Y-78437500D01*
X245125000Y-78437500D02*
X245125000Y-76437500D01*
X243125000Y-78437500D02*
X245125000Y-78437500D01*
X245125000Y-64437500D02*
X245125000Y-66437500D01*
X243125000Y-64437500D02*
X245125000Y-64437500D01*
%TO.C,MX45*%
X223837500Y-61912500D02*
X223837500Y-42862500D01*
X242887500Y-61912500D02*
X223837500Y-61912500D01*
X242887500Y-42862500D02*
X242887500Y-61912500D01*
X223837500Y-42862500D02*
X242887500Y-42862500D01*
X226362500Y-45387500D02*
X226362500Y-47387500D01*
X228362500Y-45387500D02*
X226362500Y-45387500D01*
X226362500Y-59387500D02*
X228362500Y-59387500D01*
X226362500Y-57387500D02*
X226362500Y-59387500D01*
X240362500Y-59387500D02*
X240362500Y-57387500D01*
X238362500Y-59387500D02*
X240362500Y-59387500D01*
X240362500Y-45387500D02*
X240362500Y-47387500D01*
X238362500Y-45387500D02*
X240362500Y-45387500D01*
%TO.C,MX44*%
X214312500Y-42862500D02*
X214312500Y-23812500D01*
X233362500Y-42862500D02*
X214312500Y-42862500D01*
X233362500Y-23812500D02*
X233362500Y-42862500D01*
X214312500Y-23812500D02*
X233362500Y-23812500D01*
X216837500Y-26337500D02*
X216837500Y-28337500D01*
X218837500Y-26337500D02*
X216837500Y-26337500D01*
X216837500Y-40337500D02*
X218837500Y-40337500D01*
X216837500Y-38337500D02*
X216837500Y-40337500D01*
X230837500Y-40337500D02*
X230837500Y-38337500D01*
X228837500Y-40337500D02*
X230837500Y-40337500D01*
X230837500Y-26337500D02*
X230837500Y-28337500D01*
X228837500Y-26337500D02*
X230837500Y-26337500D01*
%TO.C,MX43*%
X200025000Y-100012500D02*
X200025000Y-80962500D01*
X219075000Y-100012500D02*
X200025000Y-100012500D01*
X219075000Y-80962500D02*
X219075000Y-100012500D01*
X200025000Y-80962500D02*
X219075000Y-80962500D01*
X202550000Y-83487500D02*
X202550000Y-85487500D01*
X204550000Y-83487500D02*
X202550000Y-83487500D01*
X202550000Y-97487500D02*
X204550000Y-97487500D01*
X202550000Y-95487500D02*
X202550000Y-97487500D01*
X216550000Y-97487500D02*
X216550000Y-95487500D01*
X214550000Y-97487500D02*
X216550000Y-97487500D01*
X216550000Y-83487500D02*
X216550000Y-85487500D01*
X214550000Y-83487500D02*
X216550000Y-83487500D01*
%TO.C,MX42*%
X209550000Y-80962500D02*
X209550000Y-61912500D01*
X228600000Y-80962500D02*
X209550000Y-80962500D01*
X228600000Y-61912500D02*
X228600000Y-80962500D01*
X209550000Y-61912500D02*
X228600000Y-61912500D01*
X212075000Y-64437500D02*
X212075000Y-66437500D01*
X214075000Y-64437500D02*
X212075000Y-64437500D01*
X212075000Y-78437500D02*
X214075000Y-78437500D01*
X212075000Y-76437500D02*
X212075000Y-78437500D01*
X226075000Y-78437500D02*
X226075000Y-76437500D01*
X224075000Y-78437500D02*
X226075000Y-78437500D01*
X226075000Y-64437500D02*
X226075000Y-66437500D01*
X224075000Y-64437500D02*
X226075000Y-64437500D01*
%TO.C,MX41*%
X204787500Y-61912500D02*
X204787500Y-42862500D01*
X223837500Y-61912500D02*
X204787500Y-61912500D01*
X223837500Y-42862500D02*
X223837500Y-61912500D01*
X204787500Y-42862500D02*
X223837500Y-42862500D01*
X207312500Y-45387500D02*
X207312500Y-47387500D01*
X209312500Y-45387500D02*
X207312500Y-45387500D01*
X207312500Y-59387500D02*
X209312500Y-59387500D01*
X207312500Y-57387500D02*
X207312500Y-59387500D01*
X221312500Y-59387500D02*
X221312500Y-57387500D01*
X219312500Y-59387500D02*
X221312500Y-59387500D01*
X221312500Y-45387500D02*
X221312500Y-47387500D01*
X219312500Y-45387500D02*
X221312500Y-45387500D01*
%TO.C,MX40*%
X195262500Y-42862500D02*
X195262500Y-23812500D01*
X214312500Y-42862500D02*
X195262500Y-42862500D01*
X214312500Y-23812500D02*
X214312500Y-42862500D01*
X195262500Y-23812500D02*
X214312500Y-23812500D01*
X197787500Y-26337500D02*
X197787500Y-28337500D01*
X199787500Y-26337500D02*
X197787500Y-26337500D01*
X197787500Y-40337500D02*
X199787500Y-40337500D01*
X197787500Y-38337500D02*
X197787500Y-40337500D01*
X211787500Y-40337500D02*
X211787500Y-38337500D01*
X209787500Y-40337500D02*
X211787500Y-40337500D01*
X211787500Y-26337500D02*
X211787500Y-28337500D01*
X209787500Y-26337500D02*
X211787500Y-26337500D01*
%TO.C,MX39*%
X180975000Y-100012500D02*
X180975000Y-80962500D01*
X200025000Y-100012500D02*
X180975000Y-100012500D01*
X200025000Y-80962500D02*
X200025000Y-100012500D01*
X180975000Y-80962500D02*
X200025000Y-80962500D01*
X183500000Y-83487500D02*
X183500000Y-85487500D01*
X185500000Y-83487500D02*
X183500000Y-83487500D01*
X183500000Y-97487500D02*
X185500000Y-97487500D01*
X183500000Y-95487500D02*
X183500000Y-97487500D01*
X197500000Y-97487500D02*
X197500000Y-95487500D01*
X195500000Y-97487500D02*
X197500000Y-97487500D01*
X197500000Y-83487500D02*
X197500000Y-85487500D01*
X195500000Y-83487500D02*
X197500000Y-83487500D01*
%TO.C,MX38*%
X190500000Y-80962500D02*
X190500000Y-61912500D01*
X209550000Y-80962500D02*
X190500000Y-80962500D01*
X209550000Y-61912500D02*
X209550000Y-80962500D01*
X190500000Y-61912500D02*
X209550000Y-61912500D01*
X193025000Y-64437500D02*
X193025000Y-66437500D01*
X195025000Y-64437500D02*
X193025000Y-64437500D01*
X193025000Y-78437500D02*
X195025000Y-78437500D01*
X193025000Y-76437500D02*
X193025000Y-78437500D01*
X207025000Y-78437500D02*
X207025000Y-76437500D01*
X205025000Y-78437500D02*
X207025000Y-78437500D01*
X207025000Y-64437500D02*
X207025000Y-66437500D01*
X205025000Y-64437500D02*
X207025000Y-64437500D01*
%TO.C,MX37*%
X185737500Y-61912500D02*
X185737500Y-42862500D01*
X204787500Y-61912500D02*
X185737500Y-61912500D01*
X204787500Y-42862500D02*
X204787500Y-61912500D01*
X185737500Y-42862500D02*
X204787500Y-42862500D01*
X188262500Y-45387500D02*
X188262500Y-47387500D01*
X190262500Y-45387500D02*
X188262500Y-45387500D01*
X188262500Y-59387500D02*
X190262500Y-59387500D01*
X188262500Y-57387500D02*
X188262500Y-59387500D01*
X202262500Y-59387500D02*
X202262500Y-57387500D01*
X200262500Y-59387500D02*
X202262500Y-59387500D01*
X202262500Y-45387500D02*
X202262500Y-47387500D01*
X200262500Y-45387500D02*
X202262500Y-45387500D01*
%TO.C,MX36*%
X176212500Y-42862500D02*
X176212500Y-23812500D01*
X195262500Y-42862500D02*
X176212500Y-42862500D01*
X195262500Y-23812500D02*
X195262500Y-42862500D01*
X176212500Y-23812500D02*
X195262500Y-23812500D01*
X178737500Y-26337500D02*
X178737500Y-28337500D01*
X180737500Y-26337500D02*
X178737500Y-26337500D01*
X178737500Y-40337500D02*
X180737500Y-40337500D01*
X178737500Y-38337500D02*
X178737500Y-40337500D01*
X192737500Y-40337500D02*
X192737500Y-38337500D01*
X190737500Y-40337500D02*
X192737500Y-40337500D01*
X192737500Y-26337500D02*
X192737500Y-28337500D01*
X190737500Y-26337500D02*
X192737500Y-26337500D01*
%TO.C,MX35*%
X161925000Y-100012500D02*
X161925000Y-80962500D01*
X180975000Y-100012500D02*
X161925000Y-100012500D01*
X180975000Y-80962500D02*
X180975000Y-100012500D01*
X161925000Y-80962500D02*
X180975000Y-80962500D01*
X164450000Y-83487500D02*
X164450000Y-85487500D01*
X166450000Y-83487500D02*
X164450000Y-83487500D01*
X164450000Y-97487500D02*
X166450000Y-97487500D01*
X164450000Y-95487500D02*
X164450000Y-97487500D01*
X178450000Y-97487500D02*
X178450000Y-95487500D01*
X176450000Y-97487500D02*
X178450000Y-97487500D01*
X178450000Y-83487500D02*
X178450000Y-85487500D01*
X176450000Y-83487500D02*
X178450000Y-83487500D01*
%TO.C,MX34*%
X171450000Y-80962500D02*
X171450000Y-61912500D01*
X190500000Y-80962500D02*
X171450000Y-80962500D01*
X190500000Y-61912500D02*
X190500000Y-80962500D01*
X171450000Y-61912500D02*
X190500000Y-61912500D01*
X173975000Y-64437500D02*
X173975000Y-66437500D01*
X175975000Y-64437500D02*
X173975000Y-64437500D01*
X173975000Y-78437500D02*
X175975000Y-78437500D01*
X173975000Y-76437500D02*
X173975000Y-78437500D01*
X187975000Y-78437500D02*
X187975000Y-76437500D01*
X185975000Y-78437500D02*
X187975000Y-78437500D01*
X187975000Y-64437500D02*
X187975000Y-66437500D01*
X185975000Y-64437500D02*
X187975000Y-64437500D01*
%TO.C,MX33*%
X166687500Y-61912500D02*
X166687500Y-42862500D01*
X185737500Y-61912500D02*
X166687500Y-61912500D01*
X185737500Y-42862500D02*
X185737500Y-61912500D01*
X166687500Y-42862500D02*
X185737500Y-42862500D01*
X169212500Y-45387500D02*
X169212500Y-47387500D01*
X171212500Y-45387500D02*
X169212500Y-45387500D01*
X169212500Y-59387500D02*
X171212500Y-59387500D01*
X169212500Y-57387500D02*
X169212500Y-59387500D01*
X183212500Y-59387500D02*
X183212500Y-57387500D01*
X181212500Y-59387500D02*
X183212500Y-59387500D01*
X183212500Y-45387500D02*
X183212500Y-47387500D01*
X181212500Y-45387500D02*
X183212500Y-45387500D01*
%TO.C,MX32*%
X157162500Y-42862500D02*
X157162500Y-23812500D01*
X176212500Y-42862500D02*
X157162500Y-42862500D01*
X176212500Y-23812500D02*
X176212500Y-42862500D01*
X157162500Y-23812500D02*
X176212500Y-23812500D01*
X159687500Y-26337500D02*
X159687500Y-28337500D01*
X161687500Y-26337500D02*
X159687500Y-26337500D01*
X159687500Y-40337500D02*
X161687500Y-40337500D01*
X159687500Y-38337500D02*
X159687500Y-40337500D01*
X173687500Y-40337500D02*
X173687500Y-38337500D01*
X171687500Y-40337500D02*
X173687500Y-40337500D01*
X173687500Y-26337500D02*
X173687500Y-28337500D01*
X171687500Y-26337500D02*
X173687500Y-26337500D01*
%TO.C,MX31*%
X95250000Y-119062500D02*
X95250000Y-100012500D01*
X214312500Y-119062500D02*
X95250000Y-119062500D01*
X214312500Y-100012500D02*
X214312500Y-119062500D01*
X95250000Y-100012500D02*
X214312500Y-100012500D01*
X147781250Y-102537500D02*
X147781250Y-104537500D01*
X149781250Y-102537500D02*
X147781250Y-102537500D01*
X147781250Y-116537500D02*
X149781250Y-116537500D01*
X147781250Y-114537500D02*
X147781250Y-116537500D01*
X161781250Y-116537500D02*
X161781250Y-114537500D01*
X159781250Y-116537500D02*
X161781250Y-116537500D01*
X161781250Y-102537500D02*
X161781250Y-104537500D01*
X159781250Y-102537500D02*
X161781250Y-102537500D01*
%TO.C,MX30*%
X142875000Y-100012500D02*
X142875000Y-80962500D01*
X161925000Y-100012500D02*
X142875000Y-100012500D01*
X161925000Y-80962500D02*
X161925000Y-100012500D01*
X142875000Y-80962500D02*
X161925000Y-80962500D01*
X145400000Y-83487500D02*
X145400000Y-85487500D01*
X147400000Y-83487500D02*
X145400000Y-83487500D01*
X145400000Y-97487500D02*
X147400000Y-97487500D01*
X145400000Y-95487500D02*
X145400000Y-97487500D01*
X159400000Y-97487500D02*
X159400000Y-95487500D01*
X157400000Y-97487500D02*
X159400000Y-97487500D01*
X159400000Y-83487500D02*
X159400000Y-85487500D01*
X157400000Y-83487500D02*
X159400000Y-83487500D01*
%TO.C,MX29*%
X152400000Y-80962500D02*
X152400000Y-61912500D01*
X171450000Y-80962500D02*
X152400000Y-80962500D01*
X171450000Y-61912500D02*
X171450000Y-80962500D01*
X152400000Y-61912500D02*
X171450000Y-61912500D01*
X154925000Y-64437500D02*
X154925000Y-66437500D01*
X156925000Y-64437500D02*
X154925000Y-64437500D01*
X154925000Y-78437500D02*
X156925000Y-78437500D01*
X154925000Y-76437500D02*
X154925000Y-78437500D01*
X168925000Y-78437500D02*
X168925000Y-76437500D01*
X166925000Y-78437500D02*
X168925000Y-78437500D01*
X168925000Y-64437500D02*
X168925000Y-66437500D01*
X166925000Y-64437500D02*
X168925000Y-64437500D01*
%TO.C,MX28*%
X147637500Y-61912500D02*
X147637500Y-42862500D01*
X166687500Y-61912500D02*
X147637500Y-61912500D01*
X166687500Y-42862500D02*
X166687500Y-61912500D01*
X147637500Y-42862500D02*
X166687500Y-42862500D01*
X150162500Y-45387500D02*
X150162500Y-47387500D01*
X152162500Y-45387500D02*
X150162500Y-45387500D01*
X150162500Y-59387500D02*
X152162500Y-59387500D01*
X150162500Y-57387500D02*
X150162500Y-59387500D01*
X164162500Y-59387500D02*
X164162500Y-57387500D01*
X162162500Y-59387500D02*
X164162500Y-59387500D01*
X164162500Y-45387500D02*
X164162500Y-47387500D01*
X162162500Y-45387500D02*
X164162500Y-45387500D01*
%TO.C,MX27*%
X138112500Y-42862500D02*
X138112500Y-23812500D01*
X157162500Y-42862500D02*
X138112500Y-42862500D01*
X157162500Y-23812500D02*
X157162500Y-42862500D01*
X138112500Y-23812500D02*
X157162500Y-23812500D01*
X140637500Y-26337500D02*
X140637500Y-28337500D01*
X142637500Y-26337500D02*
X140637500Y-26337500D01*
X140637500Y-40337500D02*
X142637500Y-40337500D01*
X140637500Y-38337500D02*
X140637500Y-40337500D01*
X154637500Y-40337500D02*
X154637500Y-38337500D01*
X152637500Y-40337500D02*
X154637500Y-40337500D01*
X154637500Y-26337500D02*
X154637500Y-28337500D01*
X152637500Y-26337500D02*
X154637500Y-26337500D01*
%TO.C,MX26*%
X123825000Y-100012500D02*
X123825000Y-80962500D01*
X142875000Y-100012500D02*
X123825000Y-100012500D01*
X142875000Y-80962500D02*
X142875000Y-100012500D01*
X123825000Y-80962500D02*
X142875000Y-80962500D01*
X126350000Y-83487500D02*
X126350000Y-85487500D01*
X128350000Y-83487500D02*
X126350000Y-83487500D01*
X126350000Y-97487500D02*
X128350000Y-97487500D01*
X126350000Y-95487500D02*
X126350000Y-97487500D01*
X140350000Y-97487500D02*
X140350000Y-95487500D01*
X138350000Y-97487500D02*
X140350000Y-97487500D01*
X140350000Y-83487500D02*
X140350000Y-85487500D01*
X138350000Y-83487500D02*
X140350000Y-83487500D01*
%TO.C,MX25*%
X133350000Y-80962500D02*
X133350000Y-61912500D01*
X152400000Y-80962500D02*
X133350000Y-80962500D01*
X152400000Y-61912500D02*
X152400000Y-80962500D01*
X133350000Y-61912500D02*
X152400000Y-61912500D01*
X135875000Y-64437500D02*
X135875000Y-66437500D01*
X137875000Y-64437500D02*
X135875000Y-64437500D01*
X135875000Y-78437500D02*
X137875000Y-78437500D01*
X135875000Y-76437500D02*
X135875000Y-78437500D01*
X149875000Y-78437500D02*
X149875000Y-76437500D01*
X147875000Y-78437500D02*
X149875000Y-78437500D01*
X149875000Y-64437500D02*
X149875000Y-66437500D01*
X147875000Y-64437500D02*
X149875000Y-64437500D01*
%TO.C,MX24*%
X128587500Y-61912500D02*
X128587500Y-42862500D01*
X147637500Y-61912500D02*
X128587500Y-61912500D01*
X147637500Y-42862500D02*
X147637500Y-61912500D01*
X128587500Y-42862500D02*
X147637500Y-42862500D01*
X131112500Y-45387500D02*
X131112500Y-47387500D01*
X133112500Y-45387500D02*
X131112500Y-45387500D01*
X131112500Y-59387500D02*
X133112500Y-59387500D01*
X131112500Y-57387500D02*
X131112500Y-59387500D01*
X145112500Y-59387500D02*
X145112500Y-57387500D01*
X143112500Y-59387500D02*
X145112500Y-59387500D01*
X145112500Y-45387500D02*
X145112500Y-47387500D01*
X143112500Y-45387500D02*
X145112500Y-45387500D01*
%TO.C,MX23*%
X119062500Y-42862500D02*
X119062500Y-23812500D01*
X138112500Y-42862500D02*
X119062500Y-42862500D01*
X138112500Y-23812500D02*
X138112500Y-42862500D01*
X119062500Y-23812500D02*
X138112500Y-23812500D01*
X121587500Y-26337500D02*
X121587500Y-28337500D01*
X123587500Y-26337500D02*
X121587500Y-26337500D01*
X121587500Y-40337500D02*
X123587500Y-40337500D01*
X121587500Y-38337500D02*
X121587500Y-40337500D01*
X135587500Y-40337500D02*
X135587500Y-38337500D01*
X133587500Y-40337500D02*
X135587500Y-40337500D01*
X135587500Y-26337500D02*
X135587500Y-28337500D01*
X133587500Y-26337500D02*
X135587500Y-26337500D01*
%TO.C,MX22*%
X104775000Y-100012500D02*
X104775000Y-80962500D01*
X123825000Y-100012500D02*
X104775000Y-100012500D01*
X123825000Y-80962500D02*
X123825000Y-100012500D01*
X104775000Y-80962500D02*
X123825000Y-80962500D01*
X107300000Y-83487500D02*
X107300000Y-85487500D01*
X109300000Y-83487500D02*
X107300000Y-83487500D01*
X107300000Y-97487500D02*
X109300000Y-97487500D01*
X107300000Y-95487500D02*
X107300000Y-97487500D01*
X121300000Y-97487500D02*
X121300000Y-95487500D01*
X119300000Y-97487500D02*
X121300000Y-97487500D01*
X121300000Y-83487500D02*
X121300000Y-85487500D01*
X119300000Y-83487500D02*
X121300000Y-83487500D01*
%TO.C,MX21*%
X114300000Y-80962500D02*
X114300000Y-61912500D01*
X133350000Y-80962500D02*
X114300000Y-80962500D01*
X133350000Y-61912500D02*
X133350000Y-80962500D01*
X114300000Y-61912500D02*
X133350000Y-61912500D01*
X116825000Y-64437500D02*
X116825000Y-66437500D01*
X118825000Y-64437500D02*
X116825000Y-64437500D01*
X116825000Y-78437500D02*
X118825000Y-78437500D01*
X116825000Y-76437500D02*
X116825000Y-78437500D01*
X130825000Y-78437500D02*
X130825000Y-76437500D01*
X128825000Y-78437500D02*
X130825000Y-78437500D01*
X130825000Y-64437500D02*
X130825000Y-66437500D01*
X128825000Y-64437500D02*
X130825000Y-64437500D01*
%TO.C,MX20*%
X109537500Y-61912500D02*
X109537500Y-42862500D01*
X128587500Y-61912500D02*
X109537500Y-61912500D01*
X128587500Y-42862500D02*
X128587500Y-61912500D01*
X109537500Y-42862500D02*
X128587500Y-42862500D01*
X112062500Y-45387500D02*
X112062500Y-47387500D01*
X114062500Y-45387500D02*
X112062500Y-45387500D01*
X112062500Y-59387500D02*
X114062500Y-59387500D01*
X112062500Y-57387500D02*
X112062500Y-59387500D01*
X126062500Y-59387500D02*
X126062500Y-57387500D01*
X124062500Y-59387500D02*
X126062500Y-59387500D01*
X126062500Y-45387500D02*
X126062500Y-47387500D01*
X124062500Y-45387500D02*
X126062500Y-45387500D01*
%TO.C,MX19*%
X100012500Y-42862500D02*
X100012500Y-23812500D01*
X119062500Y-42862500D02*
X100012500Y-42862500D01*
X119062500Y-23812500D02*
X119062500Y-42862500D01*
X100012500Y-23812500D02*
X119062500Y-23812500D01*
X102537500Y-26337500D02*
X102537500Y-28337500D01*
X104537500Y-26337500D02*
X102537500Y-26337500D01*
X102537500Y-40337500D02*
X104537500Y-40337500D01*
X102537500Y-38337500D02*
X102537500Y-40337500D01*
X116537500Y-40337500D02*
X116537500Y-38337500D01*
X114537500Y-40337500D02*
X116537500Y-40337500D01*
X116537500Y-26337500D02*
X116537500Y-28337500D01*
X114537500Y-26337500D02*
X116537500Y-26337500D01*
%TO.C,MX18*%
X85725000Y-100012500D02*
X85725000Y-80962500D01*
X104775000Y-100012500D02*
X85725000Y-100012500D01*
X104775000Y-80962500D02*
X104775000Y-100012500D01*
X85725000Y-80962500D02*
X104775000Y-80962500D01*
X88250000Y-83487500D02*
X88250000Y-85487500D01*
X90250000Y-83487500D02*
X88250000Y-83487500D01*
X88250000Y-97487500D02*
X90250000Y-97487500D01*
X88250000Y-95487500D02*
X88250000Y-97487500D01*
X102250000Y-97487500D02*
X102250000Y-95487500D01*
X100250000Y-97487500D02*
X102250000Y-97487500D01*
X102250000Y-83487500D02*
X102250000Y-85487500D01*
X100250000Y-83487500D02*
X102250000Y-83487500D01*
%TO.C,MX17*%
X95250000Y-80962500D02*
X95250000Y-61912500D01*
X114300000Y-80962500D02*
X95250000Y-80962500D01*
X114300000Y-61912500D02*
X114300000Y-80962500D01*
X95250000Y-61912500D02*
X114300000Y-61912500D01*
X97775000Y-64437500D02*
X97775000Y-66437500D01*
X99775000Y-64437500D02*
X97775000Y-64437500D01*
X97775000Y-78437500D02*
X99775000Y-78437500D01*
X97775000Y-76437500D02*
X97775000Y-78437500D01*
X111775000Y-78437500D02*
X111775000Y-76437500D01*
X109775000Y-78437500D02*
X111775000Y-78437500D01*
X111775000Y-64437500D02*
X111775000Y-66437500D01*
X109775000Y-64437500D02*
X111775000Y-64437500D01*
%TO.C,MX16*%
X90487500Y-61912500D02*
X90487500Y-42862500D01*
X109537500Y-61912500D02*
X90487500Y-61912500D01*
X109537500Y-42862500D02*
X109537500Y-61912500D01*
X90487500Y-42862500D02*
X109537500Y-42862500D01*
X93012500Y-45387500D02*
X93012500Y-47387500D01*
X95012500Y-45387500D02*
X93012500Y-45387500D01*
X93012500Y-59387500D02*
X95012500Y-59387500D01*
X93012500Y-57387500D02*
X93012500Y-59387500D01*
X107012500Y-59387500D02*
X107012500Y-57387500D01*
X105012500Y-59387500D02*
X107012500Y-59387500D01*
X107012500Y-45387500D02*
X107012500Y-47387500D01*
X105012500Y-45387500D02*
X107012500Y-45387500D01*
%TO.C,MX15*%
X80962500Y-42862500D02*
X80962500Y-23812500D01*
X100012500Y-42862500D02*
X80962500Y-42862500D01*
X100012500Y-23812500D02*
X100012500Y-42862500D01*
X80962500Y-23812500D02*
X100012500Y-23812500D01*
X83487500Y-26337500D02*
X83487500Y-28337500D01*
X85487500Y-26337500D02*
X83487500Y-26337500D01*
X83487500Y-40337500D02*
X85487500Y-40337500D01*
X83487500Y-38337500D02*
X83487500Y-40337500D01*
X97487500Y-40337500D02*
X97487500Y-38337500D01*
X95487500Y-40337500D02*
X97487500Y-40337500D01*
X97487500Y-26337500D02*
X97487500Y-28337500D01*
X95487500Y-26337500D02*
X97487500Y-26337500D01*
%TO.C,MX14*%
X71437500Y-119062500D02*
X71437500Y-100012500D01*
X95250000Y-119062500D02*
X71437500Y-119062500D01*
X95250000Y-100012500D02*
X95250000Y-119062500D01*
X71437500Y-100012500D02*
X95250000Y-100012500D01*
X76343750Y-102537500D02*
X76343750Y-104537500D01*
X78343750Y-102537500D02*
X76343750Y-102537500D01*
X76343750Y-116537500D02*
X78343750Y-116537500D01*
X76343750Y-114537500D02*
X76343750Y-116537500D01*
X90343750Y-116537500D02*
X90343750Y-114537500D01*
X88343750Y-116537500D02*
X90343750Y-116537500D01*
X90343750Y-102537500D02*
X90343750Y-104537500D01*
X88343750Y-102537500D02*
X90343750Y-102537500D01*
%TO.C,MX13*%
X66675000Y-100012500D02*
X66675000Y-80962500D01*
X85725000Y-100012500D02*
X66675000Y-100012500D01*
X85725000Y-80962500D02*
X85725000Y-100012500D01*
X66675000Y-80962500D02*
X85725000Y-80962500D01*
X69200000Y-83487500D02*
X69200000Y-85487500D01*
X71200000Y-83487500D02*
X69200000Y-83487500D01*
X69200000Y-97487500D02*
X71200000Y-97487500D01*
X69200000Y-95487500D02*
X69200000Y-97487500D01*
X83200000Y-97487500D02*
X83200000Y-95487500D01*
X81200000Y-97487500D02*
X83200000Y-97487500D01*
X83200000Y-83487500D02*
X83200000Y-85487500D01*
X81200000Y-83487500D02*
X83200000Y-83487500D01*
%TO.C,MX12*%
X76200000Y-80962500D02*
X76200000Y-61912500D01*
X95250000Y-80962500D02*
X76200000Y-80962500D01*
X95250000Y-61912500D02*
X95250000Y-80962500D01*
X76200000Y-61912500D02*
X95250000Y-61912500D01*
X78725000Y-64437500D02*
X78725000Y-66437500D01*
X80725000Y-64437500D02*
X78725000Y-64437500D01*
X78725000Y-78437500D02*
X80725000Y-78437500D01*
X78725000Y-76437500D02*
X78725000Y-78437500D01*
X92725000Y-78437500D02*
X92725000Y-76437500D01*
X90725000Y-78437500D02*
X92725000Y-78437500D01*
X92725000Y-64437500D02*
X92725000Y-66437500D01*
X90725000Y-64437500D02*
X92725000Y-64437500D01*
%TO.C,MX11*%
X71437500Y-61912500D02*
X71437500Y-42862500D01*
X90487500Y-61912500D02*
X71437500Y-61912500D01*
X90487500Y-42862500D02*
X90487500Y-61912500D01*
X71437500Y-42862500D02*
X90487500Y-42862500D01*
X73962500Y-45387500D02*
X73962500Y-47387500D01*
X75962500Y-45387500D02*
X73962500Y-45387500D01*
X73962500Y-59387500D02*
X75962500Y-59387500D01*
X73962500Y-57387500D02*
X73962500Y-59387500D01*
X87962500Y-59387500D02*
X87962500Y-57387500D01*
X85962500Y-59387500D02*
X87962500Y-59387500D01*
X87962500Y-45387500D02*
X87962500Y-47387500D01*
X85962500Y-45387500D02*
X87962500Y-45387500D01*
%TO.C,MX10*%
X61912500Y-42862500D02*
X61912500Y-23812500D01*
X80962500Y-42862500D02*
X61912500Y-42862500D01*
X80962500Y-23812500D02*
X80962500Y-42862500D01*
X61912500Y-23812500D02*
X80962500Y-23812500D01*
X64437500Y-26337500D02*
X64437500Y-28337500D01*
X66437500Y-26337500D02*
X64437500Y-26337500D01*
X64437500Y-40337500D02*
X66437500Y-40337500D01*
X64437500Y-38337500D02*
X64437500Y-40337500D01*
X78437500Y-40337500D02*
X78437500Y-38337500D01*
X76437500Y-40337500D02*
X78437500Y-40337500D01*
X78437500Y-26337500D02*
X78437500Y-28337500D01*
X76437500Y-26337500D02*
X78437500Y-26337500D01*
%TO.C,MX9*%
X47625000Y-119062500D02*
X47625000Y-100012500D01*
X71437500Y-119062500D02*
X47625000Y-119062500D01*
X71437500Y-100012500D02*
X71437500Y-119062500D01*
X47625000Y-100012500D02*
X71437500Y-100012500D01*
X52531250Y-102537500D02*
X52531250Y-104537500D01*
X54531250Y-102537500D02*
X52531250Y-102537500D01*
X52531250Y-116537500D02*
X54531250Y-116537500D01*
X52531250Y-114537500D02*
X52531250Y-116537500D01*
X66531250Y-116537500D02*
X66531250Y-114537500D01*
X64531250Y-116537500D02*
X66531250Y-116537500D01*
X66531250Y-102537500D02*
X66531250Y-104537500D01*
X64531250Y-102537500D02*
X66531250Y-102537500D01*
%TO.C,MX8*%
X57150000Y-80962500D02*
X57150000Y-61912500D01*
X76200000Y-80962500D02*
X57150000Y-80962500D01*
X76200000Y-61912500D02*
X76200000Y-80962500D01*
X57150000Y-61912500D02*
X76200000Y-61912500D01*
X59675000Y-64437500D02*
X59675000Y-66437500D01*
X61675000Y-64437500D02*
X59675000Y-64437500D01*
X59675000Y-78437500D02*
X61675000Y-78437500D01*
X59675000Y-76437500D02*
X59675000Y-78437500D01*
X73675000Y-78437500D02*
X73675000Y-76437500D01*
X71675000Y-78437500D02*
X73675000Y-78437500D01*
X73675000Y-64437500D02*
X73675000Y-66437500D01*
X71675000Y-64437500D02*
X73675000Y-64437500D01*
%TO.C,MX7*%
X71437500Y-42862500D02*
X71437500Y-61912500D01*
X52387500Y-42862500D02*
X71437500Y-42862500D01*
X52387500Y-61912500D02*
X52387500Y-42862500D01*
X71437500Y-61912500D02*
X52387500Y-61912500D01*
X68912500Y-59387500D02*
X68912500Y-57387500D01*
X66912500Y-59387500D02*
X68912500Y-59387500D01*
X68912500Y-45387500D02*
X66912500Y-45387500D01*
X68912500Y-47387500D02*
X68912500Y-45387500D01*
X54912500Y-45387500D02*
X54912500Y-47387500D01*
X56912500Y-45387500D02*
X54912500Y-45387500D01*
X54912500Y-59387500D02*
X54912500Y-57387500D01*
X56912500Y-59387500D02*
X54912500Y-59387500D01*
%TO.C,MX6*%
X61912500Y-23812500D02*
X61912500Y-42862500D01*
X42862500Y-23812500D02*
X61912500Y-23812500D01*
X42862500Y-42862500D02*
X42862500Y-23812500D01*
X61912500Y-42862500D02*
X42862500Y-42862500D01*
X59387500Y-40337500D02*
X59387500Y-38337500D01*
X57387500Y-40337500D02*
X59387500Y-40337500D01*
X59387500Y-26337500D02*
X57387500Y-26337500D01*
X59387500Y-28337500D02*
X59387500Y-26337500D01*
X45387500Y-26337500D02*
X45387500Y-28337500D01*
X47387500Y-26337500D02*
X45387500Y-26337500D01*
X45387500Y-40337500D02*
X45387500Y-38337500D01*
X47387500Y-40337500D02*
X45387500Y-40337500D01*
%TO.C,MX5*%
X23812500Y-119062500D02*
X23812500Y-100012500D01*
X47625000Y-119062500D02*
X23812500Y-119062500D01*
X47625000Y-100012500D02*
X47625000Y-119062500D01*
X23812500Y-100012500D02*
X47625000Y-100012500D01*
X28718750Y-102537500D02*
X28718750Y-104537500D01*
X30718750Y-102537500D02*
X28718750Y-102537500D01*
X28718750Y-116537500D02*
X30718750Y-116537500D01*
X28718750Y-114537500D02*
X28718750Y-116537500D01*
X42718750Y-116537500D02*
X42718750Y-114537500D01*
X40718750Y-116537500D02*
X42718750Y-116537500D01*
X42718750Y-102537500D02*
X42718750Y-104537500D01*
X40718750Y-102537500D02*
X42718750Y-102537500D01*
%TO.C,MX4*%
X23812500Y-100012500D02*
X23812500Y-80962500D01*
X66675000Y-100012500D02*
X23812500Y-100012500D01*
X66675000Y-80962500D02*
X66675000Y-100012500D01*
X23812500Y-80962500D02*
X66675000Y-80962500D01*
X38243750Y-83487500D02*
X38243750Y-85487500D01*
X40243750Y-83487500D02*
X38243750Y-83487500D01*
X38243750Y-97487500D02*
X40243750Y-97487500D01*
X38243750Y-95487500D02*
X38243750Y-97487500D01*
X52243750Y-97487500D02*
X52243750Y-95487500D01*
X50243750Y-97487500D02*
X52243750Y-97487500D01*
X52243750Y-83487500D02*
X52243750Y-85487500D01*
X50243750Y-83487500D02*
X52243750Y-83487500D01*
%TO.C,MX3*%
X23812500Y-80962500D02*
X23812500Y-61912500D01*
X57150000Y-80962500D02*
X23812500Y-80962500D01*
X57150000Y-61912500D02*
X57150000Y-80962500D01*
X23812500Y-61912500D02*
X57150000Y-61912500D01*
X33481250Y-64437500D02*
X33481250Y-66437500D01*
X35481250Y-64437500D02*
X33481250Y-64437500D01*
X33481250Y-78437500D02*
X35481250Y-78437500D01*
X33481250Y-76437500D02*
X33481250Y-78437500D01*
X47481250Y-78437500D02*
X47481250Y-76437500D01*
X45481250Y-78437500D02*
X47481250Y-78437500D01*
X47481250Y-64437500D02*
X47481250Y-66437500D01*
X45481250Y-64437500D02*
X47481250Y-64437500D01*
%TO.C,MX2*%
X23812500Y-61912500D02*
X23812500Y-42862500D01*
X52387500Y-61912500D02*
X23812500Y-61912500D01*
X52387500Y-42862500D02*
X52387500Y-61912500D01*
X23812500Y-42862500D02*
X52387500Y-42862500D01*
X31100000Y-45387500D02*
X31100000Y-47387500D01*
X33100000Y-45387500D02*
X31100000Y-45387500D01*
X31100000Y-59387500D02*
X33100000Y-59387500D01*
X31100000Y-57387500D02*
X31100000Y-59387500D01*
X45100000Y-59387500D02*
X45100000Y-57387500D01*
X43100000Y-59387500D02*
X45100000Y-59387500D01*
X45100000Y-45387500D02*
X45100000Y-47387500D01*
X43100000Y-45387500D02*
X45100000Y-45387500D01*
%TO.C,MX1*%
X42862500Y-23812500D02*
X42862500Y-42862500D01*
X23812500Y-23812500D02*
X42862500Y-23812500D01*
X23812500Y-42862500D02*
X23812500Y-23812500D01*
X42862500Y-42862500D02*
X23812500Y-42862500D01*
X40337500Y-40337500D02*
X40337500Y-38337500D01*
X38337500Y-40337500D02*
X40337500Y-40337500D01*
X40337500Y-26337500D02*
X38337500Y-26337500D01*
X40337500Y-28337500D02*
X40337500Y-26337500D01*
X26337500Y-26337500D02*
X26337500Y-28337500D01*
X28337500Y-26337500D02*
X26337500Y-26337500D01*
X26337500Y-40337500D02*
X26337500Y-38337500D01*
X28337500Y-40337500D02*
X26337500Y-40337500D01*
%TD*%
%TO.C,USB1*%
X33275142Y-21527380D02*
X33275142Y-20527380D01*
X33275142Y-21003571D02*
X33846571Y-21003571D01*
X33846571Y-21527380D02*
X33846571Y-20527380D01*
X34894190Y-21527380D02*
X34560857Y-21051190D01*
X34322761Y-21527380D02*
X34322761Y-20527380D01*
X34703714Y-20527380D01*
X34798952Y-20575000D01*
X34846571Y-20622619D01*
X34894190Y-20717857D01*
X34894190Y-20860714D01*
X34846571Y-20955952D01*
X34798952Y-21003571D01*
X34703714Y-21051190D01*
X34322761Y-21051190D01*
X35513238Y-20527380D02*
X35703714Y-20527380D01*
X35798952Y-20575000D01*
X35894190Y-20670238D01*
X35941809Y-20860714D01*
X35941809Y-21194047D01*
X35894190Y-21384523D01*
X35798952Y-21479761D01*
X35703714Y-21527380D01*
X35513238Y-21527380D01*
X35418000Y-21479761D01*
X35322761Y-21384523D01*
X35275142Y-21194047D01*
X35275142Y-20860714D01*
X35322761Y-20670238D01*
X35418000Y-20575000D01*
X35513238Y-20527380D01*
X36370380Y-21146428D02*
X37132285Y-21146428D01*
X37465619Y-20527380D02*
X38037047Y-20527380D01*
X37751333Y-21527380D02*
X37751333Y-20527380D01*
X38560857Y-21051190D02*
X38560857Y-21527380D01*
X38227523Y-20527380D02*
X38560857Y-21051190D01*
X38894190Y-20527380D01*
X39227523Y-21527380D02*
X39227523Y-20527380D01*
X39608476Y-20527380D01*
X39703714Y-20575000D01*
X39751333Y-20622619D01*
X39798952Y-20717857D01*
X39798952Y-20860714D01*
X39751333Y-20955952D01*
X39703714Y-21003571D01*
X39608476Y-21051190D01*
X39227523Y-21051190D01*
X40227523Y-21003571D02*
X40560857Y-21003571D01*
X40703714Y-21527380D02*
X40227523Y-21527380D01*
X40227523Y-20527380D01*
X40703714Y-20527380D01*
X41132285Y-21146428D02*
X41894190Y-21146428D01*
X42941809Y-21432142D02*
X42894190Y-21479761D01*
X42751333Y-21527380D01*
X42656095Y-21527380D01*
X42513238Y-21479761D01*
X42418000Y-21384523D01*
X42370380Y-21289285D01*
X42322761Y-21098809D01*
X42322761Y-20955952D01*
X42370380Y-20765476D01*
X42418000Y-20670238D01*
X42513238Y-20575000D01*
X42656095Y-20527380D01*
X42751333Y-20527380D01*
X42894190Y-20575000D01*
X42941809Y-20622619D01*
X43370380Y-21146428D02*
X44132285Y-21146428D01*
X44513238Y-20527380D02*
X45132285Y-20527380D01*
X44798952Y-20908333D01*
X44941809Y-20908333D01*
X45037047Y-20955952D01*
X45084666Y-21003571D01*
X45132285Y-21098809D01*
X45132285Y-21336904D01*
X45084666Y-21432142D01*
X45037047Y-21479761D01*
X44941809Y-21527380D01*
X44656095Y-21527380D01*
X44560857Y-21479761D01*
X44513238Y-21432142D01*
X46084666Y-21527380D02*
X45513238Y-21527380D01*
X45798952Y-21527380D02*
X45798952Y-20527380D01*
X45703714Y-20670238D01*
X45608476Y-20765476D01*
X45513238Y-20813095D01*
X46513238Y-21146428D02*
X47275142Y-21146428D01*
X47751333Y-21527380D02*
X47751333Y-20527380D01*
X48084666Y-21241666D01*
X48418000Y-20527380D01*
X48418000Y-21527380D01*
X48894190Y-21146428D02*
X49656095Y-21146428D01*
X50656095Y-21527380D02*
X50084666Y-21527380D01*
X50370380Y-21527380D02*
X50370380Y-20527380D01*
X50275142Y-20670238D01*
X50179904Y-20765476D01*
X50084666Y-20813095D01*
X51037047Y-20622619D02*
X51084666Y-20575000D01*
X51179904Y-20527380D01*
X51418000Y-20527380D01*
X51513238Y-20575000D01*
X51560857Y-20622619D01*
X51608476Y-20717857D01*
X51608476Y-20813095D01*
X51560857Y-20955952D01*
X50989428Y-21527380D01*
X51608476Y-21527380D01*
%TO.C,MX61*%
X293894345Y-102052380D02*
X293894345Y-101052380D01*
X294227678Y-101766666D01*
X294561011Y-101052380D01*
X294561011Y-102052380D01*
X294941964Y-101052380D02*
X295608630Y-102052380D01*
X295608630Y-101052380D02*
X294941964Y-102052380D01*
X295989583Y-101671428D02*
X296751488Y-101671428D01*
X297227678Y-102052380D02*
X297227678Y-101052380D01*
X297799107Y-102052380D01*
X297799107Y-101052380D01*
X298418154Y-102052380D02*
X298322916Y-102004761D01*
X298275297Y-101957142D01*
X298227678Y-101861904D01*
X298227678Y-101576190D01*
X298275297Y-101480952D01*
X298322916Y-101433333D01*
X298418154Y-101385714D01*
X298561011Y-101385714D01*
X298656250Y-101433333D01*
X298703869Y-101480952D01*
X298751488Y-101576190D01*
X298751488Y-101861904D01*
X298703869Y-101957142D01*
X298656250Y-102004761D01*
X298561011Y-102052380D01*
X298418154Y-102052380D01*
X299656250Y-102052380D02*
X299180059Y-102052380D01*
X299180059Y-101052380D01*
X299989583Y-101528571D02*
X300322916Y-101528571D01*
X300465773Y-102052380D02*
X299989583Y-102052380D01*
X299989583Y-101052380D01*
X300465773Y-101052380D01*
X300894345Y-102052380D02*
X300894345Y-101052380D01*
X301132440Y-101052380D01*
X301275297Y-101100000D01*
X301370535Y-101195238D01*
X301418154Y-101290476D01*
X301465773Y-101480952D01*
X301465773Y-101623809D01*
X301418154Y-101814285D01*
X301370535Y-101909523D01*
X301275297Y-102004761D01*
X301132440Y-102052380D01*
X300894345Y-102052380D01*
%TO.C,MX60*%
X279606845Y-83002380D02*
X279606845Y-82002380D01*
X279940178Y-82716666D01*
X280273511Y-82002380D01*
X280273511Y-83002380D01*
X280654464Y-82002380D02*
X281321130Y-83002380D01*
X281321130Y-82002380D02*
X280654464Y-83002380D01*
X281702083Y-82621428D02*
X282463988Y-82621428D01*
X282940178Y-83002380D02*
X282940178Y-82002380D01*
X283511607Y-83002380D01*
X283511607Y-82002380D01*
X284130654Y-83002380D02*
X284035416Y-82954761D01*
X283987797Y-82907142D01*
X283940178Y-82811904D01*
X283940178Y-82526190D01*
X283987797Y-82430952D01*
X284035416Y-82383333D01*
X284130654Y-82335714D01*
X284273511Y-82335714D01*
X284368750Y-82383333D01*
X284416369Y-82430952D01*
X284463988Y-82526190D01*
X284463988Y-82811904D01*
X284416369Y-82907142D01*
X284368750Y-82954761D01*
X284273511Y-83002380D01*
X284130654Y-83002380D01*
X285368750Y-83002380D02*
X284892559Y-83002380D01*
X284892559Y-82002380D01*
X285702083Y-82478571D02*
X286035416Y-82478571D01*
X286178273Y-83002380D02*
X285702083Y-83002380D01*
X285702083Y-82002380D01*
X286178273Y-82002380D01*
X286606845Y-83002380D02*
X286606845Y-82002380D01*
X286844940Y-82002380D01*
X286987797Y-82050000D01*
X287083035Y-82145238D01*
X287130654Y-82240476D01*
X287178273Y-82430952D01*
X287178273Y-82573809D01*
X287130654Y-82764285D01*
X287083035Y-82859523D01*
X286987797Y-82954761D01*
X286844940Y-83002380D01*
X286606845Y-83002380D01*
%TO.C,MX59*%
X284369345Y-63952380D02*
X284369345Y-62952380D01*
X284702678Y-63666666D01*
X285036011Y-62952380D01*
X285036011Y-63952380D01*
X285416964Y-62952380D02*
X286083630Y-63952380D01*
X286083630Y-62952380D02*
X285416964Y-63952380D01*
X286464583Y-63571428D02*
X287226488Y-63571428D01*
X287702678Y-63952380D02*
X287702678Y-62952380D01*
X288274107Y-63952380D01*
X288274107Y-62952380D01*
X288893154Y-63952380D02*
X288797916Y-63904761D01*
X288750297Y-63857142D01*
X288702678Y-63761904D01*
X288702678Y-63476190D01*
X288750297Y-63380952D01*
X288797916Y-63333333D01*
X288893154Y-63285714D01*
X289036011Y-63285714D01*
X289131250Y-63333333D01*
X289178869Y-63380952D01*
X289226488Y-63476190D01*
X289226488Y-63761904D01*
X289178869Y-63857142D01*
X289131250Y-63904761D01*
X289036011Y-63952380D01*
X288893154Y-63952380D01*
X290131250Y-63952380D02*
X289655059Y-63952380D01*
X289655059Y-62952380D01*
X290464583Y-63428571D02*
X290797916Y-63428571D01*
X290940773Y-63952380D02*
X290464583Y-63952380D01*
X290464583Y-62952380D01*
X290940773Y-62952380D01*
X291369345Y-63952380D02*
X291369345Y-62952380D01*
X291607440Y-62952380D01*
X291750297Y-63000000D01*
X291845535Y-63095238D01*
X291893154Y-63190476D01*
X291940773Y-63380952D01*
X291940773Y-63523809D01*
X291893154Y-63714285D01*
X291845535Y-63809523D01*
X291750297Y-63904761D01*
X291607440Y-63952380D01*
X291369345Y-63952380D01*
%TO.C,MX58*%
X291513095Y-60777380D02*
X291513095Y-59777380D01*
X291846428Y-60491666D01*
X292179761Y-59777380D01*
X292179761Y-60777380D01*
X292560714Y-59777380D02*
X293227380Y-60777380D01*
X293227380Y-59777380D02*
X292560714Y-60777380D01*
X293608333Y-60396428D02*
X294370238Y-60396428D01*
X294846428Y-60777380D02*
X294846428Y-59777380D01*
X295417857Y-60777380D01*
X295417857Y-59777380D01*
X296036904Y-60777380D02*
X295941666Y-60729761D01*
X295894047Y-60682142D01*
X295846428Y-60586904D01*
X295846428Y-60301190D01*
X295894047Y-60205952D01*
X295941666Y-60158333D01*
X296036904Y-60110714D01*
X296179761Y-60110714D01*
X296275000Y-60158333D01*
X296322619Y-60205952D01*
X296370238Y-60301190D01*
X296370238Y-60586904D01*
X296322619Y-60682142D01*
X296275000Y-60729761D01*
X296179761Y-60777380D01*
X296036904Y-60777380D01*
X297275000Y-60777380D02*
X296798809Y-60777380D01*
X296798809Y-59777380D01*
X297608333Y-60253571D02*
X297941666Y-60253571D01*
X298084523Y-60777380D02*
X297608333Y-60777380D01*
X297608333Y-59777380D01*
X298084523Y-59777380D01*
X298513095Y-60777380D02*
X298513095Y-59777380D01*
X298751190Y-59777380D01*
X298894047Y-59825000D01*
X298989285Y-59920238D01*
X299036904Y-60015476D01*
X299084523Y-60205952D01*
X299084523Y-60348809D01*
X299036904Y-60539285D01*
X298989285Y-60634523D01*
X298894047Y-60729761D01*
X298751190Y-60777380D01*
X298513095Y-60777380D01*
%TO.C,MX57*%
X286750595Y-25852380D02*
X286750595Y-24852380D01*
X287083928Y-25566666D01*
X287417261Y-24852380D01*
X287417261Y-25852380D01*
X287798214Y-24852380D02*
X288464880Y-25852380D01*
X288464880Y-24852380D02*
X287798214Y-25852380D01*
X288845833Y-25471428D02*
X289607738Y-25471428D01*
X290083928Y-25852380D02*
X290083928Y-24852380D01*
X290655357Y-25852380D01*
X290655357Y-24852380D01*
X291274404Y-25852380D02*
X291179166Y-25804761D01*
X291131547Y-25757142D01*
X291083928Y-25661904D01*
X291083928Y-25376190D01*
X291131547Y-25280952D01*
X291179166Y-25233333D01*
X291274404Y-25185714D01*
X291417261Y-25185714D01*
X291512500Y-25233333D01*
X291560119Y-25280952D01*
X291607738Y-25376190D01*
X291607738Y-25661904D01*
X291560119Y-25757142D01*
X291512500Y-25804761D01*
X291417261Y-25852380D01*
X291274404Y-25852380D01*
X292512500Y-25852380D02*
X292036309Y-25852380D01*
X292036309Y-24852380D01*
X292845833Y-25328571D02*
X293179166Y-25328571D01*
X293322023Y-25852380D02*
X292845833Y-25852380D01*
X292845833Y-24852380D01*
X293322023Y-24852380D01*
X293750595Y-25852380D02*
X293750595Y-24852380D01*
X293988690Y-24852380D01*
X294131547Y-24900000D01*
X294226785Y-24995238D01*
X294274404Y-25090476D01*
X294322023Y-25280952D01*
X294322023Y-25423809D01*
X294274404Y-25614285D01*
X294226785Y-25709523D01*
X294131547Y-25804761D01*
X293988690Y-25852380D01*
X293750595Y-25852380D01*
%TO.C,MX56*%
X270081845Y-102052380D02*
X270081845Y-101052380D01*
X270415178Y-101766666D01*
X270748511Y-101052380D01*
X270748511Y-102052380D01*
X271129464Y-101052380D02*
X271796130Y-102052380D01*
X271796130Y-101052380D02*
X271129464Y-102052380D01*
X272177083Y-101671428D02*
X272938988Y-101671428D01*
X273415178Y-102052380D02*
X273415178Y-101052380D01*
X273986607Y-102052380D01*
X273986607Y-101052380D01*
X274605654Y-102052380D02*
X274510416Y-102004761D01*
X274462797Y-101957142D01*
X274415178Y-101861904D01*
X274415178Y-101576190D01*
X274462797Y-101480952D01*
X274510416Y-101433333D01*
X274605654Y-101385714D01*
X274748511Y-101385714D01*
X274843750Y-101433333D01*
X274891369Y-101480952D01*
X274938988Y-101576190D01*
X274938988Y-101861904D01*
X274891369Y-101957142D01*
X274843750Y-102004761D01*
X274748511Y-102052380D01*
X274605654Y-102052380D01*
X275843750Y-102052380D02*
X275367559Y-102052380D01*
X275367559Y-101052380D01*
X276177083Y-101528571D02*
X276510416Y-101528571D01*
X276653273Y-102052380D02*
X276177083Y-102052380D01*
X276177083Y-101052380D01*
X276653273Y-101052380D01*
X277081845Y-102052380D02*
X277081845Y-101052380D01*
X277319940Y-101052380D01*
X277462797Y-101100000D01*
X277558035Y-101195238D01*
X277605654Y-101290476D01*
X277653273Y-101480952D01*
X277653273Y-101623809D01*
X277605654Y-101814285D01*
X277558035Y-101909523D01*
X277462797Y-102004761D01*
X277319940Y-102052380D01*
X277081845Y-102052380D01*
%TO.C,MX55*%
X267700595Y-44902380D02*
X267700595Y-43902380D01*
X268033928Y-44616666D01*
X268367261Y-43902380D01*
X268367261Y-44902380D01*
X268748214Y-43902380D02*
X269414880Y-44902380D01*
X269414880Y-43902380D02*
X268748214Y-44902380D01*
X269795833Y-44521428D02*
X270557738Y-44521428D01*
X271033928Y-44902380D02*
X271033928Y-43902380D01*
X271605357Y-44902380D01*
X271605357Y-43902380D01*
X272224404Y-44902380D02*
X272129166Y-44854761D01*
X272081547Y-44807142D01*
X272033928Y-44711904D01*
X272033928Y-44426190D01*
X272081547Y-44330952D01*
X272129166Y-44283333D01*
X272224404Y-44235714D01*
X272367261Y-44235714D01*
X272462500Y-44283333D01*
X272510119Y-44330952D01*
X272557738Y-44426190D01*
X272557738Y-44711904D01*
X272510119Y-44807142D01*
X272462500Y-44854761D01*
X272367261Y-44902380D01*
X272224404Y-44902380D01*
X273462500Y-44902380D02*
X272986309Y-44902380D01*
X272986309Y-43902380D01*
X273795833Y-44378571D02*
X274129166Y-44378571D01*
X274272023Y-44902380D02*
X273795833Y-44902380D01*
X273795833Y-43902380D01*
X274272023Y-43902380D01*
X274700595Y-44902380D02*
X274700595Y-43902380D01*
X274938690Y-43902380D01*
X275081547Y-43950000D01*
X275176785Y-44045238D01*
X275224404Y-44140476D01*
X275272023Y-44330952D01*
X275272023Y-44473809D01*
X275224404Y-44664285D01*
X275176785Y-44759523D01*
X275081547Y-44854761D01*
X274938690Y-44902380D01*
X274700595Y-44902380D01*
%TO.C,MX54*%
X258175595Y-25852380D02*
X258175595Y-24852380D01*
X258508928Y-25566666D01*
X258842261Y-24852380D01*
X258842261Y-25852380D01*
X259223214Y-24852380D02*
X259889880Y-25852380D01*
X259889880Y-24852380D02*
X259223214Y-25852380D01*
X260270833Y-25471428D02*
X261032738Y-25471428D01*
X261508928Y-25852380D02*
X261508928Y-24852380D01*
X262080357Y-25852380D01*
X262080357Y-24852380D01*
X262699404Y-25852380D02*
X262604166Y-25804761D01*
X262556547Y-25757142D01*
X262508928Y-25661904D01*
X262508928Y-25376190D01*
X262556547Y-25280952D01*
X262604166Y-25233333D01*
X262699404Y-25185714D01*
X262842261Y-25185714D01*
X262937500Y-25233333D01*
X262985119Y-25280952D01*
X263032738Y-25376190D01*
X263032738Y-25661904D01*
X262985119Y-25757142D01*
X262937500Y-25804761D01*
X262842261Y-25852380D01*
X262699404Y-25852380D01*
X263937500Y-25852380D02*
X263461309Y-25852380D01*
X263461309Y-24852380D01*
X264270833Y-25328571D02*
X264604166Y-25328571D01*
X264747023Y-25852380D02*
X264270833Y-25852380D01*
X264270833Y-24852380D01*
X264747023Y-24852380D01*
X265175595Y-25852380D02*
X265175595Y-24852380D01*
X265413690Y-24852380D01*
X265556547Y-24900000D01*
X265651785Y-24995238D01*
X265699404Y-25090476D01*
X265747023Y-25280952D01*
X265747023Y-25423809D01*
X265699404Y-25614285D01*
X265651785Y-25709523D01*
X265556547Y-25804761D01*
X265413690Y-25852380D01*
X265175595Y-25852380D01*
%TO.C,MX53*%
X246269345Y-102052380D02*
X246269345Y-101052380D01*
X246602678Y-101766666D01*
X246936011Y-101052380D01*
X246936011Y-102052380D01*
X247316964Y-101052380D02*
X247983630Y-102052380D01*
X247983630Y-101052380D02*
X247316964Y-102052380D01*
X248364583Y-101671428D02*
X249126488Y-101671428D01*
X249602678Y-102052380D02*
X249602678Y-101052380D01*
X250174107Y-102052380D01*
X250174107Y-101052380D01*
X250793154Y-102052380D02*
X250697916Y-102004761D01*
X250650297Y-101957142D01*
X250602678Y-101861904D01*
X250602678Y-101576190D01*
X250650297Y-101480952D01*
X250697916Y-101433333D01*
X250793154Y-101385714D01*
X250936011Y-101385714D01*
X251031250Y-101433333D01*
X251078869Y-101480952D01*
X251126488Y-101576190D01*
X251126488Y-101861904D01*
X251078869Y-101957142D01*
X251031250Y-102004761D01*
X250936011Y-102052380D01*
X250793154Y-102052380D01*
X252031250Y-102052380D02*
X251555059Y-102052380D01*
X251555059Y-101052380D01*
X252364583Y-101528571D02*
X252697916Y-101528571D01*
X252840773Y-102052380D02*
X252364583Y-102052380D01*
X252364583Y-101052380D01*
X252840773Y-101052380D01*
X253269345Y-102052380D02*
X253269345Y-101052380D01*
X253507440Y-101052380D01*
X253650297Y-101100000D01*
X253745535Y-101195238D01*
X253793154Y-101290476D01*
X253840773Y-101480952D01*
X253840773Y-101623809D01*
X253793154Y-101814285D01*
X253745535Y-101909523D01*
X253650297Y-102004761D01*
X253507440Y-102052380D01*
X253269345Y-102052380D01*
%TO.C,MX52*%
X243888095Y-83002380D02*
X243888095Y-82002380D01*
X244221428Y-82716666D01*
X244554761Y-82002380D01*
X244554761Y-83002380D01*
X244935714Y-82002380D02*
X245602380Y-83002380D01*
X245602380Y-82002380D02*
X244935714Y-83002380D01*
X245983333Y-82621428D02*
X246745238Y-82621428D01*
X247221428Y-83002380D02*
X247221428Y-82002380D01*
X247792857Y-83002380D01*
X247792857Y-82002380D01*
X248411904Y-83002380D02*
X248316666Y-82954761D01*
X248269047Y-82907142D01*
X248221428Y-82811904D01*
X248221428Y-82526190D01*
X248269047Y-82430952D01*
X248316666Y-82383333D01*
X248411904Y-82335714D01*
X248554761Y-82335714D01*
X248650000Y-82383333D01*
X248697619Y-82430952D01*
X248745238Y-82526190D01*
X248745238Y-82811904D01*
X248697619Y-82907142D01*
X248650000Y-82954761D01*
X248554761Y-83002380D01*
X248411904Y-83002380D01*
X249650000Y-83002380D02*
X249173809Y-83002380D01*
X249173809Y-82002380D01*
X249983333Y-82478571D02*
X250316666Y-82478571D01*
X250459523Y-83002380D02*
X249983333Y-83002380D01*
X249983333Y-82002380D01*
X250459523Y-82002380D01*
X250888095Y-83002380D02*
X250888095Y-82002380D01*
X251126190Y-82002380D01*
X251269047Y-82050000D01*
X251364285Y-82145238D01*
X251411904Y-82240476D01*
X251459523Y-82430952D01*
X251459523Y-82573809D01*
X251411904Y-82764285D01*
X251364285Y-82859523D01*
X251269047Y-82954761D01*
X251126190Y-83002380D01*
X250888095Y-83002380D01*
%TO.C,MX51*%
X253413095Y-63952380D02*
X253413095Y-62952380D01*
X253746428Y-63666666D01*
X254079761Y-62952380D01*
X254079761Y-63952380D01*
X254460714Y-62952380D02*
X255127380Y-63952380D01*
X255127380Y-62952380D02*
X254460714Y-63952380D01*
X255508333Y-63571428D02*
X256270238Y-63571428D01*
X256746428Y-63952380D02*
X256746428Y-62952380D01*
X257317857Y-63952380D01*
X257317857Y-62952380D01*
X257936904Y-63952380D02*
X257841666Y-63904761D01*
X257794047Y-63857142D01*
X257746428Y-63761904D01*
X257746428Y-63476190D01*
X257794047Y-63380952D01*
X257841666Y-63333333D01*
X257936904Y-63285714D01*
X258079761Y-63285714D01*
X258175000Y-63333333D01*
X258222619Y-63380952D01*
X258270238Y-63476190D01*
X258270238Y-63761904D01*
X258222619Y-63857142D01*
X258175000Y-63904761D01*
X258079761Y-63952380D01*
X257936904Y-63952380D01*
X259175000Y-63952380D02*
X258698809Y-63952380D01*
X258698809Y-62952380D01*
X259508333Y-63428571D02*
X259841666Y-63428571D01*
X259984523Y-63952380D02*
X259508333Y-63952380D01*
X259508333Y-62952380D01*
X259984523Y-62952380D01*
X260413095Y-63952380D02*
X260413095Y-62952380D01*
X260651190Y-62952380D01*
X260794047Y-63000000D01*
X260889285Y-63095238D01*
X260936904Y-63190476D01*
X260984523Y-63380952D01*
X260984523Y-63523809D01*
X260936904Y-63714285D01*
X260889285Y-63809523D01*
X260794047Y-63904761D01*
X260651190Y-63952380D01*
X260413095Y-63952380D01*
%TO.C,MX50*%
X248650595Y-44902380D02*
X248650595Y-43902380D01*
X248983928Y-44616666D01*
X249317261Y-43902380D01*
X249317261Y-44902380D01*
X249698214Y-43902380D02*
X250364880Y-44902380D01*
X250364880Y-43902380D02*
X249698214Y-44902380D01*
X250745833Y-44521428D02*
X251507738Y-44521428D01*
X251983928Y-44902380D02*
X251983928Y-43902380D01*
X252555357Y-44902380D01*
X252555357Y-43902380D01*
X253174404Y-44902380D02*
X253079166Y-44854761D01*
X253031547Y-44807142D01*
X252983928Y-44711904D01*
X252983928Y-44426190D01*
X253031547Y-44330952D01*
X253079166Y-44283333D01*
X253174404Y-44235714D01*
X253317261Y-44235714D01*
X253412500Y-44283333D01*
X253460119Y-44330952D01*
X253507738Y-44426190D01*
X253507738Y-44711904D01*
X253460119Y-44807142D01*
X253412500Y-44854761D01*
X253317261Y-44902380D01*
X253174404Y-44902380D01*
X254412500Y-44902380D02*
X253936309Y-44902380D01*
X253936309Y-43902380D01*
X254745833Y-44378571D02*
X255079166Y-44378571D01*
X255222023Y-44902380D02*
X254745833Y-44902380D01*
X254745833Y-43902380D01*
X255222023Y-43902380D01*
X255650595Y-44902380D02*
X255650595Y-43902380D01*
X255888690Y-43902380D01*
X256031547Y-43950000D01*
X256126785Y-44045238D01*
X256174404Y-44140476D01*
X256222023Y-44330952D01*
X256222023Y-44473809D01*
X256174404Y-44664285D01*
X256126785Y-44759523D01*
X256031547Y-44854761D01*
X255888690Y-44902380D01*
X255650595Y-44902380D01*
%TO.C,MX49*%
X239125595Y-25852380D02*
X239125595Y-24852380D01*
X239458928Y-25566666D01*
X239792261Y-24852380D01*
X239792261Y-25852380D01*
X240173214Y-24852380D02*
X240839880Y-25852380D01*
X240839880Y-24852380D02*
X240173214Y-25852380D01*
X241220833Y-25471428D02*
X241982738Y-25471428D01*
X242458928Y-25852380D02*
X242458928Y-24852380D01*
X243030357Y-25852380D01*
X243030357Y-24852380D01*
X243649404Y-25852380D02*
X243554166Y-25804761D01*
X243506547Y-25757142D01*
X243458928Y-25661904D01*
X243458928Y-25376190D01*
X243506547Y-25280952D01*
X243554166Y-25233333D01*
X243649404Y-25185714D01*
X243792261Y-25185714D01*
X243887500Y-25233333D01*
X243935119Y-25280952D01*
X243982738Y-25376190D01*
X243982738Y-25661904D01*
X243935119Y-25757142D01*
X243887500Y-25804761D01*
X243792261Y-25852380D01*
X243649404Y-25852380D01*
X244887500Y-25852380D02*
X244411309Y-25852380D01*
X244411309Y-24852380D01*
X245220833Y-25328571D02*
X245554166Y-25328571D01*
X245697023Y-25852380D02*
X245220833Y-25852380D01*
X245220833Y-24852380D01*
X245697023Y-24852380D01*
X246125595Y-25852380D02*
X246125595Y-24852380D01*
X246363690Y-24852380D01*
X246506547Y-24900000D01*
X246601785Y-24995238D01*
X246649404Y-25090476D01*
X246697023Y-25280952D01*
X246697023Y-25423809D01*
X246649404Y-25614285D01*
X246601785Y-25709523D01*
X246506547Y-25804761D01*
X246363690Y-25852380D01*
X246125595Y-25852380D01*
%TO.C,MX48*%
X222456845Y-117927380D02*
X222456845Y-116927380D01*
X222790178Y-117641666D01*
X223123511Y-116927380D01*
X223123511Y-117927380D01*
X223504464Y-116927380D02*
X224171130Y-117927380D01*
X224171130Y-116927380D02*
X223504464Y-117927380D01*
X224552083Y-117546428D02*
X225313988Y-117546428D01*
X225790178Y-117927380D02*
X225790178Y-116927380D01*
X226361607Y-117927380D01*
X226361607Y-116927380D01*
X226980654Y-117927380D02*
X226885416Y-117879761D01*
X226837797Y-117832142D01*
X226790178Y-117736904D01*
X226790178Y-117451190D01*
X226837797Y-117355952D01*
X226885416Y-117308333D01*
X226980654Y-117260714D01*
X227123511Y-117260714D01*
X227218750Y-117308333D01*
X227266369Y-117355952D01*
X227313988Y-117451190D01*
X227313988Y-117736904D01*
X227266369Y-117832142D01*
X227218750Y-117879761D01*
X227123511Y-117927380D01*
X226980654Y-117927380D01*
X228218750Y-117927380D02*
X227742559Y-117927380D01*
X227742559Y-116927380D01*
X228552083Y-117403571D02*
X228885416Y-117403571D01*
X229028273Y-117927380D02*
X228552083Y-117927380D01*
X228552083Y-116927380D01*
X229028273Y-116927380D01*
X229456845Y-117927380D02*
X229456845Y-116927380D01*
X229694940Y-116927380D01*
X229837797Y-116975000D01*
X229933035Y-117070238D01*
X229980654Y-117165476D01*
X230028273Y-117355952D01*
X230028273Y-117498809D01*
X229980654Y-117689285D01*
X229933035Y-117784523D01*
X229837797Y-117879761D01*
X229694940Y-117927380D01*
X229456845Y-117927380D01*
%TO.C,MX47*%
X224838095Y-83002380D02*
X224838095Y-82002380D01*
X225171428Y-82716666D01*
X225504761Y-82002380D01*
X225504761Y-83002380D01*
X225885714Y-82002380D02*
X226552380Y-83002380D01*
X226552380Y-82002380D02*
X225885714Y-83002380D01*
X226933333Y-82621428D02*
X227695238Y-82621428D01*
X228171428Y-83002380D02*
X228171428Y-82002380D01*
X228742857Y-83002380D01*
X228742857Y-82002380D01*
X229361904Y-83002380D02*
X229266666Y-82954761D01*
X229219047Y-82907142D01*
X229171428Y-82811904D01*
X229171428Y-82526190D01*
X229219047Y-82430952D01*
X229266666Y-82383333D01*
X229361904Y-82335714D01*
X229504761Y-82335714D01*
X229600000Y-82383333D01*
X229647619Y-82430952D01*
X229695238Y-82526190D01*
X229695238Y-82811904D01*
X229647619Y-82907142D01*
X229600000Y-82954761D01*
X229504761Y-83002380D01*
X229361904Y-83002380D01*
X230600000Y-83002380D02*
X230123809Y-83002380D01*
X230123809Y-82002380D01*
X230933333Y-82478571D02*
X231266666Y-82478571D01*
X231409523Y-83002380D02*
X230933333Y-83002380D01*
X230933333Y-82002380D01*
X231409523Y-82002380D01*
X231838095Y-83002380D02*
X231838095Y-82002380D01*
X232076190Y-82002380D01*
X232219047Y-82050000D01*
X232314285Y-82145238D01*
X232361904Y-82240476D01*
X232409523Y-82430952D01*
X232409523Y-82573809D01*
X232361904Y-82764285D01*
X232314285Y-82859523D01*
X232219047Y-82954761D01*
X232076190Y-83002380D01*
X231838095Y-83002380D01*
%TO.C,MX46*%
X234363095Y-63952380D02*
X234363095Y-62952380D01*
X234696428Y-63666666D01*
X235029761Y-62952380D01*
X235029761Y-63952380D01*
X235410714Y-62952380D02*
X236077380Y-63952380D01*
X236077380Y-62952380D02*
X235410714Y-63952380D01*
X236458333Y-63571428D02*
X237220238Y-63571428D01*
X237696428Y-63952380D02*
X237696428Y-62952380D01*
X238267857Y-63952380D01*
X238267857Y-62952380D01*
X238886904Y-63952380D02*
X238791666Y-63904761D01*
X238744047Y-63857142D01*
X238696428Y-63761904D01*
X238696428Y-63476190D01*
X238744047Y-63380952D01*
X238791666Y-63333333D01*
X238886904Y-63285714D01*
X239029761Y-63285714D01*
X239125000Y-63333333D01*
X239172619Y-63380952D01*
X239220238Y-63476190D01*
X239220238Y-63761904D01*
X239172619Y-63857142D01*
X239125000Y-63904761D01*
X239029761Y-63952380D01*
X238886904Y-63952380D01*
X240125000Y-63952380D02*
X239648809Y-63952380D01*
X239648809Y-62952380D01*
X240458333Y-63428571D02*
X240791666Y-63428571D01*
X240934523Y-63952380D02*
X240458333Y-63952380D01*
X240458333Y-62952380D01*
X240934523Y-62952380D01*
X241363095Y-63952380D02*
X241363095Y-62952380D01*
X241601190Y-62952380D01*
X241744047Y-63000000D01*
X241839285Y-63095238D01*
X241886904Y-63190476D01*
X241934523Y-63380952D01*
X241934523Y-63523809D01*
X241886904Y-63714285D01*
X241839285Y-63809523D01*
X241744047Y-63904761D01*
X241601190Y-63952380D01*
X241363095Y-63952380D01*
%TO.C,MX45*%
X229600595Y-44902380D02*
X229600595Y-43902380D01*
X229933928Y-44616666D01*
X230267261Y-43902380D01*
X230267261Y-44902380D01*
X230648214Y-43902380D02*
X231314880Y-44902380D01*
X231314880Y-43902380D02*
X230648214Y-44902380D01*
X231695833Y-44521428D02*
X232457738Y-44521428D01*
X232933928Y-44902380D02*
X232933928Y-43902380D01*
X233505357Y-44902380D01*
X233505357Y-43902380D01*
X234124404Y-44902380D02*
X234029166Y-44854761D01*
X233981547Y-44807142D01*
X233933928Y-44711904D01*
X233933928Y-44426190D01*
X233981547Y-44330952D01*
X234029166Y-44283333D01*
X234124404Y-44235714D01*
X234267261Y-44235714D01*
X234362500Y-44283333D01*
X234410119Y-44330952D01*
X234457738Y-44426190D01*
X234457738Y-44711904D01*
X234410119Y-44807142D01*
X234362500Y-44854761D01*
X234267261Y-44902380D01*
X234124404Y-44902380D01*
X235362500Y-44902380D02*
X234886309Y-44902380D01*
X234886309Y-43902380D01*
X235695833Y-44378571D02*
X236029166Y-44378571D01*
X236172023Y-44902380D02*
X235695833Y-44902380D01*
X235695833Y-43902380D01*
X236172023Y-43902380D01*
X236600595Y-44902380D02*
X236600595Y-43902380D01*
X236838690Y-43902380D01*
X236981547Y-43950000D01*
X237076785Y-44045238D01*
X237124404Y-44140476D01*
X237172023Y-44330952D01*
X237172023Y-44473809D01*
X237124404Y-44664285D01*
X237076785Y-44759523D01*
X236981547Y-44854761D01*
X236838690Y-44902380D01*
X236600595Y-44902380D01*
%TO.C,MX44*%
X220075595Y-25852380D02*
X220075595Y-24852380D01*
X220408928Y-25566666D01*
X220742261Y-24852380D01*
X220742261Y-25852380D01*
X221123214Y-24852380D02*
X221789880Y-25852380D01*
X221789880Y-24852380D02*
X221123214Y-25852380D01*
X222170833Y-25471428D02*
X222932738Y-25471428D01*
X223408928Y-25852380D02*
X223408928Y-24852380D01*
X223980357Y-25852380D01*
X223980357Y-24852380D01*
X224599404Y-25852380D02*
X224504166Y-25804761D01*
X224456547Y-25757142D01*
X224408928Y-25661904D01*
X224408928Y-25376190D01*
X224456547Y-25280952D01*
X224504166Y-25233333D01*
X224599404Y-25185714D01*
X224742261Y-25185714D01*
X224837500Y-25233333D01*
X224885119Y-25280952D01*
X224932738Y-25376190D01*
X224932738Y-25661904D01*
X224885119Y-25757142D01*
X224837500Y-25804761D01*
X224742261Y-25852380D01*
X224599404Y-25852380D01*
X225837500Y-25852380D02*
X225361309Y-25852380D01*
X225361309Y-24852380D01*
X226170833Y-25328571D02*
X226504166Y-25328571D01*
X226647023Y-25852380D02*
X226170833Y-25852380D01*
X226170833Y-24852380D01*
X226647023Y-24852380D01*
X227075595Y-25852380D02*
X227075595Y-24852380D01*
X227313690Y-24852380D01*
X227456547Y-24900000D01*
X227551785Y-24995238D01*
X227599404Y-25090476D01*
X227647023Y-25280952D01*
X227647023Y-25423809D01*
X227599404Y-25614285D01*
X227551785Y-25709523D01*
X227456547Y-25804761D01*
X227313690Y-25852380D01*
X227075595Y-25852380D01*
%TO.C,MX43*%
X205788095Y-83002380D02*
X205788095Y-82002380D01*
X206121428Y-82716666D01*
X206454761Y-82002380D01*
X206454761Y-83002380D01*
X206835714Y-82002380D02*
X207502380Y-83002380D01*
X207502380Y-82002380D02*
X206835714Y-83002380D01*
X207883333Y-82621428D02*
X208645238Y-82621428D01*
X209121428Y-83002380D02*
X209121428Y-82002380D01*
X209692857Y-83002380D01*
X209692857Y-82002380D01*
X210311904Y-83002380D02*
X210216666Y-82954761D01*
X210169047Y-82907142D01*
X210121428Y-82811904D01*
X210121428Y-82526190D01*
X210169047Y-82430952D01*
X210216666Y-82383333D01*
X210311904Y-82335714D01*
X210454761Y-82335714D01*
X210550000Y-82383333D01*
X210597619Y-82430952D01*
X210645238Y-82526190D01*
X210645238Y-82811904D01*
X210597619Y-82907142D01*
X210550000Y-82954761D01*
X210454761Y-83002380D01*
X210311904Y-83002380D01*
X211550000Y-83002380D02*
X211073809Y-83002380D01*
X211073809Y-82002380D01*
X211883333Y-82478571D02*
X212216666Y-82478571D01*
X212359523Y-83002380D02*
X211883333Y-83002380D01*
X211883333Y-82002380D01*
X212359523Y-82002380D01*
X212788095Y-83002380D02*
X212788095Y-82002380D01*
X213026190Y-82002380D01*
X213169047Y-82050000D01*
X213264285Y-82145238D01*
X213311904Y-82240476D01*
X213359523Y-82430952D01*
X213359523Y-82573809D01*
X213311904Y-82764285D01*
X213264285Y-82859523D01*
X213169047Y-82954761D01*
X213026190Y-83002380D01*
X212788095Y-83002380D01*
%TO.C,MX42*%
X215313095Y-63952380D02*
X215313095Y-62952380D01*
X215646428Y-63666666D01*
X215979761Y-62952380D01*
X215979761Y-63952380D01*
X216360714Y-62952380D02*
X217027380Y-63952380D01*
X217027380Y-62952380D02*
X216360714Y-63952380D01*
X217408333Y-63571428D02*
X218170238Y-63571428D01*
X218646428Y-63952380D02*
X218646428Y-62952380D01*
X219217857Y-63952380D01*
X219217857Y-62952380D01*
X219836904Y-63952380D02*
X219741666Y-63904761D01*
X219694047Y-63857142D01*
X219646428Y-63761904D01*
X219646428Y-63476190D01*
X219694047Y-63380952D01*
X219741666Y-63333333D01*
X219836904Y-63285714D01*
X219979761Y-63285714D01*
X220075000Y-63333333D01*
X220122619Y-63380952D01*
X220170238Y-63476190D01*
X220170238Y-63761904D01*
X220122619Y-63857142D01*
X220075000Y-63904761D01*
X219979761Y-63952380D01*
X219836904Y-63952380D01*
X221075000Y-63952380D02*
X220598809Y-63952380D01*
X220598809Y-62952380D01*
X221408333Y-63428571D02*
X221741666Y-63428571D01*
X221884523Y-63952380D02*
X221408333Y-63952380D01*
X221408333Y-62952380D01*
X221884523Y-62952380D01*
X222313095Y-63952380D02*
X222313095Y-62952380D01*
X222551190Y-62952380D01*
X222694047Y-63000000D01*
X222789285Y-63095238D01*
X222836904Y-63190476D01*
X222884523Y-63380952D01*
X222884523Y-63523809D01*
X222836904Y-63714285D01*
X222789285Y-63809523D01*
X222694047Y-63904761D01*
X222551190Y-63952380D01*
X222313095Y-63952380D01*
%TO.C,MX41*%
X210550595Y-44902380D02*
X210550595Y-43902380D01*
X210883928Y-44616666D01*
X211217261Y-43902380D01*
X211217261Y-44902380D01*
X211598214Y-43902380D02*
X212264880Y-44902380D01*
X212264880Y-43902380D02*
X211598214Y-44902380D01*
X212645833Y-44521428D02*
X213407738Y-44521428D01*
X213883928Y-44902380D02*
X213883928Y-43902380D01*
X214455357Y-44902380D01*
X214455357Y-43902380D01*
X215074404Y-44902380D02*
X214979166Y-44854761D01*
X214931547Y-44807142D01*
X214883928Y-44711904D01*
X214883928Y-44426190D01*
X214931547Y-44330952D01*
X214979166Y-44283333D01*
X215074404Y-44235714D01*
X215217261Y-44235714D01*
X215312500Y-44283333D01*
X215360119Y-44330952D01*
X215407738Y-44426190D01*
X215407738Y-44711904D01*
X215360119Y-44807142D01*
X215312500Y-44854761D01*
X215217261Y-44902380D01*
X215074404Y-44902380D01*
X216312500Y-44902380D02*
X215836309Y-44902380D01*
X215836309Y-43902380D01*
X216645833Y-44378571D02*
X216979166Y-44378571D01*
X217122023Y-44902380D02*
X216645833Y-44902380D01*
X216645833Y-43902380D01*
X217122023Y-43902380D01*
X217550595Y-44902380D02*
X217550595Y-43902380D01*
X217788690Y-43902380D01*
X217931547Y-43950000D01*
X218026785Y-44045238D01*
X218074404Y-44140476D01*
X218122023Y-44330952D01*
X218122023Y-44473809D01*
X218074404Y-44664285D01*
X218026785Y-44759523D01*
X217931547Y-44854761D01*
X217788690Y-44902380D01*
X217550595Y-44902380D01*
%TO.C,MX40*%
X201025595Y-25852380D02*
X201025595Y-24852380D01*
X201358928Y-25566666D01*
X201692261Y-24852380D01*
X201692261Y-25852380D01*
X202073214Y-24852380D02*
X202739880Y-25852380D01*
X202739880Y-24852380D02*
X202073214Y-25852380D01*
X203120833Y-25471428D02*
X203882738Y-25471428D01*
X204358928Y-25852380D02*
X204358928Y-24852380D01*
X204930357Y-25852380D01*
X204930357Y-24852380D01*
X205549404Y-25852380D02*
X205454166Y-25804761D01*
X205406547Y-25757142D01*
X205358928Y-25661904D01*
X205358928Y-25376190D01*
X205406547Y-25280952D01*
X205454166Y-25233333D01*
X205549404Y-25185714D01*
X205692261Y-25185714D01*
X205787500Y-25233333D01*
X205835119Y-25280952D01*
X205882738Y-25376190D01*
X205882738Y-25661904D01*
X205835119Y-25757142D01*
X205787500Y-25804761D01*
X205692261Y-25852380D01*
X205549404Y-25852380D01*
X206787500Y-25852380D02*
X206311309Y-25852380D01*
X206311309Y-24852380D01*
X207120833Y-25328571D02*
X207454166Y-25328571D01*
X207597023Y-25852380D02*
X207120833Y-25852380D01*
X207120833Y-24852380D01*
X207597023Y-24852380D01*
X208025595Y-25852380D02*
X208025595Y-24852380D01*
X208263690Y-24852380D01*
X208406547Y-24900000D01*
X208501785Y-24995238D01*
X208549404Y-25090476D01*
X208597023Y-25280952D01*
X208597023Y-25423809D01*
X208549404Y-25614285D01*
X208501785Y-25709523D01*
X208406547Y-25804761D01*
X208263690Y-25852380D01*
X208025595Y-25852380D01*
%TO.C,MX39*%
X186738095Y-83002380D02*
X186738095Y-82002380D01*
X187071428Y-82716666D01*
X187404761Y-82002380D01*
X187404761Y-83002380D01*
X187785714Y-82002380D02*
X188452380Y-83002380D01*
X188452380Y-82002380D02*
X187785714Y-83002380D01*
X188833333Y-82621428D02*
X189595238Y-82621428D01*
X190071428Y-83002380D02*
X190071428Y-82002380D01*
X190642857Y-83002380D01*
X190642857Y-82002380D01*
X191261904Y-83002380D02*
X191166666Y-82954761D01*
X191119047Y-82907142D01*
X191071428Y-82811904D01*
X191071428Y-82526190D01*
X191119047Y-82430952D01*
X191166666Y-82383333D01*
X191261904Y-82335714D01*
X191404761Y-82335714D01*
X191500000Y-82383333D01*
X191547619Y-82430952D01*
X191595238Y-82526190D01*
X191595238Y-82811904D01*
X191547619Y-82907142D01*
X191500000Y-82954761D01*
X191404761Y-83002380D01*
X191261904Y-83002380D01*
X192500000Y-83002380D02*
X192023809Y-83002380D01*
X192023809Y-82002380D01*
X192833333Y-82478571D02*
X193166666Y-82478571D01*
X193309523Y-83002380D02*
X192833333Y-83002380D01*
X192833333Y-82002380D01*
X193309523Y-82002380D01*
X193738095Y-83002380D02*
X193738095Y-82002380D01*
X193976190Y-82002380D01*
X194119047Y-82050000D01*
X194214285Y-82145238D01*
X194261904Y-82240476D01*
X194309523Y-82430952D01*
X194309523Y-82573809D01*
X194261904Y-82764285D01*
X194214285Y-82859523D01*
X194119047Y-82954761D01*
X193976190Y-83002380D01*
X193738095Y-83002380D01*
%TO.C,MX38*%
X196263095Y-63952380D02*
X196263095Y-62952380D01*
X196596428Y-63666666D01*
X196929761Y-62952380D01*
X196929761Y-63952380D01*
X197310714Y-62952380D02*
X197977380Y-63952380D01*
X197977380Y-62952380D02*
X197310714Y-63952380D01*
X198358333Y-63571428D02*
X199120238Y-63571428D01*
X199596428Y-63952380D02*
X199596428Y-62952380D01*
X200167857Y-63952380D01*
X200167857Y-62952380D01*
X200786904Y-63952380D02*
X200691666Y-63904761D01*
X200644047Y-63857142D01*
X200596428Y-63761904D01*
X200596428Y-63476190D01*
X200644047Y-63380952D01*
X200691666Y-63333333D01*
X200786904Y-63285714D01*
X200929761Y-63285714D01*
X201025000Y-63333333D01*
X201072619Y-63380952D01*
X201120238Y-63476190D01*
X201120238Y-63761904D01*
X201072619Y-63857142D01*
X201025000Y-63904761D01*
X200929761Y-63952380D01*
X200786904Y-63952380D01*
X202025000Y-63952380D02*
X201548809Y-63952380D01*
X201548809Y-62952380D01*
X202358333Y-63428571D02*
X202691666Y-63428571D01*
X202834523Y-63952380D02*
X202358333Y-63952380D01*
X202358333Y-62952380D01*
X202834523Y-62952380D01*
X203263095Y-63952380D02*
X203263095Y-62952380D01*
X203501190Y-62952380D01*
X203644047Y-63000000D01*
X203739285Y-63095238D01*
X203786904Y-63190476D01*
X203834523Y-63380952D01*
X203834523Y-63523809D01*
X203786904Y-63714285D01*
X203739285Y-63809523D01*
X203644047Y-63904761D01*
X203501190Y-63952380D01*
X203263095Y-63952380D01*
%TO.C,MX37*%
X191500595Y-44902380D02*
X191500595Y-43902380D01*
X191833928Y-44616666D01*
X192167261Y-43902380D01*
X192167261Y-44902380D01*
X192548214Y-43902380D02*
X193214880Y-44902380D01*
X193214880Y-43902380D02*
X192548214Y-44902380D01*
X193595833Y-44521428D02*
X194357738Y-44521428D01*
X194833928Y-44902380D02*
X194833928Y-43902380D01*
X195405357Y-44902380D01*
X195405357Y-43902380D01*
X196024404Y-44902380D02*
X195929166Y-44854761D01*
X195881547Y-44807142D01*
X195833928Y-44711904D01*
X195833928Y-44426190D01*
X195881547Y-44330952D01*
X195929166Y-44283333D01*
X196024404Y-44235714D01*
X196167261Y-44235714D01*
X196262500Y-44283333D01*
X196310119Y-44330952D01*
X196357738Y-44426190D01*
X196357738Y-44711904D01*
X196310119Y-44807142D01*
X196262500Y-44854761D01*
X196167261Y-44902380D01*
X196024404Y-44902380D01*
X197262500Y-44902380D02*
X196786309Y-44902380D01*
X196786309Y-43902380D01*
X197595833Y-44378571D02*
X197929166Y-44378571D01*
X198072023Y-44902380D02*
X197595833Y-44902380D01*
X197595833Y-43902380D01*
X198072023Y-43902380D01*
X198500595Y-44902380D02*
X198500595Y-43902380D01*
X198738690Y-43902380D01*
X198881547Y-43950000D01*
X198976785Y-44045238D01*
X199024404Y-44140476D01*
X199072023Y-44330952D01*
X199072023Y-44473809D01*
X199024404Y-44664285D01*
X198976785Y-44759523D01*
X198881547Y-44854761D01*
X198738690Y-44902380D01*
X198500595Y-44902380D01*
%TO.C,MX36*%
X181975595Y-25852380D02*
X181975595Y-24852380D01*
X182308928Y-25566666D01*
X182642261Y-24852380D01*
X182642261Y-25852380D01*
X183023214Y-24852380D02*
X183689880Y-25852380D01*
X183689880Y-24852380D02*
X183023214Y-25852380D01*
X184070833Y-25471428D02*
X184832738Y-25471428D01*
X185308928Y-25852380D02*
X185308928Y-24852380D01*
X185880357Y-25852380D01*
X185880357Y-24852380D01*
X186499404Y-25852380D02*
X186404166Y-25804761D01*
X186356547Y-25757142D01*
X186308928Y-25661904D01*
X186308928Y-25376190D01*
X186356547Y-25280952D01*
X186404166Y-25233333D01*
X186499404Y-25185714D01*
X186642261Y-25185714D01*
X186737500Y-25233333D01*
X186785119Y-25280952D01*
X186832738Y-25376190D01*
X186832738Y-25661904D01*
X186785119Y-25757142D01*
X186737500Y-25804761D01*
X186642261Y-25852380D01*
X186499404Y-25852380D01*
X187737500Y-25852380D02*
X187261309Y-25852380D01*
X187261309Y-24852380D01*
X188070833Y-25328571D02*
X188404166Y-25328571D01*
X188547023Y-25852380D02*
X188070833Y-25852380D01*
X188070833Y-24852380D01*
X188547023Y-24852380D01*
X188975595Y-25852380D02*
X188975595Y-24852380D01*
X189213690Y-24852380D01*
X189356547Y-24900000D01*
X189451785Y-24995238D01*
X189499404Y-25090476D01*
X189547023Y-25280952D01*
X189547023Y-25423809D01*
X189499404Y-25614285D01*
X189451785Y-25709523D01*
X189356547Y-25804761D01*
X189213690Y-25852380D01*
X188975595Y-25852380D01*
%TO.C,MX35*%
X167688095Y-83002380D02*
X167688095Y-82002380D01*
X168021428Y-82716666D01*
X168354761Y-82002380D01*
X168354761Y-83002380D01*
X168735714Y-82002380D02*
X169402380Y-83002380D01*
X169402380Y-82002380D02*
X168735714Y-83002380D01*
X169783333Y-82621428D02*
X170545238Y-82621428D01*
X171021428Y-83002380D02*
X171021428Y-82002380D01*
X171592857Y-83002380D01*
X171592857Y-82002380D01*
X172211904Y-83002380D02*
X172116666Y-82954761D01*
X172069047Y-82907142D01*
X172021428Y-82811904D01*
X172021428Y-82526190D01*
X172069047Y-82430952D01*
X172116666Y-82383333D01*
X172211904Y-82335714D01*
X172354761Y-82335714D01*
X172450000Y-82383333D01*
X172497619Y-82430952D01*
X172545238Y-82526190D01*
X172545238Y-82811904D01*
X172497619Y-82907142D01*
X172450000Y-82954761D01*
X172354761Y-83002380D01*
X172211904Y-83002380D01*
X173450000Y-83002380D02*
X172973809Y-83002380D01*
X172973809Y-82002380D01*
X173783333Y-82478571D02*
X174116666Y-82478571D01*
X174259523Y-83002380D02*
X173783333Y-83002380D01*
X173783333Y-82002380D01*
X174259523Y-82002380D01*
X174688095Y-83002380D02*
X174688095Y-82002380D01*
X174926190Y-82002380D01*
X175069047Y-82050000D01*
X175164285Y-82145238D01*
X175211904Y-82240476D01*
X175259523Y-82430952D01*
X175259523Y-82573809D01*
X175211904Y-82764285D01*
X175164285Y-82859523D01*
X175069047Y-82954761D01*
X174926190Y-83002380D01*
X174688095Y-83002380D01*
%TO.C,MX34*%
X177213095Y-63952380D02*
X177213095Y-62952380D01*
X177546428Y-63666666D01*
X177879761Y-62952380D01*
X177879761Y-63952380D01*
X178260714Y-62952380D02*
X178927380Y-63952380D01*
X178927380Y-62952380D02*
X178260714Y-63952380D01*
X179308333Y-63571428D02*
X180070238Y-63571428D01*
X180546428Y-63952380D02*
X180546428Y-62952380D01*
X181117857Y-63952380D01*
X181117857Y-62952380D01*
X181736904Y-63952380D02*
X181641666Y-63904761D01*
X181594047Y-63857142D01*
X181546428Y-63761904D01*
X181546428Y-63476190D01*
X181594047Y-63380952D01*
X181641666Y-63333333D01*
X181736904Y-63285714D01*
X181879761Y-63285714D01*
X181975000Y-63333333D01*
X182022619Y-63380952D01*
X182070238Y-63476190D01*
X182070238Y-63761904D01*
X182022619Y-63857142D01*
X181975000Y-63904761D01*
X181879761Y-63952380D01*
X181736904Y-63952380D01*
X182975000Y-63952380D02*
X182498809Y-63952380D01*
X182498809Y-62952380D01*
X183308333Y-63428571D02*
X183641666Y-63428571D01*
X183784523Y-63952380D02*
X183308333Y-63952380D01*
X183308333Y-62952380D01*
X183784523Y-62952380D01*
X184213095Y-63952380D02*
X184213095Y-62952380D01*
X184451190Y-62952380D01*
X184594047Y-63000000D01*
X184689285Y-63095238D01*
X184736904Y-63190476D01*
X184784523Y-63380952D01*
X184784523Y-63523809D01*
X184736904Y-63714285D01*
X184689285Y-63809523D01*
X184594047Y-63904761D01*
X184451190Y-63952380D01*
X184213095Y-63952380D01*
%TO.C,MX33*%
X172450595Y-44902380D02*
X172450595Y-43902380D01*
X172783928Y-44616666D01*
X173117261Y-43902380D01*
X173117261Y-44902380D01*
X173498214Y-43902380D02*
X174164880Y-44902380D01*
X174164880Y-43902380D02*
X173498214Y-44902380D01*
X174545833Y-44521428D02*
X175307738Y-44521428D01*
X175783928Y-44902380D02*
X175783928Y-43902380D01*
X176355357Y-44902380D01*
X176355357Y-43902380D01*
X176974404Y-44902380D02*
X176879166Y-44854761D01*
X176831547Y-44807142D01*
X176783928Y-44711904D01*
X176783928Y-44426190D01*
X176831547Y-44330952D01*
X176879166Y-44283333D01*
X176974404Y-44235714D01*
X177117261Y-44235714D01*
X177212500Y-44283333D01*
X177260119Y-44330952D01*
X177307738Y-44426190D01*
X177307738Y-44711904D01*
X177260119Y-44807142D01*
X177212500Y-44854761D01*
X177117261Y-44902380D01*
X176974404Y-44902380D01*
X178212500Y-44902380D02*
X177736309Y-44902380D01*
X177736309Y-43902380D01*
X178545833Y-44378571D02*
X178879166Y-44378571D01*
X179022023Y-44902380D02*
X178545833Y-44902380D01*
X178545833Y-43902380D01*
X179022023Y-43902380D01*
X179450595Y-44902380D02*
X179450595Y-43902380D01*
X179688690Y-43902380D01*
X179831547Y-43950000D01*
X179926785Y-44045238D01*
X179974404Y-44140476D01*
X180022023Y-44330952D01*
X180022023Y-44473809D01*
X179974404Y-44664285D01*
X179926785Y-44759523D01*
X179831547Y-44854761D01*
X179688690Y-44902380D01*
X179450595Y-44902380D01*
%TO.C,MX32*%
X162925595Y-25852380D02*
X162925595Y-24852380D01*
X163258928Y-25566666D01*
X163592261Y-24852380D01*
X163592261Y-25852380D01*
X163973214Y-24852380D02*
X164639880Y-25852380D01*
X164639880Y-24852380D02*
X163973214Y-25852380D01*
X165020833Y-25471428D02*
X165782738Y-25471428D01*
X166258928Y-25852380D02*
X166258928Y-24852380D01*
X166830357Y-25852380D01*
X166830357Y-24852380D01*
X167449404Y-25852380D02*
X167354166Y-25804761D01*
X167306547Y-25757142D01*
X167258928Y-25661904D01*
X167258928Y-25376190D01*
X167306547Y-25280952D01*
X167354166Y-25233333D01*
X167449404Y-25185714D01*
X167592261Y-25185714D01*
X167687500Y-25233333D01*
X167735119Y-25280952D01*
X167782738Y-25376190D01*
X167782738Y-25661904D01*
X167735119Y-25757142D01*
X167687500Y-25804761D01*
X167592261Y-25852380D01*
X167449404Y-25852380D01*
X168687500Y-25852380D02*
X168211309Y-25852380D01*
X168211309Y-24852380D01*
X169020833Y-25328571D02*
X169354166Y-25328571D01*
X169497023Y-25852380D02*
X169020833Y-25852380D01*
X169020833Y-24852380D01*
X169497023Y-24852380D01*
X169925595Y-25852380D02*
X169925595Y-24852380D01*
X170163690Y-24852380D01*
X170306547Y-24900000D01*
X170401785Y-24995238D01*
X170449404Y-25090476D01*
X170497023Y-25280952D01*
X170497023Y-25423809D01*
X170449404Y-25614285D01*
X170401785Y-25709523D01*
X170306547Y-25804761D01*
X170163690Y-25852380D01*
X169925595Y-25852380D01*
%TO.C,MX31*%
X151019345Y-102052380D02*
X151019345Y-101052380D01*
X151352678Y-101766666D01*
X151686011Y-101052380D01*
X151686011Y-102052380D01*
X152066964Y-101052380D02*
X152733630Y-102052380D01*
X152733630Y-101052380D02*
X152066964Y-102052380D01*
X153114583Y-101671428D02*
X153876488Y-101671428D01*
X154352678Y-102052380D02*
X154352678Y-101052380D01*
X154924107Y-102052380D01*
X154924107Y-101052380D01*
X155543154Y-102052380D02*
X155447916Y-102004761D01*
X155400297Y-101957142D01*
X155352678Y-101861904D01*
X155352678Y-101576190D01*
X155400297Y-101480952D01*
X155447916Y-101433333D01*
X155543154Y-101385714D01*
X155686011Y-101385714D01*
X155781250Y-101433333D01*
X155828869Y-101480952D01*
X155876488Y-101576190D01*
X155876488Y-101861904D01*
X155828869Y-101957142D01*
X155781250Y-102004761D01*
X155686011Y-102052380D01*
X155543154Y-102052380D01*
X156781250Y-102052380D02*
X156305059Y-102052380D01*
X156305059Y-101052380D01*
X157114583Y-101528571D02*
X157447916Y-101528571D01*
X157590773Y-102052380D02*
X157114583Y-102052380D01*
X157114583Y-101052380D01*
X157590773Y-101052380D01*
X158019345Y-102052380D02*
X158019345Y-101052380D01*
X158257440Y-101052380D01*
X158400297Y-101100000D01*
X158495535Y-101195238D01*
X158543154Y-101290476D01*
X158590773Y-101480952D01*
X158590773Y-101623809D01*
X158543154Y-101814285D01*
X158495535Y-101909523D01*
X158400297Y-102004761D01*
X158257440Y-102052380D01*
X158019345Y-102052380D01*
%TO.C,MX30*%
X148638095Y-83002380D02*
X148638095Y-82002380D01*
X148971428Y-82716666D01*
X149304761Y-82002380D01*
X149304761Y-83002380D01*
X149685714Y-82002380D02*
X150352380Y-83002380D01*
X150352380Y-82002380D02*
X149685714Y-83002380D01*
X150733333Y-82621428D02*
X151495238Y-82621428D01*
X151971428Y-83002380D02*
X151971428Y-82002380D01*
X152542857Y-83002380D01*
X152542857Y-82002380D01*
X153161904Y-83002380D02*
X153066666Y-82954761D01*
X153019047Y-82907142D01*
X152971428Y-82811904D01*
X152971428Y-82526190D01*
X153019047Y-82430952D01*
X153066666Y-82383333D01*
X153161904Y-82335714D01*
X153304761Y-82335714D01*
X153400000Y-82383333D01*
X153447619Y-82430952D01*
X153495238Y-82526190D01*
X153495238Y-82811904D01*
X153447619Y-82907142D01*
X153400000Y-82954761D01*
X153304761Y-83002380D01*
X153161904Y-83002380D01*
X154400000Y-83002380D02*
X153923809Y-83002380D01*
X153923809Y-82002380D01*
X154733333Y-82478571D02*
X155066666Y-82478571D01*
X155209523Y-83002380D02*
X154733333Y-83002380D01*
X154733333Y-82002380D01*
X155209523Y-82002380D01*
X155638095Y-83002380D02*
X155638095Y-82002380D01*
X155876190Y-82002380D01*
X156019047Y-82050000D01*
X156114285Y-82145238D01*
X156161904Y-82240476D01*
X156209523Y-82430952D01*
X156209523Y-82573809D01*
X156161904Y-82764285D01*
X156114285Y-82859523D01*
X156019047Y-82954761D01*
X155876190Y-83002380D01*
X155638095Y-83002380D01*
%TO.C,MX29*%
X158163095Y-63952380D02*
X158163095Y-62952380D01*
X158496428Y-63666666D01*
X158829761Y-62952380D01*
X158829761Y-63952380D01*
X159210714Y-62952380D02*
X159877380Y-63952380D01*
X159877380Y-62952380D02*
X159210714Y-63952380D01*
X160258333Y-63571428D02*
X161020238Y-63571428D01*
X161496428Y-63952380D02*
X161496428Y-62952380D01*
X162067857Y-63952380D01*
X162067857Y-62952380D01*
X162686904Y-63952380D02*
X162591666Y-63904761D01*
X162544047Y-63857142D01*
X162496428Y-63761904D01*
X162496428Y-63476190D01*
X162544047Y-63380952D01*
X162591666Y-63333333D01*
X162686904Y-63285714D01*
X162829761Y-63285714D01*
X162925000Y-63333333D01*
X162972619Y-63380952D01*
X163020238Y-63476190D01*
X163020238Y-63761904D01*
X162972619Y-63857142D01*
X162925000Y-63904761D01*
X162829761Y-63952380D01*
X162686904Y-63952380D01*
X163925000Y-63952380D02*
X163448809Y-63952380D01*
X163448809Y-62952380D01*
X164258333Y-63428571D02*
X164591666Y-63428571D01*
X164734523Y-63952380D02*
X164258333Y-63952380D01*
X164258333Y-62952380D01*
X164734523Y-62952380D01*
X165163095Y-63952380D02*
X165163095Y-62952380D01*
X165401190Y-62952380D01*
X165544047Y-63000000D01*
X165639285Y-63095238D01*
X165686904Y-63190476D01*
X165734523Y-63380952D01*
X165734523Y-63523809D01*
X165686904Y-63714285D01*
X165639285Y-63809523D01*
X165544047Y-63904761D01*
X165401190Y-63952380D01*
X165163095Y-63952380D01*
%TO.C,MX28*%
X153400595Y-44902380D02*
X153400595Y-43902380D01*
X153733928Y-44616666D01*
X154067261Y-43902380D01*
X154067261Y-44902380D01*
X154448214Y-43902380D02*
X155114880Y-44902380D01*
X155114880Y-43902380D02*
X154448214Y-44902380D01*
X155495833Y-44521428D02*
X156257738Y-44521428D01*
X156733928Y-44902380D02*
X156733928Y-43902380D01*
X157305357Y-44902380D01*
X157305357Y-43902380D01*
X157924404Y-44902380D02*
X157829166Y-44854761D01*
X157781547Y-44807142D01*
X157733928Y-44711904D01*
X157733928Y-44426190D01*
X157781547Y-44330952D01*
X157829166Y-44283333D01*
X157924404Y-44235714D01*
X158067261Y-44235714D01*
X158162500Y-44283333D01*
X158210119Y-44330952D01*
X158257738Y-44426190D01*
X158257738Y-44711904D01*
X158210119Y-44807142D01*
X158162500Y-44854761D01*
X158067261Y-44902380D01*
X157924404Y-44902380D01*
X159162500Y-44902380D02*
X158686309Y-44902380D01*
X158686309Y-43902380D01*
X159495833Y-44378571D02*
X159829166Y-44378571D01*
X159972023Y-44902380D02*
X159495833Y-44902380D01*
X159495833Y-43902380D01*
X159972023Y-43902380D01*
X160400595Y-44902380D02*
X160400595Y-43902380D01*
X160638690Y-43902380D01*
X160781547Y-43950000D01*
X160876785Y-44045238D01*
X160924404Y-44140476D01*
X160972023Y-44330952D01*
X160972023Y-44473809D01*
X160924404Y-44664285D01*
X160876785Y-44759523D01*
X160781547Y-44854761D01*
X160638690Y-44902380D01*
X160400595Y-44902380D01*
%TO.C,MX27*%
X143875595Y-25852380D02*
X143875595Y-24852380D01*
X144208928Y-25566666D01*
X144542261Y-24852380D01*
X144542261Y-25852380D01*
X144923214Y-24852380D02*
X145589880Y-25852380D01*
X145589880Y-24852380D02*
X144923214Y-25852380D01*
X145970833Y-25471428D02*
X146732738Y-25471428D01*
X147208928Y-25852380D02*
X147208928Y-24852380D01*
X147780357Y-25852380D01*
X147780357Y-24852380D01*
X148399404Y-25852380D02*
X148304166Y-25804761D01*
X148256547Y-25757142D01*
X148208928Y-25661904D01*
X148208928Y-25376190D01*
X148256547Y-25280952D01*
X148304166Y-25233333D01*
X148399404Y-25185714D01*
X148542261Y-25185714D01*
X148637500Y-25233333D01*
X148685119Y-25280952D01*
X148732738Y-25376190D01*
X148732738Y-25661904D01*
X148685119Y-25757142D01*
X148637500Y-25804761D01*
X148542261Y-25852380D01*
X148399404Y-25852380D01*
X149637500Y-25852380D02*
X149161309Y-25852380D01*
X149161309Y-24852380D01*
X149970833Y-25328571D02*
X150304166Y-25328571D01*
X150447023Y-25852380D02*
X149970833Y-25852380D01*
X149970833Y-24852380D01*
X150447023Y-24852380D01*
X150875595Y-25852380D02*
X150875595Y-24852380D01*
X151113690Y-24852380D01*
X151256547Y-24900000D01*
X151351785Y-24995238D01*
X151399404Y-25090476D01*
X151447023Y-25280952D01*
X151447023Y-25423809D01*
X151399404Y-25614285D01*
X151351785Y-25709523D01*
X151256547Y-25804761D01*
X151113690Y-25852380D01*
X150875595Y-25852380D01*
%TO.C,MX26*%
X129588095Y-83002380D02*
X129588095Y-82002380D01*
X129921428Y-82716666D01*
X130254761Y-82002380D01*
X130254761Y-83002380D01*
X130635714Y-82002380D02*
X131302380Y-83002380D01*
X131302380Y-82002380D02*
X130635714Y-83002380D01*
X131683333Y-82621428D02*
X132445238Y-82621428D01*
X132921428Y-83002380D02*
X132921428Y-82002380D01*
X133492857Y-83002380D01*
X133492857Y-82002380D01*
X134111904Y-83002380D02*
X134016666Y-82954761D01*
X133969047Y-82907142D01*
X133921428Y-82811904D01*
X133921428Y-82526190D01*
X133969047Y-82430952D01*
X134016666Y-82383333D01*
X134111904Y-82335714D01*
X134254761Y-82335714D01*
X134350000Y-82383333D01*
X134397619Y-82430952D01*
X134445238Y-82526190D01*
X134445238Y-82811904D01*
X134397619Y-82907142D01*
X134350000Y-82954761D01*
X134254761Y-83002380D01*
X134111904Y-83002380D01*
X135350000Y-83002380D02*
X134873809Y-83002380D01*
X134873809Y-82002380D01*
X135683333Y-82478571D02*
X136016666Y-82478571D01*
X136159523Y-83002380D02*
X135683333Y-83002380D01*
X135683333Y-82002380D01*
X136159523Y-82002380D01*
X136588095Y-83002380D02*
X136588095Y-82002380D01*
X136826190Y-82002380D01*
X136969047Y-82050000D01*
X137064285Y-82145238D01*
X137111904Y-82240476D01*
X137159523Y-82430952D01*
X137159523Y-82573809D01*
X137111904Y-82764285D01*
X137064285Y-82859523D01*
X136969047Y-82954761D01*
X136826190Y-83002380D01*
X136588095Y-83002380D01*
%TO.C,MX25*%
X139113095Y-63952380D02*
X139113095Y-62952380D01*
X139446428Y-63666666D01*
X139779761Y-62952380D01*
X139779761Y-63952380D01*
X140160714Y-62952380D02*
X140827380Y-63952380D01*
X140827380Y-62952380D02*
X140160714Y-63952380D01*
X141208333Y-63571428D02*
X141970238Y-63571428D01*
X142446428Y-63952380D02*
X142446428Y-62952380D01*
X143017857Y-63952380D01*
X143017857Y-62952380D01*
X143636904Y-63952380D02*
X143541666Y-63904761D01*
X143494047Y-63857142D01*
X143446428Y-63761904D01*
X143446428Y-63476190D01*
X143494047Y-63380952D01*
X143541666Y-63333333D01*
X143636904Y-63285714D01*
X143779761Y-63285714D01*
X143875000Y-63333333D01*
X143922619Y-63380952D01*
X143970238Y-63476190D01*
X143970238Y-63761904D01*
X143922619Y-63857142D01*
X143875000Y-63904761D01*
X143779761Y-63952380D01*
X143636904Y-63952380D01*
X144875000Y-63952380D02*
X144398809Y-63952380D01*
X144398809Y-62952380D01*
X145208333Y-63428571D02*
X145541666Y-63428571D01*
X145684523Y-63952380D02*
X145208333Y-63952380D01*
X145208333Y-62952380D01*
X145684523Y-62952380D01*
X146113095Y-63952380D02*
X146113095Y-62952380D01*
X146351190Y-62952380D01*
X146494047Y-63000000D01*
X146589285Y-63095238D01*
X146636904Y-63190476D01*
X146684523Y-63380952D01*
X146684523Y-63523809D01*
X146636904Y-63714285D01*
X146589285Y-63809523D01*
X146494047Y-63904761D01*
X146351190Y-63952380D01*
X146113095Y-63952380D01*
%TO.C,MX24*%
X134350595Y-44902380D02*
X134350595Y-43902380D01*
X134683928Y-44616666D01*
X135017261Y-43902380D01*
X135017261Y-44902380D01*
X135398214Y-43902380D02*
X136064880Y-44902380D01*
X136064880Y-43902380D02*
X135398214Y-44902380D01*
X136445833Y-44521428D02*
X137207738Y-44521428D01*
X137683928Y-44902380D02*
X137683928Y-43902380D01*
X138255357Y-44902380D01*
X138255357Y-43902380D01*
X138874404Y-44902380D02*
X138779166Y-44854761D01*
X138731547Y-44807142D01*
X138683928Y-44711904D01*
X138683928Y-44426190D01*
X138731547Y-44330952D01*
X138779166Y-44283333D01*
X138874404Y-44235714D01*
X139017261Y-44235714D01*
X139112500Y-44283333D01*
X139160119Y-44330952D01*
X139207738Y-44426190D01*
X139207738Y-44711904D01*
X139160119Y-44807142D01*
X139112500Y-44854761D01*
X139017261Y-44902380D01*
X138874404Y-44902380D01*
X140112500Y-44902380D02*
X139636309Y-44902380D01*
X139636309Y-43902380D01*
X140445833Y-44378571D02*
X140779166Y-44378571D01*
X140922023Y-44902380D02*
X140445833Y-44902380D01*
X140445833Y-43902380D01*
X140922023Y-43902380D01*
X141350595Y-44902380D02*
X141350595Y-43902380D01*
X141588690Y-43902380D01*
X141731547Y-43950000D01*
X141826785Y-44045238D01*
X141874404Y-44140476D01*
X141922023Y-44330952D01*
X141922023Y-44473809D01*
X141874404Y-44664285D01*
X141826785Y-44759523D01*
X141731547Y-44854761D01*
X141588690Y-44902380D01*
X141350595Y-44902380D01*
%TO.C,MX23*%
X124825595Y-25852380D02*
X124825595Y-24852380D01*
X125158928Y-25566666D01*
X125492261Y-24852380D01*
X125492261Y-25852380D01*
X125873214Y-24852380D02*
X126539880Y-25852380D01*
X126539880Y-24852380D02*
X125873214Y-25852380D01*
X126920833Y-25471428D02*
X127682738Y-25471428D01*
X128158928Y-25852380D02*
X128158928Y-24852380D01*
X128730357Y-25852380D01*
X128730357Y-24852380D01*
X129349404Y-25852380D02*
X129254166Y-25804761D01*
X129206547Y-25757142D01*
X129158928Y-25661904D01*
X129158928Y-25376190D01*
X129206547Y-25280952D01*
X129254166Y-25233333D01*
X129349404Y-25185714D01*
X129492261Y-25185714D01*
X129587500Y-25233333D01*
X129635119Y-25280952D01*
X129682738Y-25376190D01*
X129682738Y-25661904D01*
X129635119Y-25757142D01*
X129587500Y-25804761D01*
X129492261Y-25852380D01*
X129349404Y-25852380D01*
X130587500Y-25852380D02*
X130111309Y-25852380D01*
X130111309Y-24852380D01*
X130920833Y-25328571D02*
X131254166Y-25328571D01*
X131397023Y-25852380D02*
X130920833Y-25852380D01*
X130920833Y-24852380D01*
X131397023Y-24852380D01*
X131825595Y-25852380D02*
X131825595Y-24852380D01*
X132063690Y-24852380D01*
X132206547Y-24900000D01*
X132301785Y-24995238D01*
X132349404Y-25090476D01*
X132397023Y-25280952D01*
X132397023Y-25423809D01*
X132349404Y-25614285D01*
X132301785Y-25709523D01*
X132206547Y-25804761D01*
X132063690Y-25852380D01*
X131825595Y-25852380D01*
%TO.C,MX22*%
X110538095Y-83002380D02*
X110538095Y-82002380D01*
X110871428Y-82716666D01*
X111204761Y-82002380D01*
X111204761Y-83002380D01*
X111585714Y-82002380D02*
X112252380Y-83002380D01*
X112252380Y-82002380D02*
X111585714Y-83002380D01*
X112633333Y-82621428D02*
X113395238Y-82621428D01*
X113871428Y-83002380D02*
X113871428Y-82002380D01*
X114442857Y-83002380D01*
X114442857Y-82002380D01*
X115061904Y-83002380D02*
X114966666Y-82954761D01*
X114919047Y-82907142D01*
X114871428Y-82811904D01*
X114871428Y-82526190D01*
X114919047Y-82430952D01*
X114966666Y-82383333D01*
X115061904Y-82335714D01*
X115204761Y-82335714D01*
X115300000Y-82383333D01*
X115347619Y-82430952D01*
X115395238Y-82526190D01*
X115395238Y-82811904D01*
X115347619Y-82907142D01*
X115300000Y-82954761D01*
X115204761Y-83002380D01*
X115061904Y-83002380D01*
X116300000Y-83002380D02*
X115823809Y-83002380D01*
X115823809Y-82002380D01*
X116633333Y-82478571D02*
X116966666Y-82478571D01*
X117109523Y-83002380D02*
X116633333Y-83002380D01*
X116633333Y-82002380D01*
X117109523Y-82002380D01*
X117538095Y-83002380D02*
X117538095Y-82002380D01*
X117776190Y-82002380D01*
X117919047Y-82050000D01*
X118014285Y-82145238D01*
X118061904Y-82240476D01*
X118109523Y-82430952D01*
X118109523Y-82573809D01*
X118061904Y-82764285D01*
X118014285Y-82859523D01*
X117919047Y-82954761D01*
X117776190Y-83002380D01*
X117538095Y-83002380D01*
%TO.C,MX21*%
X120063095Y-63952380D02*
X120063095Y-62952380D01*
X120396428Y-63666666D01*
X120729761Y-62952380D01*
X120729761Y-63952380D01*
X121110714Y-62952380D02*
X121777380Y-63952380D01*
X121777380Y-62952380D02*
X121110714Y-63952380D01*
X122158333Y-63571428D02*
X122920238Y-63571428D01*
X123396428Y-63952380D02*
X123396428Y-62952380D01*
X123967857Y-63952380D01*
X123967857Y-62952380D01*
X124586904Y-63952380D02*
X124491666Y-63904761D01*
X124444047Y-63857142D01*
X124396428Y-63761904D01*
X124396428Y-63476190D01*
X124444047Y-63380952D01*
X124491666Y-63333333D01*
X124586904Y-63285714D01*
X124729761Y-63285714D01*
X124825000Y-63333333D01*
X124872619Y-63380952D01*
X124920238Y-63476190D01*
X124920238Y-63761904D01*
X124872619Y-63857142D01*
X124825000Y-63904761D01*
X124729761Y-63952380D01*
X124586904Y-63952380D01*
X125825000Y-63952380D02*
X125348809Y-63952380D01*
X125348809Y-62952380D01*
X126158333Y-63428571D02*
X126491666Y-63428571D01*
X126634523Y-63952380D02*
X126158333Y-63952380D01*
X126158333Y-62952380D01*
X126634523Y-62952380D01*
X127063095Y-63952380D02*
X127063095Y-62952380D01*
X127301190Y-62952380D01*
X127444047Y-63000000D01*
X127539285Y-63095238D01*
X127586904Y-63190476D01*
X127634523Y-63380952D01*
X127634523Y-63523809D01*
X127586904Y-63714285D01*
X127539285Y-63809523D01*
X127444047Y-63904761D01*
X127301190Y-63952380D01*
X127063095Y-63952380D01*
%TO.C,MX20*%
X115300595Y-44902380D02*
X115300595Y-43902380D01*
X115633928Y-44616666D01*
X115967261Y-43902380D01*
X115967261Y-44902380D01*
X116348214Y-43902380D02*
X117014880Y-44902380D01*
X117014880Y-43902380D02*
X116348214Y-44902380D01*
X117395833Y-44521428D02*
X118157738Y-44521428D01*
X118633928Y-44902380D02*
X118633928Y-43902380D01*
X119205357Y-44902380D01*
X119205357Y-43902380D01*
X119824404Y-44902380D02*
X119729166Y-44854761D01*
X119681547Y-44807142D01*
X119633928Y-44711904D01*
X119633928Y-44426190D01*
X119681547Y-44330952D01*
X119729166Y-44283333D01*
X119824404Y-44235714D01*
X119967261Y-44235714D01*
X120062500Y-44283333D01*
X120110119Y-44330952D01*
X120157738Y-44426190D01*
X120157738Y-44711904D01*
X120110119Y-44807142D01*
X120062500Y-44854761D01*
X119967261Y-44902380D01*
X119824404Y-44902380D01*
X121062500Y-44902380D02*
X120586309Y-44902380D01*
X120586309Y-43902380D01*
X121395833Y-44378571D02*
X121729166Y-44378571D01*
X121872023Y-44902380D02*
X121395833Y-44902380D01*
X121395833Y-43902380D01*
X121872023Y-43902380D01*
X122300595Y-44902380D02*
X122300595Y-43902380D01*
X122538690Y-43902380D01*
X122681547Y-43950000D01*
X122776785Y-44045238D01*
X122824404Y-44140476D01*
X122872023Y-44330952D01*
X122872023Y-44473809D01*
X122824404Y-44664285D01*
X122776785Y-44759523D01*
X122681547Y-44854761D01*
X122538690Y-44902380D01*
X122300595Y-44902380D01*
%TO.C,MX19*%
X105775595Y-25852380D02*
X105775595Y-24852380D01*
X106108928Y-25566666D01*
X106442261Y-24852380D01*
X106442261Y-25852380D01*
X106823214Y-24852380D02*
X107489880Y-25852380D01*
X107489880Y-24852380D02*
X106823214Y-25852380D01*
X107870833Y-25471428D02*
X108632738Y-25471428D01*
X109108928Y-25852380D02*
X109108928Y-24852380D01*
X109680357Y-25852380D01*
X109680357Y-24852380D01*
X110299404Y-25852380D02*
X110204166Y-25804761D01*
X110156547Y-25757142D01*
X110108928Y-25661904D01*
X110108928Y-25376190D01*
X110156547Y-25280952D01*
X110204166Y-25233333D01*
X110299404Y-25185714D01*
X110442261Y-25185714D01*
X110537500Y-25233333D01*
X110585119Y-25280952D01*
X110632738Y-25376190D01*
X110632738Y-25661904D01*
X110585119Y-25757142D01*
X110537500Y-25804761D01*
X110442261Y-25852380D01*
X110299404Y-25852380D01*
X111537500Y-25852380D02*
X111061309Y-25852380D01*
X111061309Y-24852380D01*
X111870833Y-25328571D02*
X112204166Y-25328571D01*
X112347023Y-25852380D02*
X111870833Y-25852380D01*
X111870833Y-24852380D01*
X112347023Y-24852380D01*
X112775595Y-25852380D02*
X112775595Y-24852380D01*
X113013690Y-24852380D01*
X113156547Y-24900000D01*
X113251785Y-24995238D01*
X113299404Y-25090476D01*
X113347023Y-25280952D01*
X113347023Y-25423809D01*
X113299404Y-25614285D01*
X113251785Y-25709523D01*
X113156547Y-25804761D01*
X113013690Y-25852380D01*
X112775595Y-25852380D01*
%TO.C,MX18*%
X91488095Y-83002380D02*
X91488095Y-82002380D01*
X91821428Y-82716666D01*
X92154761Y-82002380D01*
X92154761Y-83002380D01*
X92535714Y-82002380D02*
X93202380Y-83002380D01*
X93202380Y-82002380D02*
X92535714Y-83002380D01*
X93583333Y-82621428D02*
X94345238Y-82621428D01*
X94821428Y-83002380D02*
X94821428Y-82002380D01*
X95392857Y-83002380D01*
X95392857Y-82002380D01*
X96011904Y-83002380D02*
X95916666Y-82954761D01*
X95869047Y-82907142D01*
X95821428Y-82811904D01*
X95821428Y-82526190D01*
X95869047Y-82430952D01*
X95916666Y-82383333D01*
X96011904Y-82335714D01*
X96154761Y-82335714D01*
X96250000Y-82383333D01*
X96297619Y-82430952D01*
X96345238Y-82526190D01*
X96345238Y-82811904D01*
X96297619Y-82907142D01*
X96250000Y-82954761D01*
X96154761Y-83002380D01*
X96011904Y-83002380D01*
X97250000Y-83002380D02*
X96773809Y-83002380D01*
X96773809Y-82002380D01*
X97583333Y-82478571D02*
X97916666Y-82478571D01*
X98059523Y-83002380D02*
X97583333Y-83002380D01*
X97583333Y-82002380D01*
X98059523Y-82002380D01*
X98488095Y-83002380D02*
X98488095Y-82002380D01*
X98726190Y-82002380D01*
X98869047Y-82050000D01*
X98964285Y-82145238D01*
X99011904Y-82240476D01*
X99059523Y-82430952D01*
X99059523Y-82573809D01*
X99011904Y-82764285D01*
X98964285Y-82859523D01*
X98869047Y-82954761D01*
X98726190Y-83002380D01*
X98488095Y-83002380D01*
%TO.C,MX17*%
X101013095Y-63952380D02*
X101013095Y-62952380D01*
X101346428Y-63666666D01*
X101679761Y-62952380D01*
X101679761Y-63952380D01*
X102060714Y-62952380D02*
X102727380Y-63952380D01*
X102727380Y-62952380D02*
X102060714Y-63952380D01*
X103108333Y-63571428D02*
X103870238Y-63571428D01*
X104346428Y-63952380D02*
X104346428Y-62952380D01*
X104917857Y-63952380D01*
X104917857Y-62952380D01*
X105536904Y-63952380D02*
X105441666Y-63904761D01*
X105394047Y-63857142D01*
X105346428Y-63761904D01*
X105346428Y-63476190D01*
X105394047Y-63380952D01*
X105441666Y-63333333D01*
X105536904Y-63285714D01*
X105679761Y-63285714D01*
X105775000Y-63333333D01*
X105822619Y-63380952D01*
X105870238Y-63476190D01*
X105870238Y-63761904D01*
X105822619Y-63857142D01*
X105775000Y-63904761D01*
X105679761Y-63952380D01*
X105536904Y-63952380D01*
X106775000Y-63952380D02*
X106298809Y-63952380D01*
X106298809Y-62952380D01*
X107108333Y-63428571D02*
X107441666Y-63428571D01*
X107584523Y-63952380D02*
X107108333Y-63952380D01*
X107108333Y-62952380D01*
X107584523Y-62952380D01*
X108013095Y-63952380D02*
X108013095Y-62952380D01*
X108251190Y-62952380D01*
X108394047Y-63000000D01*
X108489285Y-63095238D01*
X108536904Y-63190476D01*
X108584523Y-63380952D01*
X108584523Y-63523809D01*
X108536904Y-63714285D01*
X108489285Y-63809523D01*
X108394047Y-63904761D01*
X108251190Y-63952380D01*
X108013095Y-63952380D01*
%TO.C,MX16*%
X96250595Y-44902380D02*
X96250595Y-43902380D01*
X96583928Y-44616666D01*
X96917261Y-43902380D01*
X96917261Y-44902380D01*
X97298214Y-43902380D02*
X97964880Y-44902380D01*
X97964880Y-43902380D02*
X97298214Y-44902380D01*
X98345833Y-44521428D02*
X99107738Y-44521428D01*
X99583928Y-44902380D02*
X99583928Y-43902380D01*
X100155357Y-44902380D01*
X100155357Y-43902380D01*
X100774404Y-44902380D02*
X100679166Y-44854761D01*
X100631547Y-44807142D01*
X100583928Y-44711904D01*
X100583928Y-44426190D01*
X100631547Y-44330952D01*
X100679166Y-44283333D01*
X100774404Y-44235714D01*
X100917261Y-44235714D01*
X101012500Y-44283333D01*
X101060119Y-44330952D01*
X101107738Y-44426190D01*
X101107738Y-44711904D01*
X101060119Y-44807142D01*
X101012500Y-44854761D01*
X100917261Y-44902380D01*
X100774404Y-44902380D01*
X102012500Y-44902380D02*
X101536309Y-44902380D01*
X101536309Y-43902380D01*
X102345833Y-44378571D02*
X102679166Y-44378571D01*
X102822023Y-44902380D02*
X102345833Y-44902380D01*
X102345833Y-43902380D01*
X102822023Y-43902380D01*
X103250595Y-44902380D02*
X103250595Y-43902380D01*
X103488690Y-43902380D01*
X103631547Y-43950000D01*
X103726785Y-44045238D01*
X103774404Y-44140476D01*
X103822023Y-44330952D01*
X103822023Y-44473809D01*
X103774404Y-44664285D01*
X103726785Y-44759523D01*
X103631547Y-44854761D01*
X103488690Y-44902380D01*
X103250595Y-44902380D01*
%TO.C,MX15*%
X86725595Y-25852380D02*
X86725595Y-24852380D01*
X87058928Y-25566666D01*
X87392261Y-24852380D01*
X87392261Y-25852380D01*
X87773214Y-24852380D02*
X88439880Y-25852380D01*
X88439880Y-24852380D02*
X87773214Y-25852380D01*
X88820833Y-25471428D02*
X89582738Y-25471428D01*
X90058928Y-25852380D02*
X90058928Y-24852380D01*
X90630357Y-25852380D01*
X90630357Y-24852380D01*
X91249404Y-25852380D02*
X91154166Y-25804761D01*
X91106547Y-25757142D01*
X91058928Y-25661904D01*
X91058928Y-25376190D01*
X91106547Y-25280952D01*
X91154166Y-25233333D01*
X91249404Y-25185714D01*
X91392261Y-25185714D01*
X91487500Y-25233333D01*
X91535119Y-25280952D01*
X91582738Y-25376190D01*
X91582738Y-25661904D01*
X91535119Y-25757142D01*
X91487500Y-25804761D01*
X91392261Y-25852380D01*
X91249404Y-25852380D01*
X92487500Y-25852380D02*
X92011309Y-25852380D01*
X92011309Y-24852380D01*
X92820833Y-25328571D02*
X93154166Y-25328571D01*
X93297023Y-25852380D02*
X92820833Y-25852380D01*
X92820833Y-24852380D01*
X93297023Y-24852380D01*
X93725595Y-25852380D02*
X93725595Y-24852380D01*
X93963690Y-24852380D01*
X94106547Y-24900000D01*
X94201785Y-24995238D01*
X94249404Y-25090476D01*
X94297023Y-25280952D01*
X94297023Y-25423809D01*
X94249404Y-25614285D01*
X94201785Y-25709523D01*
X94106547Y-25804761D01*
X93963690Y-25852380D01*
X93725595Y-25852380D01*
%TO.C,MX14*%
X79581845Y-102052380D02*
X79581845Y-101052380D01*
X79915178Y-101766666D01*
X80248511Y-101052380D01*
X80248511Y-102052380D01*
X80629464Y-101052380D02*
X81296130Y-102052380D01*
X81296130Y-101052380D02*
X80629464Y-102052380D01*
X81677083Y-101671428D02*
X82438988Y-101671428D01*
X82915178Y-102052380D02*
X82915178Y-101052380D01*
X83486607Y-102052380D01*
X83486607Y-101052380D01*
X84105654Y-102052380D02*
X84010416Y-102004761D01*
X83962797Y-101957142D01*
X83915178Y-101861904D01*
X83915178Y-101576190D01*
X83962797Y-101480952D01*
X84010416Y-101433333D01*
X84105654Y-101385714D01*
X84248511Y-101385714D01*
X84343750Y-101433333D01*
X84391369Y-101480952D01*
X84438988Y-101576190D01*
X84438988Y-101861904D01*
X84391369Y-101957142D01*
X84343750Y-102004761D01*
X84248511Y-102052380D01*
X84105654Y-102052380D01*
X85343750Y-102052380D02*
X84867559Y-102052380D01*
X84867559Y-101052380D01*
X85677083Y-101528571D02*
X86010416Y-101528571D01*
X86153273Y-102052380D02*
X85677083Y-102052380D01*
X85677083Y-101052380D01*
X86153273Y-101052380D01*
X86581845Y-102052380D02*
X86581845Y-101052380D01*
X86819940Y-101052380D01*
X86962797Y-101100000D01*
X87058035Y-101195238D01*
X87105654Y-101290476D01*
X87153273Y-101480952D01*
X87153273Y-101623809D01*
X87105654Y-101814285D01*
X87058035Y-101909523D01*
X86962797Y-102004761D01*
X86819940Y-102052380D01*
X86581845Y-102052380D01*
%TO.C,MX13*%
X72438095Y-83002380D02*
X72438095Y-82002380D01*
X72771428Y-82716666D01*
X73104761Y-82002380D01*
X73104761Y-83002380D01*
X73485714Y-82002380D02*
X74152380Y-83002380D01*
X74152380Y-82002380D02*
X73485714Y-83002380D01*
X74533333Y-82621428D02*
X75295238Y-82621428D01*
X75771428Y-83002380D02*
X75771428Y-82002380D01*
X76342857Y-83002380D01*
X76342857Y-82002380D01*
X76961904Y-83002380D02*
X76866666Y-82954761D01*
X76819047Y-82907142D01*
X76771428Y-82811904D01*
X76771428Y-82526190D01*
X76819047Y-82430952D01*
X76866666Y-82383333D01*
X76961904Y-82335714D01*
X77104761Y-82335714D01*
X77200000Y-82383333D01*
X77247619Y-82430952D01*
X77295238Y-82526190D01*
X77295238Y-82811904D01*
X77247619Y-82907142D01*
X77200000Y-82954761D01*
X77104761Y-83002380D01*
X76961904Y-83002380D01*
X78200000Y-83002380D02*
X77723809Y-83002380D01*
X77723809Y-82002380D01*
X78533333Y-82478571D02*
X78866666Y-82478571D01*
X79009523Y-83002380D02*
X78533333Y-83002380D01*
X78533333Y-82002380D01*
X79009523Y-82002380D01*
X79438095Y-83002380D02*
X79438095Y-82002380D01*
X79676190Y-82002380D01*
X79819047Y-82050000D01*
X79914285Y-82145238D01*
X79961904Y-82240476D01*
X80009523Y-82430952D01*
X80009523Y-82573809D01*
X79961904Y-82764285D01*
X79914285Y-82859523D01*
X79819047Y-82954761D01*
X79676190Y-83002380D01*
X79438095Y-83002380D01*
%TO.C,MX12*%
X81963095Y-63952380D02*
X81963095Y-62952380D01*
X82296428Y-63666666D01*
X82629761Y-62952380D01*
X82629761Y-63952380D01*
X83010714Y-62952380D02*
X83677380Y-63952380D01*
X83677380Y-62952380D02*
X83010714Y-63952380D01*
X84058333Y-63571428D02*
X84820238Y-63571428D01*
X85296428Y-63952380D02*
X85296428Y-62952380D01*
X85867857Y-63952380D01*
X85867857Y-62952380D01*
X86486904Y-63952380D02*
X86391666Y-63904761D01*
X86344047Y-63857142D01*
X86296428Y-63761904D01*
X86296428Y-63476190D01*
X86344047Y-63380952D01*
X86391666Y-63333333D01*
X86486904Y-63285714D01*
X86629761Y-63285714D01*
X86725000Y-63333333D01*
X86772619Y-63380952D01*
X86820238Y-63476190D01*
X86820238Y-63761904D01*
X86772619Y-63857142D01*
X86725000Y-63904761D01*
X86629761Y-63952380D01*
X86486904Y-63952380D01*
X87725000Y-63952380D02*
X87248809Y-63952380D01*
X87248809Y-62952380D01*
X88058333Y-63428571D02*
X88391666Y-63428571D01*
X88534523Y-63952380D02*
X88058333Y-63952380D01*
X88058333Y-62952380D01*
X88534523Y-62952380D01*
X88963095Y-63952380D02*
X88963095Y-62952380D01*
X89201190Y-62952380D01*
X89344047Y-63000000D01*
X89439285Y-63095238D01*
X89486904Y-63190476D01*
X89534523Y-63380952D01*
X89534523Y-63523809D01*
X89486904Y-63714285D01*
X89439285Y-63809523D01*
X89344047Y-63904761D01*
X89201190Y-63952380D01*
X88963095Y-63952380D01*
%TO.C,MX11*%
X77200595Y-44902380D02*
X77200595Y-43902380D01*
X77533928Y-44616666D01*
X77867261Y-43902380D01*
X77867261Y-44902380D01*
X78248214Y-43902380D02*
X78914880Y-44902380D01*
X78914880Y-43902380D02*
X78248214Y-44902380D01*
X79295833Y-44521428D02*
X80057738Y-44521428D01*
X80533928Y-44902380D02*
X80533928Y-43902380D01*
X81105357Y-44902380D01*
X81105357Y-43902380D01*
X81724404Y-44902380D02*
X81629166Y-44854761D01*
X81581547Y-44807142D01*
X81533928Y-44711904D01*
X81533928Y-44426190D01*
X81581547Y-44330952D01*
X81629166Y-44283333D01*
X81724404Y-44235714D01*
X81867261Y-44235714D01*
X81962500Y-44283333D01*
X82010119Y-44330952D01*
X82057738Y-44426190D01*
X82057738Y-44711904D01*
X82010119Y-44807142D01*
X81962500Y-44854761D01*
X81867261Y-44902380D01*
X81724404Y-44902380D01*
X82962500Y-44902380D02*
X82486309Y-44902380D01*
X82486309Y-43902380D01*
X83295833Y-44378571D02*
X83629166Y-44378571D01*
X83772023Y-44902380D02*
X83295833Y-44902380D01*
X83295833Y-43902380D01*
X83772023Y-43902380D01*
X84200595Y-44902380D02*
X84200595Y-43902380D01*
X84438690Y-43902380D01*
X84581547Y-43950000D01*
X84676785Y-44045238D01*
X84724404Y-44140476D01*
X84772023Y-44330952D01*
X84772023Y-44473809D01*
X84724404Y-44664285D01*
X84676785Y-44759523D01*
X84581547Y-44854761D01*
X84438690Y-44902380D01*
X84200595Y-44902380D01*
%TO.C,MX10*%
X67675595Y-25852380D02*
X67675595Y-24852380D01*
X68008928Y-25566666D01*
X68342261Y-24852380D01*
X68342261Y-25852380D01*
X68723214Y-24852380D02*
X69389880Y-25852380D01*
X69389880Y-24852380D02*
X68723214Y-25852380D01*
X69770833Y-25471428D02*
X70532738Y-25471428D01*
X71008928Y-25852380D02*
X71008928Y-24852380D01*
X71580357Y-25852380D01*
X71580357Y-24852380D01*
X72199404Y-25852380D02*
X72104166Y-25804761D01*
X72056547Y-25757142D01*
X72008928Y-25661904D01*
X72008928Y-25376190D01*
X72056547Y-25280952D01*
X72104166Y-25233333D01*
X72199404Y-25185714D01*
X72342261Y-25185714D01*
X72437500Y-25233333D01*
X72485119Y-25280952D01*
X72532738Y-25376190D01*
X72532738Y-25661904D01*
X72485119Y-25757142D01*
X72437500Y-25804761D01*
X72342261Y-25852380D01*
X72199404Y-25852380D01*
X73437500Y-25852380D02*
X72961309Y-25852380D01*
X72961309Y-24852380D01*
X73770833Y-25328571D02*
X74104166Y-25328571D01*
X74247023Y-25852380D02*
X73770833Y-25852380D01*
X73770833Y-24852380D01*
X74247023Y-24852380D01*
X74675595Y-25852380D02*
X74675595Y-24852380D01*
X74913690Y-24852380D01*
X75056547Y-24900000D01*
X75151785Y-24995238D01*
X75199404Y-25090476D01*
X75247023Y-25280952D01*
X75247023Y-25423809D01*
X75199404Y-25614285D01*
X75151785Y-25709523D01*
X75056547Y-25804761D01*
X74913690Y-25852380D01*
X74675595Y-25852380D01*
%TO.C,MX9*%
X55769345Y-102052380D02*
X55769345Y-101052380D01*
X56102678Y-101766666D01*
X56436011Y-101052380D01*
X56436011Y-102052380D01*
X56816964Y-101052380D02*
X57483630Y-102052380D01*
X57483630Y-101052380D02*
X56816964Y-102052380D01*
X57864583Y-101671428D02*
X58626488Y-101671428D01*
X59102678Y-102052380D02*
X59102678Y-101052380D01*
X59674107Y-102052380D01*
X59674107Y-101052380D01*
X60293154Y-102052380D02*
X60197916Y-102004761D01*
X60150297Y-101957142D01*
X60102678Y-101861904D01*
X60102678Y-101576190D01*
X60150297Y-101480952D01*
X60197916Y-101433333D01*
X60293154Y-101385714D01*
X60436011Y-101385714D01*
X60531250Y-101433333D01*
X60578869Y-101480952D01*
X60626488Y-101576190D01*
X60626488Y-101861904D01*
X60578869Y-101957142D01*
X60531250Y-102004761D01*
X60436011Y-102052380D01*
X60293154Y-102052380D01*
X61531250Y-102052380D02*
X61055059Y-102052380D01*
X61055059Y-101052380D01*
X61864583Y-101528571D02*
X62197916Y-101528571D01*
X62340773Y-102052380D02*
X61864583Y-102052380D01*
X61864583Y-101052380D01*
X62340773Y-101052380D01*
X62769345Y-102052380D02*
X62769345Y-101052380D01*
X63007440Y-101052380D01*
X63150297Y-101100000D01*
X63245535Y-101195238D01*
X63293154Y-101290476D01*
X63340773Y-101480952D01*
X63340773Y-101623809D01*
X63293154Y-101814285D01*
X63245535Y-101909523D01*
X63150297Y-102004761D01*
X63007440Y-102052380D01*
X62769345Y-102052380D01*
%TO.C,MX8*%
X62913095Y-63952380D02*
X62913095Y-62952380D01*
X63246428Y-63666666D01*
X63579761Y-62952380D01*
X63579761Y-63952380D01*
X63960714Y-62952380D02*
X64627380Y-63952380D01*
X64627380Y-62952380D02*
X63960714Y-63952380D01*
X65008333Y-63571428D02*
X65770238Y-63571428D01*
X66246428Y-63952380D02*
X66246428Y-62952380D01*
X66817857Y-63952380D01*
X66817857Y-62952380D01*
X67436904Y-63952380D02*
X67341666Y-63904761D01*
X67294047Y-63857142D01*
X67246428Y-63761904D01*
X67246428Y-63476190D01*
X67294047Y-63380952D01*
X67341666Y-63333333D01*
X67436904Y-63285714D01*
X67579761Y-63285714D01*
X67675000Y-63333333D01*
X67722619Y-63380952D01*
X67770238Y-63476190D01*
X67770238Y-63761904D01*
X67722619Y-63857142D01*
X67675000Y-63904761D01*
X67579761Y-63952380D01*
X67436904Y-63952380D01*
X68675000Y-63952380D02*
X68198809Y-63952380D01*
X68198809Y-62952380D01*
X69008333Y-63428571D02*
X69341666Y-63428571D01*
X69484523Y-63952380D02*
X69008333Y-63952380D01*
X69008333Y-62952380D01*
X69484523Y-62952380D01*
X69913095Y-63952380D02*
X69913095Y-62952380D01*
X70151190Y-62952380D01*
X70294047Y-63000000D01*
X70389285Y-63095238D01*
X70436904Y-63190476D01*
X70484523Y-63380952D01*
X70484523Y-63523809D01*
X70436904Y-63714285D01*
X70389285Y-63809523D01*
X70294047Y-63904761D01*
X70151190Y-63952380D01*
X69913095Y-63952380D01*
%TO.C,MX7*%
X58150595Y-60777380D02*
X58150595Y-59777380D01*
X58483928Y-60491666D01*
X58817261Y-59777380D01*
X58817261Y-60777380D01*
X59198214Y-59777380D02*
X59864880Y-60777380D01*
X59864880Y-59777380D02*
X59198214Y-60777380D01*
X60245833Y-60396428D02*
X61007738Y-60396428D01*
X61483928Y-60777380D02*
X61483928Y-59777380D01*
X62055357Y-60777380D01*
X62055357Y-59777380D01*
X62674404Y-60777380D02*
X62579166Y-60729761D01*
X62531547Y-60682142D01*
X62483928Y-60586904D01*
X62483928Y-60301190D01*
X62531547Y-60205952D01*
X62579166Y-60158333D01*
X62674404Y-60110714D01*
X62817261Y-60110714D01*
X62912500Y-60158333D01*
X62960119Y-60205952D01*
X63007738Y-60301190D01*
X63007738Y-60586904D01*
X62960119Y-60682142D01*
X62912500Y-60729761D01*
X62817261Y-60777380D01*
X62674404Y-60777380D01*
X63912500Y-60777380D02*
X63436309Y-60777380D01*
X63436309Y-59777380D01*
X64245833Y-60253571D02*
X64579166Y-60253571D01*
X64722023Y-60777380D02*
X64245833Y-60777380D01*
X64245833Y-59777380D01*
X64722023Y-59777380D01*
X65150595Y-60777380D02*
X65150595Y-59777380D01*
X65388690Y-59777380D01*
X65531547Y-59825000D01*
X65626785Y-59920238D01*
X65674404Y-60015476D01*
X65722023Y-60205952D01*
X65722023Y-60348809D01*
X65674404Y-60539285D01*
X65626785Y-60634523D01*
X65531547Y-60729761D01*
X65388690Y-60777380D01*
X65150595Y-60777380D01*
%TO.C,MX6*%
X48625595Y-41727380D02*
X48625595Y-40727380D01*
X48958928Y-41441666D01*
X49292261Y-40727380D01*
X49292261Y-41727380D01*
X49673214Y-40727380D02*
X50339880Y-41727380D01*
X50339880Y-40727380D02*
X49673214Y-41727380D01*
X50720833Y-41346428D02*
X51482738Y-41346428D01*
X51958928Y-41727380D02*
X51958928Y-40727380D01*
X52530357Y-41727380D01*
X52530357Y-40727380D01*
X53149404Y-41727380D02*
X53054166Y-41679761D01*
X53006547Y-41632142D01*
X52958928Y-41536904D01*
X52958928Y-41251190D01*
X53006547Y-41155952D01*
X53054166Y-41108333D01*
X53149404Y-41060714D01*
X53292261Y-41060714D01*
X53387500Y-41108333D01*
X53435119Y-41155952D01*
X53482738Y-41251190D01*
X53482738Y-41536904D01*
X53435119Y-41632142D01*
X53387500Y-41679761D01*
X53292261Y-41727380D01*
X53149404Y-41727380D01*
X54387500Y-41727380D02*
X53911309Y-41727380D01*
X53911309Y-40727380D01*
X54720833Y-41203571D02*
X55054166Y-41203571D01*
X55197023Y-41727380D02*
X54720833Y-41727380D01*
X54720833Y-40727380D01*
X55197023Y-40727380D01*
X55625595Y-41727380D02*
X55625595Y-40727380D01*
X55863690Y-40727380D01*
X56006547Y-40775000D01*
X56101785Y-40870238D01*
X56149404Y-40965476D01*
X56197023Y-41155952D01*
X56197023Y-41298809D01*
X56149404Y-41489285D01*
X56101785Y-41584523D01*
X56006547Y-41679761D01*
X55863690Y-41727380D01*
X55625595Y-41727380D01*
%TO.C,MX5*%
X31956845Y-102052380D02*
X31956845Y-101052380D01*
X32290178Y-101766666D01*
X32623511Y-101052380D01*
X32623511Y-102052380D01*
X33004464Y-101052380D02*
X33671130Y-102052380D01*
X33671130Y-101052380D02*
X33004464Y-102052380D01*
X34052083Y-101671428D02*
X34813988Y-101671428D01*
X35290178Y-102052380D02*
X35290178Y-101052380D01*
X35861607Y-102052380D01*
X35861607Y-101052380D01*
X36480654Y-102052380D02*
X36385416Y-102004761D01*
X36337797Y-101957142D01*
X36290178Y-101861904D01*
X36290178Y-101576190D01*
X36337797Y-101480952D01*
X36385416Y-101433333D01*
X36480654Y-101385714D01*
X36623511Y-101385714D01*
X36718750Y-101433333D01*
X36766369Y-101480952D01*
X36813988Y-101576190D01*
X36813988Y-101861904D01*
X36766369Y-101957142D01*
X36718750Y-102004761D01*
X36623511Y-102052380D01*
X36480654Y-102052380D01*
X37718750Y-102052380D02*
X37242559Y-102052380D01*
X37242559Y-101052380D01*
X38052083Y-101528571D02*
X38385416Y-101528571D01*
X38528273Y-102052380D02*
X38052083Y-102052380D01*
X38052083Y-101052380D01*
X38528273Y-101052380D01*
X38956845Y-102052380D02*
X38956845Y-101052380D01*
X39194940Y-101052380D01*
X39337797Y-101100000D01*
X39433035Y-101195238D01*
X39480654Y-101290476D01*
X39528273Y-101480952D01*
X39528273Y-101623809D01*
X39480654Y-101814285D01*
X39433035Y-101909523D01*
X39337797Y-102004761D01*
X39194940Y-102052380D01*
X38956845Y-102052380D01*
%TO.C,MX4*%
X41481845Y-83002380D02*
X41481845Y-82002380D01*
X41815178Y-82716666D01*
X42148511Y-82002380D01*
X42148511Y-83002380D01*
X42529464Y-82002380D02*
X43196130Y-83002380D01*
X43196130Y-82002380D02*
X42529464Y-83002380D01*
X43577083Y-82621428D02*
X44338988Y-82621428D01*
X44815178Y-83002380D02*
X44815178Y-82002380D01*
X45386607Y-83002380D01*
X45386607Y-82002380D01*
X46005654Y-83002380D02*
X45910416Y-82954761D01*
X45862797Y-82907142D01*
X45815178Y-82811904D01*
X45815178Y-82526190D01*
X45862797Y-82430952D01*
X45910416Y-82383333D01*
X46005654Y-82335714D01*
X46148511Y-82335714D01*
X46243750Y-82383333D01*
X46291369Y-82430952D01*
X46338988Y-82526190D01*
X46338988Y-82811904D01*
X46291369Y-82907142D01*
X46243750Y-82954761D01*
X46148511Y-83002380D01*
X46005654Y-83002380D01*
X47243750Y-83002380D02*
X46767559Y-83002380D01*
X46767559Y-82002380D01*
X47577083Y-82478571D02*
X47910416Y-82478571D01*
X48053273Y-83002380D02*
X47577083Y-83002380D01*
X47577083Y-82002380D01*
X48053273Y-82002380D01*
X48481845Y-83002380D02*
X48481845Y-82002380D01*
X48719940Y-82002380D01*
X48862797Y-82050000D01*
X48958035Y-82145238D01*
X49005654Y-82240476D01*
X49053273Y-82430952D01*
X49053273Y-82573809D01*
X49005654Y-82764285D01*
X48958035Y-82859523D01*
X48862797Y-82954761D01*
X48719940Y-83002380D01*
X48481845Y-83002380D01*
%TO.C,MX3*%
X36719345Y-63952380D02*
X36719345Y-62952380D01*
X37052678Y-63666666D01*
X37386011Y-62952380D01*
X37386011Y-63952380D01*
X37766964Y-62952380D02*
X38433630Y-63952380D01*
X38433630Y-62952380D02*
X37766964Y-63952380D01*
X38814583Y-63571428D02*
X39576488Y-63571428D01*
X40052678Y-63952380D02*
X40052678Y-62952380D01*
X40624107Y-63952380D01*
X40624107Y-62952380D01*
X41243154Y-63952380D02*
X41147916Y-63904761D01*
X41100297Y-63857142D01*
X41052678Y-63761904D01*
X41052678Y-63476190D01*
X41100297Y-63380952D01*
X41147916Y-63333333D01*
X41243154Y-63285714D01*
X41386011Y-63285714D01*
X41481250Y-63333333D01*
X41528869Y-63380952D01*
X41576488Y-63476190D01*
X41576488Y-63761904D01*
X41528869Y-63857142D01*
X41481250Y-63904761D01*
X41386011Y-63952380D01*
X41243154Y-63952380D01*
X42481250Y-63952380D02*
X42005059Y-63952380D01*
X42005059Y-62952380D01*
X42814583Y-63428571D02*
X43147916Y-63428571D01*
X43290773Y-63952380D02*
X42814583Y-63952380D01*
X42814583Y-62952380D01*
X43290773Y-62952380D01*
X43719345Y-63952380D02*
X43719345Y-62952380D01*
X43957440Y-62952380D01*
X44100297Y-63000000D01*
X44195535Y-63095238D01*
X44243154Y-63190476D01*
X44290773Y-63380952D01*
X44290773Y-63523809D01*
X44243154Y-63714285D01*
X44195535Y-63809523D01*
X44100297Y-63904761D01*
X43957440Y-63952380D01*
X43719345Y-63952380D01*
%TO.C,MX2*%
X34338095Y-44902380D02*
X34338095Y-43902380D01*
X34671428Y-44616666D01*
X35004761Y-43902380D01*
X35004761Y-44902380D01*
X35385714Y-43902380D02*
X36052380Y-44902380D01*
X36052380Y-43902380D02*
X35385714Y-44902380D01*
X36433333Y-44521428D02*
X37195238Y-44521428D01*
X37671428Y-44902380D02*
X37671428Y-43902380D01*
X38242857Y-44902380D01*
X38242857Y-43902380D01*
X38861904Y-44902380D02*
X38766666Y-44854761D01*
X38719047Y-44807142D01*
X38671428Y-44711904D01*
X38671428Y-44426190D01*
X38719047Y-44330952D01*
X38766666Y-44283333D01*
X38861904Y-44235714D01*
X39004761Y-44235714D01*
X39100000Y-44283333D01*
X39147619Y-44330952D01*
X39195238Y-44426190D01*
X39195238Y-44711904D01*
X39147619Y-44807142D01*
X39100000Y-44854761D01*
X39004761Y-44902380D01*
X38861904Y-44902380D01*
X40100000Y-44902380D02*
X39623809Y-44902380D01*
X39623809Y-43902380D01*
X40433333Y-44378571D02*
X40766666Y-44378571D01*
X40909523Y-44902380D02*
X40433333Y-44902380D01*
X40433333Y-43902380D01*
X40909523Y-43902380D01*
X41338095Y-44902380D02*
X41338095Y-43902380D01*
X41576190Y-43902380D01*
X41719047Y-43950000D01*
X41814285Y-44045238D01*
X41861904Y-44140476D01*
X41909523Y-44330952D01*
X41909523Y-44473809D01*
X41861904Y-44664285D01*
X41814285Y-44759523D01*
X41719047Y-44854761D01*
X41576190Y-44902380D01*
X41338095Y-44902380D01*
%TO.C,MX1*%
X29575595Y-41727380D02*
X29575595Y-40727380D01*
X29908928Y-41441666D01*
X30242261Y-40727380D01*
X30242261Y-41727380D01*
X30623214Y-40727380D02*
X31289880Y-41727380D01*
X31289880Y-40727380D02*
X30623214Y-41727380D01*
X31670833Y-41346428D02*
X32432738Y-41346428D01*
X32908928Y-41727380D02*
X32908928Y-40727380D01*
X33480357Y-41727380D01*
X33480357Y-40727380D01*
X34099404Y-41727380D02*
X34004166Y-41679761D01*
X33956547Y-41632142D01*
X33908928Y-41536904D01*
X33908928Y-41251190D01*
X33956547Y-41155952D01*
X34004166Y-41108333D01*
X34099404Y-41060714D01*
X34242261Y-41060714D01*
X34337500Y-41108333D01*
X34385119Y-41155952D01*
X34432738Y-41251190D01*
X34432738Y-41536904D01*
X34385119Y-41632142D01*
X34337500Y-41679761D01*
X34242261Y-41727380D01*
X34099404Y-41727380D01*
X35337500Y-41727380D02*
X34861309Y-41727380D01*
X34861309Y-40727380D01*
X35670833Y-41203571D02*
X36004166Y-41203571D01*
X36147023Y-41727380D02*
X35670833Y-41727380D01*
X35670833Y-40727380D01*
X36147023Y-40727380D01*
X36575595Y-41727380D02*
X36575595Y-40727380D01*
X36813690Y-40727380D01*
X36956547Y-40775000D01*
X37051785Y-40870238D01*
X37099404Y-40965476D01*
X37147023Y-41155952D01*
X37147023Y-41298809D01*
X37099404Y-41489285D01*
X37051785Y-41584523D01*
X36956547Y-41679761D01*
X36813690Y-41727380D01*
X36575595Y-41727380D01*
%TD*%
M02*
