%TF.GenerationSoftware,KiCad,Pcbnew,(5.1.10-1-10_14)*%
%TF.CreationDate,2021-08-25T09:42:14+09:00*%
%TF.ProjectId,pcb,7063622e-6b69-4636-9164-5f7063625858,rev?*%
%TF.SameCoordinates,Original*%
%TF.FileFunction,Other,User*%
%FSLAX46Y46*%
G04 Gerber Fmt 4.6, Leading zero omitted, Abs format (unit mm)*
G04 Created by KiCad (PCBNEW (5.1.10-1-10_14)) date 2021-08-25 09:42:14*
%MOMM*%
%LPD*%
G01*
G04 APERTURE LIST*
%ADD10C,0.150000*%
%ADD11C,0.050000*%
G04 APERTURE END LIST*
D10*
%TO.C,MX31*%
X159353250Y-105727500D02*
X159353250Y-103187500D01*
X161893250Y-105727500D02*
X159353250Y-105727500D01*
X161893250Y-103187500D02*
X161893250Y-105727500D01*
X159353250Y-103187500D02*
X161893250Y-103187500D01*
X146399250Y-108267500D02*
X146399250Y-105727500D01*
X148939250Y-108267500D02*
X146399250Y-108267500D01*
X148939250Y-105727500D02*
X148939250Y-108267500D01*
X146399250Y-105727500D02*
X148939250Y-105727500D01*
X152495250Y-106997500D02*
G75*
G03*
X152495250Y-106997500I-1524000J0D01*
G01*
X158845250Y-104457500D02*
G75*
G03*
X158845250Y-104457500I-1524000J0D01*
G01*
D11*
%TO.C,Y1*%
X130954250Y-108399000D02*
X127554250Y-108399000D01*
X127554250Y-108399000D02*
X127554250Y-104199000D01*
X127554250Y-104199000D02*
X130954250Y-104199000D01*
X130954250Y-104199000D02*
X130954250Y-108399000D01*
D10*
%TO.C,USB1*%
X38426000Y-29725000D02*
X39176000Y-29725000D01*
X47426000Y-29725000D02*
X47426000Y-22225000D01*
X47426000Y-22225000D02*
X38426000Y-22225000D01*
X38426000Y-22225000D02*
X38426000Y-29725000D01*
X39176000Y-29725000D02*
X39176000Y-30725000D01*
X39176000Y-30725000D02*
X46676000Y-30725000D01*
X46676000Y-30725000D02*
X46676000Y-29725000D01*
X47426000Y-29725000D02*
X46676000Y-29725000D01*
D11*
%TO.C,U2*%
X110775000Y-100456250D02*
X124175000Y-100456250D01*
X110775000Y-113856250D02*
X124175000Y-113856250D01*
X110775000Y-100456250D02*
X110775000Y-113856250D01*
X124175000Y-100456250D02*
X124175000Y-113856250D01*
%TO.C,R6*%
X110492750Y-113921500D02*
X110492750Y-115821500D01*
X110492750Y-115821500D02*
X113852750Y-115821500D01*
X113852750Y-115821500D02*
X113852750Y-113921500D01*
X113852750Y-113921500D02*
X110492750Y-113921500D01*
%TO.C,R5*%
X125319750Y-105248500D02*
X127219750Y-105248500D01*
X127219750Y-105248500D02*
X127219750Y-101888500D01*
X127219750Y-101888500D02*
X125319750Y-101888500D01*
X125319750Y-101888500D02*
X125319750Y-105248500D01*
%TO.C,R4*%
X42865000Y-40923000D02*
X44765000Y-40923000D01*
X44765000Y-40923000D02*
X44765000Y-37563000D01*
X44765000Y-37563000D02*
X42865000Y-37563000D01*
X42865000Y-37563000D02*
X42865000Y-40923000D01*
%TO.C,R3*%
X40833000Y-40899500D02*
X42733000Y-40899500D01*
X42733000Y-40899500D02*
X42733000Y-37539500D01*
X42733000Y-37539500D02*
X40833000Y-37539500D01*
X40833000Y-37539500D02*
X40833000Y-40899500D01*
%TO.C,R2*%
X50321000Y-32192000D02*
X50321000Y-30292000D01*
X50321000Y-30292000D02*
X46961000Y-30292000D01*
X46961000Y-30292000D02*
X46961000Y-32192000D01*
X46961000Y-32192000D02*
X50321000Y-32192000D01*
%TO.C,R1*%
X37780000Y-29308000D02*
X35880000Y-29308000D01*
X35880000Y-29308000D02*
X35880000Y-32668000D01*
X35880000Y-32668000D02*
X37780000Y-32668000D01*
X37780000Y-32668000D02*
X37780000Y-29308000D01*
D10*
%TO.C,MX61*%
X301720250Y-104457500D02*
G75*
G03*
X301720250Y-104457500I-1524000J0D01*
G01*
X295370250Y-106997500D02*
G75*
G03*
X295370250Y-106997500I-1524000J0D01*
G01*
X289274250Y-105727500D02*
X291814250Y-105727500D01*
X291814250Y-105727500D02*
X291814250Y-108267500D01*
X291814250Y-108267500D02*
X289274250Y-108267500D01*
X289274250Y-108267500D02*
X289274250Y-105727500D01*
X302228250Y-103187500D02*
X304768250Y-103187500D01*
X304768250Y-103187500D02*
X304768250Y-105727500D01*
X304768250Y-105727500D02*
X302228250Y-105727500D01*
X302228250Y-105727500D02*
X302228250Y-103187500D01*
%TO.C,MX60*%
X287432750Y-85407500D02*
G75*
G03*
X287432750Y-85407500I-1524000J0D01*
G01*
X281082750Y-87947500D02*
G75*
G03*
X281082750Y-87947500I-1524000J0D01*
G01*
X274986750Y-86677500D02*
X277526750Y-86677500D01*
X277526750Y-86677500D02*
X277526750Y-89217500D01*
X277526750Y-89217500D02*
X274986750Y-89217500D01*
X274986750Y-89217500D02*
X274986750Y-86677500D01*
X287940750Y-84137500D02*
X290480750Y-84137500D01*
X290480750Y-84137500D02*
X290480750Y-86677500D01*
X290480750Y-86677500D02*
X287940750Y-86677500D01*
X287940750Y-86677500D02*
X287940750Y-84137500D01*
%TO.C,MX59*%
X292195250Y-66357500D02*
G75*
G03*
X292195250Y-66357500I-1524000J0D01*
G01*
X285845250Y-68897500D02*
G75*
G03*
X285845250Y-68897500I-1524000J0D01*
G01*
X279749250Y-67627500D02*
X282289250Y-67627500D01*
X282289250Y-67627500D02*
X282289250Y-70167500D01*
X282289250Y-70167500D02*
X279749250Y-70167500D01*
X279749250Y-70167500D02*
X279749250Y-67627500D01*
X292703250Y-65087500D02*
X295243250Y-65087500D01*
X295243250Y-65087500D02*
X295243250Y-67627500D01*
X295243250Y-67627500D02*
X292703250Y-67627500D01*
X292703250Y-67627500D02*
X292703250Y-65087500D01*
%TO.C,MX58*%
X290703000Y-58737500D02*
X288163000Y-58737500D01*
X288163000Y-58737500D02*
X288163000Y-56197500D01*
X288163000Y-56197500D02*
X290703000Y-56197500D01*
X290703000Y-56197500D02*
X290703000Y-58737500D01*
X301117000Y-56197500D02*
X301117000Y-53657500D01*
X301117000Y-53657500D02*
X303657000Y-53657500D01*
X303657000Y-53657500D02*
X303657000Y-56197500D01*
X303657000Y-56197500D02*
X301117000Y-56197500D01*
X294259000Y-57467500D02*
G75*
G03*
X294259000Y-57467500I-1524000J0D01*
G01*
X300609000Y-54927500D02*
G75*
G03*
X300609000Y-54927500I-1524000J0D01*
G01*
%TO.C,MX57*%
X294576500Y-28257500D02*
G75*
G03*
X294576500Y-28257500I-1524000J0D01*
G01*
X288226500Y-30797500D02*
G75*
G03*
X288226500Y-30797500I-1524000J0D01*
G01*
X282130500Y-29527500D02*
X284670500Y-29527500D01*
X284670500Y-29527500D02*
X284670500Y-32067500D01*
X284670500Y-32067500D02*
X282130500Y-32067500D01*
X282130500Y-32067500D02*
X282130500Y-29527500D01*
X295084500Y-26987500D02*
X297624500Y-26987500D01*
X297624500Y-26987500D02*
X297624500Y-29527500D01*
X297624500Y-29527500D02*
X295084500Y-29527500D01*
X295084500Y-29527500D02*
X295084500Y-26987500D01*
%TO.C,MX56*%
X277907750Y-104457500D02*
G75*
G03*
X277907750Y-104457500I-1524000J0D01*
G01*
X271557750Y-106997500D02*
G75*
G03*
X271557750Y-106997500I-1524000J0D01*
G01*
X265461750Y-105727500D02*
X268001750Y-105727500D01*
X268001750Y-105727500D02*
X268001750Y-108267500D01*
X268001750Y-108267500D02*
X265461750Y-108267500D01*
X265461750Y-108267500D02*
X265461750Y-105727500D01*
X278415750Y-103187500D02*
X280955750Y-103187500D01*
X280955750Y-103187500D02*
X280955750Y-105727500D01*
X280955750Y-105727500D02*
X278415750Y-105727500D01*
X278415750Y-105727500D02*
X278415750Y-103187500D01*
%TO.C,MX55*%
X275526500Y-47307500D02*
G75*
G03*
X275526500Y-47307500I-1524000J0D01*
G01*
X269176500Y-49847500D02*
G75*
G03*
X269176500Y-49847500I-1524000J0D01*
G01*
X276034500Y-46037500D02*
X278574500Y-46037500D01*
X278574500Y-46037500D02*
X278574500Y-48577500D01*
X278574500Y-48577500D02*
X276034500Y-48577500D01*
X276034500Y-48577500D02*
X276034500Y-46037500D01*
X265620500Y-48577500D02*
X263080500Y-48577500D01*
X263080500Y-48577500D02*
X263080500Y-51117500D01*
X263080500Y-51117500D02*
X265620500Y-51117500D01*
X265620500Y-51117500D02*
X265620500Y-48577500D01*
%TO.C,MX54*%
X266001500Y-28257500D02*
G75*
G03*
X266001500Y-28257500I-1524000J0D01*
G01*
X259651500Y-30797500D02*
G75*
G03*
X259651500Y-30797500I-1524000J0D01*
G01*
X266509500Y-26987500D02*
X269049500Y-26987500D01*
X269049500Y-26987500D02*
X269049500Y-29527500D01*
X269049500Y-29527500D02*
X266509500Y-29527500D01*
X266509500Y-29527500D02*
X266509500Y-26987500D01*
X256095500Y-29527500D02*
X253555500Y-29527500D01*
X253555500Y-29527500D02*
X253555500Y-32067500D01*
X253555500Y-32067500D02*
X256095500Y-32067500D01*
X256095500Y-32067500D02*
X256095500Y-29527500D01*
%TO.C,MX53*%
X254095250Y-104457500D02*
G75*
G03*
X254095250Y-104457500I-1524000J0D01*
G01*
X247745250Y-106997500D02*
G75*
G03*
X247745250Y-106997500I-1524000J0D01*
G01*
X241649250Y-105727500D02*
X244189250Y-105727500D01*
X244189250Y-105727500D02*
X244189250Y-108267500D01*
X244189250Y-108267500D02*
X241649250Y-108267500D01*
X241649250Y-108267500D02*
X241649250Y-105727500D01*
X254603250Y-103187500D02*
X257143250Y-103187500D01*
X257143250Y-103187500D02*
X257143250Y-105727500D01*
X257143250Y-105727500D02*
X254603250Y-105727500D01*
X254603250Y-105727500D02*
X254603250Y-103187500D01*
%TO.C,MX52*%
X251714000Y-85407500D02*
G75*
G03*
X251714000Y-85407500I-1524000J0D01*
G01*
X245364000Y-87947500D02*
G75*
G03*
X245364000Y-87947500I-1524000J0D01*
G01*
X252222000Y-84137500D02*
X254762000Y-84137500D01*
X254762000Y-84137500D02*
X254762000Y-86677500D01*
X254762000Y-86677500D02*
X252222000Y-86677500D01*
X252222000Y-86677500D02*
X252222000Y-84137500D01*
X241808000Y-86677500D02*
X239268000Y-86677500D01*
X239268000Y-86677500D02*
X239268000Y-89217500D01*
X239268000Y-89217500D02*
X241808000Y-89217500D01*
X241808000Y-89217500D02*
X241808000Y-86677500D01*
%TO.C,MX51*%
X261239000Y-66357500D02*
G75*
G03*
X261239000Y-66357500I-1524000J0D01*
G01*
X254889000Y-68897500D02*
G75*
G03*
X254889000Y-68897500I-1524000J0D01*
G01*
X261747000Y-65087500D02*
X264287000Y-65087500D01*
X264287000Y-65087500D02*
X264287000Y-67627500D01*
X264287000Y-67627500D02*
X261747000Y-67627500D01*
X261747000Y-67627500D02*
X261747000Y-65087500D01*
X251333000Y-67627500D02*
X248793000Y-67627500D01*
X248793000Y-67627500D02*
X248793000Y-70167500D01*
X248793000Y-70167500D02*
X251333000Y-70167500D01*
X251333000Y-70167500D02*
X251333000Y-67627500D01*
%TO.C,MX50*%
X256476500Y-47307500D02*
G75*
G03*
X256476500Y-47307500I-1524000J0D01*
G01*
X250126500Y-49847500D02*
G75*
G03*
X250126500Y-49847500I-1524000J0D01*
G01*
X256984500Y-46037500D02*
X259524500Y-46037500D01*
X259524500Y-46037500D02*
X259524500Y-48577500D01*
X259524500Y-48577500D02*
X256984500Y-48577500D01*
X256984500Y-48577500D02*
X256984500Y-46037500D01*
X246570500Y-48577500D02*
X244030500Y-48577500D01*
X244030500Y-48577500D02*
X244030500Y-51117500D01*
X244030500Y-51117500D02*
X246570500Y-51117500D01*
X246570500Y-51117500D02*
X246570500Y-48577500D01*
%TO.C,MX49*%
X246951500Y-28257500D02*
G75*
G03*
X246951500Y-28257500I-1524000J0D01*
G01*
X240601500Y-30797500D02*
G75*
G03*
X240601500Y-30797500I-1524000J0D01*
G01*
X247459500Y-26987500D02*
X249999500Y-26987500D01*
X249999500Y-26987500D02*
X249999500Y-29527500D01*
X249999500Y-29527500D02*
X247459500Y-29527500D01*
X247459500Y-29527500D02*
X247459500Y-26987500D01*
X237045500Y-29527500D02*
X234505500Y-29527500D01*
X234505500Y-29527500D02*
X234505500Y-32067500D01*
X234505500Y-32067500D02*
X237045500Y-32067500D01*
X237045500Y-32067500D02*
X237045500Y-29527500D01*
%TO.C,MX48*%
X225202750Y-114617500D02*
G75*
G03*
X225202750Y-114617500I-1524000J0D01*
G01*
X231552750Y-112077500D02*
G75*
G03*
X231552750Y-112077500I-1524000J0D01*
G01*
X234600750Y-113347500D02*
X232060750Y-113347500D01*
X232060750Y-113347500D02*
X232060750Y-110807500D01*
X232060750Y-110807500D02*
X234600750Y-110807500D01*
X234600750Y-110807500D02*
X234600750Y-113347500D01*
X221646750Y-115887500D02*
X219106750Y-115887500D01*
X219106750Y-115887500D02*
X219106750Y-113347500D01*
X219106750Y-113347500D02*
X221646750Y-113347500D01*
X221646750Y-113347500D02*
X221646750Y-115887500D01*
%TO.C,MX47*%
X232664000Y-85407500D02*
G75*
G03*
X232664000Y-85407500I-1524000J0D01*
G01*
X226314000Y-87947500D02*
G75*
G03*
X226314000Y-87947500I-1524000J0D01*
G01*
X233172000Y-84137500D02*
X235712000Y-84137500D01*
X235712000Y-84137500D02*
X235712000Y-86677500D01*
X235712000Y-86677500D02*
X233172000Y-86677500D01*
X233172000Y-86677500D02*
X233172000Y-84137500D01*
X222758000Y-86677500D02*
X220218000Y-86677500D01*
X220218000Y-86677500D02*
X220218000Y-89217500D01*
X220218000Y-89217500D02*
X222758000Y-89217500D01*
X222758000Y-89217500D02*
X222758000Y-86677500D01*
%TO.C,MX46*%
X242189000Y-66357500D02*
G75*
G03*
X242189000Y-66357500I-1524000J0D01*
G01*
X235839000Y-68897500D02*
G75*
G03*
X235839000Y-68897500I-1524000J0D01*
G01*
X242697000Y-65087500D02*
X245237000Y-65087500D01*
X245237000Y-65087500D02*
X245237000Y-67627500D01*
X245237000Y-67627500D02*
X242697000Y-67627500D01*
X242697000Y-67627500D02*
X242697000Y-65087500D01*
X232283000Y-67627500D02*
X229743000Y-67627500D01*
X229743000Y-67627500D02*
X229743000Y-70167500D01*
X229743000Y-70167500D02*
X232283000Y-70167500D01*
X232283000Y-70167500D02*
X232283000Y-67627500D01*
%TO.C,MX45*%
X237426500Y-47307500D02*
G75*
G03*
X237426500Y-47307500I-1524000J0D01*
G01*
X231076500Y-49847500D02*
G75*
G03*
X231076500Y-49847500I-1524000J0D01*
G01*
X237934500Y-46037500D02*
X240474500Y-46037500D01*
X240474500Y-46037500D02*
X240474500Y-48577500D01*
X240474500Y-48577500D02*
X237934500Y-48577500D01*
X237934500Y-48577500D02*
X237934500Y-46037500D01*
X227520500Y-48577500D02*
X224980500Y-48577500D01*
X224980500Y-48577500D02*
X224980500Y-51117500D01*
X224980500Y-51117500D02*
X227520500Y-51117500D01*
X227520500Y-51117500D02*
X227520500Y-48577500D01*
%TO.C,MX44*%
X227901500Y-28257500D02*
G75*
G03*
X227901500Y-28257500I-1524000J0D01*
G01*
X221551500Y-30797500D02*
G75*
G03*
X221551500Y-30797500I-1524000J0D01*
G01*
X228409500Y-26987500D02*
X230949500Y-26987500D01*
X230949500Y-26987500D02*
X230949500Y-29527500D01*
X230949500Y-29527500D02*
X228409500Y-29527500D01*
X228409500Y-29527500D02*
X228409500Y-26987500D01*
X217995500Y-29527500D02*
X215455500Y-29527500D01*
X215455500Y-29527500D02*
X215455500Y-32067500D01*
X215455500Y-32067500D02*
X217995500Y-32067500D01*
X217995500Y-32067500D02*
X217995500Y-29527500D01*
%TO.C,MX43*%
X213614000Y-85407500D02*
G75*
G03*
X213614000Y-85407500I-1524000J0D01*
G01*
X207264000Y-87947500D02*
G75*
G03*
X207264000Y-87947500I-1524000J0D01*
G01*
X214122000Y-84137500D02*
X216662000Y-84137500D01*
X216662000Y-84137500D02*
X216662000Y-86677500D01*
X216662000Y-86677500D02*
X214122000Y-86677500D01*
X214122000Y-86677500D02*
X214122000Y-84137500D01*
X203708000Y-86677500D02*
X201168000Y-86677500D01*
X201168000Y-86677500D02*
X201168000Y-89217500D01*
X201168000Y-89217500D02*
X203708000Y-89217500D01*
X203708000Y-89217500D02*
X203708000Y-86677500D01*
%TO.C,MX42*%
X223139000Y-66357500D02*
G75*
G03*
X223139000Y-66357500I-1524000J0D01*
G01*
X216789000Y-68897500D02*
G75*
G03*
X216789000Y-68897500I-1524000J0D01*
G01*
X223647000Y-65087500D02*
X226187000Y-65087500D01*
X226187000Y-65087500D02*
X226187000Y-67627500D01*
X226187000Y-67627500D02*
X223647000Y-67627500D01*
X223647000Y-67627500D02*
X223647000Y-65087500D01*
X213233000Y-67627500D02*
X210693000Y-67627500D01*
X210693000Y-67627500D02*
X210693000Y-70167500D01*
X210693000Y-70167500D02*
X213233000Y-70167500D01*
X213233000Y-70167500D02*
X213233000Y-67627500D01*
%TO.C,MX41*%
X218376500Y-47307500D02*
G75*
G03*
X218376500Y-47307500I-1524000J0D01*
G01*
X212026500Y-49847500D02*
G75*
G03*
X212026500Y-49847500I-1524000J0D01*
G01*
X218884500Y-46037500D02*
X221424500Y-46037500D01*
X221424500Y-46037500D02*
X221424500Y-48577500D01*
X221424500Y-48577500D02*
X218884500Y-48577500D01*
X218884500Y-48577500D02*
X218884500Y-46037500D01*
X208470500Y-48577500D02*
X205930500Y-48577500D01*
X205930500Y-48577500D02*
X205930500Y-51117500D01*
X205930500Y-51117500D02*
X208470500Y-51117500D01*
X208470500Y-51117500D02*
X208470500Y-48577500D01*
%TO.C,MX40*%
X208851500Y-28257500D02*
G75*
G03*
X208851500Y-28257500I-1524000J0D01*
G01*
X202501500Y-30797500D02*
G75*
G03*
X202501500Y-30797500I-1524000J0D01*
G01*
X209359500Y-26987500D02*
X211899500Y-26987500D01*
X211899500Y-26987500D02*
X211899500Y-29527500D01*
X211899500Y-29527500D02*
X209359500Y-29527500D01*
X209359500Y-29527500D02*
X209359500Y-26987500D01*
X198945500Y-29527500D02*
X196405500Y-29527500D01*
X196405500Y-29527500D02*
X196405500Y-32067500D01*
X196405500Y-32067500D02*
X198945500Y-32067500D01*
X198945500Y-32067500D02*
X198945500Y-29527500D01*
%TO.C,MX39*%
X194564000Y-85407500D02*
G75*
G03*
X194564000Y-85407500I-1524000J0D01*
G01*
X188214000Y-87947500D02*
G75*
G03*
X188214000Y-87947500I-1524000J0D01*
G01*
X195072000Y-84137500D02*
X197612000Y-84137500D01*
X197612000Y-84137500D02*
X197612000Y-86677500D01*
X197612000Y-86677500D02*
X195072000Y-86677500D01*
X195072000Y-86677500D02*
X195072000Y-84137500D01*
X184658000Y-86677500D02*
X182118000Y-86677500D01*
X182118000Y-86677500D02*
X182118000Y-89217500D01*
X182118000Y-89217500D02*
X184658000Y-89217500D01*
X184658000Y-89217500D02*
X184658000Y-86677500D01*
%TO.C,MX38*%
X204089000Y-66357500D02*
G75*
G03*
X204089000Y-66357500I-1524000J0D01*
G01*
X197739000Y-68897500D02*
G75*
G03*
X197739000Y-68897500I-1524000J0D01*
G01*
X204597000Y-65087500D02*
X207137000Y-65087500D01*
X207137000Y-65087500D02*
X207137000Y-67627500D01*
X207137000Y-67627500D02*
X204597000Y-67627500D01*
X204597000Y-67627500D02*
X204597000Y-65087500D01*
X194183000Y-67627500D02*
X191643000Y-67627500D01*
X191643000Y-67627500D02*
X191643000Y-70167500D01*
X191643000Y-70167500D02*
X194183000Y-70167500D01*
X194183000Y-70167500D02*
X194183000Y-67627500D01*
%TO.C,MX37*%
X199326500Y-47307500D02*
G75*
G03*
X199326500Y-47307500I-1524000J0D01*
G01*
X192976500Y-49847500D02*
G75*
G03*
X192976500Y-49847500I-1524000J0D01*
G01*
X199834500Y-46037500D02*
X202374500Y-46037500D01*
X202374500Y-46037500D02*
X202374500Y-48577500D01*
X202374500Y-48577500D02*
X199834500Y-48577500D01*
X199834500Y-48577500D02*
X199834500Y-46037500D01*
X189420500Y-48577500D02*
X186880500Y-48577500D01*
X186880500Y-48577500D02*
X186880500Y-51117500D01*
X186880500Y-51117500D02*
X189420500Y-51117500D01*
X189420500Y-51117500D02*
X189420500Y-48577500D01*
%TO.C,MX36*%
X189801500Y-28257500D02*
G75*
G03*
X189801500Y-28257500I-1524000J0D01*
G01*
X183451500Y-30797500D02*
G75*
G03*
X183451500Y-30797500I-1524000J0D01*
G01*
X190309500Y-26987500D02*
X192849500Y-26987500D01*
X192849500Y-26987500D02*
X192849500Y-29527500D01*
X192849500Y-29527500D02*
X190309500Y-29527500D01*
X190309500Y-29527500D02*
X190309500Y-26987500D01*
X179895500Y-29527500D02*
X177355500Y-29527500D01*
X177355500Y-29527500D02*
X177355500Y-32067500D01*
X177355500Y-32067500D02*
X179895500Y-32067500D01*
X179895500Y-32067500D02*
X179895500Y-29527500D01*
%TO.C,MX35*%
X175514000Y-85407500D02*
G75*
G03*
X175514000Y-85407500I-1524000J0D01*
G01*
X169164000Y-87947500D02*
G75*
G03*
X169164000Y-87947500I-1524000J0D01*
G01*
X176022000Y-84137500D02*
X178562000Y-84137500D01*
X178562000Y-84137500D02*
X178562000Y-86677500D01*
X178562000Y-86677500D02*
X176022000Y-86677500D01*
X176022000Y-86677500D02*
X176022000Y-84137500D01*
X165608000Y-86677500D02*
X163068000Y-86677500D01*
X163068000Y-86677500D02*
X163068000Y-89217500D01*
X163068000Y-89217500D02*
X165608000Y-89217500D01*
X165608000Y-89217500D02*
X165608000Y-86677500D01*
%TO.C,MX34*%
X185039000Y-66357500D02*
G75*
G03*
X185039000Y-66357500I-1524000J0D01*
G01*
X178689000Y-68897500D02*
G75*
G03*
X178689000Y-68897500I-1524000J0D01*
G01*
X185547000Y-65087500D02*
X188087000Y-65087500D01*
X188087000Y-65087500D02*
X188087000Y-67627500D01*
X188087000Y-67627500D02*
X185547000Y-67627500D01*
X185547000Y-67627500D02*
X185547000Y-65087500D01*
X175133000Y-67627500D02*
X172593000Y-67627500D01*
X172593000Y-67627500D02*
X172593000Y-70167500D01*
X172593000Y-70167500D02*
X175133000Y-70167500D01*
X175133000Y-70167500D02*
X175133000Y-67627500D01*
%TO.C,MX33*%
X180276500Y-47307500D02*
G75*
G03*
X180276500Y-47307500I-1524000J0D01*
G01*
X173926500Y-49847500D02*
G75*
G03*
X173926500Y-49847500I-1524000J0D01*
G01*
X180784500Y-46037500D02*
X183324500Y-46037500D01*
X183324500Y-46037500D02*
X183324500Y-48577500D01*
X183324500Y-48577500D02*
X180784500Y-48577500D01*
X180784500Y-48577500D02*
X180784500Y-46037500D01*
X170370500Y-48577500D02*
X167830500Y-48577500D01*
X167830500Y-48577500D02*
X167830500Y-51117500D01*
X167830500Y-51117500D02*
X170370500Y-51117500D01*
X170370500Y-51117500D02*
X170370500Y-48577500D01*
%TO.C,MX32*%
X170751500Y-28257500D02*
G75*
G03*
X170751500Y-28257500I-1524000J0D01*
G01*
X164401500Y-30797500D02*
G75*
G03*
X164401500Y-30797500I-1524000J0D01*
G01*
X171259500Y-26987500D02*
X173799500Y-26987500D01*
X173799500Y-26987500D02*
X173799500Y-29527500D01*
X173799500Y-29527500D02*
X171259500Y-29527500D01*
X171259500Y-29527500D02*
X171259500Y-26987500D01*
X160845500Y-29527500D02*
X158305500Y-29527500D01*
X158305500Y-29527500D02*
X158305500Y-32067500D01*
X158305500Y-32067500D02*
X160845500Y-32067500D01*
X160845500Y-32067500D02*
X160845500Y-29527500D01*
%TO.C,MX30*%
X156464000Y-85407500D02*
G75*
G03*
X156464000Y-85407500I-1524000J0D01*
G01*
X150114000Y-87947500D02*
G75*
G03*
X150114000Y-87947500I-1524000J0D01*
G01*
X156972000Y-84137500D02*
X159512000Y-84137500D01*
X159512000Y-84137500D02*
X159512000Y-86677500D01*
X159512000Y-86677500D02*
X156972000Y-86677500D01*
X156972000Y-86677500D02*
X156972000Y-84137500D01*
X146558000Y-86677500D02*
X144018000Y-86677500D01*
X144018000Y-86677500D02*
X144018000Y-89217500D01*
X144018000Y-89217500D02*
X146558000Y-89217500D01*
X146558000Y-89217500D02*
X146558000Y-86677500D01*
%TO.C,MX29*%
X165989000Y-66357500D02*
G75*
G03*
X165989000Y-66357500I-1524000J0D01*
G01*
X159639000Y-68897500D02*
G75*
G03*
X159639000Y-68897500I-1524000J0D01*
G01*
X166497000Y-65087500D02*
X169037000Y-65087500D01*
X169037000Y-65087500D02*
X169037000Y-67627500D01*
X169037000Y-67627500D02*
X166497000Y-67627500D01*
X166497000Y-67627500D02*
X166497000Y-65087500D01*
X156083000Y-67627500D02*
X153543000Y-67627500D01*
X153543000Y-67627500D02*
X153543000Y-70167500D01*
X153543000Y-70167500D02*
X156083000Y-70167500D01*
X156083000Y-70167500D02*
X156083000Y-67627500D01*
%TO.C,MX28*%
X161226500Y-47307500D02*
G75*
G03*
X161226500Y-47307500I-1524000J0D01*
G01*
X154876500Y-49847500D02*
G75*
G03*
X154876500Y-49847500I-1524000J0D01*
G01*
X161734500Y-46037500D02*
X164274500Y-46037500D01*
X164274500Y-46037500D02*
X164274500Y-48577500D01*
X164274500Y-48577500D02*
X161734500Y-48577500D01*
X161734500Y-48577500D02*
X161734500Y-46037500D01*
X151320500Y-48577500D02*
X148780500Y-48577500D01*
X148780500Y-48577500D02*
X148780500Y-51117500D01*
X148780500Y-51117500D02*
X151320500Y-51117500D01*
X151320500Y-51117500D02*
X151320500Y-48577500D01*
%TO.C,MX27*%
X151701500Y-28257500D02*
G75*
G03*
X151701500Y-28257500I-1524000J0D01*
G01*
X145351500Y-30797500D02*
G75*
G03*
X145351500Y-30797500I-1524000J0D01*
G01*
X152209500Y-26987500D02*
X154749500Y-26987500D01*
X154749500Y-26987500D02*
X154749500Y-29527500D01*
X154749500Y-29527500D02*
X152209500Y-29527500D01*
X152209500Y-29527500D02*
X152209500Y-26987500D01*
X141795500Y-29527500D02*
X139255500Y-29527500D01*
X139255500Y-29527500D02*
X139255500Y-32067500D01*
X139255500Y-32067500D02*
X141795500Y-32067500D01*
X141795500Y-32067500D02*
X141795500Y-29527500D01*
%TO.C,MX26*%
X137414000Y-85407500D02*
G75*
G03*
X137414000Y-85407500I-1524000J0D01*
G01*
X131064000Y-87947500D02*
G75*
G03*
X131064000Y-87947500I-1524000J0D01*
G01*
X137922000Y-84137500D02*
X140462000Y-84137500D01*
X140462000Y-84137500D02*
X140462000Y-86677500D01*
X140462000Y-86677500D02*
X137922000Y-86677500D01*
X137922000Y-86677500D02*
X137922000Y-84137500D01*
X127508000Y-86677500D02*
X124968000Y-86677500D01*
X124968000Y-86677500D02*
X124968000Y-89217500D01*
X124968000Y-89217500D02*
X127508000Y-89217500D01*
X127508000Y-89217500D02*
X127508000Y-86677500D01*
%TO.C,MX25*%
X146939000Y-66357500D02*
G75*
G03*
X146939000Y-66357500I-1524000J0D01*
G01*
X140589000Y-68897500D02*
G75*
G03*
X140589000Y-68897500I-1524000J0D01*
G01*
X147447000Y-65087500D02*
X149987000Y-65087500D01*
X149987000Y-65087500D02*
X149987000Y-67627500D01*
X149987000Y-67627500D02*
X147447000Y-67627500D01*
X147447000Y-67627500D02*
X147447000Y-65087500D01*
X137033000Y-67627500D02*
X134493000Y-67627500D01*
X134493000Y-67627500D02*
X134493000Y-70167500D01*
X134493000Y-70167500D02*
X137033000Y-70167500D01*
X137033000Y-70167500D02*
X137033000Y-67627500D01*
%TO.C,MX24*%
X142176500Y-47307500D02*
G75*
G03*
X142176500Y-47307500I-1524000J0D01*
G01*
X135826500Y-49847500D02*
G75*
G03*
X135826500Y-49847500I-1524000J0D01*
G01*
X142684500Y-46037500D02*
X145224500Y-46037500D01*
X145224500Y-46037500D02*
X145224500Y-48577500D01*
X145224500Y-48577500D02*
X142684500Y-48577500D01*
X142684500Y-48577500D02*
X142684500Y-46037500D01*
X132270500Y-48577500D02*
X129730500Y-48577500D01*
X129730500Y-48577500D02*
X129730500Y-51117500D01*
X129730500Y-51117500D02*
X132270500Y-51117500D01*
X132270500Y-51117500D02*
X132270500Y-48577500D01*
%TO.C,MX23*%
X132651500Y-28257500D02*
G75*
G03*
X132651500Y-28257500I-1524000J0D01*
G01*
X126301500Y-30797500D02*
G75*
G03*
X126301500Y-30797500I-1524000J0D01*
G01*
X133159500Y-26987500D02*
X135699500Y-26987500D01*
X135699500Y-26987500D02*
X135699500Y-29527500D01*
X135699500Y-29527500D02*
X133159500Y-29527500D01*
X133159500Y-29527500D02*
X133159500Y-26987500D01*
X122745500Y-29527500D02*
X120205500Y-29527500D01*
X120205500Y-29527500D02*
X120205500Y-32067500D01*
X120205500Y-32067500D02*
X122745500Y-32067500D01*
X122745500Y-32067500D02*
X122745500Y-29527500D01*
%TO.C,MX22*%
X118364000Y-85407500D02*
G75*
G03*
X118364000Y-85407500I-1524000J0D01*
G01*
X112014000Y-87947500D02*
G75*
G03*
X112014000Y-87947500I-1524000J0D01*
G01*
X118872000Y-84137500D02*
X121412000Y-84137500D01*
X121412000Y-84137500D02*
X121412000Y-86677500D01*
X121412000Y-86677500D02*
X118872000Y-86677500D01*
X118872000Y-86677500D02*
X118872000Y-84137500D01*
X108458000Y-86677500D02*
X105918000Y-86677500D01*
X105918000Y-86677500D02*
X105918000Y-89217500D01*
X105918000Y-89217500D02*
X108458000Y-89217500D01*
X108458000Y-89217500D02*
X108458000Y-86677500D01*
%TO.C,MX21*%
X127889000Y-66357500D02*
G75*
G03*
X127889000Y-66357500I-1524000J0D01*
G01*
X121539000Y-68897500D02*
G75*
G03*
X121539000Y-68897500I-1524000J0D01*
G01*
X128397000Y-65087500D02*
X130937000Y-65087500D01*
X130937000Y-65087500D02*
X130937000Y-67627500D01*
X130937000Y-67627500D02*
X128397000Y-67627500D01*
X128397000Y-67627500D02*
X128397000Y-65087500D01*
X117983000Y-67627500D02*
X115443000Y-67627500D01*
X115443000Y-67627500D02*
X115443000Y-70167500D01*
X115443000Y-70167500D02*
X117983000Y-70167500D01*
X117983000Y-70167500D02*
X117983000Y-67627500D01*
%TO.C,MX20*%
X123126500Y-47307500D02*
G75*
G03*
X123126500Y-47307500I-1524000J0D01*
G01*
X116776500Y-49847500D02*
G75*
G03*
X116776500Y-49847500I-1524000J0D01*
G01*
X123634500Y-46037500D02*
X126174500Y-46037500D01*
X126174500Y-46037500D02*
X126174500Y-48577500D01*
X126174500Y-48577500D02*
X123634500Y-48577500D01*
X123634500Y-48577500D02*
X123634500Y-46037500D01*
X113220500Y-48577500D02*
X110680500Y-48577500D01*
X110680500Y-48577500D02*
X110680500Y-51117500D01*
X110680500Y-51117500D02*
X113220500Y-51117500D01*
X113220500Y-51117500D02*
X113220500Y-48577500D01*
%TO.C,MX19*%
X113601500Y-28257500D02*
G75*
G03*
X113601500Y-28257500I-1524000J0D01*
G01*
X107251500Y-30797500D02*
G75*
G03*
X107251500Y-30797500I-1524000J0D01*
G01*
X114109500Y-26987500D02*
X116649500Y-26987500D01*
X116649500Y-26987500D02*
X116649500Y-29527500D01*
X116649500Y-29527500D02*
X114109500Y-29527500D01*
X114109500Y-29527500D02*
X114109500Y-26987500D01*
X103695500Y-29527500D02*
X101155500Y-29527500D01*
X101155500Y-29527500D02*
X101155500Y-32067500D01*
X101155500Y-32067500D02*
X103695500Y-32067500D01*
X103695500Y-32067500D02*
X103695500Y-29527500D01*
%TO.C,MX18*%
X99314000Y-85407500D02*
G75*
G03*
X99314000Y-85407500I-1524000J0D01*
G01*
X92964000Y-87947500D02*
G75*
G03*
X92964000Y-87947500I-1524000J0D01*
G01*
X99822000Y-84137500D02*
X102362000Y-84137500D01*
X102362000Y-84137500D02*
X102362000Y-86677500D01*
X102362000Y-86677500D02*
X99822000Y-86677500D01*
X99822000Y-86677500D02*
X99822000Y-84137500D01*
X89408000Y-86677500D02*
X86868000Y-86677500D01*
X86868000Y-86677500D02*
X86868000Y-89217500D01*
X86868000Y-89217500D02*
X89408000Y-89217500D01*
X89408000Y-89217500D02*
X89408000Y-86677500D01*
%TO.C,MX17*%
X108839000Y-66357500D02*
G75*
G03*
X108839000Y-66357500I-1524000J0D01*
G01*
X102489000Y-68897500D02*
G75*
G03*
X102489000Y-68897500I-1524000J0D01*
G01*
X109347000Y-65087500D02*
X111887000Y-65087500D01*
X111887000Y-65087500D02*
X111887000Y-67627500D01*
X111887000Y-67627500D02*
X109347000Y-67627500D01*
X109347000Y-67627500D02*
X109347000Y-65087500D01*
X98933000Y-67627500D02*
X96393000Y-67627500D01*
X96393000Y-67627500D02*
X96393000Y-70167500D01*
X96393000Y-70167500D02*
X98933000Y-70167500D01*
X98933000Y-70167500D02*
X98933000Y-67627500D01*
%TO.C,MX16*%
X104076500Y-47307500D02*
G75*
G03*
X104076500Y-47307500I-1524000J0D01*
G01*
X97726500Y-49847500D02*
G75*
G03*
X97726500Y-49847500I-1524000J0D01*
G01*
X104584500Y-46037500D02*
X107124500Y-46037500D01*
X107124500Y-46037500D02*
X107124500Y-48577500D01*
X107124500Y-48577500D02*
X104584500Y-48577500D01*
X104584500Y-48577500D02*
X104584500Y-46037500D01*
X94170500Y-48577500D02*
X91630500Y-48577500D01*
X91630500Y-48577500D02*
X91630500Y-51117500D01*
X91630500Y-51117500D02*
X94170500Y-51117500D01*
X94170500Y-51117500D02*
X94170500Y-48577500D01*
%TO.C,MX15*%
X94551500Y-28257500D02*
G75*
G03*
X94551500Y-28257500I-1524000J0D01*
G01*
X88201500Y-30797500D02*
G75*
G03*
X88201500Y-30797500I-1524000J0D01*
G01*
X95059500Y-26987500D02*
X97599500Y-26987500D01*
X97599500Y-26987500D02*
X97599500Y-29527500D01*
X97599500Y-29527500D02*
X95059500Y-29527500D01*
X95059500Y-29527500D02*
X95059500Y-26987500D01*
X84645500Y-29527500D02*
X82105500Y-29527500D01*
X82105500Y-29527500D02*
X82105500Y-32067500D01*
X82105500Y-32067500D02*
X84645500Y-32067500D01*
X84645500Y-32067500D02*
X84645500Y-29527500D01*
%TO.C,MX14*%
X87407750Y-104457500D02*
G75*
G03*
X87407750Y-104457500I-1524000J0D01*
G01*
X81057750Y-106997500D02*
G75*
G03*
X81057750Y-106997500I-1524000J0D01*
G01*
X74961750Y-105727500D02*
X77501750Y-105727500D01*
X77501750Y-105727500D02*
X77501750Y-108267500D01*
X77501750Y-108267500D02*
X74961750Y-108267500D01*
X74961750Y-108267500D02*
X74961750Y-105727500D01*
X87915750Y-103187500D02*
X90455750Y-103187500D01*
X90455750Y-103187500D02*
X90455750Y-105727500D01*
X90455750Y-105727500D02*
X87915750Y-105727500D01*
X87915750Y-105727500D02*
X87915750Y-103187500D01*
%TO.C,MX13*%
X80264000Y-85407500D02*
G75*
G03*
X80264000Y-85407500I-1524000J0D01*
G01*
X73914000Y-87947500D02*
G75*
G03*
X73914000Y-87947500I-1524000J0D01*
G01*
X80772000Y-84137500D02*
X83312000Y-84137500D01*
X83312000Y-84137500D02*
X83312000Y-86677500D01*
X83312000Y-86677500D02*
X80772000Y-86677500D01*
X80772000Y-86677500D02*
X80772000Y-84137500D01*
X70358000Y-86677500D02*
X67818000Y-86677500D01*
X67818000Y-86677500D02*
X67818000Y-89217500D01*
X67818000Y-89217500D02*
X70358000Y-89217500D01*
X70358000Y-89217500D02*
X70358000Y-86677500D01*
%TO.C,MX12*%
X89789000Y-66357500D02*
G75*
G03*
X89789000Y-66357500I-1524000J0D01*
G01*
X83439000Y-68897500D02*
G75*
G03*
X83439000Y-68897500I-1524000J0D01*
G01*
X90297000Y-65087500D02*
X92837000Y-65087500D01*
X92837000Y-65087500D02*
X92837000Y-67627500D01*
X92837000Y-67627500D02*
X90297000Y-67627500D01*
X90297000Y-67627500D02*
X90297000Y-65087500D01*
X79883000Y-67627500D02*
X77343000Y-67627500D01*
X77343000Y-67627500D02*
X77343000Y-70167500D01*
X77343000Y-70167500D02*
X79883000Y-70167500D01*
X79883000Y-70167500D02*
X79883000Y-67627500D01*
%TO.C,MX11*%
X85026500Y-47307500D02*
G75*
G03*
X85026500Y-47307500I-1524000J0D01*
G01*
X78676500Y-49847500D02*
G75*
G03*
X78676500Y-49847500I-1524000J0D01*
G01*
X85534500Y-46037500D02*
X88074500Y-46037500D01*
X88074500Y-46037500D02*
X88074500Y-48577500D01*
X88074500Y-48577500D02*
X85534500Y-48577500D01*
X85534500Y-48577500D02*
X85534500Y-46037500D01*
X75120500Y-48577500D02*
X72580500Y-48577500D01*
X72580500Y-48577500D02*
X72580500Y-51117500D01*
X72580500Y-51117500D02*
X75120500Y-51117500D01*
X75120500Y-51117500D02*
X75120500Y-48577500D01*
%TO.C,MX10*%
X75501500Y-28257500D02*
G75*
G03*
X75501500Y-28257500I-1524000J0D01*
G01*
X69151500Y-30797500D02*
G75*
G03*
X69151500Y-30797500I-1524000J0D01*
G01*
X76009500Y-26987500D02*
X78549500Y-26987500D01*
X78549500Y-26987500D02*
X78549500Y-29527500D01*
X78549500Y-29527500D02*
X76009500Y-29527500D01*
X76009500Y-29527500D02*
X76009500Y-26987500D01*
X65595500Y-29527500D02*
X63055500Y-29527500D01*
X63055500Y-29527500D02*
X63055500Y-32067500D01*
X63055500Y-32067500D02*
X65595500Y-32067500D01*
X65595500Y-32067500D02*
X65595500Y-29527500D01*
%TO.C,MX9*%
X63595250Y-104457500D02*
G75*
G03*
X63595250Y-104457500I-1524000J0D01*
G01*
X57245250Y-106997500D02*
G75*
G03*
X57245250Y-106997500I-1524000J0D01*
G01*
X51149250Y-105727500D02*
X53689250Y-105727500D01*
X53689250Y-105727500D02*
X53689250Y-108267500D01*
X53689250Y-108267500D02*
X51149250Y-108267500D01*
X51149250Y-108267500D02*
X51149250Y-105727500D01*
X64103250Y-103187500D02*
X66643250Y-103187500D01*
X66643250Y-103187500D02*
X66643250Y-105727500D01*
X66643250Y-105727500D02*
X64103250Y-105727500D01*
X64103250Y-105727500D02*
X64103250Y-103187500D01*
%TO.C,MX8*%
X70739000Y-66357500D02*
G75*
G03*
X70739000Y-66357500I-1524000J0D01*
G01*
X64389000Y-68897500D02*
G75*
G03*
X64389000Y-68897500I-1524000J0D01*
G01*
X71247000Y-65087500D02*
X73787000Y-65087500D01*
X73787000Y-65087500D02*
X73787000Y-67627500D01*
X73787000Y-67627500D02*
X71247000Y-67627500D01*
X71247000Y-67627500D02*
X71247000Y-65087500D01*
X60833000Y-67627500D02*
X58293000Y-67627500D01*
X58293000Y-67627500D02*
X58293000Y-70167500D01*
X58293000Y-70167500D02*
X60833000Y-70167500D01*
X60833000Y-70167500D02*
X60833000Y-67627500D01*
%TO.C,MX7*%
X60896500Y-57467500D02*
G75*
G03*
X60896500Y-57467500I-1524000J0D01*
G01*
X67246500Y-54927500D02*
G75*
G03*
X67246500Y-54927500I-1524000J0D01*
G01*
X57340500Y-58737500D02*
X54800500Y-58737500D01*
X54800500Y-58737500D02*
X54800500Y-56197500D01*
X54800500Y-56197500D02*
X57340500Y-56197500D01*
X57340500Y-56197500D02*
X57340500Y-58737500D01*
X67754500Y-56197500D02*
X70294500Y-56197500D01*
X70294500Y-56197500D02*
X70294500Y-53657500D01*
X70294500Y-53657500D02*
X67754500Y-53657500D01*
X67754500Y-53657500D02*
X67754500Y-56197500D01*
%TO.C,MX6*%
X51371500Y-38417500D02*
G75*
G03*
X51371500Y-38417500I-1524000J0D01*
G01*
X57721500Y-35877500D02*
G75*
G03*
X57721500Y-35877500I-1524000J0D01*
G01*
X47815500Y-39687500D02*
X45275500Y-39687500D01*
X45275500Y-39687500D02*
X45275500Y-37147500D01*
X45275500Y-37147500D02*
X47815500Y-37147500D01*
X47815500Y-37147500D02*
X47815500Y-39687500D01*
X58229500Y-37147500D02*
X60769500Y-37147500D01*
X60769500Y-37147500D02*
X60769500Y-34607500D01*
X60769500Y-34607500D02*
X58229500Y-34607500D01*
X58229500Y-34607500D02*
X58229500Y-37147500D01*
%TO.C,MX5*%
X39782750Y-104457500D02*
G75*
G03*
X39782750Y-104457500I-1524000J0D01*
G01*
X33432750Y-106997500D02*
G75*
G03*
X33432750Y-106997500I-1524000J0D01*
G01*
X27336750Y-105727500D02*
X29876750Y-105727500D01*
X29876750Y-105727500D02*
X29876750Y-108267500D01*
X29876750Y-108267500D02*
X27336750Y-108267500D01*
X27336750Y-108267500D02*
X27336750Y-105727500D01*
X40290750Y-103187500D02*
X42830750Y-103187500D01*
X42830750Y-103187500D02*
X42830750Y-105727500D01*
X42830750Y-105727500D02*
X40290750Y-105727500D01*
X40290750Y-105727500D02*
X40290750Y-103187500D01*
%TO.C,MX4*%
X49307750Y-85407500D02*
G75*
G03*
X49307750Y-85407500I-1524000J0D01*
G01*
X42957750Y-87947500D02*
G75*
G03*
X42957750Y-87947500I-1524000J0D01*
G01*
X36861750Y-86677500D02*
X39401750Y-86677500D01*
X39401750Y-86677500D02*
X39401750Y-89217500D01*
X39401750Y-89217500D02*
X36861750Y-89217500D01*
X36861750Y-89217500D02*
X36861750Y-86677500D01*
X49815750Y-84137500D02*
X52355750Y-84137500D01*
X52355750Y-84137500D02*
X52355750Y-86677500D01*
X52355750Y-86677500D02*
X49815750Y-86677500D01*
X49815750Y-86677500D02*
X49815750Y-84137500D01*
%TO.C,MX3*%
X45053250Y-65087500D02*
X47593250Y-65087500D01*
X47593250Y-65087500D02*
X47593250Y-67627500D01*
X47593250Y-67627500D02*
X45053250Y-67627500D01*
X45053250Y-67627500D02*
X45053250Y-65087500D01*
X34639250Y-67627500D02*
X34639250Y-70167500D01*
X34639250Y-70167500D02*
X32099250Y-70167500D01*
X32099250Y-70167500D02*
X32099250Y-67627500D01*
X32099250Y-67627500D02*
X34639250Y-67627500D01*
X38195250Y-68897500D02*
G75*
G03*
X38195250Y-68897500I-1524000J0D01*
G01*
X44545250Y-66357500D02*
G75*
G03*
X44545250Y-66357500I-1524000J0D01*
G01*
%TO.C,MX2*%
X42672000Y-46037500D02*
X45212000Y-46037500D01*
X45212000Y-46037500D02*
X45212000Y-48577500D01*
X45212000Y-48577500D02*
X42672000Y-48577500D01*
X42672000Y-48577500D02*
X42672000Y-46037500D01*
X32258000Y-48577500D02*
X32258000Y-51117500D01*
X32258000Y-51117500D02*
X29718000Y-51117500D01*
X29718000Y-51117500D02*
X29718000Y-48577500D01*
X29718000Y-48577500D02*
X32258000Y-48577500D01*
X42164000Y-47307500D02*
G75*
G03*
X42164000Y-47307500I-1524000J0D01*
G01*
X35814000Y-49847500D02*
G75*
G03*
X35814000Y-49847500I-1524000J0D01*
G01*
%TO.C,MX1*%
X32321500Y-38417500D02*
G75*
G03*
X32321500Y-38417500I-1524000J0D01*
G01*
X38671500Y-35877500D02*
G75*
G03*
X38671500Y-35877500I-1524000J0D01*
G01*
X28765500Y-39687500D02*
X26225500Y-39687500D01*
X26225500Y-39687500D02*
X26225500Y-37147500D01*
X26225500Y-37147500D02*
X28765500Y-37147500D01*
X28765500Y-37147500D02*
X28765500Y-39687500D01*
X39179500Y-37147500D02*
X41719500Y-37147500D01*
X41719500Y-37147500D02*
X41719500Y-34607500D01*
X41719500Y-34607500D02*
X39179500Y-34607500D01*
X39179500Y-34607500D02*
X39179500Y-37147500D01*
D11*
%TO.C,F1*%
X26566000Y-48000000D02*
X28806000Y-48000000D01*
X28806000Y-48000000D02*
X28806000Y-43440000D01*
X28806000Y-43440000D02*
X26566000Y-43440000D01*
X26566000Y-43440000D02*
X26566000Y-48000000D01*
%TO.C,D61*%
X306743750Y-111887500D02*
X306743750Y-107187500D01*
X306743750Y-107187500D02*
X304443750Y-107187500D01*
X304443750Y-107187500D02*
X304443750Y-111887500D01*
X306743750Y-111887500D02*
X304443750Y-111887500D01*
%TO.C,D60*%
X292456250Y-92837500D02*
X292456250Y-88137500D01*
X292456250Y-88137500D02*
X290156250Y-88137500D01*
X290156250Y-88137500D02*
X290156250Y-92837500D01*
X292456250Y-92837500D02*
X290156250Y-92837500D01*
%TO.C,D59*%
X297218750Y-73787500D02*
X297218750Y-69087500D01*
X297218750Y-69087500D02*
X294918750Y-69087500D01*
X294918750Y-69087500D02*
X294918750Y-73787500D01*
X297218750Y-73787500D02*
X294918750Y-73787500D01*
%TO.C,D58*%
X286106250Y-61881250D02*
X286106250Y-57181250D01*
X286106250Y-57181250D02*
X283806250Y-57181250D01*
X283806250Y-57181250D02*
X283806250Y-61881250D01*
X286106250Y-61881250D02*
X283806250Y-61881250D01*
%TO.C,D57*%
X299600000Y-35687500D02*
X299600000Y-30987500D01*
X299600000Y-30987500D02*
X297300000Y-30987500D01*
X297300000Y-30987500D02*
X297300000Y-35687500D01*
X299600000Y-35687500D02*
X297300000Y-35687500D01*
%TO.C,D56*%
X282931250Y-111887500D02*
X282931250Y-107187500D01*
X282931250Y-107187500D02*
X280631250Y-107187500D01*
X280631250Y-107187500D02*
X280631250Y-111887500D01*
X282931250Y-111887500D02*
X280631250Y-111887500D01*
%TO.C,D55*%
X280550000Y-54737500D02*
X280550000Y-50037500D01*
X280550000Y-50037500D02*
X278250000Y-50037500D01*
X278250000Y-50037500D02*
X278250000Y-54737500D01*
X280550000Y-54737500D02*
X278250000Y-54737500D01*
%TO.C,D54*%
X271025000Y-35687500D02*
X271025000Y-30987500D01*
X271025000Y-30987500D02*
X268725000Y-30987500D01*
X268725000Y-30987500D02*
X268725000Y-35687500D01*
X271025000Y-35687500D02*
X268725000Y-35687500D01*
%TO.C,D53*%
X259118750Y-111887500D02*
X259118750Y-107187500D01*
X259118750Y-107187500D02*
X256818750Y-107187500D01*
X256818750Y-107187500D02*
X256818750Y-111887500D01*
X259118750Y-111887500D02*
X256818750Y-111887500D01*
%TO.C,D52*%
X256737500Y-92837500D02*
X256737500Y-88137500D01*
X256737500Y-88137500D02*
X254437500Y-88137500D01*
X254437500Y-88137500D02*
X254437500Y-92837500D01*
X256737500Y-92837500D02*
X254437500Y-92837500D01*
%TO.C,D51*%
X266262500Y-73787500D02*
X266262500Y-69087500D01*
X266262500Y-69087500D02*
X263962500Y-69087500D01*
X263962500Y-69087500D02*
X263962500Y-73787500D01*
X266262500Y-73787500D02*
X263962500Y-73787500D01*
%TO.C,D50*%
X261500000Y-54737500D02*
X261500000Y-50037500D01*
X261500000Y-50037500D02*
X259200000Y-50037500D01*
X259200000Y-50037500D02*
X259200000Y-54737500D01*
X261500000Y-54737500D02*
X259200000Y-54737500D01*
%TO.C,D49*%
X251975000Y-35687500D02*
X251975000Y-30987500D01*
X251975000Y-30987500D02*
X249675000Y-30987500D01*
X249675000Y-30987500D02*
X249675000Y-35687500D01*
X251975000Y-35687500D02*
X249675000Y-35687500D01*
%TO.C,D48*%
X214343750Y-116243750D02*
X219043750Y-116243750D01*
X219043750Y-116243750D02*
X219043750Y-113943750D01*
X219043750Y-113943750D02*
X214343750Y-113943750D01*
X214343750Y-116243750D02*
X214343750Y-113943750D01*
%TO.C,D47*%
X237687500Y-92837500D02*
X237687500Y-88137500D01*
X237687500Y-88137500D02*
X235387500Y-88137500D01*
X235387500Y-88137500D02*
X235387500Y-92837500D01*
X237687500Y-92837500D02*
X235387500Y-92837500D01*
%TO.C,D46*%
X247212500Y-73787500D02*
X247212500Y-69087500D01*
X247212500Y-69087500D02*
X244912500Y-69087500D01*
X244912500Y-69087500D02*
X244912500Y-73787500D01*
X247212500Y-73787500D02*
X244912500Y-73787500D01*
%TO.C,D45*%
X242450000Y-54737500D02*
X242450000Y-50037500D01*
X242450000Y-50037500D02*
X240150000Y-50037500D01*
X240150000Y-50037500D02*
X240150000Y-54737500D01*
X242450000Y-54737500D02*
X240150000Y-54737500D01*
%TO.C,D44*%
X232925000Y-35687500D02*
X232925000Y-30987500D01*
X232925000Y-30987500D02*
X230625000Y-30987500D01*
X230625000Y-30987500D02*
X230625000Y-35687500D01*
X232925000Y-35687500D02*
X230625000Y-35687500D01*
%TO.C,D43*%
X218637500Y-92837500D02*
X218637500Y-88137500D01*
X218637500Y-88137500D02*
X216337500Y-88137500D01*
X216337500Y-88137500D02*
X216337500Y-92837500D01*
X218637500Y-92837500D02*
X216337500Y-92837500D01*
%TO.C,D42*%
X228162500Y-73787500D02*
X228162500Y-69087500D01*
X228162500Y-69087500D02*
X225862500Y-69087500D01*
X225862500Y-69087500D02*
X225862500Y-73787500D01*
X228162500Y-73787500D02*
X225862500Y-73787500D01*
%TO.C,D41*%
X223400000Y-54737500D02*
X223400000Y-50037500D01*
X223400000Y-50037500D02*
X221100000Y-50037500D01*
X221100000Y-50037500D02*
X221100000Y-54737500D01*
X223400000Y-54737500D02*
X221100000Y-54737500D01*
%TO.C,D40*%
X213875000Y-35687500D02*
X213875000Y-30987500D01*
X213875000Y-30987500D02*
X211575000Y-30987500D01*
X211575000Y-30987500D02*
X211575000Y-35687500D01*
X213875000Y-35687500D02*
X211575000Y-35687500D01*
%TO.C,D39*%
X199587500Y-92837500D02*
X199587500Y-88137500D01*
X199587500Y-88137500D02*
X197287500Y-88137500D01*
X197287500Y-88137500D02*
X197287500Y-92837500D01*
X199587500Y-92837500D02*
X197287500Y-92837500D01*
%TO.C,D38*%
X209112500Y-73787500D02*
X209112500Y-69087500D01*
X209112500Y-69087500D02*
X206812500Y-69087500D01*
X206812500Y-69087500D02*
X206812500Y-73787500D01*
X209112500Y-73787500D02*
X206812500Y-73787500D01*
%TO.C,D37*%
X204350000Y-54737500D02*
X204350000Y-50037500D01*
X204350000Y-50037500D02*
X202050000Y-50037500D01*
X202050000Y-50037500D02*
X202050000Y-54737500D01*
X204350000Y-54737500D02*
X202050000Y-54737500D01*
%TO.C,D36*%
X194825000Y-35687500D02*
X194825000Y-30987500D01*
X194825000Y-30987500D02*
X192525000Y-30987500D01*
X192525000Y-30987500D02*
X192525000Y-35687500D01*
X194825000Y-35687500D02*
X192525000Y-35687500D01*
%TO.C,D35*%
X180537500Y-92837500D02*
X180537500Y-88137500D01*
X180537500Y-88137500D02*
X178237500Y-88137500D01*
X178237500Y-88137500D02*
X178237500Y-92837500D01*
X180537500Y-92837500D02*
X178237500Y-92837500D01*
%TO.C,D34*%
X190062500Y-73787500D02*
X190062500Y-69087500D01*
X190062500Y-69087500D02*
X187762500Y-69087500D01*
X187762500Y-69087500D02*
X187762500Y-73787500D01*
X190062500Y-73787500D02*
X187762500Y-73787500D01*
%TO.C,D33*%
X185300000Y-54737500D02*
X185300000Y-50037500D01*
X185300000Y-50037500D02*
X183000000Y-50037500D01*
X183000000Y-50037500D02*
X183000000Y-54737500D01*
X185300000Y-54737500D02*
X183000000Y-54737500D01*
%TO.C,D32*%
X175775000Y-35687500D02*
X175775000Y-30987500D01*
X175775000Y-30987500D02*
X173475000Y-30987500D01*
X173475000Y-30987500D02*
X173475000Y-35687500D01*
X175775000Y-35687500D02*
X173475000Y-35687500D01*
%TO.C,D31*%
X163868750Y-111887500D02*
X163868750Y-107187500D01*
X163868750Y-107187500D02*
X161568750Y-107187500D01*
X161568750Y-107187500D02*
X161568750Y-111887500D01*
X163868750Y-111887500D02*
X161568750Y-111887500D01*
%TO.C,D30*%
X161487500Y-92837500D02*
X161487500Y-88137500D01*
X161487500Y-88137500D02*
X159187500Y-88137500D01*
X159187500Y-88137500D02*
X159187500Y-92837500D01*
X161487500Y-92837500D02*
X159187500Y-92837500D01*
%TO.C,D29*%
X171012500Y-73787500D02*
X171012500Y-69087500D01*
X171012500Y-69087500D02*
X168712500Y-69087500D01*
X168712500Y-69087500D02*
X168712500Y-73787500D01*
X171012500Y-73787500D02*
X168712500Y-73787500D01*
%TO.C,D28*%
X166250000Y-54737500D02*
X166250000Y-50037500D01*
X166250000Y-50037500D02*
X163950000Y-50037500D01*
X163950000Y-50037500D02*
X163950000Y-54737500D01*
X166250000Y-54737500D02*
X163950000Y-54737500D01*
%TO.C,D27*%
X156725000Y-35687500D02*
X156725000Y-30987500D01*
X156725000Y-30987500D02*
X154425000Y-30987500D01*
X154425000Y-30987500D02*
X154425000Y-35687500D01*
X156725000Y-35687500D02*
X154425000Y-35687500D01*
%TO.C,D26*%
X142437500Y-92837500D02*
X142437500Y-88137500D01*
X142437500Y-88137500D02*
X140137500Y-88137500D01*
X140137500Y-88137500D02*
X140137500Y-92837500D01*
X142437500Y-92837500D02*
X140137500Y-92837500D01*
%TO.C,D25*%
X151962500Y-73787500D02*
X151962500Y-69087500D01*
X151962500Y-69087500D02*
X149662500Y-69087500D01*
X149662500Y-69087500D02*
X149662500Y-73787500D01*
X151962500Y-73787500D02*
X149662500Y-73787500D01*
%TO.C,D24*%
X147993750Y-54737500D02*
X147993750Y-50037500D01*
X147993750Y-50037500D02*
X145693750Y-50037500D01*
X145693750Y-50037500D02*
X145693750Y-54737500D01*
X147993750Y-54737500D02*
X145693750Y-54737500D01*
%TO.C,D23*%
X137675000Y-35687500D02*
X137675000Y-30987500D01*
X137675000Y-30987500D02*
X135375000Y-30987500D01*
X135375000Y-30987500D02*
X135375000Y-35687500D01*
X137675000Y-35687500D02*
X135375000Y-35687500D01*
%TO.C,D22*%
X123387500Y-92837500D02*
X123387500Y-88137500D01*
X123387500Y-88137500D02*
X121087500Y-88137500D01*
X121087500Y-88137500D02*
X121087500Y-92837500D01*
X123387500Y-92837500D02*
X121087500Y-92837500D01*
%TO.C,D21*%
X132912500Y-73787500D02*
X132912500Y-69087500D01*
X132912500Y-69087500D02*
X130612500Y-69087500D01*
X130612500Y-69087500D02*
X130612500Y-73787500D01*
X132912500Y-73787500D02*
X130612500Y-73787500D01*
%TO.C,D20*%
X128150000Y-54737500D02*
X128150000Y-50037500D01*
X128150000Y-50037500D02*
X125850000Y-50037500D01*
X125850000Y-50037500D02*
X125850000Y-54737500D01*
X128150000Y-54737500D02*
X125850000Y-54737500D01*
%TO.C,D19*%
X107125000Y-40125000D02*
X102425000Y-40125000D01*
X102425000Y-40125000D02*
X102425000Y-42425000D01*
X102425000Y-42425000D02*
X107125000Y-42425000D01*
X107125000Y-40125000D02*
X107125000Y-42425000D01*
%TO.C,D18*%
X104337500Y-92837500D02*
X104337500Y-88137500D01*
X104337500Y-88137500D02*
X102037500Y-88137500D01*
X102037500Y-88137500D02*
X102037500Y-92837500D01*
X104337500Y-92837500D02*
X102037500Y-92837500D01*
%TO.C,D17*%
X102362500Y-78225000D02*
X97662500Y-78225000D01*
X97662500Y-78225000D02*
X97662500Y-80525000D01*
X97662500Y-80525000D02*
X102362500Y-80525000D01*
X102362500Y-78225000D02*
X102362500Y-80525000D01*
%TO.C,D16*%
X109100000Y-54737500D02*
X109100000Y-50037500D01*
X109100000Y-50037500D02*
X106800000Y-50037500D01*
X106800000Y-50037500D02*
X106800000Y-54737500D01*
X109100000Y-54737500D02*
X106800000Y-54737500D01*
%TO.C,D15*%
X88075000Y-40125000D02*
X83375000Y-40125000D01*
X83375000Y-40125000D02*
X83375000Y-42425000D01*
X83375000Y-42425000D02*
X88075000Y-42425000D01*
X88075000Y-40125000D02*
X88075000Y-42425000D01*
%TO.C,D14*%
X92431250Y-111887500D02*
X92431250Y-107187500D01*
X92431250Y-107187500D02*
X90131250Y-107187500D01*
X90131250Y-107187500D02*
X90131250Y-111887500D01*
X92431250Y-111887500D02*
X90131250Y-111887500D01*
%TO.C,D13*%
X85287500Y-92837500D02*
X85287500Y-88137500D01*
X85287500Y-88137500D02*
X82987500Y-88137500D01*
X82987500Y-88137500D02*
X82987500Y-92837500D01*
X85287500Y-92837500D02*
X82987500Y-92837500D01*
%TO.C,D12*%
X83312500Y-78225000D02*
X78612500Y-78225000D01*
X78612500Y-78225000D02*
X78612500Y-80525000D01*
X78612500Y-80525000D02*
X83312500Y-80525000D01*
X83312500Y-78225000D02*
X83312500Y-80525000D01*
%TO.C,D11*%
X90050000Y-54737500D02*
X90050000Y-50037500D01*
X90050000Y-50037500D02*
X87750000Y-50037500D01*
X87750000Y-50037500D02*
X87750000Y-54737500D01*
X90050000Y-54737500D02*
X87750000Y-54737500D01*
%TO.C,D10*%
X80525000Y-35687500D02*
X80525000Y-30987500D01*
X80525000Y-30987500D02*
X78225000Y-30987500D01*
X78225000Y-30987500D02*
X78225000Y-35687500D01*
X80525000Y-35687500D02*
X78225000Y-35687500D01*
%TO.C,D9*%
X68618750Y-111887500D02*
X68618750Y-107187500D01*
X68618750Y-107187500D02*
X66318750Y-107187500D01*
X66318750Y-107187500D02*
X66318750Y-111887500D01*
X68618750Y-111887500D02*
X66318750Y-111887500D01*
%TO.C,D8*%
X75762500Y-73787500D02*
X75762500Y-69087500D01*
X75762500Y-69087500D02*
X73462500Y-69087500D01*
X73462500Y-69087500D02*
X73462500Y-73787500D01*
X75762500Y-73787500D02*
X73462500Y-73787500D01*
%TO.C,D7*%
X54331250Y-61881250D02*
X54331250Y-57181250D01*
X54331250Y-57181250D02*
X52031250Y-57181250D01*
X52031250Y-57181250D02*
X52031250Y-61881250D01*
X54331250Y-61881250D02*
X52031250Y-61881250D01*
%TO.C,D6*%
X49975000Y-40125000D02*
X45275000Y-40125000D01*
X45275000Y-40125000D02*
X45275000Y-42425000D01*
X45275000Y-42425000D02*
X49975000Y-42425000D01*
X49975000Y-40125000D02*
X49975000Y-42425000D01*
%TO.C,D5*%
X44806250Y-111887500D02*
X44806250Y-107187500D01*
X44806250Y-107187500D02*
X42506250Y-107187500D01*
X42506250Y-107187500D02*
X42506250Y-111887500D01*
X44806250Y-111887500D02*
X42506250Y-111887500D01*
%TO.C,D4*%
X54331250Y-92837500D02*
X54331250Y-88137500D01*
X54331250Y-88137500D02*
X52031250Y-88137500D01*
X52031250Y-88137500D02*
X52031250Y-92837500D01*
X54331250Y-92837500D02*
X52031250Y-92837500D01*
%TO.C,D3*%
X49568750Y-73787500D02*
X49568750Y-69087500D01*
X49568750Y-69087500D02*
X47268750Y-69087500D01*
X47268750Y-69087500D02*
X47268750Y-73787500D01*
X49568750Y-73787500D02*
X47268750Y-73787500D01*
%TO.C,D2*%
X45600000Y-59500000D02*
X45600000Y-54800000D01*
X45600000Y-54800000D02*
X43300000Y-54800000D01*
X43300000Y-54800000D02*
X43300000Y-59500000D01*
X45600000Y-59500000D02*
X43300000Y-59500000D01*
%TO.C,D1*%
X30987500Y-40506000D02*
X26287500Y-40506000D01*
X26287500Y-40506000D02*
X26287500Y-42806000D01*
X26287500Y-42806000D02*
X30987500Y-42806000D01*
X30987500Y-40506000D02*
X30987500Y-42806000D01*
%TO.C,C7*%
X119206750Y-96039500D02*
X119206750Y-94079500D01*
X119206750Y-94079500D02*
X115806750Y-94079500D01*
X115806750Y-94079500D02*
X115806750Y-96039500D01*
X115806750Y-96039500D02*
X119206750Y-96039500D01*
%TO.C,C6*%
X120124750Y-114145500D02*
X120124750Y-116105500D01*
X120124750Y-116105500D02*
X123524750Y-116105500D01*
X123524750Y-116105500D02*
X123524750Y-114145500D01*
X123524750Y-114145500D02*
X120124750Y-114145500D01*
%TO.C,C5*%
X119206750Y-98071500D02*
X119206750Y-96111500D01*
X119206750Y-96111500D02*
X115806750Y-96111500D01*
X115806750Y-96111500D02*
X115806750Y-98071500D01*
X115806750Y-98071500D02*
X119206750Y-98071500D01*
%TO.C,C4*%
X110612750Y-101106500D02*
X108652750Y-101106500D01*
X108652750Y-101106500D02*
X108652750Y-104506500D01*
X108652750Y-104506500D02*
X110612750Y-104506500D01*
X110612750Y-104506500D02*
X110612750Y-101106500D01*
%TO.C,C3*%
X108779750Y-113142500D02*
X110739750Y-113142500D01*
X110739750Y-113142500D02*
X110739750Y-109742500D01*
X110739750Y-109742500D02*
X108779750Y-109742500D01*
X108779750Y-109742500D02*
X108779750Y-113142500D01*
%TO.C,C2*%
X131017750Y-104167500D02*
X131017750Y-102207500D01*
X131017750Y-102207500D02*
X127617750Y-102207500D01*
X127617750Y-102207500D02*
X127617750Y-104167500D01*
X127617750Y-104167500D02*
X131017750Y-104167500D01*
%TO.C,C1*%
X127554250Y-108430500D02*
X127554250Y-110390500D01*
X127554250Y-110390500D02*
X130954250Y-110390500D01*
X130954250Y-110390500D02*
X130954250Y-108430500D01*
X130954250Y-108430500D02*
X127554250Y-108430500D01*
%TD*%
%TO.C,MX31*%
D10*
X156543154Y-113037880D02*
X156543154Y-112037880D01*
X156209821Y-112752166D01*
X155876488Y-112037880D01*
X155876488Y-113037880D01*
X155495535Y-112037880D02*
X154828869Y-113037880D01*
X154828869Y-112037880D02*
X155495535Y-113037880D01*
X154543154Y-112037880D02*
X153924107Y-112037880D01*
X154257440Y-112418833D01*
X154114583Y-112418833D01*
X154019345Y-112466452D01*
X153971726Y-112514071D01*
X153924107Y-112609309D01*
X153924107Y-112847404D01*
X153971726Y-112942642D01*
X154019345Y-112990261D01*
X154114583Y-113037880D01*
X154400297Y-113037880D01*
X154495535Y-112990261D01*
X154543154Y-112942642D01*
X152971726Y-113037880D02*
X153543154Y-113037880D01*
X153257440Y-113037880D02*
X153257440Y-112037880D01*
X153352678Y-112180738D01*
X153447916Y-112275976D01*
X153543154Y-112323595D01*
%TO.C,MX61*%
X299418154Y-113037880D02*
X299418154Y-112037880D01*
X299084821Y-112752166D01*
X298751488Y-112037880D01*
X298751488Y-113037880D01*
X298370535Y-112037880D02*
X297703869Y-113037880D01*
X297703869Y-112037880D02*
X298370535Y-113037880D01*
X296894345Y-112037880D02*
X297084821Y-112037880D01*
X297180059Y-112085500D01*
X297227678Y-112133119D01*
X297322916Y-112275976D01*
X297370535Y-112466452D01*
X297370535Y-112847404D01*
X297322916Y-112942642D01*
X297275297Y-112990261D01*
X297180059Y-113037880D01*
X296989583Y-113037880D01*
X296894345Y-112990261D01*
X296846726Y-112942642D01*
X296799107Y-112847404D01*
X296799107Y-112609309D01*
X296846726Y-112514071D01*
X296894345Y-112466452D01*
X296989583Y-112418833D01*
X297180059Y-112418833D01*
X297275297Y-112466452D01*
X297322916Y-112514071D01*
X297370535Y-112609309D01*
X295846726Y-113037880D02*
X296418154Y-113037880D01*
X296132440Y-113037880D02*
X296132440Y-112037880D01*
X296227678Y-112180738D01*
X296322916Y-112275976D01*
X296418154Y-112323595D01*
%TO.C,MX60*%
X285130654Y-93987880D02*
X285130654Y-92987880D01*
X284797321Y-93702166D01*
X284463988Y-92987880D01*
X284463988Y-93987880D01*
X284083035Y-92987880D02*
X283416369Y-93987880D01*
X283416369Y-92987880D02*
X284083035Y-93987880D01*
X282606845Y-92987880D02*
X282797321Y-92987880D01*
X282892559Y-93035500D01*
X282940178Y-93083119D01*
X283035416Y-93225976D01*
X283083035Y-93416452D01*
X283083035Y-93797404D01*
X283035416Y-93892642D01*
X282987797Y-93940261D01*
X282892559Y-93987880D01*
X282702083Y-93987880D01*
X282606845Y-93940261D01*
X282559226Y-93892642D01*
X282511607Y-93797404D01*
X282511607Y-93559309D01*
X282559226Y-93464071D01*
X282606845Y-93416452D01*
X282702083Y-93368833D01*
X282892559Y-93368833D01*
X282987797Y-93416452D01*
X283035416Y-93464071D01*
X283083035Y-93559309D01*
X281892559Y-92987880D02*
X281797321Y-92987880D01*
X281702083Y-93035500D01*
X281654464Y-93083119D01*
X281606845Y-93178357D01*
X281559226Y-93368833D01*
X281559226Y-93606928D01*
X281606845Y-93797404D01*
X281654464Y-93892642D01*
X281702083Y-93940261D01*
X281797321Y-93987880D01*
X281892559Y-93987880D01*
X281987797Y-93940261D01*
X282035416Y-93892642D01*
X282083035Y-93797404D01*
X282130654Y-93606928D01*
X282130654Y-93368833D01*
X282083035Y-93178357D01*
X282035416Y-93083119D01*
X281987797Y-93035500D01*
X281892559Y-92987880D01*
%TO.C,MX59*%
X289893154Y-74937880D02*
X289893154Y-73937880D01*
X289559821Y-74652166D01*
X289226488Y-73937880D01*
X289226488Y-74937880D01*
X288845535Y-73937880D02*
X288178869Y-74937880D01*
X288178869Y-73937880D02*
X288845535Y-74937880D01*
X287321726Y-73937880D02*
X287797916Y-73937880D01*
X287845535Y-74414071D01*
X287797916Y-74366452D01*
X287702678Y-74318833D01*
X287464583Y-74318833D01*
X287369345Y-74366452D01*
X287321726Y-74414071D01*
X287274107Y-74509309D01*
X287274107Y-74747404D01*
X287321726Y-74842642D01*
X287369345Y-74890261D01*
X287464583Y-74937880D01*
X287702678Y-74937880D01*
X287797916Y-74890261D01*
X287845535Y-74842642D01*
X286797916Y-74937880D02*
X286607440Y-74937880D01*
X286512202Y-74890261D01*
X286464583Y-74842642D01*
X286369345Y-74699785D01*
X286321726Y-74509309D01*
X286321726Y-74128357D01*
X286369345Y-74033119D01*
X286416964Y-73985500D01*
X286512202Y-73937880D01*
X286702678Y-73937880D01*
X286797916Y-73985500D01*
X286845535Y-74033119D01*
X286893154Y-74128357D01*
X286893154Y-74366452D01*
X286845535Y-74461690D01*
X286797916Y-74509309D01*
X286702678Y-74556928D01*
X286512202Y-74556928D01*
X286416964Y-74509309D01*
X286369345Y-74461690D01*
X286321726Y-74366452D01*
%TO.C,MX58*%
X297036904Y-49791880D02*
X297036904Y-48791880D01*
X296703571Y-49506166D01*
X296370238Y-48791880D01*
X296370238Y-49791880D01*
X295989285Y-48791880D02*
X295322619Y-49791880D01*
X295322619Y-48791880D02*
X295989285Y-49791880D01*
X294465476Y-48791880D02*
X294941666Y-48791880D01*
X294989285Y-49268071D01*
X294941666Y-49220452D01*
X294846428Y-49172833D01*
X294608333Y-49172833D01*
X294513095Y-49220452D01*
X294465476Y-49268071D01*
X294417857Y-49363309D01*
X294417857Y-49601404D01*
X294465476Y-49696642D01*
X294513095Y-49744261D01*
X294608333Y-49791880D01*
X294846428Y-49791880D01*
X294941666Y-49744261D01*
X294989285Y-49696642D01*
X293846428Y-49220452D02*
X293941666Y-49172833D01*
X293989285Y-49125214D01*
X294036904Y-49029976D01*
X294036904Y-48982357D01*
X293989285Y-48887119D01*
X293941666Y-48839500D01*
X293846428Y-48791880D01*
X293655952Y-48791880D01*
X293560714Y-48839500D01*
X293513095Y-48887119D01*
X293465476Y-48982357D01*
X293465476Y-49029976D01*
X293513095Y-49125214D01*
X293560714Y-49172833D01*
X293655952Y-49220452D01*
X293846428Y-49220452D01*
X293941666Y-49268071D01*
X293989285Y-49315690D01*
X294036904Y-49410928D01*
X294036904Y-49601404D01*
X293989285Y-49696642D01*
X293941666Y-49744261D01*
X293846428Y-49791880D01*
X293655952Y-49791880D01*
X293560714Y-49744261D01*
X293513095Y-49696642D01*
X293465476Y-49601404D01*
X293465476Y-49410928D01*
X293513095Y-49315690D01*
X293560714Y-49268071D01*
X293655952Y-49220452D01*
%TO.C,MX57*%
X292274404Y-36837880D02*
X292274404Y-35837880D01*
X291941071Y-36552166D01*
X291607738Y-35837880D01*
X291607738Y-36837880D01*
X291226785Y-35837880D02*
X290560119Y-36837880D01*
X290560119Y-35837880D02*
X291226785Y-36837880D01*
X289702976Y-35837880D02*
X290179166Y-35837880D01*
X290226785Y-36314071D01*
X290179166Y-36266452D01*
X290083928Y-36218833D01*
X289845833Y-36218833D01*
X289750595Y-36266452D01*
X289702976Y-36314071D01*
X289655357Y-36409309D01*
X289655357Y-36647404D01*
X289702976Y-36742642D01*
X289750595Y-36790261D01*
X289845833Y-36837880D01*
X290083928Y-36837880D01*
X290179166Y-36790261D01*
X290226785Y-36742642D01*
X289322023Y-35837880D02*
X288655357Y-35837880D01*
X289083928Y-36837880D01*
%TO.C,MX56*%
X275605654Y-113037880D02*
X275605654Y-112037880D01*
X275272321Y-112752166D01*
X274938988Y-112037880D01*
X274938988Y-113037880D01*
X274558035Y-112037880D02*
X273891369Y-113037880D01*
X273891369Y-112037880D02*
X274558035Y-113037880D01*
X273034226Y-112037880D02*
X273510416Y-112037880D01*
X273558035Y-112514071D01*
X273510416Y-112466452D01*
X273415178Y-112418833D01*
X273177083Y-112418833D01*
X273081845Y-112466452D01*
X273034226Y-112514071D01*
X272986607Y-112609309D01*
X272986607Y-112847404D01*
X273034226Y-112942642D01*
X273081845Y-112990261D01*
X273177083Y-113037880D01*
X273415178Y-113037880D01*
X273510416Y-112990261D01*
X273558035Y-112942642D01*
X272129464Y-112037880D02*
X272319940Y-112037880D01*
X272415178Y-112085500D01*
X272462797Y-112133119D01*
X272558035Y-112275976D01*
X272605654Y-112466452D01*
X272605654Y-112847404D01*
X272558035Y-112942642D01*
X272510416Y-112990261D01*
X272415178Y-113037880D01*
X272224702Y-113037880D01*
X272129464Y-112990261D01*
X272081845Y-112942642D01*
X272034226Y-112847404D01*
X272034226Y-112609309D01*
X272081845Y-112514071D01*
X272129464Y-112466452D01*
X272224702Y-112418833D01*
X272415178Y-112418833D01*
X272510416Y-112466452D01*
X272558035Y-112514071D01*
X272605654Y-112609309D01*
%TO.C,MX55*%
X273224404Y-55887880D02*
X273224404Y-54887880D01*
X272891071Y-55602166D01*
X272557738Y-54887880D01*
X272557738Y-55887880D01*
X272176785Y-54887880D02*
X271510119Y-55887880D01*
X271510119Y-54887880D02*
X272176785Y-55887880D01*
X270652976Y-54887880D02*
X271129166Y-54887880D01*
X271176785Y-55364071D01*
X271129166Y-55316452D01*
X271033928Y-55268833D01*
X270795833Y-55268833D01*
X270700595Y-55316452D01*
X270652976Y-55364071D01*
X270605357Y-55459309D01*
X270605357Y-55697404D01*
X270652976Y-55792642D01*
X270700595Y-55840261D01*
X270795833Y-55887880D01*
X271033928Y-55887880D01*
X271129166Y-55840261D01*
X271176785Y-55792642D01*
X269700595Y-54887880D02*
X270176785Y-54887880D01*
X270224404Y-55364071D01*
X270176785Y-55316452D01*
X270081547Y-55268833D01*
X269843452Y-55268833D01*
X269748214Y-55316452D01*
X269700595Y-55364071D01*
X269652976Y-55459309D01*
X269652976Y-55697404D01*
X269700595Y-55792642D01*
X269748214Y-55840261D01*
X269843452Y-55887880D01*
X270081547Y-55887880D01*
X270176785Y-55840261D01*
X270224404Y-55792642D01*
%TO.C,MX54*%
X263699404Y-36837880D02*
X263699404Y-35837880D01*
X263366071Y-36552166D01*
X263032738Y-35837880D01*
X263032738Y-36837880D01*
X262651785Y-35837880D02*
X261985119Y-36837880D01*
X261985119Y-35837880D02*
X262651785Y-36837880D01*
X261127976Y-35837880D02*
X261604166Y-35837880D01*
X261651785Y-36314071D01*
X261604166Y-36266452D01*
X261508928Y-36218833D01*
X261270833Y-36218833D01*
X261175595Y-36266452D01*
X261127976Y-36314071D01*
X261080357Y-36409309D01*
X261080357Y-36647404D01*
X261127976Y-36742642D01*
X261175595Y-36790261D01*
X261270833Y-36837880D01*
X261508928Y-36837880D01*
X261604166Y-36790261D01*
X261651785Y-36742642D01*
X260223214Y-36171214D02*
X260223214Y-36837880D01*
X260461309Y-35790261D02*
X260699404Y-36504547D01*
X260080357Y-36504547D01*
%TO.C,MX53*%
X251793154Y-113037880D02*
X251793154Y-112037880D01*
X251459821Y-112752166D01*
X251126488Y-112037880D01*
X251126488Y-113037880D01*
X250745535Y-112037880D02*
X250078869Y-113037880D01*
X250078869Y-112037880D02*
X250745535Y-113037880D01*
X249221726Y-112037880D02*
X249697916Y-112037880D01*
X249745535Y-112514071D01*
X249697916Y-112466452D01*
X249602678Y-112418833D01*
X249364583Y-112418833D01*
X249269345Y-112466452D01*
X249221726Y-112514071D01*
X249174107Y-112609309D01*
X249174107Y-112847404D01*
X249221726Y-112942642D01*
X249269345Y-112990261D01*
X249364583Y-113037880D01*
X249602678Y-113037880D01*
X249697916Y-112990261D01*
X249745535Y-112942642D01*
X248840773Y-112037880D02*
X248221726Y-112037880D01*
X248555059Y-112418833D01*
X248412202Y-112418833D01*
X248316964Y-112466452D01*
X248269345Y-112514071D01*
X248221726Y-112609309D01*
X248221726Y-112847404D01*
X248269345Y-112942642D01*
X248316964Y-112990261D01*
X248412202Y-113037880D01*
X248697916Y-113037880D01*
X248793154Y-112990261D01*
X248840773Y-112942642D01*
%TO.C,MX52*%
X249411904Y-93987880D02*
X249411904Y-92987880D01*
X249078571Y-93702166D01*
X248745238Y-92987880D01*
X248745238Y-93987880D01*
X248364285Y-92987880D02*
X247697619Y-93987880D01*
X247697619Y-92987880D02*
X248364285Y-93987880D01*
X246840476Y-92987880D02*
X247316666Y-92987880D01*
X247364285Y-93464071D01*
X247316666Y-93416452D01*
X247221428Y-93368833D01*
X246983333Y-93368833D01*
X246888095Y-93416452D01*
X246840476Y-93464071D01*
X246792857Y-93559309D01*
X246792857Y-93797404D01*
X246840476Y-93892642D01*
X246888095Y-93940261D01*
X246983333Y-93987880D01*
X247221428Y-93987880D01*
X247316666Y-93940261D01*
X247364285Y-93892642D01*
X246411904Y-93083119D02*
X246364285Y-93035500D01*
X246269047Y-92987880D01*
X246030952Y-92987880D01*
X245935714Y-93035500D01*
X245888095Y-93083119D01*
X245840476Y-93178357D01*
X245840476Y-93273595D01*
X245888095Y-93416452D01*
X246459523Y-93987880D01*
X245840476Y-93987880D01*
%TO.C,MX51*%
X258936904Y-74937880D02*
X258936904Y-73937880D01*
X258603571Y-74652166D01*
X258270238Y-73937880D01*
X258270238Y-74937880D01*
X257889285Y-73937880D02*
X257222619Y-74937880D01*
X257222619Y-73937880D02*
X257889285Y-74937880D01*
X256365476Y-73937880D02*
X256841666Y-73937880D01*
X256889285Y-74414071D01*
X256841666Y-74366452D01*
X256746428Y-74318833D01*
X256508333Y-74318833D01*
X256413095Y-74366452D01*
X256365476Y-74414071D01*
X256317857Y-74509309D01*
X256317857Y-74747404D01*
X256365476Y-74842642D01*
X256413095Y-74890261D01*
X256508333Y-74937880D01*
X256746428Y-74937880D01*
X256841666Y-74890261D01*
X256889285Y-74842642D01*
X255365476Y-74937880D02*
X255936904Y-74937880D01*
X255651190Y-74937880D02*
X255651190Y-73937880D01*
X255746428Y-74080738D01*
X255841666Y-74175976D01*
X255936904Y-74223595D01*
%TO.C,MX50*%
X254174404Y-55887880D02*
X254174404Y-54887880D01*
X253841071Y-55602166D01*
X253507738Y-54887880D01*
X253507738Y-55887880D01*
X253126785Y-54887880D02*
X252460119Y-55887880D01*
X252460119Y-54887880D02*
X253126785Y-55887880D01*
X251602976Y-54887880D02*
X252079166Y-54887880D01*
X252126785Y-55364071D01*
X252079166Y-55316452D01*
X251983928Y-55268833D01*
X251745833Y-55268833D01*
X251650595Y-55316452D01*
X251602976Y-55364071D01*
X251555357Y-55459309D01*
X251555357Y-55697404D01*
X251602976Y-55792642D01*
X251650595Y-55840261D01*
X251745833Y-55887880D01*
X251983928Y-55887880D01*
X252079166Y-55840261D01*
X252126785Y-55792642D01*
X250936309Y-54887880D02*
X250841071Y-54887880D01*
X250745833Y-54935500D01*
X250698214Y-54983119D01*
X250650595Y-55078357D01*
X250602976Y-55268833D01*
X250602976Y-55506928D01*
X250650595Y-55697404D01*
X250698214Y-55792642D01*
X250745833Y-55840261D01*
X250841071Y-55887880D01*
X250936309Y-55887880D01*
X251031547Y-55840261D01*
X251079166Y-55792642D01*
X251126785Y-55697404D01*
X251174404Y-55506928D01*
X251174404Y-55268833D01*
X251126785Y-55078357D01*
X251079166Y-54983119D01*
X251031547Y-54935500D01*
X250936309Y-54887880D01*
%TO.C,MX49*%
X244649404Y-36837880D02*
X244649404Y-35837880D01*
X244316071Y-36552166D01*
X243982738Y-35837880D01*
X243982738Y-36837880D01*
X243601785Y-35837880D02*
X242935119Y-36837880D01*
X242935119Y-35837880D02*
X243601785Y-36837880D01*
X242125595Y-36171214D02*
X242125595Y-36837880D01*
X242363690Y-35790261D02*
X242601785Y-36504547D01*
X241982738Y-36504547D01*
X241554166Y-36837880D02*
X241363690Y-36837880D01*
X241268452Y-36790261D01*
X241220833Y-36742642D01*
X241125595Y-36599785D01*
X241077976Y-36409309D01*
X241077976Y-36028357D01*
X241125595Y-35933119D01*
X241173214Y-35885500D01*
X241268452Y-35837880D01*
X241458928Y-35837880D01*
X241554166Y-35885500D01*
X241601785Y-35933119D01*
X241649404Y-36028357D01*
X241649404Y-36266452D01*
X241601785Y-36361690D01*
X241554166Y-36409309D01*
X241458928Y-36456928D01*
X241268452Y-36456928D01*
X241173214Y-36409309D01*
X241125595Y-36361690D01*
X241077976Y-36266452D01*
%TO.C,MX48*%
X227980654Y-106941880D02*
X227980654Y-105941880D01*
X227647321Y-106656166D01*
X227313988Y-105941880D01*
X227313988Y-106941880D01*
X226933035Y-105941880D02*
X226266369Y-106941880D01*
X226266369Y-105941880D02*
X226933035Y-106941880D01*
X225456845Y-106275214D02*
X225456845Y-106941880D01*
X225694940Y-105894261D02*
X225933035Y-106608547D01*
X225313988Y-106608547D01*
X224790178Y-106370452D02*
X224885416Y-106322833D01*
X224933035Y-106275214D01*
X224980654Y-106179976D01*
X224980654Y-106132357D01*
X224933035Y-106037119D01*
X224885416Y-105989500D01*
X224790178Y-105941880D01*
X224599702Y-105941880D01*
X224504464Y-105989500D01*
X224456845Y-106037119D01*
X224409226Y-106132357D01*
X224409226Y-106179976D01*
X224456845Y-106275214D01*
X224504464Y-106322833D01*
X224599702Y-106370452D01*
X224790178Y-106370452D01*
X224885416Y-106418071D01*
X224933035Y-106465690D01*
X224980654Y-106560928D01*
X224980654Y-106751404D01*
X224933035Y-106846642D01*
X224885416Y-106894261D01*
X224790178Y-106941880D01*
X224599702Y-106941880D01*
X224504464Y-106894261D01*
X224456845Y-106846642D01*
X224409226Y-106751404D01*
X224409226Y-106560928D01*
X224456845Y-106465690D01*
X224504464Y-106418071D01*
X224599702Y-106370452D01*
%TO.C,MX47*%
X230361904Y-93987880D02*
X230361904Y-92987880D01*
X230028571Y-93702166D01*
X229695238Y-92987880D01*
X229695238Y-93987880D01*
X229314285Y-92987880D02*
X228647619Y-93987880D01*
X228647619Y-92987880D02*
X229314285Y-93987880D01*
X227838095Y-93321214D02*
X227838095Y-93987880D01*
X228076190Y-92940261D02*
X228314285Y-93654547D01*
X227695238Y-93654547D01*
X227409523Y-92987880D02*
X226742857Y-92987880D01*
X227171428Y-93987880D01*
%TO.C,MX46*%
X239886904Y-74937880D02*
X239886904Y-73937880D01*
X239553571Y-74652166D01*
X239220238Y-73937880D01*
X239220238Y-74937880D01*
X238839285Y-73937880D02*
X238172619Y-74937880D01*
X238172619Y-73937880D02*
X238839285Y-74937880D01*
X237363095Y-74271214D02*
X237363095Y-74937880D01*
X237601190Y-73890261D02*
X237839285Y-74604547D01*
X237220238Y-74604547D01*
X236410714Y-73937880D02*
X236601190Y-73937880D01*
X236696428Y-73985500D01*
X236744047Y-74033119D01*
X236839285Y-74175976D01*
X236886904Y-74366452D01*
X236886904Y-74747404D01*
X236839285Y-74842642D01*
X236791666Y-74890261D01*
X236696428Y-74937880D01*
X236505952Y-74937880D01*
X236410714Y-74890261D01*
X236363095Y-74842642D01*
X236315476Y-74747404D01*
X236315476Y-74509309D01*
X236363095Y-74414071D01*
X236410714Y-74366452D01*
X236505952Y-74318833D01*
X236696428Y-74318833D01*
X236791666Y-74366452D01*
X236839285Y-74414071D01*
X236886904Y-74509309D01*
%TO.C,MX45*%
X235124404Y-55887880D02*
X235124404Y-54887880D01*
X234791071Y-55602166D01*
X234457738Y-54887880D01*
X234457738Y-55887880D01*
X234076785Y-54887880D02*
X233410119Y-55887880D01*
X233410119Y-54887880D02*
X234076785Y-55887880D01*
X232600595Y-55221214D02*
X232600595Y-55887880D01*
X232838690Y-54840261D02*
X233076785Y-55554547D01*
X232457738Y-55554547D01*
X231600595Y-54887880D02*
X232076785Y-54887880D01*
X232124404Y-55364071D01*
X232076785Y-55316452D01*
X231981547Y-55268833D01*
X231743452Y-55268833D01*
X231648214Y-55316452D01*
X231600595Y-55364071D01*
X231552976Y-55459309D01*
X231552976Y-55697404D01*
X231600595Y-55792642D01*
X231648214Y-55840261D01*
X231743452Y-55887880D01*
X231981547Y-55887880D01*
X232076785Y-55840261D01*
X232124404Y-55792642D01*
%TO.C,MX44*%
X225599404Y-36837880D02*
X225599404Y-35837880D01*
X225266071Y-36552166D01*
X224932738Y-35837880D01*
X224932738Y-36837880D01*
X224551785Y-35837880D02*
X223885119Y-36837880D01*
X223885119Y-35837880D02*
X224551785Y-36837880D01*
X223075595Y-36171214D02*
X223075595Y-36837880D01*
X223313690Y-35790261D02*
X223551785Y-36504547D01*
X222932738Y-36504547D01*
X222123214Y-36171214D02*
X222123214Y-36837880D01*
X222361309Y-35790261D02*
X222599404Y-36504547D01*
X221980357Y-36504547D01*
%TO.C,MX43*%
X211311904Y-93987880D02*
X211311904Y-92987880D01*
X210978571Y-93702166D01*
X210645238Y-92987880D01*
X210645238Y-93987880D01*
X210264285Y-92987880D02*
X209597619Y-93987880D01*
X209597619Y-92987880D02*
X210264285Y-93987880D01*
X208788095Y-93321214D02*
X208788095Y-93987880D01*
X209026190Y-92940261D02*
X209264285Y-93654547D01*
X208645238Y-93654547D01*
X208359523Y-92987880D02*
X207740476Y-92987880D01*
X208073809Y-93368833D01*
X207930952Y-93368833D01*
X207835714Y-93416452D01*
X207788095Y-93464071D01*
X207740476Y-93559309D01*
X207740476Y-93797404D01*
X207788095Y-93892642D01*
X207835714Y-93940261D01*
X207930952Y-93987880D01*
X208216666Y-93987880D01*
X208311904Y-93940261D01*
X208359523Y-93892642D01*
%TO.C,MX42*%
X220836904Y-74937880D02*
X220836904Y-73937880D01*
X220503571Y-74652166D01*
X220170238Y-73937880D01*
X220170238Y-74937880D01*
X219789285Y-73937880D02*
X219122619Y-74937880D01*
X219122619Y-73937880D02*
X219789285Y-74937880D01*
X218313095Y-74271214D02*
X218313095Y-74937880D01*
X218551190Y-73890261D02*
X218789285Y-74604547D01*
X218170238Y-74604547D01*
X217836904Y-74033119D02*
X217789285Y-73985500D01*
X217694047Y-73937880D01*
X217455952Y-73937880D01*
X217360714Y-73985500D01*
X217313095Y-74033119D01*
X217265476Y-74128357D01*
X217265476Y-74223595D01*
X217313095Y-74366452D01*
X217884523Y-74937880D01*
X217265476Y-74937880D01*
%TO.C,MX41*%
X216074404Y-55887880D02*
X216074404Y-54887880D01*
X215741071Y-55602166D01*
X215407738Y-54887880D01*
X215407738Y-55887880D01*
X215026785Y-54887880D02*
X214360119Y-55887880D01*
X214360119Y-54887880D02*
X215026785Y-55887880D01*
X213550595Y-55221214D02*
X213550595Y-55887880D01*
X213788690Y-54840261D02*
X214026785Y-55554547D01*
X213407738Y-55554547D01*
X212502976Y-55887880D02*
X213074404Y-55887880D01*
X212788690Y-55887880D02*
X212788690Y-54887880D01*
X212883928Y-55030738D01*
X212979166Y-55125976D01*
X213074404Y-55173595D01*
%TO.C,MX40*%
X206549404Y-36837880D02*
X206549404Y-35837880D01*
X206216071Y-36552166D01*
X205882738Y-35837880D01*
X205882738Y-36837880D01*
X205501785Y-35837880D02*
X204835119Y-36837880D01*
X204835119Y-35837880D02*
X205501785Y-36837880D01*
X204025595Y-36171214D02*
X204025595Y-36837880D01*
X204263690Y-35790261D02*
X204501785Y-36504547D01*
X203882738Y-36504547D01*
X203311309Y-35837880D02*
X203216071Y-35837880D01*
X203120833Y-35885500D01*
X203073214Y-35933119D01*
X203025595Y-36028357D01*
X202977976Y-36218833D01*
X202977976Y-36456928D01*
X203025595Y-36647404D01*
X203073214Y-36742642D01*
X203120833Y-36790261D01*
X203216071Y-36837880D01*
X203311309Y-36837880D01*
X203406547Y-36790261D01*
X203454166Y-36742642D01*
X203501785Y-36647404D01*
X203549404Y-36456928D01*
X203549404Y-36218833D01*
X203501785Y-36028357D01*
X203454166Y-35933119D01*
X203406547Y-35885500D01*
X203311309Y-35837880D01*
%TO.C,MX39*%
X192261904Y-93987880D02*
X192261904Y-92987880D01*
X191928571Y-93702166D01*
X191595238Y-92987880D01*
X191595238Y-93987880D01*
X191214285Y-92987880D02*
X190547619Y-93987880D01*
X190547619Y-92987880D02*
X191214285Y-93987880D01*
X190261904Y-92987880D02*
X189642857Y-92987880D01*
X189976190Y-93368833D01*
X189833333Y-93368833D01*
X189738095Y-93416452D01*
X189690476Y-93464071D01*
X189642857Y-93559309D01*
X189642857Y-93797404D01*
X189690476Y-93892642D01*
X189738095Y-93940261D01*
X189833333Y-93987880D01*
X190119047Y-93987880D01*
X190214285Y-93940261D01*
X190261904Y-93892642D01*
X189166666Y-93987880D02*
X188976190Y-93987880D01*
X188880952Y-93940261D01*
X188833333Y-93892642D01*
X188738095Y-93749785D01*
X188690476Y-93559309D01*
X188690476Y-93178357D01*
X188738095Y-93083119D01*
X188785714Y-93035500D01*
X188880952Y-92987880D01*
X189071428Y-92987880D01*
X189166666Y-93035500D01*
X189214285Y-93083119D01*
X189261904Y-93178357D01*
X189261904Y-93416452D01*
X189214285Y-93511690D01*
X189166666Y-93559309D01*
X189071428Y-93606928D01*
X188880952Y-93606928D01*
X188785714Y-93559309D01*
X188738095Y-93511690D01*
X188690476Y-93416452D01*
%TO.C,MX38*%
X201786904Y-74937880D02*
X201786904Y-73937880D01*
X201453571Y-74652166D01*
X201120238Y-73937880D01*
X201120238Y-74937880D01*
X200739285Y-73937880D02*
X200072619Y-74937880D01*
X200072619Y-73937880D02*
X200739285Y-74937880D01*
X199786904Y-73937880D02*
X199167857Y-73937880D01*
X199501190Y-74318833D01*
X199358333Y-74318833D01*
X199263095Y-74366452D01*
X199215476Y-74414071D01*
X199167857Y-74509309D01*
X199167857Y-74747404D01*
X199215476Y-74842642D01*
X199263095Y-74890261D01*
X199358333Y-74937880D01*
X199644047Y-74937880D01*
X199739285Y-74890261D01*
X199786904Y-74842642D01*
X198596428Y-74366452D02*
X198691666Y-74318833D01*
X198739285Y-74271214D01*
X198786904Y-74175976D01*
X198786904Y-74128357D01*
X198739285Y-74033119D01*
X198691666Y-73985500D01*
X198596428Y-73937880D01*
X198405952Y-73937880D01*
X198310714Y-73985500D01*
X198263095Y-74033119D01*
X198215476Y-74128357D01*
X198215476Y-74175976D01*
X198263095Y-74271214D01*
X198310714Y-74318833D01*
X198405952Y-74366452D01*
X198596428Y-74366452D01*
X198691666Y-74414071D01*
X198739285Y-74461690D01*
X198786904Y-74556928D01*
X198786904Y-74747404D01*
X198739285Y-74842642D01*
X198691666Y-74890261D01*
X198596428Y-74937880D01*
X198405952Y-74937880D01*
X198310714Y-74890261D01*
X198263095Y-74842642D01*
X198215476Y-74747404D01*
X198215476Y-74556928D01*
X198263095Y-74461690D01*
X198310714Y-74414071D01*
X198405952Y-74366452D01*
%TO.C,MX37*%
X197024404Y-55887880D02*
X197024404Y-54887880D01*
X196691071Y-55602166D01*
X196357738Y-54887880D01*
X196357738Y-55887880D01*
X195976785Y-54887880D02*
X195310119Y-55887880D01*
X195310119Y-54887880D02*
X195976785Y-55887880D01*
X195024404Y-54887880D02*
X194405357Y-54887880D01*
X194738690Y-55268833D01*
X194595833Y-55268833D01*
X194500595Y-55316452D01*
X194452976Y-55364071D01*
X194405357Y-55459309D01*
X194405357Y-55697404D01*
X194452976Y-55792642D01*
X194500595Y-55840261D01*
X194595833Y-55887880D01*
X194881547Y-55887880D01*
X194976785Y-55840261D01*
X195024404Y-55792642D01*
X194072023Y-54887880D02*
X193405357Y-54887880D01*
X193833928Y-55887880D01*
%TO.C,MX36*%
X187499404Y-36837880D02*
X187499404Y-35837880D01*
X187166071Y-36552166D01*
X186832738Y-35837880D01*
X186832738Y-36837880D01*
X186451785Y-35837880D02*
X185785119Y-36837880D01*
X185785119Y-35837880D02*
X186451785Y-36837880D01*
X185499404Y-35837880D02*
X184880357Y-35837880D01*
X185213690Y-36218833D01*
X185070833Y-36218833D01*
X184975595Y-36266452D01*
X184927976Y-36314071D01*
X184880357Y-36409309D01*
X184880357Y-36647404D01*
X184927976Y-36742642D01*
X184975595Y-36790261D01*
X185070833Y-36837880D01*
X185356547Y-36837880D01*
X185451785Y-36790261D01*
X185499404Y-36742642D01*
X184023214Y-35837880D02*
X184213690Y-35837880D01*
X184308928Y-35885500D01*
X184356547Y-35933119D01*
X184451785Y-36075976D01*
X184499404Y-36266452D01*
X184499404Y-36647404D01*
X184451785Y-36742642D01*
X184404166Y-36790261D01*
X184308928Y-36837880D01*
X184118452Y-36837880D01*
X184023214Y-36790261D01*
X183975595Y-36742642D01*
X183927976Y-36647404D01*
X183927976Y-36409309D01*
X183975595Y-36314071D01*
X184023214Y-36266452D01*
X184118452Y-36218833D01*
X184308928Y-36218833D01*
X184404166Y-36266452D01*
X184451785Y-36314071D01*
X184499404Y-36409309D01*
%TO.C,MX35*%
X173211904Y-93987880D02*
X173211904Y-92987880D01*
X172878571Y-93702166D01*
X172545238Y-92987880D01*
X172545238Y-93987880D01*
X172164285Y-92987880D02*
X171497619Y-93987880D01*
X171497619Y-92987880D02*
X172164285Y-93987880D01*
X171211904Y-92987880D02*
X170592857Y-92987880D01*
X170926190Y-93368833D01*
X170783333Y-93368833D01*
X170688095Y-93416452D01*
X170640476Y-93464071D01*
X170592857Y-93559309D01*
X170592857Y-93797404D01*
X170640476Y-93892642D01*
X170688095Y-93940261D01*
X170783333Y-93987880D01*
X171069047Y-93987880D01*
X171164285Y-93940261D01*
X171211904Y-93892642D01*
X169688095Y-92987880D02*
X170164285Y-92987880D01*
X170211904Y-93464071D01*
X170164285Y-93416452D01*
X170069047Y-93368833D01*
X169830952Y-93368833D01*
X169735714Y-93416452D01*
X169688095Y-93464071D01*
X169640476Y-93559309D01*
X169640476Y-93797404D01*
X169688095Y-93892642D01*
X169735714Y-93940261D01*
X169830952Y-93987880D01*
X170069047Y-93987880D01*
X170164285Y-93940261D01*
X170211904Y-93892642D01*
%TO.C,MX34*%
X182736904Y-74937880D02*
X182736904Y-73937880D01*
X182403571Y-74652166D01*
X182070238Y-73937880D01*
X182070238Y-74937880D01*
X181689285Y-73937880D02*
X181022619Y-74937880D01*
X181022619Y-73937880D02*
X181689285Y-74937880D01*
X180736904Y-73937880D02*
X180117857Y-73937880D01*
X180451190Y-74318833D01*
X180308333Y-74318833D01*
X180213095Y-74366452D01*
X180165476Y-74414071D01*
X180117857Y-74509309D01*
X180117857Y-74747404D01*
X180165476Y-74842642D01*
X180213095Y-74890261D01*
X180308333Y-74937880D01*
X180594047Y-74937880D01*
X180689285Y-74890261D01*
X180736904Y-74842642D01*
X179260714Y-74271214D02*
X179260714Y-74937880D01*
X179498809Y-73890261D02*
X179736904Y-74604547D01*
X179117857Y-74604547D01*
%TO.C,MX33*%
X177974404Y-55887880D02*
X177974404Y-54887880D01*
X177641071Y-55602166D01*
X177307738Y-54887880D01*
X177307738Y-55887880D01*
X176926785Y-54887880D02*
X176260119Y-55887880D01*
X176260119Y-54887880D02*
X176926785Y-55887880D01*
X175974404Y-54887880D02*
X175355357Y-54887880D01*
X175688690Y-55268833D01*
X175545833Y-55268833D01*
X175450595Y-55316452D01*
X175402976Y-55364071D01*
X175355357Y-55459309D01*
X175355357Y-55697404D01*
X175402976Y-55792642D01*
X175450595Y-55840261D01*
X175545833Y-55887880D01*
X175831547Y-55887880D01*
X175926785Y-55840261D01*
X175974404Y-55792642D01*
X175022023Y-54887880D02*
X174402976Y-54887880D01*
X174736309Y-55268833D01*
X174593452Y-55268833D01*
X174498214Y-55316452D01*
X174450595Y-55364071D01*
X174402976Y-55459309D01*
X174402976Y-55697404D01*
X174450595Y-55792642D01*
X174498214Y-55840261D01*
X174593452Y-55887880D01*
X174879166Y-55887880D01*
X174974404Y-55840261D01*
X175022023Y-55792642D01*
%TO.C,MX32*%
X168449404Y-36837880D02*
X168449404Y-35837880D01*
X168116071Y-36552166D01*
X167782738Y-35837880D01*
X167782738Y-36837880D01*
X167401785Y-35837880D02*
X166735119Y-36837880D01*
X166735119Y-35837880D02*
X167401785Y-36837880D01*
X166449404Y-35837880D02*
X165830357Y-35837880D01*
X166163690Y-36218833D01*
X166020833Y-36218833D01*
X165925595Y-36266452D01*
X165877976Y-36314071D01*
X165830357Y-36409309D01*
X165830357Y-36647404D01*
X165877976Y-36742642D01*
X165925595Y-36790261D01*
X166020833Y-36837880D01*
X166306547Y-36837880D01*
X166401785Y-36790261D01*
X166449404Y-36742642D01*
X165449404Y-35933119D02*
X165401785Y-35885500D01*
X165306547Y-35837880D01*
X165068452Y-35837880D01*
X164973214Y-35885500D01*
X164925595Y-35933119D01*
X164877976Y-36028357D01*
X164877976Y-36123595D01*
X164925595Y-36266452D01*
X165497023Y-36837880D01*
X164877976Y-36837880D01*
%TO.C,MX30*%
X154161904Y-93987880D02*
X154161904Y-92987880D01*
X153828571Y-93702166D01*
X153495238Y-92987880D01*
X153495238Y-93987880D01*
X153114285Y-92987880D02*
X152447619Y-93987880D01*
X152447619Y-92987880D02*
X153114285Y-93987880D01*
X152161904Y-92987880D02*
X151542857Y-92987880D01*
X151876190Y-93368833D01*
X151733333Y-93368833D01*
X151638095Y-93416452D01*
X151590476Y-93464071D01*
X151542857Y-93559309D01*
X151542857Y-93797404D01*
X151590476Y-93892642D01*
X151638095Y-93940261D01*
X151733333Y-93987880D01*
X152019047Y-93987880D01*
X152114285Y-93940261D01*
X152161904Y-93892642D01*
X150923809Y-92987880D02*
X150828571Y-92987880D01*
X150733333Y-93035500D01*
X150685714Y-93083119D01*
X150638095Y-93178357D01*
X150590476Y-93368833D01*
X150590476Y-93606928D01*
X150638095Y-93797404D01*
X150685714Y-93892642D01*
X150733333Y-93940261D01*
X150828571Y-93987880D01*
X150923809Y-93987880D01*
X151019047Y-93940261D01*
X151066666Y-93892642D01*
X151114285Y-93797404D01*
X151161904Y-93606928D01*
X151161904Y-93368833D01*
X151114285Y-93178357D01*
X151066666Y-93083119D01*
X151019047Y-93035500D01*
X150923809Y-92987880D01*
%TO.C,MX29*%
X163686904Y-74937880D02*
X163686904Y-73937880D01*
X163353571Y-74652166D01*
X163020238Y-73937880D01*
X163020238Y-74937880D01*
X162639285Y-73937880D02*
X161972619Y-74937880D01*
X161972619Y-73937880D02*
X162639285Y-74937880D01*
X161639285Y-74033119D02*
X161591666Y-73985500D01*
X161496428Y-73937880D01*
X161258333Y-73937880D01*
X161163095Y-73985500D01*
X161115476Y-74033119D01*
X161067857Y-74128357D01*
X161067857Y-74223595D01*
X161115476Y-74366452D01*
X161686904Y-74937880D01*
X161067857Y-74937880D01*
X160591666Y-74937880D02*
X160401190Y-74937880D01*
X160305952Y-74890261D01*
X160258333Y-74842642D01*
X160163095Y-74699785D01*
X160115476Y-74509309D01*
X160115476Y-74128357D01*
X160163095Y-74033119D01*
X160210714Y-73985500D01*
X160305952Y-73937880D01*
X160496428Y-73937880D01*
X160591666Y-73985500D01*
X160639285Y-74033119D01*
X160686904Y-74128357D01*
X160686904Y-74366452D01*
X160639285Y-74461690D01*
X160591666Y-74509309D01*
X160496428Y-74556928D01*
X160305952Y-74556928D01*
X160210714Y-74509309D01*
X160163095Y-74461690D01*
X160115476Y-74366452D01*
%TO.C,MX28*%
X158924404Y-55887880D02*
X158924404Y-54887880D01*
X158591071Y-55602166D01*
X158257738Y-54887880D01*
X158257738Y-55887880D01*
X157876785Y-54887880D02*
X157210119Y-55887880D01*
X157210119Y-54887880D02*
X157876785Y-55887880D01*
X156876785Y-54983119D02*
X156829166Y-54935500D01*
X156733928Y-54887880D01*
X156495833Y-54887880D01*
X156400595Y-54935500D01*
X156352976Y-54983119D01*
X156305357Y-55078357D01*
X156305357Y-55173595D01*
X156352976Y-55316452D01*
X156924404Y-55887880D01*
X156305357Y-55887880D01*
X155733928Y-55316452D02*
X155829166Y-55268833D01*
X155876785Y-55221214D01*
X155924404Y-55125976D01*
X155924404Y-55078357D01*
X155876785Y-54983119D01*
X155829166Y-54935500D01*
X155733928Y-54887880D01*
X155543452Y-54887880D01*
X155448214Y-54935500D01*
X155400595Y-54983119D01*
X155352976Y-55078357D01*
X155352976Y-55125976D01*
X155400595Y-55221214D01*
X155448214Y-55268833D01*
X155543452Y-55316452D01*
X155733928Y-55316452D01*
X155829166Y-55364071D01*
X155876785Y-55411690D01*
X155924404Y-55506928D01*
X155924404Y-55697404D01*
X155876785Y-55792642D01*
X155829166Y-55840261D01*
X155733928Y-55887880D01*
X155543452Y-55887880D01*
X155448214Y-55840261D01*
X155400595Y-55792642D01*
X155352976Y-55697404D01*
X155352976Y-55506928D01*
X155400595Y-55411690D01*
X155448214Y-55364071D01*
X155543452Y-55316452D01*
%TO.C,MX27*%
X149399404Y-36837880D02*
X149399404Y-35837880D01*
X149066071Y-36552166D01*
X148732738Y-35837880D01*
X148732738Y-36837880D01*
X148351785Y-35837880D02*
X147685119Y-36837880D01*
X147685119Y-35837880D02*
X148351785Y-36837880D01*
X147351785Y-35933119D02*
X147304166Y-35885500D01*
X147208928Y-35837880D01*
X146970833Y-35837880D01*
X146875595Y-35885500D01*
X146827976Y-35933119D01*
X146780357Y-36028357D01*
X146780357Y-36123595D01*
X146827976Y-36266452D01*
X147399404Y-36837880D01*
X146780357Y-36837880D01*
X146447023Y-35837880D02*
X145780357Y-35837880D01*
X146208928Y-36837880D01*
%TO.C,MX26*%
X135111904Y-93987880D02*
X135111904Y-92987880D01*
X134778571Y-93702166D01*
X134445238Y-92987880D01*
X134445238Y-93987880D01*
X134064285Y-92987880D02*
X133397619Y-93987880D01*
X133397619Y-92987880D02*
X134064285Y-93987880D01*
X133064285Y-93083119D02*
X133016666Y-93035500D01*
X132921428Y-92987880D01*
X132683333Y-92987880D01*
X132588095Y-93035500D01*
X132540476Y-93083119D01*
X132492857Y-93178357D01*
X132492857Y-93273595D01*
X132540476Y-93416452D01*
X133111904Y-93987880D01*
X132492857Y-93987880D01*
X131635714Y-92987880D02*
X131826190Y-92987880D01*
X131921428Y-93035500D01*
X131969047Y-93083119D01*
X132064285Y-93225976D01*
X132111904Y-93416452D01*
X132111904Y-93797404D01*
X132064285Y-93892642D01*
X132016666Y-93940261D01*
X131921428Y-93987880D01*
X131730952Y-93987880D01*
X131635714Y-93940261D01*
X131588095Y-93892642D01*
X131540476Y-93797404D01*
X131540476Y-93559309D01*
X131588095Y-93464071D01*
X131635714Y-93416452D01*
X131730952Y-93368833D01*
X131921428Y-93368833D01*
X132016666Y-93416452D01*
X132064285Y-93464071D01*
X132111904Y-93559309D01*
%TO.C,MX25*%
X144636904Y-74937880D02*
X144636904Y-73937880D01*
X144303571Y-74652166D01*
X143970238Y-73937880D01*
X143970238Y-74937880D01*
X143589285Y-73937880D02*
X142922619Y-74937880D01*
X142922619Y-73937880D02*
X143589285Y-74937880D01*
X142589285Y-74033119D02*
X142541666Y-73985500D01*
X142446428Y-73937880D01*
X142208333Y-73937880D01*
X142113095Y-73985500D01*
X142065476Y-74033119D01*
X142017857Y-74128357D01*
X142017857Y-74223595D01*
X142065476Y-74366452D01*
X142636904Y-74937880D01*
X142017857Y-74937880D01*
X141113095Y-73937880D02*
X141589285Y-73937880D01*
X141636904Y-74414071D01*
X141589285Y-74366452D01*
X141494047Y-74318833D01*
X141255952Y-74318833D01*
X141160714Y-74366452D01*
X141113095Y-74414071D01*
X141065476Y-74509309D01*
X141065476Y-74747404D01*
X141113095Y-74842642D01*
X141160714Y-74890261D01*
X141255952Y-74937880D01*
X141494047Y-74937880D01*
X141589285Y-74890261D01*
X141636904Y-74842642D01*
%TO.C,MX24*%
X139874404Y-55887880D02*
X139874404Y-54887880D01*
X139541071Y-55602166D01*
X139207738Y-54887880D01*
X139207738Y-55887880D01*
X138826785Y-54887880D02*
X138160119Y-55887880D01*
X138160119Y-54887880D02*
X138826785Y-55887880D01*
X137826785Y-54983119D02*
X137779166Y-54935500D01*
X137683928Y-54887880D01*
X137445833Y-54887880D01*
X137350595Y-54935500D01*
X137302976Y-54983119D01*
X137255357Y-55078357D01*
X137255357Y-55173595D01*
X137302976Y-55316452D01*
X137874404Y-55887880D01*
X137255357Y-55887880D01*
X136398214Y-55221214D02*
X136398214Y-55887880D01*
X136636309Y-54840261D02*
X136874404Y-55554547D01*
X136255357Y-55554547D01*
%TO.C,MX23*%
X130349404Y-36837880D02*
X130349404Y-35837880D01*
X130016071Y-36552166D01*
X129682738Y-35837880D01*
X129682738Y-36837880D01*
X129301785Y-35837880D02*
X128635119Y-36837880D01*
X128635119Y-35837880D02*
X129301785Y-36837880D01*
X128301785Y-35933119D02*
X128254166Y-35885500D01*
X128158928Y-35837880D01*
X127920833Y-35837880D01*
X127825595Y-35885500D01*
X127777976Y-35933119D01*
X127730357Y-36028357D01*
X127730357Y-36123595D01*
X127777976Y-36266452D01*
X128349404Y-36837880D01*
X127730357Y-36837880D01*
X127397023Y-35837880D02*
X126777976Y-35837880D01*
X127111309Y-36218833D01*
X126968452Y-36218833D01*
X126873214Y-36266452D01*
X126825595Y-36314071D01*
X126777976Y-36409309D01*
X126777976Y-36647404D01*
X126825595Y-36742642D01*
X126873214Y-36790261D01*
X126968452Y-36837880D01*
X127254166Y-36837880D01*
X127349404Y-36790261D01*
X127397023Y-36742642D01*
%TO.C,MX22*%
X116061904Y-93987880D02*
X116061904Y-92987880D01*
X115728571Y-93702166D01*
X115395238Y-92987880D01*
X115395238Y-93987880D01*
X115014285Y-92987880D02*
X114347619Y-93987880D01*
X114347619Y-92987880D02*
X115014285Y-93987880D01*
X114014285Y-93083119D02*
X113966666Y-93035500D01*
X113871428Y-92987880D01*
X113633333Y-92987880D01*
X113538095Y-93035500D01*
X113490476Y-93083119D01*
X113442857Y-93178357D01*
X113442857Y-93273595D01*
X113490476Y-93416452D01*
X114061904Y-93987880D01*
X113442857Y-93987880D01*
X113061904Y-93083119D02*
X113014285Y-93035500D01*
X112919047Y-92987880D01*
X112680952Y-92987880D01*
X112585714Y-93035500D01*
X112538095Y-93083119D01*
X112490476Y-93178357D01*
X112490476Y-93273595D01*
X112538095Y-93416452D01*
X113109523Y-93987880D01*
X112490476Y-93987880D01*
%TO.C,MX21*%
X125586904Y-74937880D02*
X125586904Y-73937880D01*
X125253571Y-74652166D01*
X124920238Y-73937880D01*
X124920238Y-74937880D01*
X124539285Y-73937880D02*
X123872619Y-74937880D01*
X123872619Y-73937880D02*
X124539285Y-74937880D01*
X123539285Y-74033119D02*
X123491666Y-73985500D01*
X123396428Y-73937880D01*
X123158333Y-73937880D01*
X123063095Y-73985500D01*
X123015476Y-74033119D01*
X122967857Y-74128357D01*
X122967857Y-74223595D01*
X123015476Y-74366452D01*
X123586904Y-74937880D01*
X122967857Y-74937880D01*
X122015476Y-74937880D02*
X122586904Y-74937880D01*
X122301190Y-74937880D02*
X122301190Y-73937880D01*
X122396428Y-74080738D01*
X122491666Y-74175976D01*
X122586904Y-74223595D01*
%TO.C,MX20*%
X120824404Y-55887880D02*
X120824404Y-54887880D01*
X120491071Y-55602166D01*
X120157738Y-54887880D01*
X120157738Y-55887880D01*
X119776785Y-54887880D02*
X119110119Y-55887880D01*
X119110119Y-54887880D02*
X119776785Y-55887880D01*
X118776785Y-54983119D02*
X118729166Y-54935500D01*
X118633928Y-54887880D01*
X118395833Y-54887880D01*
X118300595Y-54935500D01*
X118252976Y-54983119D01*
X118205357Y-55078357D01*
X118205357Y-55173595D01*
X118252976Y-55316452D01*
X118824404Y-55887880D01*
X118205357Y-55887880D01*
X117586309Y-54887880D02*
X117491071Y-54887880D01*
X117395833Y-54935500D01*
X117348214Y-54983119D01*
X117300595Y-55078357D01*
X117252976Y-55268833D01*
X117252976Y-55506928D01*
X117300595Y-55697404D01*
X117348214Y-55792642D01*
X117395833Y-55840261D01*
X117491071Y-55887880D01*
X117586309Y-55887880D01*
X117681547Y-55840261D01*
X117729166Y-55792642D01*
X117776785Y-55697404D01*
X117824404Y-55506928D01*
X117824404Y-55268833D01*
X117776785Y-55078357D01*
X117729166Y-54983119D01*
X117681547Y-54935500D01*
X117586309Y-54887880D01*
%TO.C,MX19*%
X111299404Y-36837880D02*
X111299404Y-35837880D01*
X110966071Y-36552166D01*
X110632738Y-35837880D01*
X110632738Y-36837880D01*
X110251785Y-35837880D02*
X109585119Y-36837880D01*
X109585119Y-35837880D02*
X110251785Y-36837880D01*
X108680357Y-36837880D02*
X109251785Y-36837880D01*
X108966071Y-36837880D02*
X108966071Y-35837880D01*
X109061309Y-35980738D01*
X109156547Y-36075976D01*
X109251785Y-36123595D01*
X108204166Y-36837880D02*
X108013690Y-36837880D01*
X107918452Y-36790261D01*
X107870833Y-36742642D01*
X107775595Y-36599785D01*
X107727976Y-36409309D01*
X107727976Y-36028357D01*
X107775595Y-35933119D01*
X107823214Y-35885500D01*
X107918452Y-35837880D01*
X108108928Y-35837880D01*
X108204166Y-35885500D01*
X108251785Y-35933119D01*
X108299404Y-36028357D01*
X108299404Y-36266452D01*
X108251785Y-36361690D01*
X108204166Y-36409309D01*
X108108928Y-36456928D01*
X107918452Y-36456928D01*
X107823214Y-36409309D01*
X107775595Y-36361690D01*
X107727976Y-36266452D01*
%TO.C,MX18*%
X97011904Y-93987880D02*
X97011904Y-92987880D01*
X96678571Y-93702166D01*
X96345238Y-92987880D01*
X96345238Y-93987880D01*
X95964285Y-92987880D02*
X95297619Y-93987880D01*
X95297619Y-92987880D02*
X95964285Y-93987880D01*
X94392857Y-93987880D02*
X94964285Y-93987880D01*
X94678571Y-93987880D02*
X94678571Y-92987880D01*
X94773809Y-93130738D01*
X94869047Y-93225976D01*
X94964285Y-93273595D01*
X93821428Y-93416452D02*
X93916666Y-93368833D01*
X93964285Y-93321214D01*
X94011904Y-93225976D01*
X94011904Y-93178357D01*
X93964285Y-93083119D01*
X93916666Y-93035500D01*
X93821428Y-92987880D01*
X93630952Y-92987880D01*
X93535714Y-93035500D01*
X93488095Y-93083119D01*
X93440476Y-93178357D01*
X93440476Y-93225976D01*
X93488095Y-93321214D01*
X93535714Y-93368833D01*
X93630952Y-93416452D01*
X93821428Y-93416452D01*
X93916666Y-93464071D01*
X93964285Y-93511690D01*
X94011904Y-93606928D01*
X94011904Y-93797404D01*
X93964285Y-93892642D01*
X93916666Y-93940261D01*
X93821428Y-93987880D01*
X93630952Y-93987880D01*
X93535714Y-93940261D01*
X93488095Y-93892642D01*
X93440476Y-93797404D01*
X93440476Y-93606928D01*
X93488095Y-93511690D01*
X93535714Y-93464071D01*
X93630952Y-93416452D01*
%TO.C,MX17*%
X106536904Y-74937880D02*
X106536904Y-73937880D01*
X106203571Y-74652166D01*
X105870238Y-73937880D01*
X105870238Y-74937880D01*
X105489285Y-73937880D02*
X104822619Y-74937880D01*
X104822619Y-73937880D02*
X105489285Y-74937880D01*
X103917857Y-74937880D02*
X104489285Y-74937880D01*
X104203571Y-74937880D02*
X104203571Y-73937880D01*
X104298809Y-74080738D01*
X104394047Y-74175976D01*
X104489285Y-74223595D01*
X103584523Y-73937880D02*
X102917857Y-73937880D01*
X103346428Y-74937880D01*
%TO.C,MX16*%
X101774404Y-55887880D02*
X101774404Y-54887880D01*
X101441071Y-55602166D01*
X101107738Y-54887880D01*
X101107738Y-55887880D01*
X100726785Y-54887880D02*
X100060119Y-55887880D01*
X100060119Y-54887880D02*
X100726785Y-55887880D01*
X99155357Y-55887880D02*
X99726785Y-55887880D01*
X99441071Y-55887880D02*
X99441071Y-54887880D01*
X99536309Y-55030738D01*
X99631547Y-55125976D01*
X99726785Y-55173595D01*
X98298214Y-54887880D02*
X98488690Y-54887880D01*
X98583928Y-54935500D01*
X98631547Y-54983119D01*
X98726785Y-55125976D01*
X98774404Y-55316452D01*
X98774404Y-55697404D01*
X98726785Y-55792642D01*
X98679166Y-55840261D01*
X98583928Y-55887880D01*
X98393452Y-55887880D01*
X98298214Y-55840261D01*
X98250595Y-55792642D01*
X98202976Y-55697404D01*
X98202976Y-55459309D01*
X98250595Y-55364071D01*
X98298214Y-55316452D01*
X98393452Y-55268833D01*
X98583928Y-55268833D01*
X98679166Y-55316452D01*
X98726785Y-55364071D01*
X98774404Y-55459309D01*
%TO.C,MX15*%
X92249404Y-36837880D02*
X92249404Y-35837880D01*
X91916071Y-36552166D01*
X91582738Y-35837880D01*
X91582738Y-36837880D01*
X91201785Y-35837880D02*
X90535119Y-36837880D01*
X90535119Y-35837880D02*
X91201785Y-36837880D01*
X89630357Y-36837880D02*
X90201785Y-36837880D01*
X89916071Y-36837880D02*
X89916071Y-35837880D01*
X90011309Y-35980738D01*
X90106547Y-36075976D01*
X90201785Y-36123595D01*
X88725595Y-35837880D02*
X89201785Y-35837880D01*
X89249404Y-36314071D01*
X89201785Y-36266452D01*
X89106547Y-36218833D01*
X88868452Y-36218833D01*
X88773214Y-36266452D01*
X88725595Y-36314071D01*
X88677976Y-36409309D01*
X88677976Y-36647404D01*
X88725595Y-36742642D01*
X88773214Y-36790261D01*
X88868452Y-36837880D01*
X89106547Y-36837880D01*
X89201785Y-36790261D01*
X89249404Y-36742642D01*
%TO.C,MX14*%
X85105654Y-113037880D02*
X85105654Y-112037880D01*
X84772321Y-112752166D01*
X84438988Y-112037880D01*
X84438988Y-113037880D01*
X84058035Y-112037880D02*
X83391369Y-113037880D01*
X83391369Y-112037880D02*
X84058035Y-113037880D01*
X82486607Y-113037880D02*
X83058035Y-113037880D01*
X82772321Y-113037880D02*
X82772321Y-112037880D01*
X82867559Y-112180738D01*
X82962797Y-112275976D01*
X83058035Y-112323595D01*
X81629464Y-112371214D02*
X81629464Y-113037880D01*
X81867559Y-111990261D02*
X82105654Y-112704547D01*
X81486607Y-112704547D01*
%TO.C,MX13*%
X77961904Y-93987880D02*
X77961904Y-92987880D01*
X77628571Y-93702166D01*
X77295238Y-92987880D01*
X77295238Y-93987880D01*
X76914285Y-92987880D02*
X76247619Y-93987880D01*
X76247619Y-92987880D02*
X76914285Y-93987880D01*
X75342857Y-93987880D02*
X75914285Y-93987880D01*
X75628571Y-93987880D02*
X75628571Y-92987880D01*
X75723809Y-93130738D01*
X75819047Y-93225976D01*
X75914285Y-93273595D01*
X75009523Y-92987880D02*
X74390476Y-92987880D01*
X74723809Y-93368833D01*
X74580952Y-93368833D01*
X74485714Y-93416452D01*
X74438095Y-93464071D01*
X74390476Y-93559309D01*
X74390476Y-93797404D01*
X74438095Y-93892642D01*
X74485714Y-93940261D01*
X74580952Y-93987880D01*
X74866666Y-93987880D01*
X74961904Y-93940261D01*
X75009523Y-93892642D01*
%TO.C,MX12*%
X87486904Y-74937880D02*
X87486904Y-73937880D01*
X87153571Y-74652166D01*
X86820238Y-73937880D01*
X86820238Y-74937880D01*
X86439285Y-73937880D02*
X85772619Y-74937880D01*
X85772619Y-73937880D02*
X86439285Y-74937880D01*
X84867857Y-74937880D02*
X85439285Y-74937880D01*
X85153571Y-74937880D02*
X85153571Y-73937880D01*
X85248809Y-74080738D01*
X85344047Y-74175976D01*
X85439285Y-74223595D01*
X84486904Y-74033119D02*
X84439285Y-73985500D01*
X84344047Y-73937880D01*
X84105952Y-73937880D01*
X84010714Y-73985500D01*
X83963095Y-74033119D01*
X83915476Y-74128357D01*
X83915476Y-74223595D01*
X83963095Y-74366452D01*
X84534523Y-74937880D01*
X83915476Y-74937880D01*
%TO.C,MX11*%
X82724404Y-55887880D02*
X82724404Y-54887880D01*
X82391071Y-55602166D01*
X82057738Y-54887880D01*
X82057738Y-55887880D01*
X81676785Y-54887880D02*
X81010119Y-55887880D01*
X81010119Y-54887880D02*
X81676785Y-55887880D01*
X80105357Y-55887880D02*
X80676785Y-55887880D01*
X80391071Y-55887880D02*
X80391071Y-54887880D01*
X80486309Y-55030738D01*
X80581547Y-55125976D01*
X80676785Y-55173595D01*
X79152976Y-55887880D02*
X79724404Y-55887880D01*
X79438690Y-55887880D02*
X79438690Y-54887880D01*
X79533928Y-55030738D01*
X79629166Y-55125976D01*
X79724404Y-55173595D01*
%TO.C,MX10*%
X73199404Y-36837880D02*
X73199404Y-35837880D01*
X72866071Y-36552166D01*
X72532738Y-35837880D01*
X72532738Y-36837880D01*
X72151785Y-35837880D02*
X71485119Y-36837880D01*
X71485119Y-35837880D02*
X72151785Y-36837880D01*
X70580357Y-36837880D02*
X71151785Y-36837880D01*
X70866071Y-36837880D02*
X70866071Y-35837880D01*
X70961309Y-35980738D01*
X71056547Y-36075976D01*
X71151785Y-36123595D01*
X69961309Y-35837880D02*
X69866071Y-35837880D01*
X69770833Y-35885500D01*
X69723214Y-35933119D01*
X69675595Y-36028357D01*
X69627976Y-36218833D01*
X69627976Y-36456928D01*
X69675595Y-36647404D01*
X69723214Y-36742642D01*
X69770833Y-36790261D01*
X69866071Y-36837880D01*
X69961309Y-36837880D01*
X70056547Y-36790261D01*
X70104166Y-36742642D01*
X70151785Y-36647404D01*
X70199404Y-36456928D01*
X70199404Y-36218833D01*
X70151785Y-36028357D01*
X70104166Y-35933119D01*
X70056547Y-35885500D01*
X69961309Y-35837880D01*
%TO.C,MX9*%
X60816964Y-113037880D02*
X60816964Y-112037880D01*
X60483630Y-112752166D01*
X60150297Y-112037880D01*
X60150297Y-113037880D01*
X59769345Y-112037880D02*
X59102678Y-113037880D01*
X59102678Y-112037880D02*
X59769345Y-113037880D01*
X58674107Y-113037880D02*
X58483630Y-113037880D01*
X58388392Y-112990261D01*
X58340773Y-112942642D01*
X58245535Y-112799785D01*
X58197916Y-112609309D01*
X58197916Y-112228357D01*
X58245535Y-112133119D01*
X58293154Y-112085500D01*
X58388392Y-112037880D01*
X58578869Y-112037880D01*
X58674107Y-112085500D01*
X58721726Y-112133119D01*
X58769345Y-112228357D01*
X58769345Y-112466452D01*
X58721726Y-112561690D01*
X58674107Y-112609309D01*
X58578869Y-112656928D01*
X58388392Y-112656928D01*
X58293154Y-112609309D01*
X58245535Y-112561690D01*
X58197916Y-112466452D01*
%TO.C,MX8*%
X67960714Y-74937880D02*
X67960714Y-73937880D01*
X67627380Y-74652166D01*
X67294047Y-73937880D01*
X67294047Y-74937880D01*
X66913095Y-73937880D02*
X66246428Y-74937880D01*
X66246428Y-73937880D02*
X66913095Y-74937880D01*
X65722619Y-74366452D02*
X65817857Y-74318833D01*
X65865476Y-74271214D01*
X65913095Y-74175976D01*
X65913095Y-74128357D01*
X65865476Y-74033119D01*
X65817857Y-73985500D01*
X65722619Y-73937880D01*
X65532142Y-73937880D01*
X65436904Y-73985500D01*
X65389285Y-74033119D01*
X65341666Y-74128357D01*
X65341666Y-74175976D01*
X65389285Y-74271214D01*
X65436904Y-74318833D01*
X65532142Y-74366452D01*
X65722619Y-74366452D01*
X65817857Y-74414071D01*
X65865476Y-74461690D01*
X65913095Y-74556928D01*
X65913095Y-74747404D01*
X65865476Y-74842642D01*
X65817857Y-74890261D01*
X65722619Y-74937880D01*
X65532142Y-74937880D01*
X65436904Y-74890261D01*
X65389285Y-74842642D01*
X65341666Y-74747404D01*
X65341666Y-74556928D01*
X65389285Y-74461690D01*
X65436904Y-74414071D01*
X65532142Y-74366452D01*
%TO.C,MX7*%
X63198214Y-49791880D02*
X63198214Y-48791880D01*
X62864880Y-49506166D01*
X62531547Y-48791880D01*
X62531547Y-49791880D01*
X62150595Y-48791880D02*
X61483928Y-49791880D01*
X61483928Y-48791880D02*
X62150595Y-49791880D01*
X61198214Y-48791880D02*
X60531547Y-48791880D01*
X60960119Y-49791880D01*
%TO.C,MX6*%
X53673214Y-30741880D02*
X53673214Y-29741880D01*
X53339880Y-30456166D01*
X53006547Y-29741880D01*
X53006547Y-30741880D01*
X52625595Y-29741880D02*
X51958928Y-30741880D01*
X51958928Y-29741880D02*
X52625595Y-30741880D01*
X51149404Y-29741880D02*
X51339880Y-29741880D01*
X51435119Y-29789500D01*
X51482738Y-29837119D01*
X51577976Y-29979976D01*
X51625595Y-30170452D01*
X51625595Y-30551404D01*
X51577976Y-30646642D01*
X51530357Y-30694261D01*
X51435119Y-30741880D01*
X51244642Y-30741880D01*
X51149404Y-30694261D01*
X51101785Y-30646642D01*
X51054166Y-30551404D01*
X51054166Y-30313309D01*
X51101785Y-30218071D01*
X51149404Y-30170452D01*
X51244642Y-30122833D01*
X51435119Y-30122833D01*
X51530357Y-30170452D01*
X51577976Y-30218071D01*
X51625595Y-30313309D01*
%TO.C,MX5*%
X37004464Y-113037880D02*
X37004464Y-112037880D01*
X36671130Y-112752166D01*
X36337797Y-112037880D01*
X36337797Y-113037880D01*
X35956845Y-112037880D02*
X35290178Y-113037880D01*
X35290178Y-112037880D02*
X35956845Y-113037880D01*
X34433035Y-112037880D02*
X34909226Y-112037880D01*
X34956845Y-112514071D01*
X34909226Y-112466452D01*
X34813988Y-112418833D01*
X34575892Y-112418833D01*
X34480654Y-112466452D01*
X34433035Y-112514071D01*
X34385416Y-112609309D01*
X34385416Y-112847404D01*
X34433035Y-112942642D01*
X34480654Y-112990261D01*
X34575892Y-113037880D01*
X34813988Y-113037880D01*
X34909226Y-112990261D01*
X34956845Y-112942642D01*
%TO.C,MX4*%
X46529464Y-93987880D02*
X46529464Y-92987880D01*
X46196130Y-93702166D01*
X45862797Y-92987880D01*
X45862797Y-93987880D01*
X45481845Y-92987880D02*
X44815178Y-93987880D01*
X44815178Y-92987880D02*
X45481845Y-93987880D01*
X44005654Y-93321214D02*
X44005654Y-93987880D01*
X44243750Y-92940261D02*
X44481845Y-93654547D01*
X43862797Y-93654547D01*
%TO.C,MX3*%
X41766964Y-74937880D02*
X41766964Y-73937880D01*
X41433630Y-74652166D01*
X41100297Y-73937880D01*
X41100297Y-74937880D01*
X40719345Y-73937880D02*
X40052678Y-74937880D01*
X40052678Y-73937880D02*
X40719345Y-74937880D01*
X39766964Y-73937880D02*
X39147916Y-73937880D01*
X39481250Y-74318833D01*
X39338392Y-74318833D01*
X39243154Y-74366452D01*
X39195535Y-74414071D01*
X39147916Y-74509309D01*
X39147916Y-74747404D01*
X39195535Y-74842642D01*
X39243154Y-74890261D01*
X39338392Y-74937880D01*
X39624107Y-74937880D01*
X39719345Y-74890261D01*
X39766964Y-74842642D01*
%TO.C,MX2*%
X39385714Y-55887880D02*
X39385714Y-54887880D01*
X39052380Y-55602166D01*
X38719047Y-54887880D01*
X38719047Y-55887880D01*
X38338095Y-54887880D02*
X37671428Y-55887880D01*
X37671428Y-54887880D02*
X38338095Y-55887880D01*
X37338095Y-54983119D02*
X37290476Y-54935500D01*
X37195238Y-54887880D01*
X36957142Y-54887880D01*
X36861904Y-54935500D01*
X36814285Y-54983119D01*
X36766666Y-55078357D01*
X36766666Y-55173595D01*
X36814285Y-55316452D01*
X37385714Y-55887880D01*
X36766666Y-55887880D01*
%TO.C,MX1*%
X34623214Y-30741880D02*
X34623214Y-29741880D01*
X34289880Y-30456166D01*
X33956547Y-29741880D01*
X33956547Y-30741880D01*
X33575595Y-29741880D02*
X32908928Y-30741880D01*
X32908928Y-29741880D02*
X33575595Y-30741880D01*
X32004166Y-30741880D02*
X32575595Y-30741880D01*
X32289880Y-30741880D02*
X32289880Y-29741880D01*
X32385119Y-29884738D01*
X32480357Y-29979976D01*
X32575595Y-30027595D01*
%TD*%
M02*
