%TF.GenerationSoftware,KiCad,Pcbnew,(5.1.10-1-10_14)*%
%TF.CreationDate,2021-08-25T09:42:14+09:00*%
%TF.ProjectId,pcb,7063622e-6b69-4636-9164-5f7063625858,rev?*%
%TF.SameCoordinates,Original*%
%TF.FileFunction,Profile,NP*%
%FSLAX46Y46*%
G04 Gerber Fmt 4.6, Leading zero omitted, Abs format (unit mm)*
G04 Created by KiCad (PCBNEW (5.1.10-1-10_14)) date 2021-08-25 09:42:14*
%MOMM*%
%LPD*%
G01*
G04 APERTURE LIST*
%TA.AperFunction,Profile*%
%ADD10C,0.300000*%
%TD*%
G04 APERTURE END LIST*
D10*
%TO.C,REF\u002A\u002A*%
X26632000Y-118674000D02*
X307632000Y-118674000D01*
X307632000Y-24074000D02*
X48832000Y-24074000D01*
X24632000Y-116674000D02*
X24632000Y-81974000D01*
X24632000Y-81974000D02*
X28432000Y-81974000D01*
X28432000Y-79174000D02*
X24632000Y-79174000D01*
X24632000Y-79174000D02*
X24632000Y-26074000D01*
X309632000Y-81974000D02*
X309632000Y-116674000D01*
X309632000Y-79174000D02*
X309632000Y-26074000D01*
X305832000Y-81974000D02*
X309632000Y-81974000D01*
X305832000Y-79174000D02*
X309632000Y-79174000D01*
X37332000Y-23574000D02*
X48332000Y-23574000D01*
X26632000Y-24074000D02*
X36832000Y-24074000D01*
X26632000Y-24074000D02*
G75*
G03*
X24632000Y-26074000I0J-2000000D01*
G01*
X24632000Y-116674000D02*
G75*
G03*
X26632000Y-118674000I2000000J0D01*
G01*
X307632000Y-118674000D02*
G75*
G03*
X309632000Y-116674000I0J2000000D01*
G01*
X309632000Y-26074000D02*
G75*
G03*
X307632000Y-24074000I-2000000J0D01*
G01*
X29832000Y-80574000D02*
G75*
G03*
X28432000Y-79174000I-1400000J0D01*
G01*
X304432000Y-80574000D02*
G75*
G02*
X305832000Y-79174000I1400000J0D01*
G01*
X305832000Y-81974000D02*
G75*
G02*
X304432000Y-80574000I0J1400000D01*
G01*
X28432000Y-81974000D02*
G75*
G03*
X29832000Y-80574000I0J1400000D01*
G01*
X36832000Y-24074000D02*
G75*
G03*
X37332000Y-23574000I0J500000D01*
G01*
X48332000Y-23574000D02*
G75*
G03*
X48832000Y-24074000I500000J0D01*
G01*
%TD*%
M02*
