M48
; DRILL file {KiCad (5.1.10)-1} date 07/03/21 15:16:00
; FORMAT={-:-/ absolute / inch / decimal}
; #@! TF.CreationDate,2021-07-03T15:16:00+09:00
; #@! TF.GenerationSoftware,Kicad,Pcbnew,(5.1.10)-1
; #@! TF.FileFunction,NonPlated,1,2,NPTH
FMAT,2
INCH
T1C0.0256
T2C0.0689
T3C0.1181
T4C0.1200
T5C0.1570
%
G90
G05
T1
X1.5562Y-1.1211
X1.7838Y-1.1211
T2
X1.1125Y-1.3125
X1.2063Y-4.3125
X1.3Y-2.0625
X1.3938Y-2.8125
X1.5125Y-1.3125
X1.5813Y-3.5625
X1.6062Y-4.3125
X1.7Y-2.0625
X1.7937Y-2.8125
X1.8625Y-1.3125
X1.9812Y-3.5625
X2.1437Y-4.3125
X2.2375Y-2.0625
X2.2625Y-1.3125
X2.425Y-2.8125
X2.5437Y-4.3125
X2.6125Y-1.3125
X2.6375Y-2.0625
X2.8Y-3.5625
X2.825Y-2.8125
X2.9875Y-2.0625
X3.0125Y-1.3125
X3.0812Y-4.3125
X3.175Y-2.8125
X3.2Y-3.5625
X3.3625Y-1.3125
X3.3875Y-2.0625
X3.4812Y-4.3125
X3.55Y-3.5625
X3.575Y-2.8125
X3.7375Y-2.0625
X3.7625Y-1.3125
X3.925Y-2.8125
X3.95Y-3.5625
X4.1125Y-1.3125
X4.1375Y-2.0625
X4.3Y-3.5625
X4.325Y-2.8125
X4.4875Y-2.0625
X4.5125Y-1.3125
X4.675Y-2.8125
X4.7Y-3.5625
X4.8625Y-1.3125
X4.8875Y-2.0625
X5.05Y-3.5625
X5.075Y-2.8125
X5.2375Y-2.0625
X5.2625Y-1.3125
X5.425Y-2.8125
X5.45Y-3.5625
X5.6125Y-1.3125
X5.6375Y-2.0625
X5.8Y-3.5625
X5.825Y-2.8125
X5.8937Y-4.3125
X5.9875Y-2.0625
X6.0125Y-1.3125
X6.175Y-2.8125
X6.2Y-3.5625
X6.2938Y-4.3125
X6.3625Y-1.3125
X6.3875Y-2.0625
X6.55Y-3.5625
X6.575Y-2.8125
X6.7375Y-2.0625
X6.7625Y-1.3125
X6.925Y-2.8125
X6.95Y-3.5625
X7.1125Y-1.3125
X7.1375Y-2.0625
X7.3Y-3.5625
X7.325Y-2.8125
X7.4875Y-2.0625
X7.5125Y-1.3125
X7.675Y-2.8125
X7.7Y-3.5625
X7.8625Y-1.3125
X7.8875Y-2.0625
X8.05Y-3.5625
X8.075Y-2.8125
X8.2375Y-2.0625
X8.2625Y-1.3125
X8.425Y-2.8125
X8.45Y-3.5625
X8.6125Y-1.3125
X8.6375Y-2.0625
X8.7062Y-4.3125
X8.8Y-3.5625
X8.825Y-2.8125
X8.9875Y-2.0625
X9.0125Y-1.3125
X9.1062Y-4.3125
X9.175Y-2.8125
X9.2Y-3.5625
X9.3625Y-1.3125
X9.3875Y-2.0625
X9.55Y-3.5625
X9.575Y-2.8125
X9.6437Y-4.3125
X9.7375Y-2.0625
X9.7625Y-1.3125
X9.925Y-2.8125
X9.95Y-3.5625
X10.0437Y-4.3125
X10.1125Y-1.3125
X10.1375Y-2.0625
X10.325Y-2.8125
X10.4875Y-2.0625
X10.5125Y-1.3125
X10.5812Y-4.3125
X10.8875Y-2.0625
X10.9562Y-3.5625
X10.9812Y-4.3125
X11.1437Y-2.8125
X11.2375Y-1.3125
X11.3562Y-3.5625
X11.425Y-2.0625
X11.5187Y-4.3125
X11.5437Y-2.8125
X11.6375Y-1.3125
X11.825Y-2.0625
X11.9187Y-4.3125
T3
X1.2125Y-1.5125
X1.2562Y-4.2125
X1.35Y-1.9625
X1.4437Y-2.7125
X1.4625Y-1.4125
X1.5062Y-4.1125
X1.6Y-1.8625
X1.6312Y-3.4625
X1.6937Y-2.6125
X1.8812Y-3.3625
X1.9625Y-1.5125
X2.1938Y-4.2125
X2.2125Y-1.4125
X2.3375Y-2.2625
X2.4438Y-4.1125
X2.475Y-2.7125
X2.5875Y-2.1625
X2.6625Y-1.2125
X2.725Y-2.6125
X2.85Y-3.4625
X2.9125Y-1.1125
X3.0375Y-1.9625
X3.1Y-3.3625
X3.1313Y-4.2125
X3.225Y-2.7125
X3.2875Y-1.8625
X3.3813Y-4.1125
X3.4125Y-1.2125
X3.475Y-2.6125
X3.6Y-3.4625
X3.6625Y-1.1125
X3.7875Y-1.9625
X3.85Y-3.3625
X3.975Y-2.7125
X4.0375Y-1.8625
X4.1625Y-1.2125
X4.225Y-2.6125
X4.35Y-3.4625
X4.4125Y-1.1125
X4.5375Y-1.9625
X4.6Y-3.3625
X4.725Y-2.7125
X4.7875Y-1.8625
X4.9125Y-1.2125
X4.975Y-2.6125
X5.1Y-3.4625
X5.1625Y-1.1125
X5.2875Y-1.9625
X5.35Y-3.3625
X5.475Y-2.7125
X5.5375Y-1.8625
X5.6625Y-1.2125
X5.725Y-2.6125
X5.85Y-3.4625
X5.9125Y-1.1125
X5.9437Y-4.2125
X6.0375Y-1.9625
X6.1Y-3.3625
X6.1937Y-4.1125
X6.225Y-2.7125
X6.2875Y-1.8625
X6.4125Y-1.2125
X6.475Y-2.6125
X6.6Y-3.4625
X6.6625Y-1.1125
X6.7875Y-1.9625
X6.85Y-3.3625
X6.975Y-2.7125
X7.0375Y-1.8625
X7.1625Y-1.2125
X7.225Y-2.6125
X7.35Y-3.4625
X7.4125Y-1.1125
X7.5375Y-1.9625
X7.6Y-3.3625
X7.725Y-2.7125
X7.7875Y-1.8625
X7.9125Y-1.2125
X7.975Y-2.6125
X8.1Y-3.4625
X8.1625Y-1.1125
X8.2875Y-1.9625
X8.35Y-3.3625
X8.475Y-2.7125
X8.5375Y-1.8625
X8.6625Y-1.2125
X8.725Y-2.6125
X8.8063Y-4.5125
X8.85Y-3.4625
X8.9125Y-1.1125
X9.0375Y-1.9625
X9.0563Y-4.4125
X9.1Y-3.3625
X9.225Y-2.7125
X9.2875Y-1.8625
X9.4125Y-1.2125
X9.475Y-2.6125
X9.6Y-3.4625
X9.6625Y-1.1125
X9.6937Y-4.2125
X9.7875Y-1.9625
X9.85Y-3.3625
X9.9437Y-4.1125
X9.975Y-2.7125
X10.0375Y-1.8625
X10.1625Y-1.2125
X10.225Y-2.6125
X10.4125Y-1.1125
X10.5375Y-1.9625
X10.6312Y-4.2125
X10.7875Y-1.8625
X10.8812Y-4.1125
X11.0062Y-3.4625
X11.1937Y-2.7125
X11.2562Y-3.3625
X11.2875Y-1.2125
X11.4437Y-2.6125
X11.525Y-2.2625
X11.5375Y-1.1125
X11.5687Y-4.2125
X11.775Y-2.1625
X11.8187Y-4.1125
T4
X1.3113Y-3.2875
X2.2512Y-3.2875
X4.1253Y-4.0375
X8.0623Y-4.0375
X10.6862Y-3.2875
X10.8737Y-2.5375
X10.9675Y-1.0375
X11.6262Y-3.2875
X11.8137Y-2.5375
X11.9075Y-1.0375
T5
X1.3113Y-3.8875
X1.3125Y-1.3125
X1.4062Y-4.3125
X1.5Y-2.0625
X1.5938Y-2.8125
X1.7812Y-3.5625
X2.0625Y-1.3125
X2.2512Y-3.8875
X2.3438Y-4.3125
X2.4375Y-2.0625
X2.625Y-2.8125
X2.8125Y-1.3125
X3.0Y-3.5625
X3.1875Y-2.0625
X3.2812Y-4.3125
X3.375Y-2.8125
X3.5625Y-1.3125
X3.75Y-3.5625
X3.9375Y-2.0625
X4.125Y-2.8125
X4.1253Y-4.6375
X4.3125Y-1.3125
X4.5Y-3.5625
X4.6875Y-2.0625
X4.875Y-2.8125
X5.0625Y-1.3125
X5.25Y-3.5625
X5.4375Y-2.0625
X5.625Y-2.8125
X5.8125Y-1.3125
X6.0Y-3.5625
X6.0938Y-4.3125
X6.1875Y-2.0625
X6.375Y-2.8125
X6.5625Y-1.3125
X6.75Y-3.5625
X6.9375Y-2.0625
X7.125Y-2.8125
X7.3125Y-1.3125
X7.5Y-3.5625
X7.6875Y-2.0625
X7.875Y-2.8125
X8.0623Y-4.6375
X8.0625Y-1.3125
X8.25Y-3.5625
X8.4375Y-2.0625
X8.625Y-2.8125
X8.8125Y-1.3125
X8.9062Y-4.3125
X9.0Y-3.5625
X9.1875Y-2.0625
X9.375Y-2.8125
X9.5625Y-1.3125
X9.75Y-3.5625
X9.8438Y-4.3125
X9.9375Y-2.0625
X10.125Y-2.8125
X10.3125Y-1.3125
X10.6862Y-3.8875
X10.6875Y-2.0625
X10.7812Y-4.3125
X10.8737Y-3.1375
X10.9675Y-1.6375
X11.1562Y-3.5625
X11.3438Y-2.8125
X11.4375Y-1.3125
X11.625Y-2.0625
X11.6262Y-3.8875
X11.7188Y-4.3125
X11.8137Y-3.1375
X11.9075Y-1.6375
T0
M30
