%TF.GenerationSoftware,KiCad,Pcbnew,(5.1.10-1-10_14)*%
%TF.CreationDate,2021-08-25T09:42:14+09:00*%
%TF.ProjectId,pcb,7063622e-6b69-4636-9164-5f7063625858,rev?*%
%TF.SameCoordinates,Original*%
%TF.FileFunction,Paste,Bot*%
%TF.FilePolarity,Positive*%
%FSLAX46Y46*%
G04 Gerber Fmt 4.6, Leading zero omitted, Abs format (unit mm)*
G04 Created by KiCad (PCBNEW (5.1.10-1-10_14)) date 2021-08-25 09:42:14*
%MOMM*%
%LPD*%
G01*
G04 APERTURE LIST*
%ADD10R,2.550000X2.500000*%
%ADD11R,1.200000X1.400000*%
%ADD12R,1.500000X0.550000*%
%ADD13R,0.550000X1.500000*%
%ADD14R,0.700000X1.000000*%
%ADD15R,0.700000X0.600000*%
%ADD16R,1.800000X1.100000*%
%ADD17R,1.200000X0.900000*%
%ADD18R,0.900000X1.200000*%
G04 APERTURE END LIST*
D10*
%TO.C,MX31*%
X160623250Y-104457500D03*
X147696250Y-106997500D03*
%TD*%
D11*
%TO.C,Y1*%
X130104250Y-107399000D03*
X130104250Y-105199000D03*
X128404250Y-105199000D03*
X128404250Y-107399000D03*
%TD*%
%TO.C,USB1*%
G36*
G01*
X45801000Y-30645000D02*
X45801000Y-29195000D01*
G75*
G02*
X45851000Y-29145000I50000J0D01*
G01*
X46451000Y-29145000D01*
G75*
G02*
X46501000Y-29195000I0J-50000D01*
G01*
X46501000Y-30645000D01*
G75*
G02*
X46451000Y-30695000I-50000J0D01*
G01*
X45851000Y-30695000D01*
G75*
G02*
X45801000Y-30645000I0J50000D01*
G01*
G37*
G36*
G01*
X39351000Y-30645000D02*
X39351000Y-29195000D01*
G75*
G02*
X39401000Y-29145000I50000J0D01*
G01*
X40001000Y-29145000D01*
G75*
G02*
X40051000Y-29195000I0J-50000D01*
G01*
X40051000Y-30645000D01*
G75*
G02*
X40001000Y-30695000I-50000J0D01*
G01*
X39401000Y-30695000D01*
G75*
G02*
X39351000Y-30645000I0J50000D01*
G01*
G37*
G36*
G01*
X45026000Y-30645000D02*
X45026000Y-29195000D01*
G75*
G02*
X45076000Y-29145000I50000J0D01*
G01*
X45676000Y-29145000D01*
G75*
G02*
X45726000Y-29195000I0J-50000D01*
G01*
X45726000Y-30645000D01*
G75*
G02*
X45676000Y-30695000I-50000J0D01*
G01*
X45076000Y-30695000D01*
G75*
G02*
X45026000Y-30645000I0J50000D01*
G01*
G37*
G36*
G01*
X40126000Y-30645000D02*
X40126000Y-29195000D01*
G75*
G02*
X40176000Y-29145000I50000J0D01*
G01*
X40776000Y-29145000D01*
G75*
G02*
X40826000Y-29195000I0J-50000D01*
G01*
X40826000Y-30645000D01*
G75*
G02*
X40776000Y-30695000I-50000J0D01*
G01*
X40176000Y-30695000D01*
G75*
G02*
X40126000Y-30645000I0J50000D01*
G01*
G37*
G36*
G01*
X40976000Y-30645000D02*
X40976000Y-29195000D01*
G75*
G02*
X41026000Y-29145000I50000J0D01*
G01*
X41326000Y-29145000D01*
G75*
G02*
X41376000Y-29195000I0J-50000D01*
G01*
X41376000Y-30645000D01*
G75*
G02*
X41326000Y-30695000I-50000J0D01*
G01*
X41026000Y-30695000D01*
G75*
G02*
X40976000Y-30645000I0J50000D01*
G01*
G37*
G36*
G01*
X44476000Y-30645000D02*
X44476000Y-29195000D01*
G75*
G02*
X44526000Y-29145000I50000J0D01*
G01*
X44826000Y-29145000D01*
G75*
G02*
X44876000Y-29195000I0J-50000D01*
G01*
X44876000Y-30645000D01*
G75*
G02*
X44826000Y-30695000I-50000J0D01*
G01*
X44526000Y-30695000D01*
G75*
G02*
X44476000Y-30645000I0J50000D01*
G01*
G37*
G36*
G01*
X41476000Y-30645000D02*
X41476000Y-29195000D01*
G75*
G02*
X41526000Y-29145000I50000J0D01*
G01*
X41826000Y-29145000D01*
G75*
G02*
X41876000Y-29195000I0J-50000D01*
G01*
X41876000Y-30645000D01*
G75*
G02*
X41826000Y-30695000I-50000J0D01*
G01*
X41526000Y-30695000D01*
G75*
G02*
X41476000Y-30645000I0J50000D01*
G01*
G37*
G36*
G01*
X43976000Y-30645000D02*
X43976000Y-29195000D01*
G75*
G02*
X44026000Y-29145000I50000J0D01*
G01*
X44326000Y-29145000D01*
G75*
G02*
X44376000Y-29195000I0J-50000D01*
G01*
X44376000Y-30645000D01*
G75*
G02*
X44326000Y-30695000I-50000J0D01*
G01*
X44026000Y-30695000D01*
G75*
G02*
X43976000Y-30645000I0J50000D01*
G01*
G37*
G36*
G01*
X41976000Y-30645000D02*
X41976000Y-29195000D01*
G75*
G02*
X42026000Y-29145000I50000J0D01*
G01*
X42326000Y-29145000D01*
G75*
G02*
X42376000Y-29195000I0J-50000D01*
G01*
X42376000Y-30645000D01*
G75*
G02*
X42326000Y-30695000I-50000J0D01*
G01*
X42026000Y-30695000D01*
G75*
G02*
X41976000Y-30645000I0J50000D01*
G01*
G37*
G36*
G01*
X43476000Y-30645000D02*
X43476000Y-29195000D01*
G75*
G02*
X43526000Y-29145000I50000J0D01*
G01*
X43826000Y-29145000D01*
G75*
G02*
X43876000Y-29195000I0J-50000D01*
G01*
X43876000Y-30645000D01*
G75*
G02*
X43826000Y-30695000I-50000J0D01*
G01*
X43526000Y-30695000D01*
G75*
G02*
X43476000Y-30645000I0J50000D01*
G01*
G37*
G36*
G01*
X42976000Y-30645000D02*
X42976000Y-29195000D01*
G75*
G02*
X43026000Y-29145000I50000J0D01*
G01*
X43326000Y-29145000D01*
G75*
G02*
X43376000Y-29195000I0J-50000D01*
G01*
X43376000Y-30645000D01*
G75*
G02*
X43326000Y-30695000I-50000J0D01*
G01*
X43026000Y-30695000D01*
G75*
G02*
X42976000Y-30645000I0J50000D01*
G01*
G37*
G36*
G01*
X42476000Y-30645000D02*
X42476000Y-29195000D01*
G75*
G02*
X42526000Y-29145000I50000J0D01*
G01*
X42826000Y-29145000D01*
G75*
G02*
X42876000Y-29195000I0J-50000D01*
G01*
X42876000Y-30645000D01*
G75*
G02*
X42826000Y-30695000I-50000J0D01*
G01*
X42526000Y-30695000D01*
G75*
G02*
X42476000Y-30645000I0J50000D01*
G01*
G37*
%TD*%
D12*
%TO.C,U2*%
X111775000Y-103156250D03*
X111775000Y-103956250D03*
X111775000Y-104756250D03*
X111775000Y-105556250D03*
X111775000Y-106356250D03*
X111775000Y-107156250D03*
X111775000Y-107956250D03*
X111775000Y-108756250D03*
X111775000Y-109556250D03*
X111775000Y-110356250D03*
X111775000Y-111156250D03*
D13*
X113475000Y-112856250D03*
X114275000Y-112856250D03*
X115075000Y-112856250D03*
X115875000Y-112856250D03*
X116675000Y-112856250D03*
X117475000Y-112856250D03*
X118275000Y-112856250D03*
X119075000Y-112856250D03*
X119875000Y-112856250D03*
X120675000Y-112856250D03*
X121475000Y-112856250D03*
D12*
X123175000Y-111156250D03*
X123175000Y-110356250D03*
X123175000Y-109556250D03*
X123175000Y-108756250D03*
X123175000Y-107956250D03*
X123175000Y-107156250D03*
X123175000Y-106356250D03*
X123175000Y-105556250D03*
X123175000Y-104756250D03*
X123175000Y-103956250D03*
X123175000Y-103156250D03*
D13*
X121475000Y-101456250D03*
X120675000Y-101456250D03*
X119875000Y-101456250D03*
X119075000Y-101456250D03*
X118275000Y-101456250D03*
X117475000Y-101456250D03*
X116675000Y-101456250D03*
X115875000Y-101456250D03*
X115075000Y-101456250D03*
X114275000Y-101456250D03*
X113475000Y-101456250D03*
%TD*%
D14*
%TO.C,U1*%
X44672000Y-32013500D03*
D15*
X42672000Y-31813500D03*
X44672000Y-33713500D03*
X42672000Y-33713500D03*
%TD*%
D16*
%TO.C,SW1*%
X125074750Y-94733500D03*
X131274750Y-98433500D03*
X125074750Y-98433500D03*
X131274750Y-94733500D03*
%TD*%
%TO.C,R6*%
G36*
G01*
X112572750Y-115321502D02*
X112572750Y-114421498D01*
G75*
G02*
X112822748Y-114171500I249998J0D01*
G01*
X113347752Y-114171500D01*
G75*
G02*
X113597750Y-114421498I0J-249998D01*
G01*
X113597750Y-115321502D01*
G75*
G02*
X113347752Y-115571500I-249998J0D01*
G01*
X112822748Y-115571500D01*
G75*
G02*
X112572750Y-115321502I0J249998D01*
G01*
G37*
G36*
G01*
X110747750Y-115321502D02*
X110747750Y-114421498D01*
G75*
G02*
X110997748Y-114171500I249998J0D01*
G01*
X111522752Y-114171500D01*
G75*
G02*
X111772750Y-114421498I0J-249998D01*
G01*
X111772750Y-115321502D01*
G75*
G02*
X111522752Y-115571500I-249998J0D01*
G01*
X110997748Y-115571500D01*
G75*
G02*
X110747750Y-115321502I0J249998D01*
G01*
G37*
%TD*%
%TO.C,R5*%
G36*
G01*
X126719752Y-103168500D02*
X125819748Y-103168500D01*
G75*
G02*
X125569750Y-102918502I0J249998D01*
G01*
X125569750Y-102393498D01*
G75*
G02*
X125819748Y-102143500I249998J0D01*
G01*
X126719752Y-102143500D01*
G75*
G02*
X126969750Y-102393498I0J-249998D01*
G01*
X126969750Y-102918502D01*
G75*
G02*
X126719752Y-103168500I-249998J0D01*
G01*
G37*
G36*
G01*
X126719752Y-104993500D02*
X125819748Y-104993500D01*
G75*
G02*
X125569750Y-104743502I0J249998D01*
G01*
X125569750Y-104218498D01*
G75*
G02*
X125819748Y-103968500I249998J0D01*
G01*
X126719752Y-103968500D01*
G75*
G02*
X126969750Y-104218498I0J-249998D01*
G01*
X126969750Y-104743502D01*
G75*
G02*
X126719752Y-104993500I-249998J0D01*
G01*
G37*
%TD*%
%TO.C,R4*%
G36*
G01*
X44265002Y-38843000D02*
X43364998Y-38843000D01*
G75*
G02*
X43115000Y-38593002I0J249998D01*
G01*
X43115000Y-38067998D01*
G75*
G02*
X43364998Y-37818000I249998J0D01*
G01*
X44265002Y-37818000D01*
G75*
G02*
X44515000Y-38067998I0J-249998D01*
G01*
X44515000Y-38593002D01*
G75*
G02*
X44265002Y-38843000I-249998J0D01*
G01*
G37*
G36*
G01*
X44265002Y-40668000D02*
X43364998Y-40668000D01*
G75*
G02*
X43115000Y-40418002I0J249998D01*
G01*
X43115000Y-39892998D01*
G75*
G02*
X43364998Y-39643000I249998J0D01*
G01*
X44265002Y-39643000D01*
G75*
G02*
X44515000Y-39892998I0J-249998D01*
G01*
X44515000Y-40418002D01*
G75*
G02*
X44265002Y-40668000I-249998J0D01*
G01*
G37*
%TD*%
%TO.C,R3*%
G36*
G01*
X42233002Y-38819500D02*
X41332998Y-38819500D01*
G75*
G02*
X41083000Y-38569502I0J249998D01*
G01*
X41083000Y-38044498D01*
G75*
G02*
X41332998Y-37794500I249998J0D01*
G01*
X42233002Y-37794500D01*
G75*
G02*
X42483000Y-38044498I0J-249998D01*
G01*
X42483000Y-38569502D01*
G75*
G02*
X42233002Y-38819500I-249998J0D01*
G01*
G37*
G36*
G01*
X42233002Y-40644500D02*
X41332998Y-40644500D01*
G75*
G02*
X41083000Y-40394502I0J249998D01*
G01*
X41083000Y-39869498D01*
G75*
G02*
X41332998Y-39619500I249998J0D01*
G01*
X42233002Y-39619500D01*
G75*
G02*
X42483000Y-39869498I0J-249998D01*
G01*
X42483000Y-40394502D01*
G75*
G02*
X42233002Y-40644500I-249998J0D01*
G01*
G37*
%TD*%
%TO.C,R2*%
G36*
G01*
X48241000Y-30791998D02*
X48241000Y-31692002D01*
G75*
G02*
X47991002Y-31942000I-249998J0D01*
G01*
X47465998Y-31942000D01*
G75*
G02*
X47216000Y-31692002I0J249998D01*
G01*
X47216000Y-30791998D01*
G75*
G02*
X47465998Y-30542000I249998J0D01*
G01*
X47991002Y-30542000D01*
G75*
G02*
X48241000Y-30791998I0J-249998D01*
G01*
G37*
G36*
G01*
X50066000Y-30791998D02*
X50066000Y-31692002D01*
G75*
G02*
X49816002Y-31942000I-249998J0D01*
G01*
X49290998Y-31942000D01*
G75*
G02*
X49041000Y-31692002I0J249998D01*
G01*
X49041000Y-30791998D01*
G75*
G02*
X49290998Y-30542000I249998J0D01*
G01*
X49816002Y-30542000D01*
G75*
G02*
X50066000Y-30791998I0J-249998D01*
G01*
G37*
%TD*%
%TO.C,R1*%
G36*
G01*
X36379998Y-31388000D02*
X37280002Y-31388000D01*
G75*
G02*
X37530000Y-31637998I0J-249998D01*
G01*
X37530000Y-32163002D01*
G75*
G02*
X37280002Y-32413000I-249998J0D01*
G01*
X36379998Y-32413000D01*
G75*
G02*
X36130000Y-32163002I0J249998D01*
G01*
X36130000Y-31637998D01*
G75*
G02*
X36379998Y-31388000I249998J0D01*
G01*
G37*
G36*
G01*
X36379998Y-29563000D02*
X37280002Y-29563000D01*
G75*
G02*
X37530000Y-29812998I0J-249998D01*
G01*
X37530000Y-30338002D01*
G75*
G02*
X37280002Y-30588000I-249998J0D01*
G01*
X36379998Y-30588000D01*
G75*
G02*
X36130000Y-30338002I0J249998D01*
G01*
X36130000Y-29812998D01*
G75*
G02*
X36379998Y-29563000I249998J0D01*
G01*
G37*
%TD*%
D10*
%TO.C,MX61*%
X303498250Y-104457500D03*
X290571250Y-106997500D03*
%TD*%
%TO.C,MX60*%
X289210750Y-85407500D03*
X276283750Y-87947500D03*
%TD*%
%TO.C,MX59*%
X293973250Y-66357500D03*
X281046250Y-68897500D03*
%TD*%
%TO.C,MX58*%
X289433000Y-57467500D03*
X302360000Y-54927500D03*
%TD*%
%TO.C,MX57*%
X296354500Y-28257500D03*
X283427500Y-30797500D03*
%TD*%
%TO.C,MX56*%
X279685750Y-104457500D03*
X266758750Y-106997500D03*
%TD*%
%TO.C,MX55*%
X277304500Y-47307500D03*
X264377500Y-49847500D03*
%TD*%
%TO.C,MX54*%
X267779500Y-28257500D03*
X254852500Y-30797500D03*
%TD*%
%TO.C,MX53*%
X255873250Y-104457500D03*
X242946250Y-106997500D03*
%TD*%
%TO.C,MX52*%
X253492000Y-85407500D03*
X240565000Y-87947500D03*
%TD*%
%TO.C,MX51*%
X263017000Y-66357500D03*
X250090000Y-68897500D03*
%TD*%
%TO.C,MX50*%
X258254500Y-47307500D03*
X245327500Y-49847500D03*
%TD*%
%TO.C,MX49*%
X248729500Y-28257500D03*
X235802500Y-30797500D03*
%TD*%
%TO.C,MX48*%
X220376750Y-114617500D03*
X233303750Y-112077500D03*
%TD*%
%TO.C,MX47*%
X234442000Y-85407500D03*
X221515000Y-87947500D03*
%TD*%
%TO.C,MX46*%
X243967000Y-66357500D03*
X231040000Y-68897500D03*
%TD*%
%TO.C,MX45*%
X239204500Y-47307500D03*
X226277500Y-49847500D03*
%TD*%
%TO.C,MX44*%
X229679500Y-28257500D03*
X216752500Y-30797500D03*
%TD*%
%TO.C,MX43*%
X215392000Y-85407500D03*
X202465000Y-87947500D03*
%TD*%
%TO.C,MX42*%
X224917000Y-66357500D03*
X211990000Y-68897500D03*
%TD*%
%TO.C,MX41*%
X220154500Y-47307500D03*
X207227500Y-49847500D03*
%TD*%
%TO.C,MX40*%
X210629500Y-28257500D03*
X197702500Y-30797500D03*
%TD*%
%TO.C,MX39*%
X196342000Y-85407500D03*
X183415000Y-87947500D03*
%TD*%
%TO.C,MX38*%
X205867000Y-66357500D03*
X192940000Y-68897500D03*
%TD*%
%TO.C,MX37*%
X201104500Y-47307500D03*
X188177500Y-49847500D03*
%TD*%
%TO.C,MX36*%
X191579500Y-28257500D03*
X178652500Y-30797500D03*
%TD*%
%TO.C,MX35*%
X177292000Y-85407500D03*
X164365000Y-87947500D03*
%TD*%
%TO.C,MX34*%
X186817000Y-66357500D03*
X173890000Y-68897500D03*
%TD*%
%TO.C,MX33*%
X182054500Y-47307500D03*
X169127500Y-49847500D03*
%TD*%
%TO.C,MX32*%
X172529500Y-28257500D03*
X159602500Y-30797500D03*
%TD*%
%TO.C,MX30*%
X158242000Y-85407500D03*
X145315000Y-87947500D03*
%TD*%
%TO.C,MX29*%
X167767000Y-66357500D03*
X154840000Y-68897500D03*
%TD*%
%TO.C,MX28*%
X163004500Y-47307500D03*
X150077500Y-49847500D03*
%TD*%
%TO.C,MX27*%
X153479500Y-28257500D03*
X140552500Y-30797500D03*
%TD*%
%TO.C,MX26*%
X139192000Y-85407500D03*
X126265000Y-87947500D03*
%TD*%
%TO.C,MX25*%
X148717000Y-66357500D03*
X135790000Y-68897500D03*
%TD*%
%TO.C,MX24*%
X143954500Y-47307500D03*
X131027500Y-49847500D03*
%TD*%
%TO.C,MX23*%
X134429500Y-28257500D03*
X121502500Y-30797500D03*
%TD*%
%TO.C,MX22*%
X120142000Y-85407500D03*
X107215000Y-87947500D03*
%TD*%
%TO.C,MX21*%
X129667000Y-66357500D03*
X116740000Y-68897500D03*
%TD*%
%TO.C,MX20*%
X124904500Y-47307500D03*
X111977500Y-49847500D03*
%TD*%
%TO.C,MX19*%
X115379500Y-28257500D03*
X102452500Y-30797500D03*
%TD*%
%TO.C,MX18*%
X101092000Y-85407500D03*
X88165000Y-87947500D03*
%TD*%
%TO.C,MX17*%
X110617000Y-66357500D03*
X97690000Y-68897500D03*
%TD*%
%TO.C,MX16*%
X105854500Y-47307500D03*
X92927500Y-49847500D03*
%TD*%
%TO.C,MX15*%
X96329500Y-28257500D03*
X83402500Y-30797500D03*
%TD*%
%TO.C,MX14*%
X89185750Y-104457500D03*
X76258750Y-106997500D03*
%TD*%
%TO.C,MX13*%
X82042000Y-85407500D03*
X69115000Y-87947500D03*
%TD*%
%TO.C,MX12*%
X91567000Y-66357500D03*
X78640000Y-68897500D03*
%TD*%
%TO.C,MX11*%
X86804500Y-47307500D03*
X73877500Y-49847500D03*
%TD*%
%TO.C,MX10*%
X77279500Y-28257500D03*
X64352500Y-30797500D03*
%TD*%
%TO.C,MX9*%
X65373250Y-104457500D03*
X52446250Y-106997500D03*
%TD*%
%TO.C,MX8*%
X72517000Y-66357500D03*
X59590000Y-68897500D03*
%TD*%
%TO.C,MX7*%
X56070500Y-57467500D03*
X68997500Y-54927500D03*
%TD*%
%TO.C,MX6*%
X46545500Y-38417500D03*
X59472500Y-35877500D03*
%TD*%
%TO.C,MX5*%
X41560750Y-104457500D03*
X28633750Y-106997500D03*
%TD*%
%TO.C,MX4*%
X51085750Y-85407500D03*
X38158750Y-87947500D03*
%TD*%
%TO.C,MX3*%
X46323250Y-66357500D03*
X33396250Y-68897500D03*
%TD*%
%TO.C,MX2*%
X43942000Y-47307500D03*
X31015000Y-49847500D03*
%TD*%
%TO.C,MX1*%
X27495500Y-38417500D03*
X40422500Y-35877500D03*
%TD*%
%TO.C,F1*%
G36*
G01*
X28311000Y-44945000D02*
X27061000Y-44945000D01*
G75*
G02*
X26811000Y-44695000I0J250000D01*
G01*
X26811000Y-43945000D01*
G75*
G02*
X27061000Y-43695000I250000J0D01*
G01*
X28311000Y-43695000D01*
G75*
G02*
X28561000Y-43945000I0J-250000D01*
G01*
X28561000Y-44695000D01*
G75*
G02*
X28311000Y-44945000I-250000J0D01*
G01*
G37*
G36*
G01*
X28311000Y-47745000D02*
X27061000Y-47745000D01*
G75*
G02*
X26811000Y-47495000I0J250000D01*
G01*
X26811000Y-46745000D01*
G75*
G02*
X27061000Y-46495000I250000J0D01*
G01*
X28311000Y-46495000D01*
G75*
G02*
X28561000Y-46745000I0J-250000D01*
G01*
X28561000Y-47495000D01*
G75*
G02*
X28311000Y-47745000I-250000J0D01*
G01*
G37*
%TD*%
D17*
%TO.C,D61*%
X305593750Y-107887500D03*
X305593750Y-111187500D03*
%TD*%
%TO.C,D60*%
X291306250Y-88837500D03*
X291306250Y-92137500D03*
%TD*%
%TO.C,D59*%
X296068750Y-69787500D03*
X296068750Y-73087500D03*
%TD*%
%TO.C,D58*%
X284956250Y-57881250D03*
X284956250Y-61181250D03*
%TD*%
%TO.C,D57*%
X298450000Y-31687500D03*
X298450000Y-34987500D03*
%TD*%
%TO.C,D56*%
X281781250Y-107887500D03*
X281781250Y-111187500D03*
%TD*%
%TO.C,D55*%
X279400000Y-50737500D03*
X279400000Y-54037500D03*
%TD*%
%TO.C,D54*%
X269875000Y-31687500D03*
X269875000Y-34987500D03*
%TD*%
%TO.C,D53*%
X257968750Y-107887500D03*
X257968750Y-111187500D03*
%TD*%
%TO.C,D52*%
X255587500Y-88837500D03*
X255587500Y-92137500D03*
%TD*%
%TO.C,D51*%
X265112500Y-69787500D03*
X265112500Y-73087500D03*
%TD*%
%TO.C,D50*%
X260350000Y-50737500D03*
X260350000Y-54037500D03*
%TD*%
%TO.C,D49*%
X250825000Y-31687500D03*
X250825000Y-34987500D03*
%TD*%
D18*
%TO.C,D48*%
X218343750Y-115093750D03*
X215043750Y-115093750D03*
%TD*%
D17*
%TO.C,D47*%
X236537500Y-88837500D03*
X236537500Y-92137500D03*
%TD*%
%TO.C,D46*%
X246062500Y-69787500D03*
X246062500Y-73087500D03*
%TD*%
%TO.C,D45*%
X241300000Y-50737500D03*
X241300000Y-54037500D03*
%TD*%
%TO.C,D44*%
X231775000Y-31687500D03*
X231775000Y-34987500D03*
%TD*%
%TO.C,D43*%
X217487500Y-88837500D03*
X217487500Y-92137500D03*
%TD*%
%TO.C,D42*%
X227012500Y-69787500D03*
X227012500Y-73087500D03*
%TD*%
%TO.C,D41*%
X222250000Y-50737500D03*
X222250000Y-54037500D03*
%TD*%
%TO.C,D40*%
X212725000Y-31687500D03*
X212725000Y-34987500D03*
%TD*%
%TO.C,D39*%
X198437500Y-88837500D03*
X198437500Y-92137500D03*
%TD*%
%TO.C,D38*%
X207962500Y-69787500D03*
X207962500Y-73087500D03*
%TD*%
%TO.C,D37*%
X203200000Y-50737500D03*
X203200000Y-54037500D03*
%TD*%
%TO.C,D36*%
X193675000Y-31687500D03*
X193675000Y-34987500D03*
%TD*%
%TO.C,D35*%
X179387500Y-88837500D03*
X179387500Y-92137500D03*
%TD*%
%TO.C,D34*%
X188912500Y-69787500D03*
X188912500Y-73087500D03*
%TD*%
%TO.C,D33*%
X184150000Y-50737500D03*
X184150000Y-54037500D03*
%TD*%
%TO.C,D32*%
X174625000Y-31687500D03*
X174625000Y-34987500D03*
%TD*%
%TO.C,D31*%
X162718750Y-107887500D03*
X162718750Y-111187500D03*
%TD*%
%TO.C,D30*%
X160337500Y-88837500D03*
X160337500Y-92137500D03*
%TD*%
%TO.C,D29*%
X169862500Y-69787500D03*
X169862500Y-73087500D03*
%TD*%
%TO.C,D28*%
X165100000Y-50737500D03*
X165100000Y-54037500D03*
%TD*%
%TO.C,D27*%
X155575000Y-31687500D03*
X155575000Y-34987500D03*
%TD*%
%TO.C,D26*%
X141287500Y-88837500D03*
X141287500Y-92137500D03*
%TD*%
%TO.C,D25*%
X150812500Y-69787500D03*
X150812500Y-73087500D03*
%TD*%
%TO.C,D24*%
X146843750Y-50737500D03*
X146843750Y-54037500D03*
%TD*%
%TO.C,D23*%
X136525000Y-31687500D03*
X136525000Y-34987500D03*
%TD*%
%TO.C,D22*%
X122237500Y-88837500D03*
X122237500Y-92137500D03*
%TD*%
%TO.C,D21*%
X131762500Y-69787500D03*
X131762500Y-73087500D03*
%TD*%
%TO.C,D20*%
X127000000Y-50737500D03*
X127000000Y-54037500D03*
%TD*%
D18*
%TO.C,D19*%
X103125000Y-41275000D03*
X106425000Y-41275000D03*
%TD*%
D17*
%TO.C,D18*%
X103187500Y-88837500D03*
X103187500Y-92137500D03*
%TD*%
D18*
%TO.C,D17*%
X98362500Y-79375000D03*
X101662500Y-79375000D03*
%TD*%
D17*
%TO.C,D16*%
X107950000Y-50737500D03*
X107950000Y-54037500D03*
%TD*%
D18*
%TO.C,D15*%
X84075000Y-41275000D03*
X87375000Y-41275000D03*
%TD*%
D17*
%TO.C,D14*%
X91281250Y-107887500D03*
X91281250Y-111187500D03*
%TD*%
%TO.C,D13*%
X84137500Y-88837500D03*
X84137500Y-92137500D03*
%TD*%
D18*
%TO.C,D12*%
X79312500Y-79375000D03*
X82612500Y-79375000D03*
%TD*%
D17*
%TO.C,D11*%
X88900000Y-50737500D03*
X88900000Y-54037500D03*
%TD*%
%TO.C,D10*%
X79375000Y-31687500D03*
X79375000Y-34987500D03*
%TD*%
%TO.C,D9*%
X67468750Y-107887500D03*
X67468750Y-111187500D03*
%TD*%
%TO.C,D8*%
X74612500Y-69787500D03*
X74612500Y-73087500D03*
%TD*%
%TO.C,D7*%
X53181250Y-57881250D03*
X53181250Y-61181250D03*
%TD*%
D18*
%TO.C,D6*%
X45975000Y-41275000D03*
X49275000Y-41275000D03*
%TD*%
D17*
%TO.C,D5*%
X43656250Y-107887500D03*
X43656250Y-111187500D03*
%TD*%
%TO.C,D4*%
X53181250Y-88837500D03*
X53181250Y-92137500D03*
%TD*%
%TO.C,D3*%
X48418750Y-69787500D03*
X48418750Y-73087500D03*
%TD*%
%TO.C,D2*%
X44450000Y-55500000D03*
X44450000Y-58800000D03*
%TD*%
D18*
%TO.C,D1*%
X26987500Y-41656000D03*
X30287500Y-41656000D03*
%TD*%
%TO.C,C7*%
G36*
G01*
X117056750Y-94584500D02*
X117056750Y-95534500D01*
G75*
G02*
X116806750Y-95784500I-250000J0D01*
G01*
X116306750Y-95784500D01*
G75*
G02*
X116056750Y-95534500I0J250000D01*
G01*
X116056750Y-94584500D01*
G75*
G02*
X116306750Y-94334500I250000J0D01*
G01*
X116806750Y-94334500D01*
G75*
G02*
X117056750Y-94584500I0J-250000D01*
G01*
G37*
G36*
G01*
X118956750Y-94584500D02*
X118956750Y-95534500D01*
G75*
G02*
X118706750Y-95784500I-250000J0D01*
G01*
X118206750Y-95784500D01*
G75*
G02*
X117956750Y-95534500I0J250000D01*
G01*
X117956750Y-94584500D01*
G75*
G02*
X118206750Y-94334500I250000J0D01*
G01*
X118706750Y-94334500D01*
G75*
G02*
X118956750Y-94584500I0J-250000D01*
G01*
G37*
%TD*%
%TO.C,C6*%
G36*
G01*
X122274750Y-115600500D02*
X122274750Y-114650500D01*
G75*
G02*
X122524750Y-114400500I250000J0D01*
G01*
X123024750Y-114400500D01*
G75*
G02*
X123274750Y-114650500I0J-250000D01*
G01*
X123274750Y-115600500D01*
G75*
G02*
X123024750Y-115850500I-250000J0D01*
G01*
X122524750Y-115850500D01*
G75*
G02*
X122274750Y-115600500I0J250000D01*
G01*
G37*
G36*
G01*
X120374750Y-115600500D02*
X120374750Y-114650500D01*
G75*
G02*
X120624750Y-114400500I250000J0D01*
G01*
X121124750Y-114400500D01*
G75*
G02*
X121374750Y-114650500I0J-250000D01*
G01*
X121374750Y-115600500D01*
G75*
G02*
X121124750Y-115850500I-250000J0D01*
G01*
X120624750Y-115850500D01*
G75*
G02*
X120374750Y-115600500I0J250000D01*
G01*
G37*
%TD*%
%TO.C,C5*%
G36*
G01*
X117056750Y-96616500D02*
X117056750Y-97566500D01*
G75*
G02*
X116806750Y-97816500I-250000J0D01*
G01*
X116306750Y-97816500D01*
G75*
G02*
X116056750Y-97566500I0J250000D01*
G01*
X116056750Y-96616500D01*
G75*
G02*
X116306750Y-96366500I250000J0D01*
G01*
X116806750Y-96366500D01*
G75*
G02*
X117056750Y-96616500I0J-250000D01*
G01*
G37*
G36*
G01*
X118956750Y-96616500D02*
X118956750Y-97566500D01*
G75*
G02*
X118706750Y-97816500I-250000J0D01*
G01*
X118206750Y-97816500D01*
G75*
G02*
X117956750Y-97566500I0J250000D01*
G01*
X117956750Y-96616500D01*
G75*
G02*
X118206750Y-96366500I250000J0D01*
G01*
X118706750Y-96366500D01*
G75*
G02*
X118956750Y-96616500I0J-250000D01*
G01*
G37*
%TD*%
%TO.C,C4*%
G36*
G01*
X109157750Y-103256500D02*
X110107750Y-103256500D01*
G75*
G02*
X110357750Y-103506500I0J-250000D01*
G01*
X110357750Y-104006500D01*
G75*
G02*
X110107750Y-104256500I-250000J0D01*
G01*
X109157750Y-104256500D01*
G75*
G02*
X108907750Y-104006500I0J250000D01*
G01*
X108907750Y-103506500D01*
G75*
G02*
X109157750Y-103256500I250000J0D01*
G01*
G37*
G36*
G01*
X109157750Y-101356500D02*
X110107750Y-101356500D01*
G75*
G02*
X110357750Y-101606500I0J-250000D01*
G01*
X110357750Y-102106500D01*
G75*
G02*
X110107750Y-102356500I-250000J0D01*
G01*
X109157750Y-102356500D01*
G75*
G02*
X108907750Y-102106500I0J250000D01*
G01*
X108907750Y-101606500D01*
G75*
G02*
X109157750Y-101356500I250000J0D01*
G01*
G37*
%TD*%
%TO.C,C3*%
G36*
G01*
X110234750Y-110992500D02*
X109284750Y-110992500D01*
G75*
G02*
X109034750Y-110742500I0J250000D01*
G01*
X109034750Y-110242500D01*
G75*
G02*
X109284750Y-109992500I250000J0D01*
G01*
X110234750Y-109992500D01*
G75*
G02*
X110484750Y-110242500I0J-250000D01*
G01*
X110484750Y-110742500D01*
G75*
G02*
X110234750Y-110992500I-250000J0D01*
G01*
G37*
G36*
G01*
X110234750Y-112892500D02*
X109284750Y-112892500D01*
G75*
G02*
X109034750Y-112642500I0J250000D01*
G01*
X109034750Y-112142500D01*
G75*
G02*
X109284750Y-111892500I250000J0D01*
G01*
X110234750Y-111892500D01*
G75*
G02*
X110484750Y-112142500I0J-250000D01*
G01*
X110484750Y-112642500D01*
G75*
G02*
X110234750Y-112892500I-250000J0D01*
G01*
G37*
%TD*%
%TO.C,C2*%
G36*
G01*
X128867750Y-102712500D02*
X128867750Y-103662500D01*
G75*
G02*
X128617750Y-103912500I-250000J0D01*
G01*
X128117750Y-103912500D01*
G75*
G02*
X127867750Y-103662500I0J250000D01*
G01*
X127867750Y-102712500D01*
G75*
G02*
X128117750Y-102462500I250000J0D01*
G01*
X128617750Y-102462500D01*
G75*
G02*
X128867750Y-102712500I0J-250000D01*
G01*
G37*
G36*
G01*
X130767750Y-102712500D02*
X130767750Y-103662500D01*
G75*
G02*
X130517750Y-103912500I-250000J0D01*
G01*
X130017750Y-103912500D01*
G75*
G02*
X129767750Y-103662500I0J250000D01*
G01*
X129767750Y-102712500D01*
G75*
G02*
X130017750Y-102462500I250000J0D01*
G01*
X130517750Y-102462500D01*
G75*
G02*
X130767750Y-102712500I0J-250000D01*
G01*
G37*
%TD*%
%TO.C,C1*%
G36*
G01*
X129704250Y-109885500D02*
X129704250Y-108935500D01*
G75*
G02*
X129954250Y-108685500I250000J0D01*
G01*
X130454250Y-108685500D01*
G75*
G02*
X130704250Y-108935500I0J-250000D01*
G01*
X130704250Y-109885500D01*
G75*
G02*
X130454250Y-110135500I-250000J0D01*
G01*
X129954250Y-110135500D01*
G75*
G02*
X129704250Y-109885500I0J250000D01*
G01*
G37*
G36*
G01*
X127804250Y-109885500D02*
X127804250Y-108935500D01*
G75*
G02*
X128054250Y-108685500I250000J0D01*
G01*
X128554250Y-108685500D01*
G75*
G02*
X128804250Y-108935500I0J-250000D01*
G01*
X128804250Y-109885500D01*
G75*
G02*
X128554250Y-110135500I-250000J0D01*
G01*
X128054250Y-110135500D01*
G75*
G02*
X127804250Y-109885500I0J250000D01*
G01*
G37*
%TD*%
M02*
