M48
; DRILL file {KiCad (5.1.10-1-10_14)} date Wednesday, August 25, 2021 at 09:42:09 AM
; FORMAT={-:-/ absolute / inch / decimal}
; #@! TF.CreationDate,2021-08-25T09:42:09+09:00
; #@! TF.GenerationSoftware,Kicad,Pcbnew,(5.1.10-1-10_14)
; #@! TF.FileFunction,Plated,1,2,PTH
FMAT,2
INCH
T1C0.0157
T2C0.0197
T3C0.0236
T4C0.0984
T5C0.0984
%
G90
G05
T1
X1.22Y-1.885
X1.24Y-1.7
X1.34Y-1.55
X1.3792Y-1.3898
X1.45Y-1.6329
X1.525Y-1.73
X1.5255Y-1.7699
X1.535Y-1.5
X1.595Y-1.23
X1.63Y-1.73
X1.645Y-1.58
X1.6633Y-1.7717
X1.682Y-1.285
X1.725Y-1.5809
X1.7587Y-1.2604
X1.8219Y-1.1994
X1.88Y-3.995
X1.9085Y-3.9622
X2.065Y-4.0235
X2.065Y-4.12
X2.315Y-2.795
X2.345Y-2.64
X2.36Y-1.495
X2.435Y-2.355
X2.48Y-4.455
X2.529Y-3.831
X2.53Y-3.935
X2.5336Y-1.2125
X2.72Y-2.075
X2.7211Y-3.4625
X2.9086Y-1.9625
X2.915Y-4.215
X3.09Y-3.08
X3.0961Y-2.7125
X3.24Y-3.035
X3.2836Y-1.2125
X3.31Y-1.56
X3.47Y-3.465
X3.59Y-4.0521
X3.6586Y-1.9625
X3.8Y-1.215
X3.8461Y-2.7125
X3.905Y-1.71
X3.96Y-3.99
X4.0025Y-3.125
X4.005Y-4.12
X4.0393Y-4.4568
X4.04Y-1.215
X4.06Y-1.56
X4.075Y-4.5
X4.125Y-4.46
X4.165Y-3.875
X4.165Y-4.5
X4.19Y-4.35
X4.22Y-4.1835
X4.2211Y-3.4625
X4.26Y-4.61
X4.32Y-3.96
X4.3213Y-4.4249
X4.325Y-4.22
X4.3426Y-4.2552
X4.4086Y-1.9625
X4.415Y-3.9
X4.415Y-3.995
X4.4676Y-4.5778
X4.5285Y-4.58
X4.54Y-1.21
X4.5961Y-2.7125
X4.625Y-4.4963
X4.655Y-4.525
X4.69Y-4.5
X4.7Y-3.9
X4.725Y-4.58
X4.75Y-3.9412
X4.79Y-1.215
X4.81Y-3.945
X4.8125Y-3.6275
X4.915Y-4.28
X4.915Y-4.3785
X4.9711Y-3.4625
X4.9887Y-2.1387
X4.9996Y-4.1
X5.0Y-3.93
X5.0606Y-4.5965
X5.1377Y-4.4773
X5.1586Y-1.9625
X5.19Y-4.315
X5.265Y-4.31
X5.3461Y-2.7125
X5.5336Y-1.2125
X5.7211Y-3.4625
X5.78Y-4.09
X5.81Y-4.22
X5.9086Y-1.9625
X6.0961Y-2.7125
X6.205Y-4.48
X6.285Y-1.215
X6.305Y-4.435
X6.4577Y-4.4173
X6.47Y-3.94
X6.4711Y-3.4625
X6.52Y-4.135
X6.53Y-4.48
X6.6586Y-1.9625
X6.8461Y-2.7125
X7.03Y-1.21
X7.22Y-3.69
X7.2211Y-3.4625
X7.4086Y-1.9625
X7.475Y-4.14
X7.585Y-4.145
X7.5961Y-2.7125
X7.785Y-1.215
X7.97Y-3.695
X7.9711Y-3.4625
X8.1586Y-1.9625
X8.3461Y-2.7125
X8.53Y-1.21
X8.7211Y-3.4625
X8.9086Y-1.9625
X9.0961Y-2.7125
X9.1852Y-4.4125
X9.2836Y-1.2125
X9.4711Y-3.4625
X9.565Y-4.215
X9.6586Y-1.9625
X9.8461Y-2.7125
X10.035Y-1.215
X10.4086Y-1.9625
X10.5023Y-4.2125
X10.8Y-3.46
X10.98Y-2.71
X11.155Y-1.3
X11.155Y-2.51
X11.355Y-4.22
X11.905Y-2.085
T2
X1.039Y-3.0698
X1.039Y-3.2746
X1.1194Y-3.0698
X1.1194Y-3.2746
X1.1918Y-3.0998
X1.1918Y-3.2446
X1.2217Y-3.1722
X1.8713Y-2.0462
X1.8979Y-1.9822
X1.8979Y-2.1102
X1.9619Y-1.9557
X1.9619Y-2.1368
X2.0259Y-1.9822
X2.0259Y-2.1102
X2.0524Y-2.0462
X8.4225Y-4.2116
X8.4225Y-4.3927
X8.4698Y-4.2116
X8.4698Y-4.3927
X8.517Y-4.2116
X8.517Y-4.3927
X11.1607Y-1.9557
X11.1607Y-2.1368
X11.208Y-1.9557
X11.208Y-2.1368
X11.2552Y-1.955
X11.2552Y-2.1368
X11.9383Y-3.1722
X11.9682Y-3.0998
X11.9682Y-3.2446
X12.0406Y-3.0698
X12.0406Y-3.2746
X12.121Y-3.0698
X12.121Y-3.2746
T5
X1.9619Y-2.0462
T3
G00X1.5199Y-0.9656
M15
G01X1.5199Y-0.9892
M16
G05
G00X1.5199Y-1.1203
M15
G01X1.5199Y-1.1636
M16
G05
G00X1.8601Y-0.9656
M15
G01X1.8601Y-0.9892
M16
G05
G00X1.8601Y-1.1203
M15
G01X1.8601Y-1.1636
M16
G05
T4
G00X8.4205Y-4.3021
M15
G01X8.519Y-4.3021
M16
G05
G00X11.1587Y-2.0462
M15
G01X11.2572Y-2.0462
M16
G05
T0
M30
