%TF.GenerationSoftware,KiCad,Pcbnew,(5.1.10)-1*%
%TF.CreationDate,2021-07-03T15:19:39+09:00*%
%TF.ProjectId,pcb,7063622e-6b69-4636-9164-5f7063625858,rev?*%
%TF.SameCoordinates,Original*%
%TF.FileFunction,Copper,L2,Bot*%
%TF.FilePolarity,Positive*%
%FSLAX46Y46*%
G04 Gerber Fmt 4.6, Leading zero omitted, Abs format (unit mm)*
G04 Created by KiCad (PCBNEW (5.1.10)-1) date 2021-07-03 15:19:39*
%MOMM*%
%LPD*%
G01*
G04 APERTURE LIST*
%TA.AperFunction,EtchedComponent*%
%ADD10C,2.501900*%
%TD*%
%TA.AperFunction,ComponentPad*%
%ADD11C,1.000000*%
%TD*%
%TA.AperFunction,ComponentPad*%
%ADD12C,7.000240*%
%TD*%
%TA.AperFunction,ComponentPad*%
%ADD13C,7.001300*%
%TD*%
%TA.AperFunction,SMDPad,CuDef*%
%ADD14R,1.200000X1.400000*%
%TD*%
%TA.AperFunction,SMDPad,CuDef*%
%ADD15R,0.600000X1.450000*%
%TD*%
%TA.AperFunction,SMDPad,CuDef*%
%ADD16R,0.300000X1.450000*%
%TD*%
%TA.AperFunction,ComponentPad*%
%ADD17O,1.000000X2.100000*%
%TD*%
%TA.AperFunction,ComponentPad*%
%ADD18O,1.000000X1.600000*%
%TD*%
%TA.AperFunction,SMDPad,CuDef*%
%ADD19R,1.500000X0.550000*%
%TD*%
%TA.AperFunction,SMDPad,CuDef*%
%ADD20R,0.550000X1.500000*%
%TD*%
%TA.AperFunction,SMDPad,CuDef*%
%ADD21R,0.700000X1.000000*%
%TD*%
%TA.AperFunction,SMDPad,CuDef*%
%ADD22R,0.700000X0.600000*%
%TD*%
%TA.AperFunction,SMDPad,CuDef*%
%ADD23R,1.800000X1.100000*%
%TD*%
%TA.AperFunction,SMDPad,CuDef*%
%ADD24R,2.550000X2.500000*%
%TD*%
%TA.AperFunction,SMDPad,CuDef*%
%ADD25R,1.200000X0.900000*%
%TD*%
%TA.AperFunction,SMDPad,CuDef*%
%ADD26R,0.900000X1.200000*%
%TD*%
%TA.AperFunction,ViaPad*%
%ADD27C,0.800000*%
%TD*%
%TA.AperFunction,Conductor*%
%ADD28C,0.381000*%
%TD*%
%TA.AperFunction,Conductor*%
%ADD29C,0.250000*%
%TD*%
%TA.AperFunction,NonConductor*%
%ADD30C,0.254000*%
%TD*%
%TA.AperFunction,NonConductor*%
%ADD31C,0.100000*%
%TD*%
G04 APERTURE END LIST*
D10*
%TO.C,REF\u002A\u002A*%
X305451000Y-83224950D02*
X309301000Y-83224950D01*
X305451000Y-77923050D02*
X309251000Y-77923050D01*
X24251000Y-83224950D02*
X28051000Y-83224950D01*
X24251000Y-77923050D02*
X28051000Y-77923050D01*
X28051000Y-83224950D02*
G75*
G03*
X30701950Y-80574000I0J2650950D01*
G01*
X30701950Y-80574000D02*
G75*
G03*
X28051000Y-77923050I-2650950J0D01*
G01*
X302800050Y-80574000D02*
G75*
G02*
X305451000Y-77923050I2650950J0D01*
G01*
X305451000Y-83224950D02*
G75*
G02*
X302800050Y-80574000I0J2650950D01*
G01*
%TD*%
D11*
%TO.P,REF\u002A\u002A,1*%
%TO.N,N/C*%
X303612522Y-82412478D03*
X305451000Y-83174000D03*
X307493035Y-83174000D03*
X307493035Y-77974000D03*
X305451000Y-77974000D03*
X303612522Y-78735522D03*
X302851000Y-80574000D03*
X26008965Y-83174000D03*
X26008965Y-77974000D03*
X29889478Y-82412478D03*
X29889478Y-78735522D03*
X28051000Y-83174000D03*
X28051000Y-77974000D03*
X30651000Y-80574000D03*
X215951000Y-111574000D03*
X213551000Y-111574000D03*
X213551000Y-106974000D03*
X215951000Y-106974000D03*
X214751000Y-111574000D03*
X214751000Y-106974000D03*
X285501000Y-49657000D03*
X283101000Y-49674000D03*
X283101000Y-54274000D03*
X285501000Y-54274000D03*
X284301000Y-54274000D03*
X284301000Y-49674000D03*
X51077346Y-53600346D03*
X47824654Y-53600346D03*
X51077346Y-50347654D03*
X47824654Y-50347654D03*
X49451000Y-54274000D03*
X51751000Y-51974000D03*
X47151000Y-51974000D03*
X49451000Y-49674000D03*
D12*
X284301000Y-51974000D03*
X214751000Y-109274000D03*
D13*
X49451000Y-51974000D03*
%TD*%
D14*
%TO.P,Y1,4*%
%TO.N,GND*%
X130104250Y-107399000D03*
%TO.P,Y1,3*%
%TO.N,Net-(C2-Pad1)*%
X130104250Y-105199000D03*
%TO.P,Y1,2*%
%TO.N,GND*%
X128404250Y-105199000D03*
%TO.P,Y1,1*%
%TO.N,Net-(C1-Pad1)*%
X128404250Y-107399000D03*
%TD*%
D15*
%TO.P,USB1,12*%
%TO.N,GND*%
X45643000Y-29920000D03*
%TO.P,USB1,1*%
X39193000Y-29920000D03*
%TO.P,USB1,11*%
%TO.N,VCC*%
X44868000Y-29920000D03*
%TO.P,USB1,2*%
X39968000Y-29920000D03*
D16*
%TO.P,USB1,3*%
%TO.N,Net-(USB1-Pad3)*%
X40668000Y-29920000D03*
%TO.P,USB1,10*%
%TO.N,Net-(R2-Pad2)*%
X44168000Y-29920000D03*
%TO.P,USB1,4*%
%TO.N,Net-(R1-Pad2)*%
X41168000Y-29920000D03*
%TO.P,USB1,9*%
%TO.N,Net-(USB1-Pad9)*%
X43668000Y-29920000D03*
%TO.P,USB1,5*%
%TO.N,Net-(R3-Pad2)*%
X41668000Y-29920000D03*
%TO.P,USB1,8*%
%TO.N,Net-(R4-Pad2)*%
X43168000Y-29920000D03*
%TO.P,USB1,7*%
%TO.N,Net-(R3-Pad2)*%
X42668000Y-29920000D03*
%TO.P,USB1,6*%
%TO.N,Net-(R4-Pad2)*%
X42168000Y-29920000D03*
D17*
%TO.P,USB1,13*%
%TO.N,GND*%
X38098000Y-29005000D03*
X46738000Y-29005000D03*
D18*
X38098000Y-24825000D03*
X46738000Y-24825000D03*
%TD*%
D19*
%TO.P,U2,44*%
%TO.N,+5V*%
X111775000Y-103156250D03*
%TO.P,U2,43*%
%TO.N,GND*%
X111775000Y-103956250D03*
%TO.P,U2,42*%
%TO.N,Net-(U2-Pad42)*%
X111775000Y-104756250D03*
%TO.P,U2,41*%
%TO.N,col3*%
X111775000Y-105556250D03*
%TO.P,U2,40*%
%TO.N,col4*%
X111775000Y-106356250D03*
%TO.P,U2,39*%
%TO.N,row2*%
X111775000Y-107156250D03*
%TO.P,U2,38*%
%TO.N,col1*%
X111775000Y-107956250D03*
%TO.P,U2,37*%
%TO.N,Net-(U2-Pad37)*%
X111775000Y-108756250D03*
%TO.P,U2,36*%
%TO.N,col2*%
X111775000Y-109556250D03*
%TO.P,U2,35*%
%TO.N,GND*%
X111775000Y-110356250D03*
%TO.P,U2,34*%
%TO.N,+5V*%
X111775000Y-111156250D03*
D20*
%TO.P,U2,33*%
%TO.N,Net-(R6-Pad2)*%
X113475000Y-112856250D03*
%TO.P,U2,32*%
%TO.N,row4*%
X114275000Y-112856250D03*
%TO.P,U2,31*%
%TO.N,col0*%
X115075000Y-112856250D03*
%TO.P,U2,30*%
%TO.N,Net-(U2-Pad30)*%
X115875000Y-112856250D03*
%TO.P,U2,29*%
%TO.N,Net-(U2-Pad29)*%
X116675000Y-112856250D03*
%TO.P,U2,28*%
%TO.N,col13*%
X117475000Y-112856250D03*
%TO.P,U2,27*%
%TO.N,col12*%
X118275000Y-112856250D03*
%TO.P,U2,26*%
%TO.N,col11*%
X119075000Y-112856250D03*
%TO.P,U2,25*%
%TO.N,col10*%
X119875000Y-112856250D03*
%TO.P,U2,24*%
%TO.N,+5V*%
X120675000Y-112856250D03*
%TO.P,U2,23*%
%TO.N,GND*%
X121475000Y-112856250D03*
D19*
%TO.P,U2,22*%
%TO.N,col8*%
X123175000Y-111156250D03*
%TO.P,U2,21*%
%TO.N,col9*%
X123175000Y-110356250D03*
%TO.P,U2,20*%
%TO.N,col7*%
X123175000Y-109556250D03*
%TO.P,U2,19*%
%TO.N,col5*%
X123175000Y-108756250D03*
%TO.P,U2,18*%
%TO.N,col6*%
X123175000Y-107956250D03*
%TO.P,U2,17*%
%TO.N,Net-(C1-Pad1)*%
X123175000Y-107156250D03*
%TO.P,U2,16*%
%TO.N,Net-(C2-Pad1)*%
X123175000Y-106356250D03*
%TO.P,U2,15*%
%TO.N,GND*%
X123175000Y-105556250D03*
%TO.P,U2,14*%
%TO.N,+5V*%
X123175000Y-104756250D03*
%TO.P,U2,13*%
%TO.N,Net-(R5-Pad2)*%
X123175000Y-103956250D03*
%TO.P,U2,12*%
%TO.N,Net-(U2-Pad12)*%
X123175000Y-103156250D03*
D20*
%TO.P,U2,11*%
%TO.N,row3*%
X121475000Y-101456250D03*
%TO.P,U2,10*%
%TO.N,row1*%
X120675000Y-101456250D03*
%TO.P,U2,9*%
%TO.N,Net-(U2-Pad9)*%
X119875000Y-101456250D03*
%TO.P,U2,8*%
%TO.N,Net-(U2-Pad8)*%
X119075000Y-101456250D03*
%TO.P,U2,7*%
%TO.N,+5V*%
X118275000Y-101456250D03*
%TO.P,U2,6*%
%TO.N,Net-(C7-Pad1)*%
X117475000Y-101456250D03*
%TO.P,U2,5*%
%TO.N,GND*%
X116675000Y-101456250D03*
%TO.P,U2,4*%
%TO.N,D+*%
X115875000Y-101456250D03*
%TO.P,U2,3*%
%TO.N,D-*%
X115075000Y-101456250D03*
%TO.P,U2,2*%
%TO.N,+5V*%
X114275000Y-101456250D03*
%TO.P,U2,1*%
%TO.N,row0*%
X113475000Y-101456250D03*
%TD*%
D21*
%TO.P,U1,1*%
%TO.N,GND*%
X44164000Y-32013500D03*
D22*
%TO.P,U1,4*%
%TO.N,VCC*%
X42164000Y-31813500D03*
%TO.P,U1,2*%
%TO.N,Net-(R4-Pad2)*%
X44164000Y-33713500D03*
%TO.P,U1,3*%
%TO.N,Net-(R3-Pad2)*%
X42164000Y-33713500D03*
%TD*%
D23*
%TO.P,SW1,4*%
%TO.N,N/C*%
X125074750Y-94733500D03*
%TO.P,SW1,3*%
X131274750Y-98433500D03*
%TO.P,SW1,2*%
%TO.N,Net-(R5-Pad2)*%
X125074750Y-98433500D03*
%TO.P,SW1,1*%
%TO.N,GND*%
X131274750Y-94733500D03*
%TD*%
%TO.P,R6,2*%
%TO.N,Net-(R6-Pad2)*%
%TA.AperFunction,SMDPad,CuDef*%
G36*
G01*
X112572750Y-115321501D02*
X112572750Y-114421499D01*
G75*
G02*
X112822749Y-114171500I249999J0D01*
G01*
X113347751Y-114171500D01*
G75*
G02*
X113597750Y-114421499I0J-249999D01*
G01*
X113597750Y-115321501D01*
G75*
G02*
X113347751Y-115571500I-249999J0D01*
G01*
X112822749Y-115571500D01*
G75*
G02*
X112572750Y-115321501I0J249999D01*
G01*
G37*
%TD.AperFunction*%
%TO.P,R6,1*%
%TO.N,GND*%
%TA.AperFunction,SMDPad,CuDef*%
G36*
G01*
X110747750Y-115321501D02*
X110747750Y-114421499D01*
G75*
G02*
X110997749Y-114171500I249999J0D01*
G01*
X111522751Y-114171500D01*
G75*
G02*
X111772750Y-114421499I0J-249999D01*
G01*
X111772750Y-115321501D01*
G75*
G02*
X111522751Y-115571500I-249999J0D01*
G01*
X110997749Y-115571500D01*
G75*
G02*
X110747750Y-115321501I0J249999D01*
G01*
G37*
%TD.AperFunction*%
%TD*%
%TO.P,R5,2*%
%TO.N,Net-(R5-Pad2)*%
%TA.AperFunction,SMDPad,CuDef*%
G36*
G01*
X126719751Y-103168500D02*
X125819749Y-103168500D01*
G75*
G02*
X125569750Y-102918501I0J249999D01*
G01*
X125569750Y-102393499D01*
G75*
G02*
X125819749Y-102143500I249999J0D01*
G01*
X126719751Y-102143500D01*
G75*
G02*
X126969750Y-102393499I0J-249999D01*
G01*
X126969750Y-102918501D01*
G75*
G02*
X126719751Y-103168500I-249999J0D01*
G01*
G37*
%TD.AperFunction*%
%TO.P,R5,1*%
%TO.N,+5V*%
%TA.AperFunction,SMDPad,CuDef*%
G36*
G01*
X126719751Y-104993500D02*
X125819749Y-104993500D01*
G75*
G02*
X125569750Y-104743501I0J249999D01*
G01*
X125569750Y-104218499D01*
G75*
G02*
X125819749Y-103968500I249999J0D01*
G01*
X126719751Y-103968500D01*
G75*
G02*
X126969750Y-104218499I0J-249999D01*
G01*
X126969750Y-104743501D01*
G75*
G02*
X126719751Y-104993500I-249999J0D01*
G01*
G37*
%TD.AperFunction*%
%TD*%
%TO.P,R4,2*%
%TO.N,Net-(R4-Pad2)*%
%TA.AperFunction,SMDPad,CuDef*%
G36*
G01*
X44265001Y-38843000D02*
X43364999Y-38843000D01*
G75*
G02*
X43115000Y-38593001I0J249999D01*
G01*
X43115000Y-38067999D01*
G75*
G02*
X43364999Y-37818000I249999J0D01*
G01*
X44265001Y-37818000D01*
G75*
G02*
X44515000Y-38067999I0J-249999D01*
G01*
X44515000Y-38593001D01*
G75*
G02*
X44265001Y-38843000I-249999J0D01*
G01*
G37*
%TD.AperFunction*%
%TO.P,R4,1*%
%TO.N,D+*%
%TA.AperFunction,SMDPad,CuDef*%
G36*
G01*
X44265001Y-40668000D02*
X43364999Y-40668000D01*
G75*
G02*
X43115000Y-40418001I0J249999D01*
G01*
X43115000Y-39892999D01*
G75*
G02*
X43364999Y-39643000I249999J0D01*
G01*
X44265001Y-39643000D01*
G75*
G02*
X44515000Y-39892999I0J-249999D01*
G01*
X44515000Y-40418001D01*
G75*
G02*
X44265001Y-40668000I-249999J0D01*
G01*
G37*
%TD.AperFunction*%
%TD*%
%TO.P,R3,2*%
%TO.N,Net-(R3-Pad2)*%
%TA.AperFunction,SMDPad,CuDef*%
G36*
G01*
X42233001Y-38819500D02*
X41332999Y-38819500D01*
G75*
G02*
X41083000Y-38569501I0J249999D01*
G01*
X41083000Y-38044499D01*
G75*
G02*
X41332999Y-37794500I249999J0D01*
G01*
X42233001Y-37794500D01*
G75*
G02*
X42483000Y-38044499I0J-249999D01*
G01*
X42483000Y-38569501D01*
G75*
G02*
X42233001Y-38819500I-249999J0D01*
G01*
G37*
%TD.AperFunction*%
%TO.P,R3,1*%
%TO.N,D-*%
%TA.AperFunction,SMDPad,CuDef*%
G36*
G01*
X42233001Y-40644500D02*
X41332999Y-40644500D01*
G75*
G02*
X41083000Y-40394501I0J249999D01*
G01*
X41083000Y-39869499D01*
G75*
G02*
X41332999Y-39619500I249999J0D01*
G01*
X42233001Y-39619500D01*
G75*
G02*
X42483000Y-39869499I0J-249999D01*
G01*
X42483000Y-40394501D01*
G75*
G02*
X42233001Y-40644500I-249999J0D01*
G01*
G37*
%TD.AperFunction*%
%TD*%
%TO.P,R2,2*%
%TO.N,Net-(R2-Pad2)*%
%TA.AperFunction,SMDPad,CuDef*%
G36*
G01*
X47733000Y-30791999D02*
X47733000Y-31692001D01*
G75*
G02*
X47483001Y-31942000I-249999J0D01*
G01*
X46957999Y-31942000D01*
G75*
G02*
X46708000Y-31692001I0J249999D01*
G01*
X46708000Y-30791999D01*
G75*
G02*
X46957999Y-30542000I249999J0D01*
G01*
X47483001Y-30542000D01*
G75*
G02*
X47733000Y-30791999I0J-249999D01*
G01*
G37*
%TD.AperFunction*%
%TO.P,R2,1*%
%TO.N,GND*%
%TA.AperFunction,SMDPad,CuDef*%
G36*
G01*
X49558000Y-30791999D02*
X49558000Y-31692001D01*
G75*
G02*
X49308001Y-31942000I-249999J0D01*
G01*
X48782999Y-31942000D01*
G75*
G02*
X48533000Y-31692001I0J249999D01*
G01*
X48533000Y-30791999D01*
G75*
G02*
X48782999Y-30542000I249999J0D01*
G01*
X49308001Y-30542000D01*
G75*
G02*
X49558000Y-30791999I0J-249999D01*
G01*
G37*
%TD.AperFunction*%
%TD*%
%TO.P,R1,2*%
%TO.N,Net-(R1-Pad2)*%
%TA.AperFunction,SMDPad,CuDef*%
G36*
G01*
X35871999Y-31388000D02*
X36772001Y-31388000D01*
G75*
G02*
X37022000Y-31637999I0J-249999D01*
G01*
X37022000Y-32163001D01*
G75*
G02*
X36772001Y-32413000I-249999J0D01*
G01*
X35871999Y-32413000D01*
G75*
G02*
X35622000Y-32163001I0J249999D01*
G01*
X35622000Y-31637999D01*
G75*
G02*
X35871999Y-31388000I249999J0D01*
G01*
G37*
%TD.AperFunction*%
%TO.P,R1,1*%
%TO.N,GND*%
%TA.AperFunction,SMDPad,CuDef*%
G36*
G01*
X35871999Y-29563000D02*
X36772001Y-29563000D01*
G75*
G02*
X37022000Y-29812999I0J-249999D01*
G01*
X37022000Y-30338001D01*
G75*
G02*
X36772001Y-30588000I-249999J0D01*
G01*
X35871999Y-30588000D01*
G75*
G02*
X35622000Y-30338001I0J249999D01*
G01*
X35622000Y-29812999D01*
G75*
G02*
X35871999Y-29563000I249999J0D01*
G01*
G37*
%TD.AperFunction*%
%TD*%
D24*
%TO.P,MX61,2*%
%TO.N,Net-(D61-Pad2)*%
X303498250Y-104457500D03*
%TO.P,MX61,1*%
%TO.N,col13*%
X290571250Y-106997500D03*
%TD*%
%TO.P,MX60,2*%
%TO.N,Net-(D60-Pad2)*%
X289210750Y-85407500D03*
%TO.P,MX60,1*%
%TO.N,col13*%
X276283750Y-87947500D03*
%TD*%
%TO.P,MX59,2*%
%TO.N,Net-(D59-Pad2)*%
X293973250Y-66357500D03*
%TO.P,MX59,1*%
%TO.N,col13*%
X281046250Y-68897500D03*
%TD*%
%TO.P,MX58,2*%
%TO.N,Net-(D58-Pad2)*%
X289433000Y-57467500D03*
%TO.P,MX58,1*%
%TO.N,col13*%
X302360000Y-54927500D03*
%TD*%
%TO.P,MX57,2*%
%TO.N,Net-(D57-Pad2)*%
X296354500Y-28257500D03*
%TO.P,MX57,1*%
%TO.N,col13*%
X283427500Y-30797500D03*
%TD*%
%TO.P,MX56,2*%
%TO.N,Net-(D56-Pad2)*%
X279685750Y-104457500D03*
%TO.P,MX56,1*%
%TO.N,col12*%
X266758750Y-106997500D03*
%TD*%
%TO.P,MX55,2*%
%TO.N,Net-(D55-Pad2)*%
X277304500Y-47307500D03*
%TO.P,MX55,1*%
%TO.N,col12*%
X264377500Y-49847500D03*
%TD*%
%TO.P,MX54,2*%
%TO.N,Net-(D54-Pad2)*%
X267779500Y-28257500D03*
%TO.P,MX54,1*%
%TO.N,col12*%
X254852500Y-30797500D03*
%TD*%
%TO.P,MX53,2*%
%TO.N,Net-(D53-Pad2)*%
X255873250Y-104457500D03*
%TO.P,MX53,1*%
%TO.N,col11*%
X242946250Y-106997500D03*
%TD*%
%TO.P,MX52,2*%
%TO.N,Net-(D52-Pad2)*%
X253492000Y-85407500D03*
%TO.P,MX52,1*%
%TO.N,col11*%
X240565000Y-87947500D03*
%TD*%
%TO.P,MX51,2*%
%TO.N,Net-(D51-Pad2)*%
X263017000Y-66357500D03*
%TO.P,MX51,1*%
%TO.N,col11*%
X250090000Y-68897500D03*
%TD*%
%TO.P,MX50,2*%
%TO.N,Net-(D50-Pad2)*%
X258254500Y-47307500D03*
%TO.P,MX50,1*%
%TO.N,col11*%
X245327500Y-49847500D03*
%TD*%
%TO.P,MX49,2*%
%TO.N,Net-(D49-Pad2)*%
X248729500Y-28257500D03*
%TO.P,MX49,1*%
%TO.N,col11*%
X235802500Y-30797500D03*
%TD*%
%TO.P,MX48,2*%
%TO.N,Net-(D48-Pad2)*%
X220376750Y-114617500D03*
%TO.P,MX48,1*%
%TO.N,col10*%
X233303750Y-112077500D03*
%TD*%
%TO.P,MX47,2*%
%TO.N,Net-(D47-Pad2)*%
X234442000Y-85407500D03*
%TO.P,MX47,1*%
%TO.N,col10*%
X221515000Y-87947500D03*
%TD*%
%TO.P,MX46,2*%
%TO.N,Net-(D46-Pad2)*%
X243967000Y-66357500D03*
%TO.P,MX46,1*%
%TO.N,col10*%
X231040000Y-68897500D03*
%TD*%
%TO.P,MX45,2*%
%TO.N,Net-(D45-Pad2)*%
X239204500Y-47307500D03*
%TO.P,MX45,1*%
%TO.N,col10*%
X226277500Y-49847500D03*
%TD*%
%TO.P,MX44,2*%
%TO.N,Net-(D44-Pad2)*%
X229679500Y-28257500D03*
%TO.P,MX44,1*%
%TO.N,col10*%
X216752500Y-30797500D03*
%TD*%
%TO.P,MX43,2*%
%TO.N,Net-(D43-Pad2)*%
X215392000Y-85407500D03*
%TO.P,MX43,1*%
%TO.N,col9*%
X202465000Y-87947500D03*
%TD*%
%TO.P,MX42,2*%
%TO.N,Net-(D42-Pad2)*%
X224917000Y-66357500D03*
%TO.P,MX42,1*%
%TO.N,col9*%
X211990000Y-68897500D03*
%TD*%
%TO.P,MX41,2*%
%TO.N,Net-(D41-Pad2)*%
X220154500Y-47307500D03*
%TO.P,MX41,1*%
%TO.N,col9*%
X207227500Y-49847500D03*
%TD*%
%TO.P,MX40,2*%
%TO.N,Net-(D40-Pad2)*%
X210629500Y-28257500D03*
%TO.P,MX40,1*%
%TO.N,col9*%
X197702500Y-30797500D03*
%TD*%
%TO.P,MX39,2*%
%TO.N,Net-(D39-Pad2)*%
X196342000Y-85407500D03*
%TO.P,MX39,1*%
%TO.N,col8*%
X183415000Y-87947500D03*
%TD*%
%TO.P,MX38,2*%
%TO.N,Net-(D38-Pad2)*%
X205867000Y-66357500D03*
%TO.P,MX38,1*%
%TO.N,col8*%
X192940000Y-68897500D03*
%TD*%
%TO.P,MX37,2*%
%TO.N,Net-(D37-Pad2)*%
X201104500Y-47307500D03*
%TO.P,MX37,1*%
%TO.N,col8*%
X188177500Y-49847500D03*
%TD*%
%TO.P,MX36,2*%
%TO.N,Net-(D36-Pad2)*%
X191579500Y-28257500D03*
%TO.P,MX36,1*%
%TO.N,col8*%
X178652500Y-30797500D03*
%TD*%
%TO.P,MX35,2*%
%TO.N,Net-(D35-Pad2)*%
X177292000Y-85407500D03*
%TO.P,MX35,1*%
%TO.N,col7*%
X164365000Y-87947500D03*
%TD*%
%TO.P,MX34,2*%
%TO.N,Net-(D34-Pad2)*%
X186817000Y-66357500D03*
%TO.P,MX34,1*%
%TO.N,col7*%
X173890000Y-68897500D03*
%TD*%
%TO.P,MX33,2*%
%TO.N,Net-(D33-Pad2)*%
X182054500Y-47307500D03*
%TO.P,MX33,1*%
%TO.N,col7*%
X169127500Y-49847500D03*
%TD*%
%TO.P,MX32,2*%
%TO.N,Net-(D32-Pad2)*%
X172529500Y-28257500D03*
%TO.P,MX32,1*%
%TO.N,col7*%
X159602500Y-30797500D03*
%TD*%
%TO.P,MX31,2*%
%TO.N,Net-(D31-Pad2)*%
X160623250Y-104457500D03*
%TO.P,MX31,1*%
%TO.N,col6*%
X147696250Y-106997500D03*
%TD*%
%TO.P,MX30,2*%
%TO.N,Net-(D30-Pad2)*%
X158242000Y-85407500D03*
%TO.P,MX30,1*%
%TO.N,col6*%
X145315000Y-87947500D03*
%TD*%
%TO.P,MX29,2*%
%TO.N,Net-(D29-Pad2)*%
X167767000Y-66357500D03*
%TO.P,MX29,1*%
%TO.N,col6*%
X154840000Y-68897500D03*
%TD*%
%TO.P,MX28,2*%
%TO.N,Net-(D28-Pad2)*%
X163004500Y-47307500D03*
%TO.P,MX28,1*%
%TO.N,col6*%
X150077500Y-49847500D03*
%TD*%
%TO.P,MX27,2*%
%TO.N,Net-(D27-Pad2)*%
X153479500Y-28257500D03*
%TO.P,MX27,1*%
%TO.N,col6*%
X140552500Y-30797500D03*
%TD*%
%TO.P,MX26,2*%
%TO.N,Net-(D26-Pad2)*%
X139192000Y-85407500D03*
%TO.P,MX26,1*%
%TO.N,col5*%
X126265000Y-87947500D03*
%TD*%
%TO.P,MX25,2*%
%TO.N,Net-(D25-Pad2)*%
X148717000Y-66357500D03*
%TO.P,MX25,1*%
%TO.N,col5*%
X135790000Y-68897500D03*
%TD*%
%TO.P,MX24,2*%
%TO.N,Net-(D24-Pad2)*%
X143954500Y-47307500D03*
%TO.P,MX24,1*%
%TO.N,col5*%
X131027500Y-49847500D03*
%TD*%
%TO.P,MX23,2*%
%TO.N,Net-(D23-Pad2)*%
X134429500Y-28257500D03*
%TO.P,MX23,1*%
%TO.N,col5*%
X121502500Y-30797500D03*
%TD*%
%TO.P,MX22,2*%
%TO.N,Net-(D22-Pad2)*%
X120142000Y-85407500D03*
%TO.P,MX22,1*%
%TO.N,col4*%
X107215000Y-87947500D03*
%TD*%
%TO.P,MX21,2*%
%TO.N,Net-(D21-Pad2)*%
X129667000Y-66357500D03*
%TO.P,MX21,1*%
%TO.N,col4*%
X116740000Y-68897500D03*
%TD*%
%TO.P,MX20,2*%
%TO.N,Net-(D20-Pad2)*%
X124904500Y-47307500D03*
%TO.P,MX20,1*%
%TO.N,col4*%
X111977500Y-49847500D03*
%TD*%
%TO.P,MX19,2*%
%TO.N,Net-(D19-Pad2)*%
X115379500Y-28257500D03*
%TO.P,MX19,1*%
%TO.N,col4*%
X102452500Y-30797500D03*
%TD*%
%TO.P,MX18,2*%
%TO.N,Net-(D18-Pad2)*%
X101092000Y-85407500D03*
%TO.P,MX18,1*%
%TO.N,col3*%
X88165000Y-87947500D03*
%TD*%
%TO.P,MX17,2*%
%TO.N,Net-(D17-Pad2)*%
X110617000Y-66357500D03*
%TO.P,MX17,1*%
%TO.N,col3*%
X97690000Y-68897500D03*
%TD*%
%TO.P,MX16,2*%
%TO.N,Net-(D16-Pad2)*%
X105854500Y-47307500D03*
%TO.P,MX16,1*%
%TO.N,col3*%
X92927500Y-49847500D03*
%TD*%
%TO.P,MX15,2*%
%TO.N,Net-(D15-Pad2)*%
X96329500Y-28257500D03*
%TO.P,MX15,1*%
%TO.N,col3*%
X83402500Y-30797500D03*
%TD*%
%TO.P,MX14,2*%
%TO.N,Net-(D14-Pad2)*%
X89185750Y-104457500D03*
%TO.P,MX14,1*%
%TO.N,col2*%
X76258750Y-106997500D03*
%TD*%
%TO.P,MX13,2*%
%TO.N,Net-(D13-Pad2)*%
X82042000Y-85407500D03*
%TO.P,MX13,1*%
%TO.N,col2*%
X69115000Y-87947500D03*
%TD*%
%TO.P,MX12,2*%
%TO.N,Net-(D12-Pad2)*%
X91567000Y-66357500D03*
%TO.P,MX12,1*%
%TO.N,col2*%
X78640000Y-68897500D03*
%TD*%
%TO.P,MX11,2*%
%TO.N,Net-(D11-Pad2)*%
X86804500Y-47307500D03*
%TO.P,MX11,1*%
%TO.N,col2*%
X73877500Y-49847500D03*
%TD*%
%TO.P,MX10,2*%
%TO.N,Net-(D10-Pad2)*%
X77279500Y-28257500D03*
%TO.P,MX10,1*%
%TO.N,col2*%
X64352500Y-30797500D03*
%TD*%
%TO.P,MX9,2*%
%TO.N,Net-(D9-Pad2)*%
X65373250Y-104457500D03*
%TO.P,MX9,1*%
%TO.N,col1*%
X52446250Y-106997500D03*
%TD*%
%TO.P,MX8,2*%
%TO.N,Net-(D8-Pad2)*%
X72517000Y-66357500D03*
%TO.P,MX8,1*%
%TO.N,col1*%
X59590000Y-68897500D03*
%TD*%
%TO.P,MX7,2*%
%TO.N,Net-(D7-Pad2)*%
X56070500Y-57467500D03*
%TO.P,MX7,1*%
%TO.N,col1*%
X68997500Y-54927500D03*
%TD*%
%TO.P,MX6,2*%
%TO.N,Net-(D6-Pad2)*%
X46545500Y-38417500D03*
%TO.P,MX6,1*%
%TO.N,col1*%
X59472500Y-35877500D03*
%TD*%
%TO.P,MX5,2*%
%TO.N,Net-(D5-Pad2)*%
X41560750Y-104457500D03*
%TO.P,MX5,1*%
%TO.N,col0*%
X28633750Y-106997500D03*
%TD*%
%TO.P,MX4,2*%
%TO.N,Net-(D4-Pad2)*%
X51085750Y-85407500D03*
%TO.P,MX4,1*%
%TO.N,col0*%
X38158750Y-87947500D03*
%TD*%
%TO.P,MX3,2*%
%TO.N,Net-(D3-Pad2)*%
X46323250Y-66357500D03*
%TO.P,MX3,1*%
%TO.N,col0*%
X33396250Y-68897500D03*
%TD*%
%TO.P,MX2,2*%
%TO.N,Net-(D2-Pad2)*%
X43942000Y-47307500D03*
%TO.P,MX2,1*%
%TO.N,col0*%
X31015000Y-49847500D03*
%TD*%
%TO.P,MX1,2*%
%TO.N,Net-(D1-Pad2)*%
X27495500Y-38417500D03*
%TO.P,MX1,1*%
%TO.N,col0*%
X40422500Y-35877500D03*
%TD*%
%TO.P,F1,2*%
%TO.N,VCC*%
%TA.AperFunction,SMDPad,CuDef*%
G36*
G01*
X34661000Y-37325000D02*
X33411000Y-37325000D01*
G75*
G02*
X33161000Y-37075000I0J250000D01*
G01*
X33161000Y-36325000D01*
G75*
G02*
X33411000Y-36075000I250000J0D01*
G01*
X34661000Y-36075000D01*
G75*
G02*
X34911000Y-36325000I0J-250000D01*
G01*
X34911000Y-37075000D01*
G75*
G02*
X34661000Y-37325000I-250000J0D01*
G01*
G37*
%TD.AperFunction*%
%TO.P,F1,1*%
%TO.N,+5V*%
%TA.AperFunction,SMDPad,CuDef*%
G36*
G01*
X34661000Y-40125000D02*
X33411000Y-40125000D01*
G75*
G02*
X33161000Y-39875000I0J250000D01*
G01*
X33161000Y-39125000D01*
G75*
G02*
X33411000Y-38875000I250000J0D01*
G01*
X34661000Y-38875000D01*
G75*
G02*
X34911000Y-39125000I0J-250000D01*
G01*
X34911000Y-39875000D01*
G75*
G02*
X34661000Y-40125000I-250000J0D01*
G01*
G37*
%TD.AperFunction*%
%TD*%
D25*
%TO.P,D61,2*%
%TO.N,Net-(D61-Pad2)*%
X305593750Y-107887500D03*
%TO.P,D61,1*%
%TO.N,row4*%
X305593750Y-111187500D03*
%TD*%
%TO.P,D60,2*%
%TO.N,Net-(D60-Pad2)*%
X291306250Y-88837500D03*
%TO.P,D60,1*%
%TO.N,row3*%
X291306250Y-92137500D03*
%TD*%
%TO.P,D59,2*%
%TO.N,Net-(D59-Pad2)*%
X296068750Y-69787500D03*
%TO.P,D59,1*%
%TO.N,row2*%
X296068750Y-73087500D03*
%TD*%
%TO.P,D58,2*%
%TO.N,Net-(D58-Pad2)*%
X284956250Y-57881250D03*
%TO.P,D58,1*%
%TO.N,row1*%
X284956250Y-61181250D03*
%TD*%
%TO.P,D57,2*%
%TO.N,Net-(D57-Pad2)*%
X298450000Y-31687500D03*
%TO.P,D57,1*%
%TO.N,row0*%
X298450000Y-34987500D03*
%TD*%
%TO.P,D56,2*%
%TO.N,Net-(D56-Pad2)*%
X281781250Y-107887500D03*
%TO.P,D56,1*%
%TO.N,row4*%
X281781250Y-111187500D03*
%TD*%
%TO.P,D55,2*%
%TO.N,Net-(D55-Pad2)*%
X279400000Y-50737500D03*
%TO.P,D55,1*%
%TO.N,row1*%
X279400000Y-54037500D03*
%TD*%
%TO.P,D54,2*%
%TO.N,Net-(D54-Pad2)*%
X269875000Y-31687500D03*
%TO.P,D54,1*%
%TO.N,row0*%
X269875000Y-34987500D03*
%TD*%
%TO.P,D53,2*%
%TO.N,Net-(D53-Pad2)*%
X257968750Y-107887500D03*
%TO.P,D53,1*%
%TO.N,row4*%
X257968750Y-111187500D03*
%TD*%
%TO.P,D52,2*%
%TO.N,Net-(D52-Pad2)*%
X255587500Y-88837500D03*
%TO.P,D52,1*%
%TO.N,row3*%
X255587500Y-92137500D03*
%TD*%
%TO.P,D51,2*%
%TO.N,Net-(D51-Pad2)*%
X265112500Y-69787500D03*
%TO.P,D51,1*%
%TO.N,row2*%
X265112500Y-73087500D03*
%TD*%
%TO.P,D50,2*%
%TO.N,Net-(D50-Pad2)*%
X260350000Y-50737500D03*
%TO.P,D50,1*%
%TO.N,row1*%
X260350000Y-54037500D03*
%TD*%
%TO.P,D49,2*%
%TO.N,Net-(D49-Pad2)*%
X250825000Y-31687500D03*
%TO.P,D49,1*%
%TO.N,row0*%
X250825000Y-34987500D03*
%TD*%
D26*
%TO.P,D48,2*%
%TO.N,Net-(D48-Pad2)*%
X218343750Y-115093750D03*
%TO.P,D48,1*%
%TO.N,row4*%
X215043750Y-115093750D03*
%TD*%
D25*
%TO.P,D47,2*%
%TO.N,Net-(D47-Pad2)*%
X236537500Y-88837500D03*
%TO.P,D47,1*%
%TO.N,row3*%
X236537500Y-92137500D03*
%TD*%
%TO.P,D46,2*%
%TO.N,Net-(D46-Pad2)*%
X246062500Y-69787500D03*
%TO.P,D46,1*%
%TO.N,row2*%
X246062500Y-73087500D03*
%TD*%
%TO.P,D45,2*%
%TO.N,Net-(D45-Pad2)*%
X241300000Y-50737500D03*
%TO.P,D45,1*%
%TO.N,row1*%
X241300000Y-54037500D03*
%TD*%
%TO.P,D44,2*%
%TO.N,Net-(D44-Pad2)*%
X231775000Y-31687500D03*
%TO.P,D44,1*%
%TO.N,row0*%
X231775000Y-34987500D03*
%TD*%
%TO.P,D43,2*%
%TO.N,Net-(D43-Pad2)*%
X217487500Y-88837500D03*
%TO.P,D43,1*%
%TO.N,row3*%
X217487500Y-92137500D03*
%TD*%
%TO.P,D42,2*%
%TO.N,Net-(D42-Pad2)*%
X227012500Y-69787500D03*
%TO.P,D42,1*%
%TO.N,row2*%
X227012500Y-73087500D03*
%TD*%
%TO.P,D41,2*%
%TO.N,Net-(D41-Pad2)*%
X222250000Y-50737500D03*
%TO.P,D41,1*%
%TO.N,row1*%
X222250000Y-54037500D03*
%TD*%
%TO.P,D40,2*%
%TO.N,Net-(D40-Pad2)*%
X212725000Y-31687500D03*
%TO.P,D40,1*%
%TO.N,row0*%
X212725000Y-34987500D03*
%TD*%
%TO.P,D39,2*%
%TO.N,Net-(D39-Pad2)*%
X198437500Y-88837500D03*
%TO.P,D39,1*%
%TO.N,row3*%
X198437500Y-92137500D03*
%TD*%
%TO.P,D38,2*%
%TO.N,Net-(D38-Pad2)*%
X207962500Y-69787500D03*
%TO.P,D38,1*%
%TO.N,row2*%
X207962500Y-73087500D03*
%TD*%
%TO.P,D37,2*%
%TO.N,Net-(D37-Pad2)*%
X203200000Y-50737500D03*
%TO.P,D37,1*%
%TO.N,row1*%
X203200000Y-54037500D03*
%TD*%
%TO.P,D36,2*%
%TO.N,Net-(D36-Pad2)*%
X193675000Y-31687500D03*
%TO.P,D36,1*%
%TO.N,row0*%
X193675000Y-34987500D03*
%TD*%
%TO.P,D35,2*%
%TO.N,Net-(D35-Pad2)*%
X179387500Y-88837500D03*
%TO.P,D35,1*%
%TO.N,row3*%
X179387500Y-92137500D03*
%TD*%
%TO.P,D34,2*%
%TO.N,Net-(D34-Pad2)*%
X188912500Y-69787500D03*
%TO.P,D34,1*%
%TO.N,row2*%
X188912500Y-73087500D03*
%TD*%
%TO.P,D33,2*%
%TO.N,Net-(D33-Pad2)*%
X184150000Y-50737500D03*
%TO.P,D33,1*%
%TO.N,row1*%
X184150000Y-54037500D03*
%TD*%
%TO.P,D32,2*%
%TO.N,Net-(D32-Pad2)*%
X174625000Y-31687500D03*
%TO.P,D32,1*%
%TO.N,row0*%
X174625000Y-34987500D03*
%TD*%
%TO.P,D31,2*%
%TO.N,Net-(D31-Pad2)*%
X162718750Y-107887500D03*
%TO.P,D31,1*%
%TO.N,row4*%
X162718750Y-111187500D03*
%TD*%
%TO.P,D30,2*%
%TO.N,Net-(D30-Pad2)*%
X160337500Y-88837500D03*
%TO.P,D30,1*%
%TO.N,row3*%
X160337500Y-92137500D03*
%TD*%
%TO.P,D29,2*%
%TO.N,Net-(D29-Pad2)*%
X169862500Y-69787500D03*
%TO.P,D29,1*%
%TO.N,row2*%
X169862500Y-73087500D03*
%TD*%
%TO.P,D28,2*%
%TO.N,Net-(D28-Pad2)*%
X165100000Y-50737500D03*
%TO.P,D28,1*%
%TO.N,row1*%
X165100000Y-54037500D03*
%TD*%
%TO.P,D27,2*%
%TO.N,Net-(D27-Pad2)*%
X155575000Y-31687500D03*
%TO.P,D27,1*%
%TO.N,row0*%
X155575000Y-34987500D03*
%TD*%
%TO.P,D26,2*%
%TO.N,Net-(D26-Pad2)*%
X141287500Y-88837500D03*
%TO.P,D26,1*%
%TO.N,row3*%
X141287500Y-92137500D03*
%TD*%
%TO.P,D25,2*%
%TO.N,Net-(D25-Pad2)*%
X150812500Y-69787500D03*
%TO.P,D25,1*%
%TO.N,row2*%
X150812500Y-73087500D03*
%TD*%
%TO.P,D24,2*%
%TO.N,Net-(D24-Pad2)*%
X146843750Y-50737500D03*
%TO.P,D24,1*%
%TO.N,row1*%
X146843750Y-54037500D03*
%TD*%
%TO.P,D23,2*%
%TO.N,Net-(D23-Pad2)*%
X136525000Y-31687500D03*
%TO.P,D23,1*%
%TO.N,row0*%
X136525000Y-34987500D03*
%TD*%
%TO.P,D22,2*%
%TO.N,Net-(D22-Pad2)*%
X122237500Y-88837500D03*
%TO.P,D22,1*%
%TO.N,row3*%
X122237500Y-92137500D03*
%TD*%
%TO.P,D21,2*%
%TO.N,Net-(D21-Pad2)*%
X131762500Y-69787500D03*
%TO.P,D21,1*%
%TO.N,row2*%
X131762500Y-73087500D03*
%TD*%
%TO.P,D20,2*%
%TO.N,Net-(D20-Pad2)*%
X127000000Y-50737500D03*
%TO.P,D20,1*%
%TO.N,row1*%
X127000000Y-54037500D03*
%TD*%
D26*
%TO.P,D19,2*%
%TO.N,Net-(D19-Pad2)*%
X103125000Y-41275000D03*
%TO.P,D19,1*%
%TO.N,row0*%
X106425000Y-41275000D03*
%TD*%
D25*
%TO.P,D18,2*%
%TO.N,Net-(D18-Pad2)*%
X103187500Y-88837500D03*
%TO.P,D18,1*%
%TO.N,row3*%
X103187500Y-92137500D03*
%TD*%
D26*
%TO.P,D17,2*%
%TO.N,Net-(D17-Pad2)*%
X98362500Y-79375000D03*
%TO.P,D17,1*%
%TO.N,row2*%
X101662500Y-79375000D03*
%TD*%
D25*
%TO.P,D16,2*%
%TO.N,Net-(D16-Pad2)*%
X107950000Y-50737500D03*
%TO.P,D16,1*%
%TO.N,row1*%
X107950000Y-54037500D03*
%TD*%
D26*
%TO.P,D15,2*%
%TO.N,Net-(D15-Pad2)*%
X84075000Y-41275000D03*
%TO.P,D15,1*%
%TO.N,row0*%
X87375000Y-41275000D03*
%TD*%
D25*
%TO.P,D14,2*%
%TO.N,Net-(D14-Pad2)*%
X91281250Y-107887500D03*
%TO.P,D14,1*%
%TO.N,row4*%
X91281250Y-111187500D03*
%TD*%
%TO.P,D13,2*%
%TO.N,Net-(D13-Pad2)*%
X84137500Y-88837500D03*
%TO.P,D13,1*%
%TO.N,row3*%
X84137500Y-92137500D03*
%TD*%
D26*
%TO.P,D12,2*%
%TO.N,Net-(D12-Pad2)*%
X79312500Y-79375000D03*
%TO.P,D12,1*%
%TO.N,row2*%
X82612500Y-79375000D03*
%TD*%
D25*
%TO.P,D11,2*%
%TO.N,Net-(D11-Pad2)*%
X88900000Y-50737500D03*
%TO.P,D11,1*%
%TO.N,row1*%
X88900000Y-54037500D03*
%TD*%
%TO.P,D10,2*%
%TO.N,Net-(D10-Pad2)*%
X79375000Y-31687500D03*
%TO.P,D10,1*%
%TO.N,row0*%
X79375000Y-34987500D03*
%TD*%
%TO.P,D9,2*%
%TO.N,Net-(D9-Pad2)*%
X67468750Y-107887500D03*
%TO.P,D9,1*%
%TO.N,row4*%
X67468750Y-111187500D03*
%TD*%
%TO.P,D8,2*%
%TO.N,Net-(D8-Pad2)*%
X74612500Y-69787500D03*
%TO.P,D8,1*%
%TO.N,row2*%
X74612500Y-73087500D03*
%TD*%
%TO.P,D7,2*%
%TO.N,Net-(D7-Pad2)*%
X53181250Y-57881250D03*
%TO.P,D7,1*%
%TO.N,row1*%
X53181250Y-61181250D03*
%TD*%
D26*
%TO.P,D6,2*%
%TO.N,Net-(D6-Pad2)*%
X45975000Y-41275000D03*
%TO.P,D6,1*%
%TO.N,row0*%
X49275000Y-41275000D03*
%TD*%
D25*
%TO.P,D5,2*%
%TO.N,Net-(D5-Pad2)*%
X43656250Y-107887500D03*
%TO.P,D5,1*%
%TO.N,row4*%
X43656250Y-111187500D03*
%TD*%
%TO.P,D4,2*%
%TO.N,Net-(D4-Pad2)*%
X53181250Y-88837500D03*
%TO.P,D4,1*%
%TO.N,row3*%
X53181250Y-92137500D03*
%TD*%
%TO.P,D3,2*%
%TO.N,Net-(D3-Pad2)*%
X48418750Y-69787500D03*
%TO.P,D3,1*%
%TO.N,row2*%
X48418750Y-73087500D03*
%TD*%
%TO.P,D2,2*%
%TO.N,Net-(D2-Pad2)*%
X44450000Y-55500000D03*
%TO.P,D2,1*%
%TO.N,row1*%
X44450000Y-58800000D03*
%TD*%
D26*
%TO.P,D1,2*%
%TO.N,Net-(D1-Pad2)*%
X26987500Y-41656000D03*
%TO.P,D1,1*%
%TO.N,row0*%
X30287500Y-41656000D03*
%TD*%
%TO.P,C7,2*%
%TO.N,GND*%
%TA.AperFunction,SMDPad,CuDef*%
G36*
G01*
X117056750Y-94584500D02*
X117056750Y-95534500D01*
G75*
G02*
X116806750Y-95784500I-250000J0D01*
G01*
X116306750Y-95784500D01*
G75*
G02*
X116056750Y-95534500I0J250000D01*
G01*
X116056750Y-94584500D01*
G75*
G02*
X116306750Y-94334500I250000J0D01*
G01*
X116806750Y-94334500D01*
G75*
G02*
X117056750Y-94584500I0J-250000D01*
G01*
G37*
%TD.AperFunction*%
%TO.P,C7,1*%
%TO.N,Net-(C7-Pad1)*%
%TA.AperFunction,SMDPad,CuDef*%
G36*
G01*
X118956750Y-94584500D02*
X118956750Y-95534500D01*
G75*
G02*
X118706750Y-95784500I-250000J0D01*
G01*
X118206750Y-95784500D01*
G75*
G02*
X117956750Y-95534500I0J250000D01*
G01*
X117956750Y-94584500D01*
G75*
G02*
X118206750Y-94334500I250000J0D01*
G01*
X118706750Y-94334500D01*
G75*
G02*
X118956750Y-94584500I0J-250000D01*
G01*
G37*
%TD.AperFunction*%
%TD*%
%TO.P,C6,2*%
%TO.N,GND*%
%TA.AperFunction,SMDPad,CuDef*%
G36*
G01*
X122274750Y-115600500D02*
X122274750Y-114650500D01*
G75*
G02*
X122524750Y-114400500I250000J0D01*
G01*
X123024750Y-114400500D01*
G75*
G02*
X123274750Y-114650500I0J-250000D01*
G01*
X123274750Y-115600500D01*
G75*
G02*
X123024750Y-115850500I-250000J0D01*
G01*
X122524750Y-115850500D01*
G75*
G02*
X122274750Y-115600500I0J250000D01*
G01*
G37*
%TD.AperFunction*%
%TO.P,C6,1*%
%TO.N,+5V*%
%TA.AperFunction,SMDPad,CuDef*%
G36*
G01*
X120374750Y-115600500D02*
X120374750Y-114650500D01*
G75*
G02*
X120624750Y-114400500I250000J0D01*
G01*
X121124750Y-114400500D01*
G75*
G02*
X121374750Y-114650500I0J-250000D01*
G01*
X121374750Y-115600500D01*
G75*
G02*
X121124750Y-115850500I-250000J0D01*
G01*
X120624750Y-115850500D01*
G75*
G02*
X120374750Y-115600500I0J250000D01*
G01*
G37*
%TD.AperFunction*%
%TD*%
%TO.P,C5,2*%
%TO.N,GND*%
%TA.AperFunction,SMDPad,CuDef*%
G36*
G01*
X117056750Y-96616500D02*
X117056750Y-97566500D01*
G75*
G02*
X116806750Y-97816500I-250000J0D01*
G01*
X116306750Y-97816500D01*
G75*
G02*
X116056750Y-97566500I0J250000D01*
G01*
X116056750Y-96616500D01*
G75*
G02*
X116306750Y-96366500I250000J0D01*
G01*
X116806750Y-96366500D01*
G75*
G02*
X117056750Y-96616500I0J-250000D01*
G01*
G37*
%TD.AperFunction*%
%TO.P,C5,1*%
%TO.N,+5V*%
%TA.AperFunction,SMDPad,CuDef*%
G36*
G01*
X118956750Y-96616500D02*
X118956750Y-97566500D01*
G75*
G02*
X118706750Y-97816500I-250000J0D01*
G01*
X118206750Y-97816500D01*
G75*
G02*
X117956750Y-97566500I0J250000D01*
G01*
X117956750Y-96616500D01*
G75*
G02*
X118206750Y-96366500I250000J0D01*
G01*
X118706750Y-96366500D01*
G75*
G02*
X118956750Y-96616500I0J-250000D01*
G01*
G37*
%TD.AperFunction*%
%TD*%
%TO.P,C4,2*%
%TO.N,GND*%
%TA.AperFunction,SMDPad,CuDef*%
G36*
G01*
X109157750Y-103256500D02*
X110107750Y-103256500D01*
G75*
G02*
X110357750Y-103506500I0J-250000D01*
G01*
X110357750Y-104006500D01*
G75*
G02*
X110107750Y-104256500I-250000J0D01*
G01*
X109157750Y-104256500D01*
G75*
G02*
X108907750Y-104006500I0J250000D01*
G01*
X108907750Y-103506500D01*
G75*
G02*
X109157750Y-103256500I250000J0D01*
G01*
G37*
%TD.AperFunction*%
%TO.P,C4,1*%
%TO.N,+5V*%
%TA.AperFunction,SMDPad,CuDef*%
G36*
G01*
X109157750Y-101356500D02*
X110107750Y-101356500D01*
G75*
G02*
X110357750Y-101606500I0J-250000D01*
G01*
X110357750Y-102106500D01*
G75*
G02*
X110107750Y-102356500I-250000J0D01*
G01*
X109157750Y-102356500D01*
G75*
G02*
X108907750Y-102106500I0J250000D01*
G01*
X108907750Y-101606500D01*
G75*
G02*
X109157750Y-101356500I250000J0D01*
G01*
G37*
%TD.AperFunction*%
%TD*%
%TO.P,C3,2*%
%TO.N,GND*%
%TA.AperFunction,SMDPad,CuDef*%
G36*
G01*
X110234750Y-110992500D02*
X109284750Y-110992500D01*
G75*
G02*
X109034750Y-110742500I0J250000D01*
G01*
X109034750Y-110242500D01*
G75*
G02*
X109284750Y-109992500I250000J0D01*
G01*
X110234750Y-109992500D01*
G75*
G02*
X110484750Y-110242500I0J-250000D01*
G01*
X110484750Y-110742500D01*
G75*
G02*
X110234750Y-110992500I-250000J0D01*
G01*
G37*
%TD.AperFunction*%
%TO.P,C3,1*%
%TO.N,+5V*%
%TA.AperFunction,SMDPad,CuDef*%
G36*
G01*
X110234750Y-112892500D02*
X109284750Y-112892500D01*
G75*
G02*
X109034750Y-112642500I0J250000D01*
G01*
X109034750Y-112142500D01*
G75*
G02*
X109284750Y-111892500I250000J0D01*
G01*
X110234750Y-111892500D01*
G75*
G02*
X110484750Y-112142500I0J-250000D01*
G01*
X110484750Y-112642500D01*
G75*
G02*
X110234750Y-112892500I-250000J0D01*
G01*
G37*
%TD.AperFunction*%
%TD*%
%TO.P,C2,2*%
%TO.N,GND*%
%TA.AperFunction,SMDPad,CuDef*%
G36*
G01*
X128867750Y-102712500D02*
X128867750Y-103662500D01*
G75*
G02*
X128617750Y-103912500I-250000J0D01*
G01*
X128117750Y-103912500D01*
G75*
G02*
X127867750Y-103662500I0J250000D01*
G01*
X127867750Y-102712500D01*
G75*
G02*
X128117750Y-102462500I250000J0D01*
G01*
X128617750Y-102462500D01*
G75*
G02*
X128867750Y-102712500I0J-250000D01*
G01*
G37*
%TD.AperFunction*%
%TO.P,C2,1*%
%TO.N,Net-(C2-Pad1)*%
%TA.AperFunction,SMDPad,CuDef*%
G36*
G01*
X130767750Y-102712500D02*
X130767750Y-103662500D01*
G75*
G02*
X130517750Y-103912500I-250000J0D01*
G01*
X130017750Y-103912500D01*
G75*
G02*
X129767750Y-103662500I0J250000D01*
G01*
X129767750Y-102712500D01*
G75*
G02*
X130017750Y-102462500I250000J0D01*
G01*
X130517750Y-102462500D01*
G75*
G02*
X130767750Y-102712500I0J-250000D01*
G01*
G37*
%TD.AperFunction*%
%TD*%
%TO.P,C1,2*%
%TO.N,GND*%
%TA.AperFunction,SMDPad,CuDef*%
G36*
G01*
X129704250Y-109885500D02*
X129704250Y-108935500D01*
G75*
G02*
X129954250Y-108685500I250000J0D01*
G01*
X130454250Y-108685500D01*
G75*
G02*
X130704250Y-108935500I0J-250000D01*
G01*
X130704250Y-109885500D01*
G75*
G02*
X130454250Y-110135500I-250000J0D01*
G01*
X129954250Y-110135500D01*
G75*
G02*
X129704250Y-109885500I0J250000D01*
G01*
G37*
%TD.AperFunction*%
%TO.P,C1,1*%
%TO.N,Net-(C1-Pad1)*%
%TA.AperFunction,SMDPad,CuDef*%
G36*
G01*
X127804250Y-109885500D02*
X127804250Y-108935500D01*
G75*
G02*
X128054250Y-108685500I250000J0D01*
G01*
X128554250Y-108685500D01*
G75*
G02*
X128804250Y-108935500I0J-250000D01*
G01*
X128804250Y-109885500D01*
G75*
G02*
X128554250Y-110135500I-250000J0D01*
G01*
X128054250Y-110135500D01*
G75*
G02*
X127804250Y-109885500I0J250000D01*
G01*
G37*
%TD.AperFunction*%
%TD*%
D27*
%TO.N,GND*%
X45768002Y-30463499D03*
X44164000Y-32013500D03*
X64235997Y-97308003D03*
X64262000Y-99949000D03*
X62992000Y-113157000D03*
X102597259Y-113201741D03*
X104775000Y-113284000D03*
%TO.N,+5V*%
X114712750Y-102806500D03*
X119538750Y-102933500D03*
X114680500Y-111156250D03*
X36830000Y-41475001D03*
X109759750Y-112392500D03*
%TO.N,row0*%
X99187000Y-43434000D03*
X105791000Y-98425000D03*
X112141000Y-99060000D03*
X112141000Y-101473000D03*
%TO.N,row1*%
X126713750Y-54323750D03*
X120650000Y-100106248D03*
%TO.N,row2*%
X101662500Y-79375000D03*
X109855000Y-107188000D03*
%TO.N,row3*%
X122237500Y-92137500D03*
X122174000Y-100203000D03*
%TO.N,Net-(D12-Pad2)*%
X82296000Y-77089000D03*
X78486000Y-78232000D03*
%TO.N,Net-(D15-Pad2)*%
X84074000Y-39624000D03*
X96520000Y-30861000D03*
%TO.N,Net-(D19-Pad2)*%
X115316000Y-30734000D03*
X103124000Y-39624000D03*
%TO.N,VCC*%
X42213999Y-32639000D03*
X40005000Y-31242000D03*
X35031161Y-35302147D03*
%TO.N,col0*%
X38989000Y-38100000D03*
X30988000Y-47879000D03*
X103505000Y-114300000D03*
X105791000Y-114300000D03*
X113478268Y-116276282D03*
X115025000Y-116332000D03*
%TO.N,col1*%
X59944000Y-37973000D03*
X69088000Y-52705000D03*
X61849000Y-59817000D03*
X59563000Y-67056000D03*
X58801000Y-70993000D03*
X52451000Y-104648000D03*
X52451000Y-102198000D03*
X101727000Y-104648000D03*
X110302214Y-108082429D03*
%TO.N,col2*%
X74041000Y-107061000D03*
X69115000Y-87947500D03*
X78640000Y-68897500D03*
X73877500Y-49847500D03*
X64352500Y-30797500D03*
%TO.N,col3*%
X88138000Y-88011000D03*
X97690000Y-68897500D03*
X92927500Y-49847500D03*
X83402500Y-30797500D03*
X91186000Y-102923000D03*
%TO.N,col4*%
X102616000Y-30861000D03*
X111977500Y-49847500D03*
X116740000Y-68897500D03*
X107215000Y-87947500D03*
X107188000Y-106262000D03*
%TO.N,col5*%
X121666000Y-30861000D03*
X131027500Y-49847500D03*
X135790000Y-68897500D03*
X126265000Y-87947500D03*
X124841000Y-108712000D03*
%TO.N,col6*%
X147574000Y-107188000D03*
X145315000Y-87947500D03*
X154840000Y-68897500D03*
X150077500Y-49847500D03*
X140552500Y-30797500D03*
%TO.N,col7*%
X159639000Y-30861000D03*
X169127500Y-49847500D03*
X173890000Y-68897500D03*
X164365000Y-87947500D03*
X164338000Y-100076000D03*
%TO.N,col8*%
X178562000Y-30734000D03*
X188177500Y-49847500D03*
X192940000Y-68897500D03*
X183415000Y-87947500D03*
X183388000Y-93726000D03*
X131826000Y-109601000D03*
X124841000Y-111215000D03*
%TO.N,col9*%
X197739000Y-30861000D03*
X207227500Y-49847500D03*
X211990000Y-68897500D03*
X202465000Y-87947500D03*
X202438000Y-93853000D03*
X164025153Y-112199847D03*
X160147000Y-112649000D03*
%TO.N,col10*%
X216662000Y-30734000D03*
X226277500Y-49847500D03*
X231040000Y-68897500D03*
X221515000Y-87947500D03*
X233303750Y-112077500D03*
X165862000Y-113792000D03*
X157607000Y-113792000D03*
X130497153Y-113723847D03*
X120015000Y-116332000D03*
%TO.N,col11*%
X242951000Y-107061000D03*
X240565000Y-87947500D03*
X250090000Y-68897500D03*
X245327500Y-49847500D03*
X235802500Y-30797500D03*
X192659000Y-105283000D03*
X189865000Y-105156000D03*
X165608000Y-105029000D03*
X146812000Y-103886000D03*
X133731000Y-109474000D03*
X119126000Y-114300000D03*
%TO.N,col12*%
X254889000Y-30861000D03*
X264377500Y-49847500D03*
X266758750Y-106997500D03*
X118237000Y-114935000D03*
%TO.N,col13*%
X288417000Y-107188000D03*
X274320000Y-87884000D03*
X278892000Y-68834000D03*
X283337000Y-63754000D03*
X302387000Y-52959000D03*
X283337000Y-33020000D03*
X117475000Y-114206252D03*
%TO.N,D-*%
X41783000Y-40132000D03*
X41402000Y-43942000D03*
X38735000Y-43942000D03*
X47752000Y-101473000D03*
%TO.N,D+*%
X48477000Y-100640949D03*
X38747651Y-44954654D03*
X42248689Y-45000311D03*
X43815000Y-40155500D03*
%TD*%
D28*
%TO.N,GND*%
X130104250Y-107399000D02*
X130104250Y-107671500D01*
X130104250Y-107399000D02*
X130059250Y-107399000D01*
X130204250Y-107544000D02*
X130204250Y-109410500D01*
X130059250Y-107399000D02*
X130204250Y-107544000D01*
X128404250Y-104896098D02*
X128404250Y-105199000D01*
X128367750Y-105162500D02*
X128404250Y-105199000D01*
X128367750Y-103187500D02*
X128367750Y-105162500D01*
X129483260Y-102071990D02*
X128367750Y-103187500D01*
X131158260Y-102447190D02*
X130783060Y-102071990D01*
X131158260Y-106344990D02*
X131158260Y-102447190D01*
X130104250Y-107399000D02*
X131158260Y-106344990D01*
X121475000Y-106125250D02*
X121475000Y-112856250D01*
X123175000Y-105556250D02*
X122044000Y-105556250D01*
X116675000Y-102384152D02*
X116675000Y-101456250D01*
X115102902Y-103956250D02*
X116675000Y-102384152D01*
X116675000Y-102384152D02*
X120272348Y-105981500D01*
X120272348Y-105981500D02*
X121618750Y-105981500D01*
X121658250Y-105942000D02*
X121475000Y-106125250D01*
X121618750Y-105981500D02*
X121658250Y-105942000D01*
X122044000Y-105556250D02*
X121658250Y-105942000D01*
D29*
X38098000Y-29005000D02*
X38098000Y-24825000D01*
X38848000Y-24825000D02*
X46738000Y-24825000D01*
X38098000Y-24825000D02*
X38848000Y-24825000D01*
X46738000Y-24825000D02*
X46738000Y-29005000D01*
X46558000Y-29005000D02*
X45643000Y-29920000D01*
X46738000Y-29005000D02*
X46558000Y-29005000D01*
X38278000Y-29005000D02*
X39193000Y-29920000D01*
X38098000Y-29005000D02*
X38278000Y-29005000D01*
D28*
X44164000Y-32013500D02*
X44164000Y-32376500D01*
X37027500Y-30075500D02*
X38098000Y-29005000D01*
X36322000Y-30075500D02*
X37027500Y-30075500D01*
X48975000Y-31242000D02*
X46738000Y-29005000D01*
X49045500Y-31242000D02*
X48975000Y-31242000D01*
X109896000Y-110356250D02*
X109759750Y-110492500D01*
X111775000Y-110356250D02*
X109896000Y-110356250D01*
X109832500Y-103956250D02*
X109632750Y-103756500D01*
X111775000Y-103956250D02*
X109832500Y-103956250D01*
X121475000Y-113825750D02*
X122774750Y-115125500D01*
X121475000Y-112856250D02*
X121475000Y-113825750D01*
X112928000Y-110334250D02*
X112928000Y-103956250D01*
X112906000Y-110356250D02*
X112928000Y-110334250D01*
X111775000Y-110356250D02*
X112906000Y-110356250D01*
X112928000Y-103956250D02*
X115102902Y-103956250D01*
X111775000Y-103956250D02*
X112928000Y-103956250D01*
X116556750Y-101338000D02*
X116675000Y-101456250D01*
X116556750Y-97091500D02*
X116556750Y-101338000D01*
X116556750Y-95059500D02*
X116556750Y-97091500D01*
X110607930Y-114871500D02*
X111260250Y-114871500D01*
X108644240Y-111608010D02*
X108644240Y-112907810D01*
X109759750Y-110492500D02*
X108644240Y-111608010D01*
X128047000Y-105556250D02*
X128404250Y-105199000D01*
X123175000Y-105556250D02*
X128047000Y-105556250D01*
X129984249Y-101940981D02*
X129853240Y-102071990D01*
X129984249Y-96024001D02*
X129984249Y-101940981D01*
X129853240Y-102071990D02*
X129483260Y-102071990D01*
X131274750Y-94733500D02*
X129984249Y-96024001D01*
X130783060Y-102071990D02*
X129853240Y-102071990D01*
X45643000Y-30338497D02*
X45768002Y-30463499D01*
X45643000Y-29920000D02*
X45643000Y-30338497D01*
X64235997Y-99922997D02*
X64262000Y-99949000D01*
X64235997Y-97308003D02*
X64235997Y-99922997D01*
X102552518Y-113157000D02*
X102597259Y-113201741D01*
X62992000Y-113157000D02*
X102552518Y-113157000D01*
X108966000Y-113284000D02*
X108993215Y-113256785D01*
X104775000Y-113284000D02*
X108966000Y-113284000D01*
X108993215Y-113256785D02*
X110607930Y-114871500D01*
X108644240Y-112907810D02*
X108993215Y-113256785D01*
D29*
%TO.N,Net-(C1-Pad1)*%
X128404250Y-109310500D02*
X128304250Y-109410500D01*
X128404250Y-107399000D02*
X128404250Y-109310500D01*
X128161500Y-107156250D02*
X128404250Y-107399000D01*
X123175000Y-107156250D02*
X128161500Y-107156250D01*
%TO.N,Net-(C2-Pad1)*%
X130104250Y-106149000D02*
X129897000Y-106356250D01*
X130104250Y-105199000D02*
X130104250Y-106149000D01*
X130267750Y-105035500D02*
X130104250Y-105199000D01*
X130267750Y-103187500D02*
X130267750Y-105035500D01*
X129897000Y-106356250D02*
X127787500Y-106356250D01*
X127787500Y-106356250D02*
X123175000Y-106356250D01*
X127992000Y-106356250D02*
X127787500Y-106356250D01*
D28*
%TO.N,+5V*%
X113706000Y-103156250D02*
X111775000Y-103156250D01*
X114275000Y-102587250D02*
X113706000Y-103156250D01*
X114275000Y-101456250D02*
X114275000Y-102587250D01*
X120675000Y-111725250D02*
X120675000Y-112856250D01*
X120106000Y-111156250D02*
X120675000Y-111725250D01*
X120444000Y-104756250D02*
X123175000Y-104756250D01*
X118275000Y-102587250D02*
X120444000Y-104756250D01*
X118275000Y-101456250D02*
X118275000Y-102587250D01*
X114493500Y-102587250D02*
X114712750Y-102806500D01*
X114275000Y-102587250D02*
X114493500Y-102587250D01*
X110996000Y-111156250D02*
X109759750Y-112392500D01*
X111775000Y-111156250D02*
X110996000Y-111156250D01*
X110932500Y-103156250D02*
X109632750Y-101856500D01*
X111775000Y-103156250D02*
X110932500Y-103156250D01*
X120675000Y-114925750D02*
X120874750Y-115125500D01*
X120675000Y-112856250D02*
X120675000Y-114925750D01*
X118621250Y-102933500D02*
X119538750Y-102933500D01*
X118275000Y-102587250D02*
X118621250Y-102933500D01*
X114680500Y-111156250D02*
X120106000Y-111156250D01*
X111775000Y-111156250D02*
X114680500Y-111156250D01*
X118275000Y-97273250D02*
X118275000Y-101456250D01*
X118456750Y-97091500D02*
X118275000Y-97273250D01*
X125994500Y-104756250D02*
X123175000Y-104756250D01*
X126269750Y-104481000D02*
X125994500Y-104756250D01*
X34036000Y-39500000D02*
X34036000Y-39497000D01*
X34854999Y-39500000D02*
X36830000Y-41475001D01*
X34036000Y-39500000D02*
X34854999Y-39500000D01*
D29*
%TO.N,Net-(C7-Pad1)*%
X117475000Y-96041250D02*
X117475000Y-101456250D01*
X118456750Y-95059500D02*
X117475000Y-96041250D01*
%TO.N,Net-(D1-Pad2)*%
X27495500Y-41148000D02*
X26987500Y-41656000D01*
X27495500Y-38417500D02*
X27495500Y-41148000D01*
%TO.N,row0*%
X48349999Y-42200001D02*
X49275000Y-41275000D01*
X30831501Y-42200001D02*
X48349999Y-42200001D01*
X30287500Y-41656000D02*
X30831501Y-42200001D01*
X74012501Y-40349999D02*
X79375000Y-34987500D01*
X50200001Y-40349999D02*
X74012501Y-40349999D01*
X49275000Y-41275000D02*
X50200001Y-40349999D01*
X81087500Y-34987500D02*
X87375000Y-41275000D01*
X79375000Y-34987500D02*
X81087500Y-34987500D01*
X105499999Y-42200001D02*
X106425000Y-41275000D01*
X87375000Y-41275000D02*
X88300001Y-42200001D01*
X130237500Y-41275000D02*
X136525000Y-34987500D01*
X106425000Y-41275000D02*
X130237500Y-41275000D01*
X154906099Y-35656401D02*
X155575000Y-34987500D01*
X137193901Y-35656401D02*
X154906099Y-35656401D01*
X136525000Y-34987500D02*
X137193901Y-35656401D01*
X155575000Y-34987500D02*
X155575000Y-35052000D01*
X173956099Y-35656401D02*
X174625000Y-34987500D01*
X156179401Y-35656401D02*
X173956099Y-35656401D01*
X155575000Y-35052000D02*
X156179401Y-35656401D01*
X174625000Y-34987500D02*
X174625000Y-35179000D01*
X175102401Y-35656401D02*
X193006099Y-35656401D01*
X193006099Y-35656401D02*
X193675000Y-34987500D01*
X174625000Y-35179000D02*
X175102401Y-35656401D01*
X212025500Y-35687000D02*
X212725000Y-34987500D01*
X194183000Y-35687000D02*
X212025500Y-35687000D01*
X193675000Y-35179000D02*
X194183000Y-35687000D01*
X193675000Y-34987500D02*
X193675000Y-35179000D01*
X231106099Y-35656401D02*
X231775000Y-34987500D01*
X213393901Y-35656401D02*
X231106099Y-35656401D01*
X212725000Y-34987500D02*
X213393901Y-35656401D01*
X250156099Y-35656401D02*
X250825000Y-34987500D01*
X232443901Y-35656401D02*
X250156099Y-35656401D01*
X231775000Y-34987500D02*
X232443901Y-35656401D01*
X269206099Y-35656401D02*
X269875000Y-34987500D01*
X251493901Y-35656401D02*
X269206099Y-35656401D01*
X250825000Y-34987500D02*
X251493901Y-35656401D01*
X297781099Y-35656401D02*
X298450000Y-34987500D01*
X270543901Y-35656401D02*
X297781099Y-35656401D01*
X269875000Y-34987500D02*
X270543901Y-35656401D01*
X99277999Y-43343001D02*
X99187000Y-43434000D01*
X99277999Y-42200001D02*
X99277999Y-43343001D01*
X88300001Y-42200001D02*
X99277999Y-42200001D01*
X99277999Y-42200001D02*
X105499999Y-42200001D01*
X106426000Y-99060000D02*
X112141000Y-99060000D01*
X105791000Y-98425000D02*
X106426000Y-99060000D01*
X113458250Y-101473000D02*
X113475000Y-101456250D01*
X112141000Y-101473000D02*
X113458250Y-101473000D01*
%TO.N,Net-(D2-Pad2)*%
X45625349Y-54324651D02*
X44450000Y-55500000D01*
X45625349Y-48990849D02*
X45625349Y-54324651D01*
X43942000Y-47307500D02*
X45625349Y-48990849D01*
%TO.N,row1*%
X50800000Y-58800000D02*
X53181250Y-61181250D01*
X44450000Y-58800000D02*
X50800000Y-58800000D01*
X81756250Y-61181250D02*
X88900000Y-54037500D01*
X53181250Y-61181250D02*
X81756250Y-61181250D01*
X107281099Y-54706401D02*
X107950000Y-54037500D01*
X89568901Y-54706401D02*
X107281099Y-54706401D01*
X88900000Y-54037500D02*
X89568901Y-54706401D01*
X107950000Y-54037500D02*
X107950000Y-54483000D01*
X108173401Y-54706401D02*
X126331099Y-54706401D01*
X107950000Y-54483000D02*
X108173401Y-54706401D01*
X146174849Y-54706401D02*
X146843750Y-54037500D01*
X127668901Y-54706401D02*
X146174849Y-54706401D01*
X127000000Y-54037500D02*
X127668901Y-54706401D01*
X146843750Y-54037500D02*
X146843750Y-54133750D01*
X164431099Y-54706401D02*
X165100000Y-54037500D01*
X147416401Y-54706401D02*
X164431099Y-54706401D01*
X146843750Y-54133750D02*
X147416401Y-54706401D01*
X165100000Y-54037500D02*
X165100000Y-54102000D01*
X183481099Y-54706401D02*
X184150000Y-54037500D01*
X165704401Y-54706401D02*
X183481099Y-54706401D01*
X165100000Y-54102000D02*
X165704401Y-54706401D01*
X184150000Y-54037500D02*
X184150000Y-54483000D01*
X202531099Y-54706401D02*
X203200000Y-54037500D01*
X184373401Y-54706401D02*
X202531099Y-54706401D01*
X184150000Y-54483000D02*
X184373401Y-54706401D01*
X203200000Y-54037500D02*
X203389500Y-54037500D01*
X221581099Y-54706401D02*
X222250000Y-54037500D01*
X204058401Y-54706401D02*
X221581099Y-54706401D01*
X203389500Y-54037500D02*
X204058401Y-54706401D01*
X240631099Y-54706401D02*
X241300000Y-54037500D01*
X222918901Y-54706401D02*
X240631099Y-54706401D01*
X222250000Y-54037500D02*
X222918901Y-54706401D01*
X241300000Y-54037500D02*
X241300000Y-54229000D01*
X241777401Y-54706401D02*
X259681099Y-54706401D01*
X259681099Y-54706401D02*
X260350000Y-54037500D01*
X241300000Y-54229000D02*
X241777401Y-54706401D01*
X278731099Y-54706401D02*
X279400000Y-54037500D01*
X260827401Y-54706401D02*
X278731099Y-54706401D01*
X260350000Y-54229000D02*
X260827401Y-54706401D01*
X260350000Y-54037500D02*
X260350000Y-54229000D01*
X279400000Y-55625000D02*
X284956250Y-61181250D01*
X279400000Y-54037500D02*
X279400000Y-55625000D01*
X127000000Y-54037500D02*
X126713750Y-54323750D01*
X126331099Y-54706401D02*
X126713750Y-54323750D01*
X120650000Y-101431250D02*
X120675000Y-101456250D01*
X120650000Y-100106248D02*
X120650000Y-101431250D01*
%TO.N,Net-(D3-Pad2)*%
X46323250Y-67692000D02*
X48418750Y-69787500D01*
X46323250Y-66357500D02*
X46323250Y-67692000D01*
%TO.N,row2*%
X73943599Y-73756401D02*
X74612500Y-73087500D01*
X49087651Y-73756401D02*
X73943599Y-73756401D01*
X48418750Y-73087500D02*
X49087651Y-73756401D01*
X76325000Y-73087500D02*
X82612500Y-79375000D01*
X74612500Y-73087500D02*
X76325000Y-73087500D01*
X100737499Y-80300001D02*
X101662500Y-79375000D01*
X83537501Y-80300001D02*
X100737499Y-80300001D01*
X82612500Y-79375000D02*
X83537501Y-80300001D01*
X125475000Y-79375000D02*
X131762500Y-73087500D01*
X101662500Y-79375000D02*
X125475000Y-79375000D01*
X150143599Y-73756401D02*
X150812500Y-73087500D01*
X132431401Y-73756401D02*
X150143599Y-73756401D01*
X131762500Y-73087500D02*
X132431401Y-73756401D01*
X150812500Y-73087500D02*
X150812500Y-73088500D01*
X169193599Y-73756401D02*
X169862500Y-73087500D01*
X151480401Y-73756401D02*
X169193599Y-73756401D01*
X150812500Y-73088500D02*
X151480401Y-73756401D01*
X188243599Y-73756401D02*
X188912500Y-73087500D01*
X170531401Y-73756401D02*
X188243599Y-73756401D01*
X169862500Y-73087500D02*
X170531401Y-73756401D01*
X207293599Y-73756401D02*
X207962500Y-73087500D01*
X189581401Y-73756401D02*
X207293599Y-73756401D01*
X188912500Y-73087500D02*
X189581401Y-73756401D01*
X226343599Y-73756401D02*
X227012500Y-73087500D01*
X208631401Y-73756401D02*
X226343599Y-73756401D01*
X207962500Y-73087500D02*
X208631401Y-73756401D01*
X245393599Y-73756401D02*
X246062500Y-73087500D01*
X227681401Y-73756401D02*
X245393599Y-73756401D01*
X227012500Y-73087500D02*
X227681401Y-73756401D01*
X264443599Y-73756401D02*
X265112500Y-73087500D01*
X246731401Y-73756401D02*
X264443599Y-73756401D01*
X246062500Y-73087500D02*
X246731401Y-73756401D01*
X295399849Y-73756401D02*
X296068750Y-73087500D01*
X265781401Y-73756401D02*
X295399849Y-73756401D01*
X265112500Y-73087500D02*
X265781401Y-73756401D01*
X111743250Y-107188000D02*
X111775000Y-107156250D01*
X109855000Y-107188000D02*
X111743250Y-107188000D01*
%TO.N,Net-(D4-Pad2)*%
X51085750Y-86742000D02*
X53181250Y-88837500D01*
X51085750Y-85407500D02*
X51085750Y-86742000D01*
%TO.N,row3*%
X83468599Y-92806401D02*
X84137500Y-92137500D01*
X53850151Y-92806401D02*
X83468599Y-92806401D01*
X53181250Y-92137500D02*
X53850151Y-92806401D01*
X102518599Y-92806401D02*
X103187500Y-92137500D01*
X84806401Y-92806401D02*
X102518599Y-92806401D01*
X84137500Y-92137500D02*
X84806401Y-92806401D01*
X121568599Y-92806401D02*
X122237500Y-92137500D01*
X113186927Y-92806401D02*
X121568599Y-92806401D01*
X112518026Y-92137500D02*
X113186927Y-92806401D01*
X103187500Y-92137500D02*
X112518026Y-92137500D01*
X140618599Y-92806401D02*
X141287500Y-92137500D01*
X122906401Y-92806401D02*
X140618599Y-92806401D01*
X122237500Y-92137500D02*
X122906401Y-92806401D01*
X141287500Y-92137500D02*
X141287500Y-92646500D01*
X159668599Y-92806401D02*
X160337500Y-92137500D01*
X141447401Y-92806401D02*
X159668599Y-92806401D01*
X141287500Y-92646500D02*
X141447401Y-92806401D01*
X160337500Y-92137500D02*
X160337500Y-92392500D01*
X178718599Y-92806401D02*
X179387500Y-92137500D01*
X160751401Y-92806401D02*
X178718599Y-92806401D01*
X160337500Y-92392500D02*
X160751401Y-92806401D01*
X179387500Y-92137500D02*
X179387500Y-92519500D01*
X197768599Y-92806401D02*
X198437500Y-92137500D01*
X179674401Y-92806401D02*
X197768599Y-92806401D01*
X179387500Y-92519500D02*
X179674401Y-92806401D01*
X216818599Y-92806401D02*
X217487500Y-92137500D01*
X199106401Y-92806401D02*
X216818599Y-92806401D01*
X198437500Y-92137500D02*
X199106401Y-92806401D01*
X235868599Y-92806401D02*
X236537500Y-92137500D01*
X218156401Y-92806401D02*
X235868599Y-92806401D01*
X217487500Y-92137500D02*
X218156401Y-92806401D01*
X254918599Y-92806401D02*
X255587500Y-92137500D01*
X237206401Y-92806401D02*
X254918599Y-92806401D01*
X236537500Y-92137500D02*
X237206401Y-92806401D01*
X255587500Y-92137500D02*
X255587500Y-92392500D01*
X290637349Y-92806401D02*
X291306250Y-92137500D01*
X256001401Y-92806401D02*
X290637349Y-92806401D01*
X255587500Y-92392500D02*
X256001401Y-92806401D01*
X122174000Y-100203000D02*
X121995751Y-100381249D01*
X121995751Y-100381249D02*
X121539000Y-100381249D01*
X121539000Y-101392250D02*
X121475000Y-101456250D01*
X121539000Y-100381249D02*
X121539000Y-101392250D01*
%TO.N,Net-(D5-Pad2)*%
X41560750Y-105792000D02*
X43656250Y-107887500D01*
X41560750Y-104457500D02*
X41560750Y-105792000D01*
%TO.N,row4*%
X66799849Y-111856401D02*
X67468750Y-111187500D01*
X44325151Y-111856401D02*
X66799849Y-111856401D01*
X43656250Y-111187500D02*
X44325151Y-111856401D01*
X67468750Y-111187500D02*
X67468750Y-111410750D01*
X90612349Y-111856401D02*
X91281250Y-111187500D01*
X67914401Y-111856401D02*
X90612349Y-111856401D01*
X67468750Y-111410750D02*
X67914401Y-111856401D01*
X156431250Y-117475000D02*
X162718750Y-111187500D01*
X101608324Y-111187500D02*
X107895824Y-117475000D01*
X91281250Y-111187500D02*
X101608324Y-111187500D01*
X162718750Y-111187500D02*
X162718750Y-111918750D01*
X165893750Y-115093750D02*
X215043750Y-115093750D01*
X162718750Y-111918750D02*
X165893750Y-115093750D01*
X252713749Y-116442501D02*
X257968750Y-111187500D01*
X216392501Y-116442501D02*
X252713749Y-116442501D01*
X215043750Y-115093750D02*
X216392501Y-116442501D01*
X257968750Y-111187500D02*
X258031250Y-111187500D01*
X281112349Y-111856401D02*
X281781250Y-111187500D01*
X258700151Y-111856401D02*
X281112349Y-111856401D01*
X258031250Y-111187500D02*
X258700151Y-111856401D01*
X304924849Y-111856401D02*
X305593750Y-111187500D01*
X282450151Y-111856401D02*
X304924849Y-111856401D01*
X281781250Y-111187500D02*
X282450151Y-111856401D01*
X107895824Y-117475000D02*
X114173000Y-117475000D01*
X114173000Y-117475000D02*
X156431250Y-117475000D01*
X114275000Y-113894000D02*
X114275000Y-112856250D01*
X114300000Y-113919000D02*
X114275000Y-113894000D01*
X114300000Y-116356580D02*
X114300000Y-113919000D01*
X114173000Y-116483580D02*
X114300000Y-116356580D01*
X114173000Y-117475000D02*
X114173000Y-116483580D01*
%TO.N,Net-(D6-Pad2)*%
X46545500Y-40704500D02*
X45975000Y-41275000D01*
X46545500Y-38417500D02*
X46545500Y-40704500D01*
%TO.N,Net-(D7-Pad2)*%
X53595000Y-57467500D02*
X53181250Y-57881250D01*
X56070500Y-57467500D02*
X53595000Y-57467500D01*
%TO.N,Net-(D8-Pad2)*%
X72517000Y-67692000D02*
X74612500Y-69787500D01*
X72517000Y-66357500D02*
X72517000Y-67692000D01*
%TO.N,Net-(D9-Pad2)*%
X65373250Y-105792000D02*
X67468750Y-107887500D01*
X65373250Y-104457500D02*
X65373250Y-105792000D01*
%TO.N,Net-(D10-Pad2)*%
X77279500Y-29592000D02*
X79375000Y-31687500D01*
X77279500Y-28257500D02*
X77279500Y-29592000D01*
%TO.N,Net-(D11-Pad2)*%
X86804500Y-48642000D02*
X88900000Y-50737500D01*
X86804500Y-47307500D02*
X86804500Y-48642000D01*
%TO.N,Net-(D12-Pad2)*%
X83505474Y-77089000D02*
X82296000Y-77089000D01*
X88043901Y-72550573D02*
X83505474Y-77089000D01*
X88043901Y-69880599D02*
X88043901Y-72550573D01*
X91567000Y-66357500D02*
X88043901Y-69880599D01*
X78486000Y-78548500D02*
X79312500Y-79375000D01*
X78486000Y-78232000D02*
X78486000Y-78548500D01*
%TO.N,Net-(D13-Pad2)*%
X82042000Y-86742000D02*
X84137500Y-88837500D01*
X82042000Y-85407500D02*
X82042000Y-86742000D01*
%TO.N,Net-(D14-Pad2)*%
X89185750Y-105792000D02*
X91281250Y-107887500D01*
X89185750Y-104457500D02*
X89185750Y-105792000D01*
%TO.N,Net-(D15-Pad2)*%
X84075000Y-39625000D02*
X84074000Y-39624000D01*
X84075000Y-41275000D02*
X84075000Y-39625000D01*
X96520000Y-28448000D02*
X96329500Y-28257500D01*
X96520000Y-30861000D02*
X96520000Y-28448000D01*
%TO.N,Net-(D16-Pad2)*%
X105854500Y-48642000D02*
X107950000Y-50737500D01*
X105854500Y-47307500D02*
X105854500Y-48642000D01*
%TO.N,Net-(D17-Pad2)*%
X98362500Y-74546002D02*
X98362500Y-79375000D01*
X104726001Y-68182501D02*
X98362500Y-74546002D01*
X108791999Y-68182501D02*
X104726001Y-68182501D01*
X110617000Y-66357500D02*
X108791999Y-68182501D01*
%TO.N,Net-(D18-Pad2)*%
X101092000Y-86742000D02*
X103187500Y-88837500D01*
X101092000Y-85407500D02*
X101092000Y-86742000D01*
%TO.N,Net-(D19-Pad2)*%
X115379500Y-30670500D02*
X115316000Y-30734000D01*
X115379500Y-28257500D02*
X115379500Y-30670500D01*
X103124000Y-41274000D02*
X103125000Y-41275000D01*
X103124000Y-39624000D02*
X103124000Y-41274000D01*
%TO.N,Net-(D20-Pad2)*%
X124904500Y-48642000D02*
X127000000Y-50737500D01*
X124904500Y-47307500D02*
X124904500Y-48642000D01*
%TO.N,Net-(D21-Pad2)*%
X129667000Y-67692000D02*
X131762500Y-69787500D01*
X129667000Y-66357500D02*
X129667000Y-67692000D01*
%TO.N,Net-(D22-Pad2)*%
X120142000Y-86742000D02*
X122237500Y-88837500D01*
X120142000Y-85407500D02*
X120142000Y-86742000D01*
%TO.N,Net-(D23-Pad2)*%
X134429500Y-29592000D02*
X136525000Y-31687500D01*
X134429500Y-28257500D02*
X134429500Y-29592000D01*
%TO.N,Net-(D24-Pad2)*%
X143954500Y-47848250D02*
X146843750Y-50737500D01*
X143954500Y-47307500D02*
X143954500Y-47848250D01*
%TO.N,Net-(D25-Pad2)*%
X148717000Y-67692000D02*
X150812500Y-69787500D01*
X148717000Y-66357500D02*
X148717000Y-67692000D01*
%TO.N,Net-(D26-Pad2)*%
X139192000Y-86742000D02*
X141287500Y-88837500D01*
X139192000Y-85407500D02*
X139192000Y-86742000D01*
%TO.N,Net-(D27-Pad2)*%
X153479500Y-29592000D02*
X155575000Y-31687500D01*
X153479500Y-28257500D02*
X153479500Y-29592000D01*
%TO.N,Net-(D28-Pad2)*%
X163004500Y-48642000D02*
X165100000Y-50737500D01*
X163004500Y-47307500D02*
X163004500Y-48642000D01*
%TO.N,Net-(D29-Pad2)*%
X167767000Y-67692000D02*
X169862500Y-69787500D01*
X167767000Y-66357500D02*
X167767000Y-67692000D01*
%TO.N,Net-(D30-Pad2)*%
X158242000Y-86742000D02*
X160337500Y-88837500D01*
X158242000Y-85407500D02*
X158242000Y-86742000D01*
%TO.N,Net-(D31-Pad2)*%
X160623250Y-105792000D02*
X162718750Y-107887500D01*
X160623250Y-104457500D02*
X160623250Y-105792000D01*
%TO.N,Net-(D32-Pad2)*%
X172529500Y-29592000D02*
X174625000Y-31687500D01*
X172529500Y-28257500D02*
X172529500Y-29592000D01*
%TO.N,Net-(D33-Pad2)*%
X182054500Y-48642000D02*
X184150000Y-50737500D01*
X182054500Y-47307500D02*
X182054500Y-48642000D01*
%TO.N,Net-(D34-Pad2)*%
X186817000Y-67692000D02*
X188912500Y-69787500D01*
X186817000Y-66357500D02*
X186817000Y-67692000D01*
%TO.N,Net-(D35-Pad2)*%
X177292000Y-86742000D02*
X179387500Y-88837500D01*
X177292000Y-85407500D02*
X177292000Y-86742000D01*
%TO.N,Net-(D36-Pad2)*%
X191579500Y-29592000D02*
X193675000Y-31687500D01*
X191579500Y-28257500D02*
X191579500Y-29592000D01*
%TO.N,Net-(D37-Pad2)*%
X201104500Y-48642000D02*
X203200000Y-50737500D01*
X201104500Y-47307500D02*
X201104500Y-48642000D01*
%TO.N,Net-(D38-Pad2)*%
X205867000Y-67692000D02*
X207962500Y-69787500D01*
X205867000Y-66357500D02*
X205867000Y-67692000D01*
%TO.N,Net-(D39-Pad2)*%
X196342000Y-86742000D02*
X198437500Y-88837500D01*
X196342000Y-85407500D02*
X196342000Y-86742000D01*
%TO.N,Net-(D40-Pad2)*%
X210629500Y-29592000D02*
X212725000Y-31687500D01*
X210629500Y-28257500D02*
X210629500Y-29592000D01*
%TO.N,Net-(D41-Pad2)*%
X220154500Y-48642000D02*
X222250000Y-50737500D01*
X220154500Y-47307500D02*
X220154500Y-48642000D01*
%TO.N,Net-(D42-Pad2)*%
X224917000Y-67692000D02*
X227012500Y-69787500D01*
X224917000Y-66357500D02*
X224917000Y-67692000D01*
%TO.N,Net-(D43-Pad2)*%
X215392000Y-86742000D02*
X217487500Y-88837500D01*
X215392000Y-85407500D02*
X215392000Y-86742000D01*
%TO.N,Net-(D44-Pad2)*%
X229679500Y-29592000D02*
X231775000Y-31687500D01*
X229679500Y-28257500D02*
X229679500Y-29592000D01*
%TO.N,Net-(D45-Pad2)*%
X239204500Y-48642000D02*
X241300000Y-50737500D01*
X239204500Y-47307500D02*
X239204500Y-48642000D01*
%TO.N,Net-(D46-Pad2)*%
X243967000Y-67692000D02*
X246062500Y-69787500D01*
X243967000Y-66357500D02*
X243967000Y-67692000D01*
%TO.N,Net-(D47-Pad2)*%
X234442000Y-86742000D02*
X236537500Y-88837500D01*
X234442000Y-85407500D02*
X234442000Y-86742000D01*
%TO.N,Net-(D48-Pad2)*%
X219900500Y-115093750D02*
X220376750Y-114617500D01*
X218343750Y-115093750D02*
X219900500Y-115093750D01*
%TO.N,Net-(D49-Pad2)*%
X248729500Y-29592000D02*
X250825000Y-31687500D01*
X248729500Y-28257500D02*
X248729500Y-29592000D01*
%TO.N,Net-(D50-Pad2)*%
X258254500Y-48642000D02*
X260350000Y-50737500D01*
X258254500Y-47307500D02*
X258254500Y-48642000D01*
%TO.N,Net-(D51-Pad2)*%
X263017000Y-67692000D02*
X265112500Y-69787500D01*
X263017000Y-66357500D02*
X263017000Y-67692000D01*
%TO.N,Net-(D52-Pad2)*%
X253492000Y-86742000D02*
X255587500Y-88837500D01*
X253492000Y-85407500D02*
X253492000Y-86742000D01*
%TO.N,Net-(D53-Pad2)*%
X255873250Y-105792000D02*
X257968750Y-107887500D01*
X255873250Y-104457500D02*
X255873250Y-105792000D01*
%TO.N,Net-(D54-Pad2)*%
X267779500Y-29592000D02*
X269875000Y-31687500D01*
X267779500Y-28257500D02*
X267779500Y-29592000D01*
%TO.N,Net-(D55-Pad2)*%
X277304500Y-48642000D02*
X279400000Y-50737500D01*
X277304500Y-47307500D02*
X277304500Y-48642000D01*
%TO.N,Net-(D56-Pad2)*%
X279685750Y-105792000D02*
X281781250Y-107887500D01*
X279685750Y-104457500D02*
X279685750Y-105792000D01*
%TO.N,Net-(D57-Pad2)*%
X296354500Y-29592000D02*
X298450000Y-31687500D01*
X296354500Y-28257500D02*
X296354500Y-29592000D01*
%TO.N,Net-(D58-Pad2)*%
X289019250Y-57881250D02*
X289433000Y-57467500D01*
X284956250Y-57881250D02*
X289019250Y-57881250D01*
%TO.N,Net-(D59-Pad2)*%
X293973250Y-67692000D02*
X296068750Y-69787500D01*
X293973250Y-66357500D02*
X293973250Y-67692000D01*
%TO.N,Net-(D60-Pad2)*%
X289210750Y-86742000D02*
X291306250Y-88837500D01*
X289210750Y-85407500D02*
X289210750Y-86742000D01*
%TO.N,Net-(D61-Pad2)*%
X303498250Y-105792000D02*
X305593750Y-107887500D01*
X303498250Y-104457500D02*
X303498250Y-105792000D01*
D28*
%TO.N,VCC*%
X42164000Y-32589001D02*
X42213999Y-32639000D01*
X42164000Y-31813500D02*
X42164000Y-32589001D01*
X40005000Y-29957000D02*
X39968000Y-29920000D01*
X40005000Y-31242000D02*
X40005000Y-29957000D01*
X40127499Y-29760501D02*
X39968000Y-29920000D01*
X40127499Y-28882599D02*
X40127499Y-29760501D01*
X40655609Y-28354489D02*
X40127499Y-28882599D01*
X44180391Y-28354489D02*
X40655609Y-28354489D01*
X44708501Y-28882599D02*
X44180391Y-28354489D01*
X44708501Y-29872501D02*
X44708501Y-28882599D01*
X44756000Y-29920000D02*
X44708501Y-29872501D01*
X44868000Y-29920000D02*
X44756000Y-29920000D01*
X44868000Y-30189000D02*
X44708501Y-30348499D01*
X44868000Y-29920000D02*
X44868000Y-30189000D01*
X35031161Y-35704839D02*
X34036000Y-36700000D01*
X35031161Y-35302147D02*
X35031161Y-35704839D01*
D29*
%TO.N,col0*%
X40422500Y-36666500D02*
X38989000Y-38100000D01*
X40422500Y-35877500D02*
X40422500Y-36666500D01*
X30988000Y-49820500D02*
X31015000Y-49847500D01*
X30988000Y-47879000D02*
X30988000Y-49820500D01*
X31015000Y-66516250D02*
X33396250Y-68897500D01*
X31015000Y-49847500D02*
X31015000Y-66516250D01*
X38158750Y-85618978D02*
X38158750Y-87947500D01*
X33396250Y-80856478D02*
X38158750Y-85618978D01*
X33396250Y-68897500D02*
X33396250Y-80856478D01*
X28633750Y-106846474D02*
X28633750Y-106997500D01*
X38158750Y-97321474D02*
X28633750Y-106846474D01*
X38158750Y-87947500D02*
X38158750Y-97321474D01*
X33625248Y-114300000D02*
X103505000Y-114300000D01*
X28633750Y-109308502D02*
X33625248Y-114300000D01*
X28633750Y-106997500D02*
X28633750Y-109308502D01*
X113098496Y-115896510D02*
X113478268Y-116276282D01*
X107387510Y-115896510D02*
X113098496Y-115896510D01*
X105791000Y-114300000D02*
X107387510Y-115896510D01*
X115025000Y-112906250D02*
X115075000Y-112856250D01*
X115025000Y-116332000D02*
X115025000Y-112906250D01*
%TO.N,col1*%
X59472500Y-37501500D02*
X59944000Y-37973000D01*
X59472500Y-35877500D02*
X59472500Y-37501500D01*
X69088000Y-54837000D02*
X68997500Y-54927500D01*
X69088000Y-52705000D02*
X69088000Y-54837000D01*
X64108000Y-59817000D02*
X61849000Y-59817000D01*
X68997500Y-54927500D02*
X64108000Y-59817000D01*
X59563000Y-68870500D02*
X59590000Y-68897500D01*
X59563000Y-67056000D02*
X59563000Y-68870500D01*
X59590000Y-70204000D02*
X58801000Y-70993000D01*
X59590000Y-68897500D02*
X59590000Y-70204000D01*
X52451000Y-106992750D02*
X52446250Y-106997500D01*
X52451000Y-104648000D02*
X52451000Y-106992750D01*
X52451000Y-102198000D02*
X101690328Y-102198000D01*
X101690328Y-104611328D02*
X101727000Y-104648000D01*
X101690328Y-102198000D02*
X101690328Y-104611328D01*
X111648821Y-108082429D02*
X111775000Y-107956250D01*
X110302214Y-108082429D02*
X111648821Y-108082429D01*
%TO.N,col2*%
X74104500Y-106997500D02*
X74041000Y-107061000D01*
X76258750Y-106997500D02*
X74104500Y-106997500D01*
X111730250Y-109601000D02*
X111775000Y-109556250D01*
X91359748Y-109601000D02*
X111730250Y-109601000D01*
X87062747Y-108337499D02*
X90096247Y-108337499D01*
X83897747Y-105172499D02*
X87062747Y-108337499D01*
X78083751Y-105172499D02*
X83897747Y-105172499D01*
X90096247Y-108337499D02*
X91359748Y-109601000D01*
X76258750Y-106997500D02*
X78083751Y-105172499D01*
%TO.N,col3*%
X88165000Y-87984000D02*
X88138000Y-88011000D01*
X88165000Y-87947500D02*
X88165000Y-87984000D01*
X111755750Y-105537000D02*
X111775000Y-105556250D01*
X93800000Y-105537000D02*
X111755750Y-105537000D01*
X91186000Y-102923000D02*
X93800000Y-105537000D01*
%TO.N,col4*%
X102552500Y-30797500D02*
X102616000Y-30861000D01*
X102452500Y-30797500D02*
X102552500Y-30797500D01*
X111680750Y-106262000D02*
X111775000Y-106356250D01*
X107188000Y-106262000D02*
X111680750Y-106262000D01*
%TO.N,col5*%
X121602500Y-30797500D02*
X121666000Y-30861000D01*
X121502500Y-30797500D02*
X121602500Y-30797500D01*
X123219250Y-108712000D02*
X123175000Y-108756250D01*
X124841000Y-108712000D02*
X123219250Y-108712000D01*
%TO.N,col6*%
X147696250Y-107065750D02*
X147574000Y-107188000D01*
X147696250Y-106997500D02*
X147696250Y-107065750D01*
X123181250Y-107950000D02*
X123175000Y-107956250D01*
X126619000Y-107950000D02*
X123181250Y-107950000D01*
X127479249Y-108810249D02*
X126619000Y-107950000D01*
X127479249Y-110123689D02*
X127479249Y-108810249D01*
X144301490Y-110460510D02*
X127816070Y-110460510D01*
X127816070Y-110460510D02*
X127479249Y-110123689D01*
X147574000Y-107188000D02*
X144301490Y-110460510D01*
%TO.N,col7*%
X159602500Y-30824500D02*
X159639000Y-30861000D01*
X159602500Y-30797500D02*
X159602500Y-30824500D01*
X123219750Y-109601000D02*
X123175000Y-109556250D01*
X126238000Y-109601000D02*
X123219750Y-109601000D01*
X128493401Y-111856401D02*
X126238000Y-109601000D01*
X160384851Y-111856401D02*
X128493401Y-111856401D01*
X164338000Y-107903252D02*
X160384851Y-111856401D01*
X164338000Y-100076000D02*
X164338000Y-107903252D01*
%TO.N,col8*%
X178625500Y-30797500D02*
X178562000Y-30734000D01*
X178652500Y-30797500D02*
X178625500Y-30797500D01*
X147701000Y-93726000D02*
X131826000Y-109601000D01*
X183388000Y-93726000D02*
X147701000Y-93726000D01*
X123233750Y-111215000D02*
X123175000Y-111156250D01*
X124841000Y-111215000D02*
X123233750Y-111215000D01*
%TO.N,col9*%
X197702500Y-30824500D02*
X197739000Y-30861000D01*
X197702500Y-30797500D02*
X197702500Y-30824500D01*
X184091153Y-112199847D02*
X164025153Y-112199847D01*
X202438000Y-93853000D02*
X184091153Y-112199847D01*
X123308750Y-110490000D02*
X123175000Y-110356250D01*
X126238000Y-110490000D02*
X123308750Y-110490000D01*
X131923510Y-116175510D02*
X126238000Y-110490000D01*
X156620490Y-116175510D02*
X131923510Y-116175510D01*
X160147000Y-112649000D02*
X156620490Y-116175510D01*
%TO.N,col10*%
X216725500Y-30797500D02*
X216662000Y-30734000D01*
X216752500Y-30797500D02*
X216725500Y-30797500D01*
X215894180Y-113792000D02*
X165862000Y-113792000D01*
X217608680Y-112077500D02*
X215894180Y-113792000D01*
X229152749Y-113902501D02*
X227327748Y-112077500D01*
X231478749Y-113902501D02*
X229152749Y-113902501D01*
X227327748Y-112077500D02*
X217608680Y-112077500D01*
X233303750Y-112077500D02*
X231478749Y-113902501D01*
X130565306Y-113792000D02*
X130497153Y-113723847D01*
X157607000Y-113792000D02*
X130565306Y-113792000D01*
X120015000Y-116332000D02*
X120015000Y-114058251D01*
X119875000Y-113918251D02*
X120015000Y-114058251D01*
X119875000Y-112856250D02*
X119875000Y-113918251D01*
%TO.N,col11*%
X242946250Y-107056250D02*
X242951000Y-107061000D01*
X242946250Y-106997500D02*
X242946250Y-107056250D01*
X192824879Y-105448879D02*
X192659000Y-105283000D01*
X241338879Y-105448879D02*
X192824879Y-105448879D01*
X242951000Y-107061000D02*
X241338879Y-105448879D01*
X165735000Y-105156000D02*
X165608000Y-105029000D01*
X189865000Y-105156000D02*
X165735000Y-105156000D01*
X141224000Y-109474000D02*
X133731000Y-109474000D01*
X146812000Y-103886000D02*
X141224000Y-109474000D01*
X119126000Y-112907250D02*
X119075000Y-112856250D01*
X119126000Y-114300000D02*
X119126000Y-112907250D01*
%TO.N,col12*%
X254852500Y-30824500D02*
X254889000Y-30861000D01*
X254852500Y-30797500D02*
X254852500Y-30824500D01*
X118237000Y-112894250D02*
X118275000Y-112856250D01*
X118237000Y-114935000D02*
X118237000Y-112894250D01*
%TO.N,col13*%
X288607500Y-106997500D02*
X288417000Y-107188000D01*
X290571250Y-106997500D02*
X288607500Y-106997500D01*
X276220250Y-87884000D02*
X276283750Y-87947500D01*
X274320000Y-87884000D02*
X276220250Y-87884000D01*
X280982750Y-68834000D02*
X281046250Y-68897500D01*
X278892000Y-68834000D02*
X280982750Y-68834000D01*
X295331249Y-61956251D02*
X302360000Y-54927500D01*
X285134749Y-61956251D02*
X295331249Y-61956251D01*
X283337000Y-63754000D02*
X285134749Y-61956251D01*
X302360000Y-52986000D02*
X302387000Y-52959000D01*
X302360000Y-54927500D02*
X302360000Y-52986000D01*
X283337000Y-30888000D02*
X283427500Y-30797500D01*
X283337000Y-33020000D02*
X283337000Y-30888000D01*
X117475000Y-114206252D02*
X117475000Y-112856250D01*
%TO.N,Net-(R1-Pad2)*%
X41168000Y-30841000D02*
X41168000Y-29920000D01*
X41038989Y-30970011D02*
X41168000Y-30841000D01*
X41038989Y-31605011D02*
X41038989Y-30970011D01*
X40676999Y-31967001D02*
X41038989Y-31605011D01*
X36388501Y-31967001D02*
X40676999Y-31967001D01*
X36322000Y-31900500D02*
X36388501Y-31967001D01*
%TO.N,Net-(R2-Pad2)*%
X47166999Y-31188499D02*
X47220500Y-31242000D01*
X44461499Y-31188499D02*
X47166999Y-31188499D01*
X44168000Y-30895000D02*
X44461499Y-31188499D01*
X44168000Y-29920000D02*
X44168000Y-30895000D01*
%TO.N,Net-(R3-Pad2)*%
X41757999Y-30970001D02*
X41668000Y-30880002D01*
X42668000Y-30895000D02*
X42592999Y-30970001D01*
X41668000Y-30880002D02*
X41668000Y-29920000D01*
X42592999Y-30970001D02*
X41757999Y-30970001D01*
X42668000Y-29920000D02*
X42668000Y-30895000D01*
X41488999Y-33038499D02*
X42164000Y-33713500D01*
X41488999Y-31239001D02*
X41488999Y-33038499D01*
X41757999Y-30970001D02*
X41488999Y-31239001D01*
X42164000Y-38180000D02*
X42037000Y-38307000D01*
X42164000Y-33713500D02*
X42164000Y-38180000D01*
%TO.N,D-*%
X41402000Y-43942000D02*
X38735000Y-43942000D01*
X115075000Y-100646248D02*
X115075000Y-101456250D01*
X114810001Y-100381249D02*
X115075000Y-100646248D01*
X104216079Y-100381249D02*
X114810001Y-100381249D01*
X103124328Y-101473000D02*
X104216079Y-100381249D01*
X47752000Y-101473000D02*
X103124328Y-101473000D01*
%TO.N,Net-(R4-Pad2)*%
X43078001Y-28869999D02*
X43168000Y-28959998D01*
X42257999Y-28869999D02*
X43078001Y-28869999D01*
X42168000Y-28959998D02*
X42257999Y-28869999D01*
X43168000Y-28959998D02*
X43168000Y-29920000D01*
X42168000Y-29920000D02*
X42168000Y-28959998D01*
X43168000Y-32717500D02*
X44164000Y-33713500D01*
X43168000Y-29920000D02*
X43168000Y-32717500D01*
X44164000Y-37981500D02*
X43815000Y-38330500D01*
X44164000Y-33713500D02*
X44164000Y-37981500D01*
%TO.N,D+*%
X104029678Y-99931240D02*
X102937928Y-101022990D01*
X115159992Y-99931240D02*
X104029678Y-99931240D01*
X115875000Y-100646248D02*
X115159992Y-99931240D01*
X115875000Y-101456250D02*
X115875000Y-100646248D01*
X56068677Y-96423599D02*
X51469286Y-101022990D01*
X58294823Y-96423599D02*
X56068677Y-96423599D01*
X62894214Y-101022990D02*
X58294823Y-96423599D01*
X102937928Y-101022990D02*
X62894214Y-101022990D01*
X48859041Y-101022990D02*
X48477000Y-100640949D01*
X51469286Y-101022990D02*
X48859041Y-101022990D01*
X42203032Y-44954654D02*
X42248689Y-45000311D01*
X38747651Y-44954654D02*
X42203032Y-44954654D01*
%TO.N,Net-(R5-Pad2)*%
X124969500Y-103956250D02*
X123175000Y-103956250D01*
X126269750Y-102656000D02*
X124969500Y-103956250D01*
X125074750Y-101461000D02*
X126269750Y-102656000D01*
X125074750Y-98433500D02*
X125074750Y-101461000D01*
%TO.N,Net-(R6-Pad2)*%
X113475000Y-112856250D02*
X113475000Y-113315250D01*
X113085250Y-113705000D02*
X113085250Y-114871500D01*
X113475000Y-113315250D02*
X113085250Y-113705000D01*
%TD*%
D30*
X177863500Y-95535750D02*
X177865940Y-95560526D01*
X177873167Y-95584351D01*
X177884903Y-95606307D01*
X177900697Y-95625553D01*
X177919943Y-95641347D01*
X177941899Y-95653083D01*
X177965724Y-95660310D01*
X177990500Y-95662750D01*
X179451000Y-95662750D01*
X179451000Y-96996250D01*
X177990500Y-96996250D01*
X177965724Y-96998690D01*
X177941899Y-97005917D01*
X177919943Y-97017653D01*
X177900697Y-97033447D01*
X177884903Y-97052693D01*
X177873167Y-97074649D01*
X177865940Y-97098474D01*
X177863500Y-97123250D01*
X177863500Y-102679500D01*
X177865940Y-102704276D01*
X177873167Y-102728101D01*
X177884903Y-102750057D01*
X177900697Y-102769303D01*
X177919943Y-102785097D01*
X177941899Y-102796833D01*
X177965724Y-102804060D01*
X177990500Y-102806500D01*
X179451000Y-102806500D01*
X179451000Y-104140000D01*
X176530000Y-104140000D01*
X176530000Y-101092000D01*
X176527560Y-101067224D01*
X176520333Y-101043399D01*
X176508597Y-101021443D01*
X176492803Y-101002197D01*
X176473557Y-100986403D01*
X176451601Y-100974667D01*
X176427776Y-100967440D01*
X176403000Y-100965000D01*
X173228000Y-100965000D01*
X173203224Y-100967440D01*
X173179399Y-100974667D01*
X173157443Y-100986403D01*
X173138197Y-101002197D01*
X173122403Y-101021443D01*
X173110667Y-101043399D01*
X173103440Y-101067224D01*
X173101000Y-101092000D01*
X173101000Y-102679500D01*
X173103440Y-102704276D01*
X173110667Y-102728101D01*
X173122403Y-102750057D01*
X173138197Y-102769303D01*
X173157443Y-102785097D01*
X173179399Y-102796833D01*
X173203224Y-102804060D01*
X173228000Y-102806500D01*
X174688500Y-102806500D01*
X174688500Y-104140000D01*
X171767500Y-104140000D01*
X171767500Y-97123250D01*
X171765060Y-97098474D01*
X171757833Y-97074649D01*
X171746097Y-97052693D01*
X171730303Y-97033447D01*
X171711057Y-97017653D01*
X171689101Y-97005917D01*
X171665276Y-96998690D01*
X171640500Y-96996250D01*
X170180000Y-96996250D01*
X170180000Y-95662750D01*
X173101000Y-95662750D01*
X173101000Y-98710750D01*
X173103440Y-98735526D01*
X173110667Y-98759351D01*
X173122403Y-98781307D01*
X173138197Y-98800553D01*
X173157443Y-98816347D01*
X173179399Y-98828083D01*
X173203224Y-98835310D01*
X173228000Y-98837750D01*
X176403000Y-98837750D01*
X176427776Y-98835310D01*
X176451601Y-98828083D01*
X176473557Y-98816347D01*
X176492803Y-98800553D01*
X176508597Y-98781307D01*
X176520333Y-98759351D01*
X176527560Y-98735526D01*
X176530000Y-98710750D01*
X176530000Y-95588356D01*
X177632356Y-94486000D01*
X177863500Y-94486000D01*
X177863500Y-95535750D01*
%TA.AperFunction,NonConductor*%
D31*
G36*
X177863500Y-95535750D02*
G01*
X177865940Y-95560526D01*
X177873167Y-95584351D01*
X177884903Y-95606307D01*
X177900697Y-95625553D01*
X177919943Y-95641347D01*
X177941899Y-95653083D01*
X177965724Y-95660310D01*
X177990500Y-95662750D01*
X179451000Y-95662750D01*
X179451000Y-96996250D01*
X177990500Y-96996250D01*
X177965724Y-96998690D01*
X177941899Y-97005917D01*
X177919943Y-97017653D01*
X177900697Y-97033447D01*
X177884903Y-97052693D01*
X177873167Y-97074649D01*
X177865940Y-97098474D01*
X177863500Y-97123250D01*
X177863500Y-102679500D01*
X177865940Y-102704276D01*
X177873167Y-102728101D01*
X177884903Y-102750057D01*
X177900697Y-102769303D01*
X177919943Y-102785097D01*
X177941899Y-102796833D01*
X177965724Y-102804060D01*
X177990500Y-102806500D01*
X179451000Y-102806500D01*
X179451000Y-104140000D01*
X176530000Y-104140000D01*
X176530000Y-101092000D01*
X176527560Y-101067224D01*
X176520333Y-101043399D01*
X176508597Y-101021443D01*
X176492803Y-101002197D01*
X176473557Y-100986403D01*
X176451601Y-100974667D01*
X176427776Y-100967440D01*
X176403000Y-100965000D01*
X173228000Y-100965000D01*
X173203224Y-100967440D01*
X173179399Y-100974667D01*
X173157443Y-100986403D01*
X173138197Y-101002197D01*
X173122403Y-101021443D01*
X173110667Y-101043399D01*
X173103440Y-101067224D01*
X173101000Y-101092000D01*
X173101000Y-102679500D01*
X173103440Y-102704276D01*
X173110667Y-102728101D01*
X173122403Y-102750057D01*
X173138197Y-102769303D01*
X173157443Y-102785097D01*
X173179399Y-102796833D01*
X173203224Y-102804060D01*
X173228000Y-102806500D01*
X174688500Y-102806500D01*
X174688500Y-104140000D01*
X171767500Y-104140000D01*
X171767500Y-97123250D01*
X171765060Y-97098474D01*
X171757833Y-97074649D01*
X171746097Y-97052693D01*
X171730303Y-97033447D01*
X171711057Y-97017653D01*
X171689101Y-97005917D01*
X171665276Y-96998690D01*
X171640500Y-96996250D01*
X170180000Y-96996250D01*
X170180000Y-95662750D01*
X173101000Y-95662750D01*
X173101000Y-98710750D01*
X173103440Y-98735526D01*
X173110667Y-98759351D01*
X173122403Y-98781307D01*
X173138197Y-98800553D01*
X173157443Y-98816347D01*
X173179399Y-98828083D01*
X173203224Y-98835310D01*
X173228000Y-98837750D01*
X176403000Y-98837750D01*
X176427776Y-98835310D01*
X176451601Y-98828083D01*
X176473557Y-98816347D01*
X176492803Y-98800553D01*
X176508597Y-98781307D01*
X176520333Y-98759351D01*
X176527560Y-98735526D01*
X176530000Y-98710750D01*
X176530000Y-95588356D01*
X177632356Y-94486000D01*
X177863500Y-94486000D01*
X177863500Y-95535750D01*
G37*
%TD.AperFunction*%
M02*
