%TF.GenerationSoftware,KiCad,Pcbnew,(5.1.10)-1*%
%TF.CreationDate,2021-07-03T15:19:39+09:00*%
%TF.ProjectId,pcb,7063622e-6b69-4636-9164-5f7063625858,rev?*%
%TF.SameCoordinates,Original*%
%TF.FileFunction,Legend,Bot*%
%TF.FilePolarity,Positive*%
%FSLAX46Y46*%
G04 Gerber Fmt 4.6, Leading zero omitted, Abs format (unit mm)*
G04 Created by KiCad (PCBNEW (5.1.10)-1) date 2021-07-03 15:19:39*
%MOMM*%
%LPD*%
G01*
G04 APERTURE LIST*
%ADD10C,0.150000*%
%ADD11C,0.120000*%
G04 APERTURE END LIST*
D10*
X188609285Y-105354380D02*
X188609285Y-104354380D01*
X188609285Y-104830571D02*
X188037857Y-104830571D01*
X188037857Y-105354380D02*
X188037857Y-104354380D01*
X187133095Y-104687714D02*
X187133095Y-105354380D01*
X187561666Y-104687714D02*
X187561666Y-105211523D01*
X187514047Y-105306761D01*
X187418809Y-105354380D01*
X187275952Y-105354380D01*
X187180714Y-105306761D01*
X187133095Y-105259142D01*
X186704523Y-105306761D02*
X186609285Y-105354380D01*
X186418809Y-105354380D01*
X186323571Y-105306761D01*
X186275952Y-105211523D01*
X186275952Y-105163904D01*
X186323571Y-105068666D01*
X186418809Y-105021047D01*
X186561666Y-105021047D01*
X186656904Y-104973428D01*
X186704523Y-104878190D01*
X186704523Y-104830571D01*
X186656904Y-104735333D01*
X186561666Y-104687714D01*
X186418809Y-104687714D01*
X186323571Y-104735333D01*
X185847380Y-105354380D02*
X185847380Y-104354380D01*
X185752142Y-104973428D02*
X185466428Y-105354380D01*
X185466428Y-104687714D02*
X185847380Y-105068666D01*
X184656904Y-105306761D02*
X184752142Y-105354380D01*
X184942619Y-105354380D01*
X185037857Y-105306761D01*
X185085476Y-105211523D01*
X185085476Y-104830571D01*
X185037857Y-104735333D01*
X184942619Y-104687714D01*
X184752142Y-104687714D01*
X184656904Y-104735333D01*
X184609285Y-104830571D01*
X184609285Y-104925809D01*
X185085476Y-105021047D01*
X184275952Y-104687714D02*
X184037857Y-105354380D01*
X183799761Y-104687714D02*
X184037857Y-105354380D01*
X184133095Y-105592476D01*
X184180714Y-105640095D01*
X184275952Y-105687714D01*
X182990238Y-104354380D02*
X183180714Y-104354380D01*
X183275952Y-104402000D01*
X183323571Y-104449619D01*
X183418809Y-104592476D01*
X183466428Y-104782952D01*
X183466428Y-105163904D01*
X183418809Y-105259142D01*
X183371190Y-105306761D01*
X183275952Y-105354380D01*
X183085476Y-105354380D01*
X182990238Y-105306761D01*
X182942619Y-105259142D01*
X182895000Y-105163904D01*
X182895000Y-104925809D01*
X182942619Y-104830571D01*
X182990238Y-104782952D01*
X183085476Y-104735333D01*
X183275952Y-104735333D01*
X183371190Y-104782952D01*
X183418809Y-104830571D01*
X183466428Y-104925809D01*
X182275952Y-104354380D02*
X182180714Y-104354380D01*
X182085476Y-104402000D01*
X182037857Y-104449619D01*
X181990238Y-104544857D01*
X181942619Y-104735333D01*
X181942619Y-104973428D01*
X181990238Y-105163904D01*
X182037857Y-105259142D01*
X182085476Y-105306761D01*
X182180714Y-105354380D01*
X182275952Y-105354380D01*
X182371190Y-105306761D01*
X182418809Y-105259142D01*
X182466428Y-105163904D01*
X182514047Y-104973428D01*
X182514047Y-104735333D01*
X182466428Y-104544857D01*
X182418809Y-104449619D01*
X182371190Y-104402000D01*
X182275952Y-104354380D01*
X180752142Y-105354380D02*
X180752142Y-104687714D01*
X180752142Y-104878190D02*
X180704523Y-104782952D01*
X180656904Y-104735333D01*
X180561666Y-104687714D01*
X180466428Y-104687714D01*
X179752142Y-105306761D02*
X179847380Y-105354380D01*
X180037857Y-105354380D01*
X180133095Y-105306761D01*
X180180714Y-105211523D01*
X180180714Y-104830571D01*
X180133095Y-104735333D01*
X180037857Y-104687714D01*
X179847380Y-104687714D01*
X179752142Y-104735333D01*
X179704523Y-104830571D01*
X179704523Y-104925809D01*
X180180714Y-105021047D01*
X179371190Y-104687714D02*
X179133095Y-105354380D01*
X178895000Y-104687714D01*
X177990238Y-105354380D02*
X178561666Y-105354380D01*
X178275952Y-105354380D02*
X178275952Y-104354380D01*
X178371190Y-104497238D01*
X178466428Y-104592476D01*
X178561666Y-104640095D01*
X177561666Y-105259142D02*
X177514047Y-105306761D01*
X177561666Y-105354380D01*
X177609285Y-105306761D01*
X177561666Y-105259142D01*
X177561666Y-105354380D01*
X176895000Y-104354380D02*
X176799761Y-104354380D01*
X176704523Y-104402000D01*
X176656904Y-104449619D01*
X176609285Y-104544857D01*
X176561666Y-104735333D01*
X176561666Y-104973428D01*
X176609285Y-105163904D01*
X176656904Y-105259142D01*
X176704523Y-105306761D01*
X176799761Y-105354380D01*
X176895000Y-105354380D01*
X176990238Y-105306761D01*
X177037857Y-105259142D01*
X177085476Y-105163904D01*
X177133095Y-104973428D01*
X177133095Y-104735333D01*
X177085476Y-104544857D01*
X177037857Y-104449619D01*
X176990238Y-104402000D01*
X176895000Y-104354380D01*
X175371190Y-105354380D02*
X175371190Y-104354380D01*
X175371190Y-104735333D02*
X175275952Y-104687714D01*
X175085476Y-104687714D01*
X174990238Y-104735333D01*
X174942619Y-104782952D01*
X174895000Y-104878190D01*
X174895000Y-105163904D01*
X174942619Y-105259142D01*
X174990238Y-105306761D01*
X175085476Y-105354380D01*
X175275952Y-105354380D01*
X175371190Y-105306761D01*
X174561666Y-104687714D02*
X174323571Y-105354380D01*
X174085476Y-104687714D02*
X174323571Y-105354380D01*
X174418809Y-105592476D01*
X174466428Y-105640095D01*
X174561666Y-105687714D01*
X172942619Y-105354380D02*
X172942619Y-104354380D01*
X172942619Y-104830571D02*
X172371190Y-104830571D01*
X172371190Y-105354380D02*
X172371190Y-104354380D01*
X171466428Y-104687714D02*
X171466428Y-105354380D01*
X171895000Y-104687714D02*
X171895000Y-105211523D01*
X171847380Y-105306761D01*
X171752142Y-105354380D01*
X171609285Y-105354380D01*
X171514047Y-105306761D01*
X171466428Y-105259142D01*
X171037857Y-105306761D02*
X170942619Y-105354380D01*
X170752142Y-105354380D01*
X170656904Y-105306761D01*
X170609285Y-105211523D01*
X170609285Y-105163904D01*
X170656904Y-105068666D01*
X170752142Y-105021047D01*
X170895000Y-105021047D01*
X170990238Y-104973428D01*
X171037857Y-104878190D01*
X171037857Y-104830571D01*
X170990238Y-104735333D01*
X170895000Y-104687714D01*
X170752142Y-104687714D01*
X170656904Y-104735333D01*
X170180714Y-105354380D02*
X170180714Y-104354380D01*
X170085476Y-104973428D02*
X169799761Y-105354380D01*
X169799761Y-104687714D02*
X170180714Y-105068666D01*
X168990238Y-105306761D02*
X169085476Y-105354380D01*
X169275952Y-105354380D01*
X169371190Y-105306761D01*
X169418809Y-105211523D01*
X169418809Y-104830571D01*
X169371190Y-104735333D01*
X169275952Y-104687714D01*
X169085476Y-104687714D01*
X168990238Y-104735333D01*
X168942619Y-104830571D01*
X168942619Y-104925809D01*
X169418809Y-105021047D01*
X168609285Y-104687714D02*
X168371190Y-105354380D01*
X168133095Y-104687714D02*
X168371190Y-105354380D01*
X168466428Y-105592476D01*
X168514047Y-105640095D01*
X168609285Y-105687714D01*
X167752142Y-105354380D02*
X167752142Y-104354380D01*
X167752142Y-104735333D02*
X167656904Y-104687714D01*
X167466428Y-104687714D01*
X167371190Y-104735333D01*
X167323571Y-104782952D01*
X167275952Y-104878190D01*
X167275952Y-105163904D01*
X167323571Y-105259142D01*
X167371190Y-105306761D01*
X167466428Y-105354380D01*
X167656904Y-105354380D01*
X167752142Y-105306761D01*
X166704523Y-105354380D02*
X166799761Y-105306761D01*
X166847380Y-105259142D01*
X166895000Y-105163904D01*
X166895000Y-104878190D01*
X166847380Y-104782952D01*
X166799761Y-104735333D01*
X166704523Y-104687714D01*
X166561666Y-104687714D01*
X166466428Y-104735333D01*
X166418809Y-104782952D01*
X166371190Y-104878190D01*
X166371190Y-105163904D01*
X166418809Y-105259142D01*
X166466428Y-105306761D01*
X166561666Y-105354380D01*
X166704523Y-105354380D01*
X165514047Y-105354380D02*
X165514047Y-104830571D01*
X165561666Y-104735333D01*
X165656904Y-104687714D01*
X165847380Y-104687714D01*
X165942619Y-104735333D01*
X165514047Y-105306761D02*
X165609285Y-105354380D01*
X165847380Y-105354380D01*
X165942619Y-105306761D01*
X165990238Y-105211523D01*
X165990238Y-105116285D01*
X165942619Y-105021047D01*
X165847380Y-104973428D01*
X165609285Y-104973428D01*
X165514047Y-104925809D01*
X165037857Y-105354380D02*
X165037857Y-104687714D01*
X165037857Y-104878190D02*
X164990238Y-104782952D01*
X164942619Y-104735333D01*
X164847380Y-104687714D01*
X164752142Y-104687714D01*
X163990238Y-105354380D02*
X163990238Y-104354380D01*
X163990238Y-105306761D02*
X164085476Y-105354380D01*
X164275952Y-105354380D01*
X164371190Y-105306761D01*
X164418809Y-105259142D01*
X164466428Y-105163904D01*
X164466428Y-104878190D01*
X164418809Y-104782952D01*
X164371190Y-104735333D01*
X164275952Y-104687714D01*
X164085476Y-104687714D01*
X163990238Y-104735333D01*
X163561666Y-105306761D02*
X163466428Y-105354380D01*
X163275952Y-105354380D01*
X163180714Y-105306761D01*
X163133095Y-105211523D01*
X163133095Y-105163904D01*
X163180714Y-105068666D01*
X163275952Y-105021047D01*
X163418809Y-105021047D01*
X163514047Y-104973428D01*
X163561666Y-104878190D01*
X163561666Y-104830571D01*
X163514047Y-104735333D01*
X163418809Y-104687714D01*
X163275952Y-104687714D01*
X163180714Y-104735333D01*
D11*
%TO.C,Y1*%
X127604250Y-108299000D02*
X127604250Y-104299000D01*
X130904250Y-108299000D02*
X127604250Y-108299000D01*
D10*
%TO.C,U2*%
X112875000Y-101981250D02*
X112875000Y-100706250D01*
X112300000Y-112331250D02*
X112300000Y-111656250D01*
X122650000Y-112331250D02*
X122650000Y-111656250D01*
X122650000Y-101981250D02*
X122650000Y-102656250D01*
X112300000Y-101981250D02*
X112300000Y-102656250D01*
X122650000Y-101981250D02*
X121975000Y-101981250D01*
X122650000Y-112331250D02*
X121975000Y-112331250D01*
X112300000Y-112331250D02*
X112975000Y-112331250D01*
X112300000Y-101981250D02*
X112875000Y-101981250D01*
%TO.C,U1*%
X42514000Y-31313500D02*
X42514000Y-34213500D01*
X42514000Y-31313500D02*
X43814000Y-31313500D01*
X43814000Y-31313500D02*
X43814000Y-34213500D01*
X43814000Y-34213500D02*
X42514000Y-34213500D01*
%TO.C,SW1*%
X125574750Y-99183500D02*
X130774750Y-99183500D01*
X130774750Y-99183500D02*
X130774750Y-93983500D01*
X130774750Y-93983500D02*
X125574750Y-93983500D01*
X125574750Y-93983500D02*
X125574750Y-99183500D01*
X129174750Y-96583500D02*
G75*
G03*
X129174750Y-96583500I-1000000J0D01*
G01*
D11*
%TO.C,R6*%
X111945686Y-114136500D02*
X112399814Y-114136500D01*
X111945686Y-115606500D02*
X112399814Y-115606500D01*
%TO.C,R5*%
X125534750Y-103795564D02*
X125534750Y-103341436D01*
X127004750Y-103795564D02*
X127004750Y-103341436D01*
%TO.C,R4*%
X43080000Y-39470064D02*
X43080000Y-39015936D01*
X44550000Y-39470064D02*
X44550000Y-39015936D01*
%TO.C,R3*%
X41048000Y-39446564D02*
X41048000Y-38992436D01*
X42518000Y-39446564D02*
X42518000Y-38992436D01*
%TO.C,R2*%
X48360064Y-31977000D02*
X47905936Y-31977000D01*
X48360064Y-30507000D02*
X47905936Y-30507000D01*
%TO.C,R1*%
X37057000Y-30760936D02*
X37057000Y-31215064D01*
X35587000Y-30760936D02*
X35587000Y-31215064D01*
%TO.C,F1*%
X33126000Y-38702064D02*
X33126000Y-37497936D01*
X34946000Y-38702064D02*
X34946000Y-37497936D01*
%TO.C,D61*%
X306593750Y-111787500D02*
X306593750Y-107887500D01*
X304593750Y-111787500D02*
X304593750Y-107887500D01*
X306593750Y-111787500D02*
X304593750Y-111787500D01*
%TO.C,D60*%
X292306250Y-92737500D02*
X292306250Y-88837500D01*
X290306250Y-92737500D02*
X290306250Y-88837500D01*
X292306250Y-92737500D02*
X290306250Y-92737500D01*
%TO.C,D59*%
X297068750Y-73687500D02*
X297068750Y-69787500D01*
X295068750Y-73687500D02*
X295068750Y-69787500D01*
X297068750Y-73687500D02*
X295068750Y-73687500D01*
%TO.C,D58*%
X285956250Y-61781250D02*
X285956250Y-57881250D01*
X283956250Y-61781250D02*
X283956250Y-57881250D01*
X285956250Y-61781250D02*
X283956250Y-61781250D01*
%TO.C,D57*%
X299450000Y-35587500D02*
X299450000Y-31687500D01*
X297450000Y-35587500D02*
X297450000Y-31687500D01*
X299450000Y-35587500D02*
X297450000Y-35587500D01*
%TO.C,D56*%
X282781250Y-111787500D02*
X282781250Y-107887500D01*
X280781250Y-111787500D02*
X280781250Y-107887500D01*
X282781250Y-111787500D02*
X280781250Y-111787500D01*
%TO.C,D55*%
X280400000Y-54637500D02*
X280400000Y-50737500D01*
X278400000Y-54637500D02*
X278400000Y-50737500D01*
X280400000Y-54637500D02*
X278400000Y-54637500D01*
%TO.C,D54*%
X270875000Y-35587500D02*
X270875000Y-31687500D01*
X268875000Y-35587500D02*
X268875000Y-31687500D01*
X270875000Y-35587500D02*
X268875000Y-35587500D01*
%TO.C,D53*%
X258968750Y-111787500D02*
X258968750Y-107887500D01*
X256968750Y-111787500D02*
X256968750Y-107887500D01*
X258968750Y-111787500D02*
X256968750Y-111787500D01*
%TO.C,D52*%
X256587500Y-92737500D02*
X256587500Y-88837500D01*
X254587500Y-92737500D02*
X254587500Y-88837500D01*
X256587500Y-92737500D02*
X254587500Y-92737500D01*
%TO.C,D51*%
X266112500Y-73687500D02*
X266112500Y-69787500D01*
X264112500Y-73687500D02*
X264112500Y-69787500D01*
X266112500Y-73687500D02*
X264112500Y-73687500D01*
%TO.C,D50*%
X261350000Y-54637500D02*
X261350000Y-50737500D01*
X259350000Y-54637500D02*
X259350000Y-50737500D01*
X261350000Y-54637500D02*
X259350000Y-54637500D01*
%TO.C,D49*%
X251825000Y-35587500D02*
X251825000Y-31687500D01*
X249825000Y-35587500D02*
X249825000Y-31687500D01*
X251825000Y-35587500D02*
X249825000Y-35587500D01*
%TO.C,D48*%
X214443750Y-116093750D02*
X218343750Y-116093750D01*
X214443750Y-114093750D02*
X218343750Y-114093750D01*
X214443750Y-116093750D02*
X214443750Y-114093750D01*
%TO.C,D47*%
X237537500Y-92737500D02*
X237537500Y-88837500D01*
X235537500Y-92737500D02*
X235537500Y-88837500D01*
X237537500Y-92737500D02*
X235537500Y-92737500D01*
%TO.C,D46*%
X247062500Y-73687500D02*
X247062500Y-69787500D01*
X245062500Y-73687500D02*
X245062500Y-69787500D01*
X247062500Y-73687500D02*
X245062500Y-73687500D01*
%TO.C,D45*%
X242300000Y-54637500D02*
X242300000Y-50737500D01*
X240300000Y-54637500D02*
X240300000Y-50737500D01*
X242300000Y-54637500D02*
X240300000Y-54637500D01*
%TO.C,D44*%
X232775000Y-35587500D02*
X232775000Y-31687500D01*
X230775000Y-35587500D02*
X230775000Y-31687500D01*
X232775000Y-35587500D02*
X230775000Y-35587500D01*
%TO.C,D43*%
X218487500Y-92737500D02*
X218487500Y-88837500D01*
X216487500Y-92737500D02*
X216487500Y-88837500D01*
X218487500Y-92737500D02*
X216487500Y-92737500D01*
%TO.C,D42*%
X228012500Y-73687500D02*
X228012500Y-69787500D01*
X226012500Y-73687500D02*
X226012500Y-69787500D01*
X228012500Y-73687500D02*
X226012500Y-73687500D01*
%TO.C,D41*%
X223250000Y-54637500D02*
X223250000Y-50737500D01*
X221250000Y-54637500D02*
X221250000Y-50737500D01*
X223250000Y-54637500D02*
X221250000Y-54637500D01*
%TO.C,D40*%
X213725000Y-35587500D02*
X213725000Y-31687500D01*
X211725000Y-35587500D02*
X211725000Y-31687500D01*
X213725000Y-35587500D02*
X211725000Y-35587500D01*
%TO.C,D39*%
X199437500Y-92737500D02*
X199437500Y-88837500D01*
X197437500Y-92737500D02*
X197437500Y-88837500D01*
X199437500Y-92737500D02*
X197437500Y-92737500D01*
%TO.C,D38*%
X208962500Y-73687500D02*
X208962500Y-69787500D01*
X206962500Y-73687500D02*
X206962500Y-69787500D01*
X208962500Y-73687500D02*
X206962500Y-73687500D01*
%TO.C,D37*%
X204200000Y-54637500D02*
X204200000Y-50737500D01*
X202200000Y-54637500D02*
X202200000Y-50737500D01*
X204200000Y-54637500D02*
X202200000Y-54637500D01*
%TO.C,D36*%
X194675000Y-35587500D02*
X194675000Y-31687500D01*
X192675000Y-35587500D02*
X192675000Y-31687500D01*
X194675000Y-35587500D02*
X192675000Y-35587500D01*
%TO.C,D35*%
X180387500Y-92737500D02*
X180387500Y-88837500D01*
X178387500Y-92737500D02*
X178387500Y-88837500D01*
X180387500Y-92737500D02*
X178387500Y-92737500D01*
%TO.C,D34*%
X189912500Y-73687500D02*
X189912500Y-69787500D01*
X187912500Y-73687500D02*
X187912500Y-69787500D01*
X189912500Y-73687500D02*
X187912500Y-73687500D01*
%TO.C,D33*%
X185150000Y-54637500D02*
X185150000Y-50737500D01*
X183150000Y-54637500D02*
X183150000Y-50737500D01*
X185150000Y-54637500D02*
X183150000Y-54637500D01*
%TO.C,D32*%
X175625000Y-35587500D02*
X175625000Y-31687500D01*
X173625000Y-35587500D02*
X173625000Y-31687500D01*
X175625000Y-35587500D02*
X173625000Y-35587500D01*
%TO.C,D31*%
X163718750Y-111787500D02*
X163718750Y-107887500D01*
X161718750Y-111787500D02*
X161718750Y-107887500D01*
X163718750Y-111787500D02*
X161718750Y-111787500D01*
%TO.C,D30*%
X161337500Y-92737500D02*
X161337500Y-88837500D01*
X159337500Y-92737500D02*
X159337500Y-88837500D01*
X161337500Y-92737500D02*
X159337500Y-92737500D01*
%TO.C,D29*%
X170862500Y-73687500D02*
X170862500Y-69787500D01*
X168862500Y-73687500D02*
X168862500Y-69787500D01*
X170862500Y-73687500D02*
X168862500Y-73687500D01*
%TO.C,D28*%
X166100000Y-54637500D02*
X166100000Y-50737500D01*
X164100000Y-54637500D02*
X164100000Y-50737500D01*
X166100000Y-54637500D02*
X164100000Y-54637500D01*
%TO.C,D27*%
X156575000Y-35587500D02*
X156575000Y-31687500D01*
X154575000Y-35587500D02*
X154575000Y-31687500D01*
X156575000Y-35587500D02*
X154575000Y-35587500D01*
%TO.C,D26*%
X142287500Y-92737500D02*
X142287500Y-88837500D01*
X140287500Y-92737500D02*
X140287500Y-88837500D01*
X142287500Y-92737500D02*
X140287500Y-92737500D01*
%TO.C,D25*%
X151812500Y-73687500D02*
X151812500Y-69787500D01*
X149812500Y-73687500D02*
X149812500Y-69787500D01*
X151812500Y-73687500D02*
X149812500Y-73687500D01*
%TO.C,D24*%
X147843750Y-54637500D02*
X147843750Y-50737500D01*
X145843750Y-54637500D02*
X145843750Y-50737500D01*
X147843750Y-54637500D02*
X145843750Y-54637500D01*
%TO.C,D23*%
X137525000Y-35587500D02*
X137525000Y-31687500D01*
X135525000Y-35587500D02*
X135525000Y-31687500D01*
X137525000Y-35587500D02*
X135525000Y-35587500D01*
%TO.C,D22*%
X123237500Y-92737500D02*
X123237500Y-88837500D01*
X121237500Y-92737500D02*
X121237500Y-88837500D01*
X123237500Y-92737500D02*
X121237500Y-92737500D01*
%TO.C,D21*%
X132762500Y-73687500D02*
X132762500Y-69787500D01*
X130762500Y-73687500D02*
X130762500Y-69787500D01*
X132762500Y-73687500D02*
X130762500Y-73687500D01*
%TO.C,D20*%
X128000000Y-54637500D02*
X128000000Y-50737500D01*
X126000000Y-54637500D02*
X126000000Y-50737500D01*
X128000000Y-54637500D02*
X126000000Y-54637500D01*
%TO.C,D19*%
X107025000Y-40275000D02*
X103125000Y-40275000D01*
X107025000Y-42275000D02*
X103125000Y-42275000D01*
X107025000Y-40275000D02*
X107025000Y-42275000D01*
%TO.C,D18*%
X104187500Y-92737500D02*
X104187500Y-88837500D01*
X102187500Y-92737500D02*
X102187500Y-88837500D01*
X104187500Y-92737500D02*
X102187500Y-92737500D01*
%TO.C,D17*%
X102262500Y-78375000D02*
X98362500Y-78375000D01*
X102262500Y-80375000D02*
X98362500Y-80375000D01*
X102262500Y-78375000D02*
X102262500Y-80375000D01*
%TO.C,D16*%
X108950000Y-54637500D02*
X108950000Y-50737500D01*
X106950000Y-54637500D02*
X106950000Y-50737500D01*
X108950000Y-54637500D02*
X106950000Y-54637500D01*
%TO.C,D15*%
X87975000Y-40275000D02*
X84075000Y-40275000D01*
X87975000Y-42275000D02*
X84075000Y-42275000D01*
X87975000Y-40275000D02*
X87975000Y-42275000D01*
%TO.C,D14*%
X92281250Y-111787500D02*
X92281250Y-107887500D01*
X90281250Y-111787500D02*
X90281250Y-107887500D01*
X92281250Y-111787500D02*
X90281250Y-111787500D01*
%TO.C,D13*%
X85137500Y-92737500D02*
X85137500Y-88837500D01*
X83137500Y-92737500D02*
X83137500Y-88837500D01*
X85137500Y-92737500D02*
X83137500Y-92737500D01*
%TO.C,D12*%
X83212500Y-78375000D02*
X79312500Y-78375000D01*
X83212500Y-80375000D02*
X79312500Y-80375000D01*
X83212500Y-78375000D02*
X83212500Y-80375000D01*
%TO.C,D11*%
X89900000Y-54637500D02*
X89900000Y-50737500D01*
X87900000Y-54637500D02*
X87900000Y-50737500D01*
X89900000Y-54637500D02*
X87900000Y-54637500D01*
%TO.C,D10*%
X80375000Y-35587500D02*
X80375000Y-31687500D01*
X78375000Y-35587500D02*
X78375000Y-31687500D01*
X80375000Y-35587500D02*
X78375000Y-35587500D01*
%TO.C,D9*%
X68468750Y-111787500D02*
X68468750Y-107887500D01*
X66468750Y-111787500D02*
X66468750Y-107887500D01*
X68468750Y-111787500D02*
X66468750Y-111787500D01*
%TO.C,D8*%
X75612500Y-73687500D02*
X75612500Y-69787500D01*
X73612500Y-73687500D02*
X73612500Y-69787500D01*
X75612500Y-73687500D02*
X73612500Y-73687500D01*
%TO.C,D7*%
X54181250Y-61781250D02*
X54181250Y-57881250D01*
X52181250Y-61781250D02*
X52181250Y-57881250D01*
X54181250Y-61781250D02*
X52181250Y-61781250D01*
%TO.C,D6*%
X49875000Y-40275000D02*
X45975000Y-40275000D01*
X49875000Y-42275000D02*
X45975000Y-42275000D01*
X49875000Y-40275000D02*
X49875000Y-42275000D01*
%TO.C,D5*%
X44656250Y-111787500D02*
X44656250Y-107887500D01*
X42656250Y-111787500D02*
X42656250Y-107887500D01*
X44656250Y-111787500D02*
X42656250Y-111787500D01*
%TO.C,D4*%
X54181250Y-92737500D02*
X54181250Y-88837500D01*
X52181250Y-92737500D02*
X52181250Y-88837500D01*
X54181250Y-92737500D02*
X52181250Y-92737500D01*
%TO.C,D3*%
X49418750Y-73687500D02*
X49418750Y-69787500D01*
X47418750Y-73687500D02*
X47418750Y-69787500D01*
X49418750Y-73687500D02*
X47418750Y-73687500D01*
%TO.C,D2*%
X45450000Y-59400000D02*
X45450000Y-55500000D01*
X43450000Y-59400000D02*
X43450000Y-55500000D01*
X45450000Y-59400000D02*
X43450000Y-59400000D01*
%TO.C,D1*%
X30887500Y-40656000D02*
X26987500Y-40656000D01*
X30887500Y-42656000D02*
X26987500Y-42656000D01*
X30887500Y-40656000D02*
X30887500Y-42656000D01*
%TO.C,C7*%
X117768002Y-95794500D02*
X117245498Y-95794500D01*
X117768002Y-94324500D02*
X117245498Y-94324500D01*
%TO.C,C6*%
X121563498Y-114390500D02*
X122086002Y-114390500D01*
X121563498Y-115860500D02*
X122086002Y-115860500D01*
%TO.C,C5*%
X117768002Y-97826500D02*
X117245498Y-97826500D01*
X117768002Y-96356500D02*
X117245498Y-96356500D01*
%TO.C,C4*%
X110367750Y-102545248D02*
X110367750Y-103067752D01*
X108897750Y-102545248D02*
X108897750Y-103067752D01*
%TO.C,C3*%
X109024750Y-111703752D02*
X109024750Y-111181248D01*
X110494750Y-111703752D02*
X110494750Y-111181248D01*
%TO.C,C2*%
X129579002Y-103922500D02*
X129056498Y-103922500D01*
X129579002Y-102452500D02*
X129056498Y-102452500D01*
%TO.C,C1*%
X128992998Y-108675500D02*
X129515502Y-108675500D01*
X128992998Y-110145500D02*
X129515502Y-110145500D01*
%TO.C,Y1*%
D10*
X131680440Y-105822809D02*
X132156630Y-105822809D01*
X131156630Y-105489476D02*
X131680440Y-105822809D01*
X131156630Y-106156142D01*
X132156630Y-107013285D02*
X132156630Y-106441857D01*
X132156630Y-106727571D02*
X131156630Y-106727571D01*
X131299488Y-106632333D01*
X131394726Y-106537095D01*
X131442345Y-106441857D01*
%TO.C,USB1*%
X43808476Y-31036904D02*
X43808476Y-31684523D01*
X43770380Y-31760714D01*
X43732285Y-31798809D01*
X43656095Y-31836904D01*
X43503714Y-31836904D01*
X43427523Y-31798809D01*
X43389428Y-31760714D01*
X43351333Y-31684523D01*
X43351333Y-31036904D01*
X43008476Y-31798809D02*
X42894190Y-31836904D01*
X42703714Y-31836904D01*
X42627523Y-31798809D01*
X42589428Y-31760714D01*
X42551333Y-31684523D01*
X42551333Y-31608333D01*
X42589428Y-31532142D01*
X42627523Y-31494047D01*
X42703714Y-31455952D01*
X42856095Y-31417857D01*
X42932285Y-31379761D01*
X42970380Y-31341666D01*
X43008476Y-31265476D01*
X43008476Y-31189285D01*
X42970380Y-31113095D01*
X42932285Y-31075000D01*
X42856095Y-31036904D01*
X42665619Y-31036904D01*
X42551333Y-31075000D01*
X41941809Y-31417857D02*
X41827523Y-31455952D01*
X41789428Y-31494047D01*
X41751333Y-31570238D01*
X41751333Y-31684523D01*
X41789428Y-31760714D01*
X41827523Y-31798809D01*
X41903714Y-31836904D01*
X42208476Y-31836904D01*
X42208476Y-31036904D01*
X41941809Y-31036904D01*
X41865619Y-31075000D01*
X41827523Y-31113095D01*
X41789428Y-31189285D01*
X41789428Y-31265476D01*
X41827523Y-31341666D01*
X41865619Y-31379761D01*
X41941809Y-31417857D01*
X42208476Y-31417857D01*
X40989428Y-31836904D02*
X41446571Y-31836904D01*
X41218000Y-31836904D02*
X41218000Y-31036904D01*
X41294190Y-31151190D01*
X41370380Y-31227380D01*
X41446571Y-31265476D01*
%TO.C,U2*%
X109477380Y-106394345D02*
X110286904Y-106394345D01*
X110382142Y-106441964D01*
X110429761Y-106489583D01*
X110477380Y-106584821D01*
X110477380Y-106775297D01*
X110429761Y-106870535D01*
X110382142Y-106918154D01*
X110286904Y-106965773D01*
X109477380Y-106965773D01*
X109572619Y-107394345D02*
X109525000Y-107441964D01*
X109477380Y-107537202D01*
X109477380Y-107775297D01*
X109525000Y-107870535D01*
X109572619Y-107918154D01*
X109667857Y-107965773D01*
X109763095Y-107965773D01*
X109905952Y-107918154D01*
X110477380Y-107346726D01*
X110477380Y-107965773D01*
%TO.C,U1*%
X45066380Y-32001595D02*
X45875904Y-32001595D01*
X45971142Y-32049214D01*
X46018761Y-32096833D01*
X46066380Y-32192071D01*
X46066380Y-32382547D01*
X46018761Y-32477785D01*
X45971142Y-32525404D01*
X45875904Y-32573023D01*
X45066380Y-32573023D01*
X46066380Y-33573023D02*
X46066380Y-33001595D01*
X46066380Y-33287309D02*
X45066380Y-33287309D01*
X45209238Y-33192071D01*
X45304476Y-33096833D01*
X45352095Y-33001595D01*
%TO.C,SW1*%
X129508083Y-92924261D02*
X129365226Y-92971880D01*
X129127130Y-92971880D01*
X129031892Y-92924261D01*
X128984273Y-92876642D01*
X128936654Y-92781404D01*
X128936654Y-92686166D01*
X128984273Y-92590928D01*
X129031892Y-92543309D01*
X129127130Y-92495690D01*
X129317607Y-92448071D01*
X129412845Y-92400452D01*
X129460464Y-92352833D01*
X129508083Y-92257595D01*
X129508083Y-92162357D01*
X129460464Y-92067119D01*
X129412845Y-92019500D01*
X129317607Y-91971880D01*
X129079511Y-91971880D01*
X128936654Y-92019500D01*
X128603321Y-91971880D02*
X128365226Y-92971880D01*
X128174750Y-92257595D01*
X127984273Y-92971880D01*
X127746178Y-91971880D01*
X126841416Y-92971880D02*
X127412845Y-92971880D01*
X127127130Y-92971880D02*
X127127130Y-91971880D01*
X127222369Y-92114738D01*
X127317607Y-92209976D01*
X127412845Y-92257595D01*
%TO.C,R6*%
X112339416Y-116973880D02*
X112672750Y-116497690D01*
X112910845Y-116973880D02*
X112910845Y-115973880D01*
X112529892Y-115973880D01*
X112434654Y-116021500D01*
X112387035Y-116069119D01*
X112339416Y-116164357D01*
X112339416Y-116307214D01*
X112387035Y-116402452D01*
X112434654Y-116450071D01*
X112529892Y-116497690D01*
X112910845Y-116497690D01*
X111482273Y-115973880D02*
X111672750Y-115973880D01*
X111767988Y-116021500D01*
X111815607Y-116069119D01*
X111910845Y-116211976D01*
X111958464Y-116402452D01*
X111958464Y-116783404D01*
X111910845Y-116878642D01*
X111863226Y-116926261D01*
X111767988Y-116973880D01*
X111577511Y-116973880D01*
X111482273Y-116926261D01*
X111434654Y-116878642D01*
X111387035Y-116783404D01*
X111387035Y-116545309D01*
X111434654Y-116450071D01*
X111482273Y-116402452D01*
X111577511Y-116354833D01*
X111767988Y-116354833D01*
X111863226Y-116402452D01*
X111910845Y-116450071D01*
X111958464Y-116545309D01*
%TO.C,R5*%
X128372130Y-103401833D02*
X127895940Y-103068500D01*
X128372130Y-102830404D02*
X127372130Y-102830404D01*
X127372130Y-103211357D01*
X127419750Y-103306595D01*
X127467369Y-103354214D01*
X127562607Y-103401833D01*
X127705464Y-103401833D01*
X127800702Y-103354214D01*
X127848321Y-103306595D01*
X127895940Y-103211357D01*
X127895940Y-102830404D01*
X127372130Y-104306595D02*
X127372130Y-103830404D01*
X127848321Y-103782785D01*
X127800702Y-103830404D01*
X127753083Y-103925642D01*
X127753083Y-104163738D01*
X127800702Y-104258976D01*
X127848321Y-104306595D01*
X127943559Y-104354214D01*
X128181654Y-104354214D01*
X128276892Y-104306595D01*
X128324511Y-104258976D01*
X128372130Y-104163738D01*
X128372130Y-103925642D01*
X128324511Y-103830404D01*
X128276892Y-103782785D01*
%TO.C,R4*%
X45917380Y-39076333D02*
X45441190Y-38743000D01*
X45917380Y-38504904D02*
X44917380Y-38504904D01*
X44917380Y-38885857D01*
X44965000Y-38981095D01*
X45012619Y-39028714D01*
X45107857Y-39076333D01*
X45250714Y-39076333D01*
X45345952Y-39028714D01*
X45393571Y-38981095D01*
X45441190Y-38885857D01*
X45441190Y-38504904D01*
X45250714Y-39933476D02*
X45917380Y-39933476D01*
X44869761Y-39695380D02*
X45584047Y-39457285D01*
X45584047Y-40076333D01*
%TO.C,R3*%
X43885380Y-39052833D02*
X43409190Y-38719500D01*
X43885380Y-38481404D02*
X42885380Y-38481404D01*
X42885380Y-38862357D01*
X42933000Y-38957595D01*
X42980619Y-39005214D01*
X43075857Y-39052833D01*
X43218714Y-39052833D01*
X43313952Y-39005214D01*
X43361571Y-38957595D01*
X43409190Y-38862357D01*
X43409190Y-38481404D01*
X42885380Y-39386166D02*
X42885380Y-40005214D01*
X43266333Y-39671880D01*
X43266333Y-39814738D01*
X43313952Y-39909976D01*
X43361571Y-39957595D01*
X43456809Y-40005214D01*
X43694904Y-40005214D01*
X43790142Y-39957595D01*
X43837761Y-39909976D01*
X43885380Y-39814738D01*
X43885380Y-39529023D01*
X43837761Y-39433785D01*
X43790142Y-39386166D01*
%TO.C,R2*%
X48299666Y-30044380D02*
X48633000Y-29568190D01*
X48871095Y-30044380D02*
X48871095Y-29044380D01*
X48490142Y-29044380D01*
X48394904Y-29092000D01*
X48347285Y-29139619D01*
X48299666Y-29234857D01*
X48299666Y-29377714D01*
X48347285Y-29472952D01*
X48394904Y-29520571D01*
X48490142Y-29568190D01*
X48871095Y-29568190D01*
X47918714Y-29139619D02*
X47871095Y-29092000D01*
X47775857Y-29044380D01*
X47537761Y-29044380D01*
X47442523Y-29092000D01*
X47394904Y-29139619D01*
X47347285Y-29234857D01*
X47347285Y-29330095D01*
X47394904Y-29472952D01*
X47966333Y-30044380D01*
X47347285Y-30044380D01*
%TO.C,R1*%
X35124380Y-30821333D02*
X34648190Y-30488000D01*
X35124380Y-30249904D02*
X34124380Y-30249904D01*
X34124380Y-30630857D01*
X34172000Y-30726095D01*
X34219619Y-30773714D01*
X34314857Y-30821333D01*
X34457714Y-30821333D01*
X34552952Y-30773714D01*
X34600571Y-30726095D01*
X34648190Y-30630857D01*
X34648190Y-30249904D01*
X35124380Y-31773714D02*
X35124380Y-31202285D01*
X35124380Y-31488000D02*
X34124380Y-31488000D01*
X34267238Y-31392761D01*
X34362476Y-31297523D01*
X34410095Y-31202285D01*
%TO.C,MX61*%
X299418154Y-113037880D02*
X299418154Y-112037880D01*
X299084821Y-112752166D01*
X298751488Y-112037880D01*
X298751488Y-113037880D01*
X298370535Y-112037880D02*
X297703869Y-113037880D01*
X297703869Y-112037880D02*
X298370535Y-113037880D01*
X296894345Y-112037880D02*
X297084821Y-112037880D01*
X297180059Y-112085500D01*
X297227678Y-112133119D01*
X297322916Y-112275976D01*
X297370535Y-112466452D01*
X297370535Y-112847404D01*
X297322916Y-112942642D01*
X297275297Y-112990261D01*
X297180059Y-113037880D01*
X296989583Y-113037880D01*
X296894345Y-112990261D01*
X296846726Y-112942642D01*
X296799107Y-112847404D01*
X296799107Y-112609309D01*
X296846726Y-112514071D01*
X296894345Y-112466452D01*
X296989583Y-112418833D01*
X297180059Y-112418833D01*
X297275297Y-112466452D01*
X297322916Y-112514071D01*
X297370535Y-112609309D01*
X295846726Y-113037880D02*
X296418154Y-113037880D01*
X296132440Y-113037880D02*
X296132440Y-112037880D01*
X296227678Y-112180738D01*
X296322916Y-112275976D01*
X296418154Y-112323595D01*
%TO.C,MX60*%
X285130654Y-93987880D02*
X285130654Y-92987880D01*
X284797321Y-93702166D01*
X284463988Y-92987880D01*
X284463988Y-93987880D01*
X284083035Y-92987880D02*
X283416369Y-93987880D01*
X283416369Y-92987880D02*
X284083035Y-93987880D01*
X282606845Y-92987880D02*
X282797321Y-92987880D01*
X282892559Y-93035500D01*
X282940178Y-93083119D01*
X283035416Y-93225976D01*
X283083035Y-93416452D01*
X283083035Y-93797404D01*
X283035416Y-93892642D01*
X282987797Y-93940261D01*
X282892559Y-93987880D01*
X282702083Y-93987880D01*
X282606845Y-93940261D01*
X282559226Y-93892642D01*
X282511607Y-93797404D01*
X282511607Y-93559309D01*
X282559226Y-93464071D01*
X282606845Y-93416452D01*
X282702083Y-93368833D01*
X282892559Y-93368833D01*
X282987797Y-93416452D01*
X283035416Y-93464071D01*
X283083035Y-93559309D01*
X281892559Y-92987880D02*
X281797321Y-92987880D01*
X281702083Y-93035500D01*
X281654464Y-93083119D01*
X281606845Y-93178357D01*
X281559226Y-93368833D01*
X281559226Y-93606928D01*
X281606845Y-93797404D01*
X281654464Y-93892642D01*
X281702083Y-93940261D01*
X281797321Y-93987880D01*
X281892559Y-93987880D01*
X281987797Y-93940261D01*
X282035416Y-93892642D01*
X282083035Y-93797404D01*
X282130654Y-93606928D01*
X282130654Y-93368833D01*
X282083035Y-93178357D01*
X282035416Y-93083119D01*
X281987797Y-93035500D01*
X281892559Y-92987880D01*
%TO.C,MX59*%
X289893154Y-74937880D02*
X289893154Y-73937880D01*
X289559821Y-74652166D01*
X289226488Y-73937880D01*
X289226488Y-74937880D01*
X288845535Y-73937880D02*
X288178869Y-74937880D01*
X288178869Y-73937880D02*
X288845535Y-74937880D01*
X287321726Y-73937880D02*
X287797916Y-73937880D01*
X287845535Y-74414071D01*
X287797916Y-74366452D01*
X287702678Y-74318833D01*
X287464583Y-74318833D01*
X287369345Y-74366452D01*
X287321726Y-74414071D01*
X287274107Y-74509309D01*
X287274107Y-74747404D01*
X287321726Y-74842642D01*
X287369345Y-74890261D01*
X287464583Y-74937880D01*
X287702678Y-74937880D01*
X287797916Y-74890261D01*
X287845535Y-74842642D01*
X286797916Y-74937880D02*
X286607440Y-74937880D01*
X286512202Y-74890261D01*
X286464583Y-74842642D01*
X286369345Y-74699785D01*
X286321726Y-74509309D01*
X286321726Y-74128357D01*
X286369345Y-74033119D01*
X286416964Y-73985500D01*
X286512202Y-73937880D01*
X286702678Y-73937880D01*
X286797916Y-73985500D01*
X286845535Y-74033119D01*
X286893154Y-74128357D01*
X286893154Y-74366452D01*
X286845535Y-74461690D01*
X286797916Y-74509309D01*
X286702678Y-74556928D01*
X286512202Y-74556928D01*
X286416964Y-74509309D01*
X286369345Y-74461690D01*
X286321726Y-74366452D01*
%TO.C,MX58*%
X297036904Y-49791880D02*
X297036904Y-48791880D01*
X296703571Y-49506166D01*
X296370238Y-48791880D01*
X296370238Y-49791880D01*
X295989285Y-48791880D02*
X295322619Y-49791880D01*
X295322619Y-48791880D02*
X295989285Y-49791880D01*
X294465476Y-48791880D02*
X294941666Y-48791880D01*
X294989285Y-49268071D01*
X294941666Y-49220452D01*
X294846428Y-49172833D01*
X294608333Y-49172833D01*
X294513095Y-49220452D01*
X294465476Y-49268071D01*
X294417857Y-49363309D01*
X294417857Y-49601404D01*
X294465476Y-49696642D01*
X294513095Y-49744261D01*
X294608333Y-49791880D01*
X294846428Y-49791880D01*
X294941666Y-49744261D01*
X294989285Y-49696642D01*
X293846428Y-49220452D02*
X293941666Y-49172833D01*
X293989285Y-49125214D01*
X294036904Y-49029976D01*
X294036904Y-48982357D01*
X293989285Y-48887119D01*
X293941666Y-48839500D01*
X293846428Y-48791880D01*
X293655952Y-48791880D01*
X293560714Y-48839500D01*
X293513095Y-48887119D01*
X293465476Y-48982357D01*
X293465476Y-49029976D01*
X293513095Y-49125214D01*
X293560714Y-49172833D01*
X293655952Y-49220452D01*
X293846428Y-49220452D01*
X293941666Y-49268071D01*
X293989285Y-49315690D01*
X294036904Y-49410928D01*
X294036904Y-49601404D01*
X293989285Y-49696642D01*
X293941666Y-49744261D01*
X293846428Y-49791880D01*
X293655952Y-49791880D01*
X293560714Y-49744261D01*
X293513095Y-49696642D01*
X293465476Y-49601404D01*
X293465476Y-49410928D01*
X293513095Y-49315690D01*
X293560714Y-49268071D01*
X293655952Y-49220452D01*
%TO.C,MX57*%
X292274404Y-36837880D02*
X292274404Y-35837880D01*
X291941071Y-36552166D01*
X291607738Y-35837880D01*
X291607738Y-36837880D01*
X291226785Y-35837880D02*
X290560119Y-36837880D01*
X290560119Y-35837880D02*
X291226785Y-36837880D01*
X289702976Y-35837880D02*
X290179166Y-35837880D01*
X290226785Y-36314071D01*
X290179166Y-36266452D01*
X290083928Y-36218833D01*
X289845833Y-36218833D01*
X289750595Y-36266452D01*
X289702976Y-36314071D01*
X289655357Y-36409309D01*
X289655357Y-36647404D01*
X289702976Y-36742642D01*
X289750595Y-36790261D01*
X289845833Y-36837880D01*
X290083928Y-36837880D01*
X290179166Y-36790261D01*
X290226785Y-36742642D01*
X289322023Y-35837880D02*
X288655357Y-35837880D01*
X289083928Y-36837880D01*
%TO.C,MX56*%
X275605654Y-113037880D02*
X275605654Y-112037880D01*
X275272321Y-112752166D01*
X274938988Y-112037880D01*
X274938988Y-113037880D01*
X274558035Y-112037880D02*
X273891369Y-113037880D01*
X273891369Y-112037880D02*
X274558035Y-113037880D01*
X273034226Y-112037880D02*
X273510416Y-112037880D01*
X273558035Y-112514071D01*
X273510416Y-112466452D01*
X273415178Y-112418833D01*
X273177083Y-112418833D01*
X273081845Y-112466452D01*
X273034226Y-112514071D01*
X272986607Y-112609309D01*
X272986607Y-112847404D01*
X273034226Y-112942642D01*
X273081845Y-112990261D01*
X273177083Y-113037880D01*
X273415178Y-113037880D01*
X273510416Y-112990261D01*
X273558035Y-112942642D01*
X272129464Y-112037880D02*
X272319940Y-112037880D01*
X272415178Y-112085500D01*
X272462797Y-112133119D01*
X272558035Y-112275976D01*
X272605654Y-112466452D01*
X272605654Y-112847404D01*
X272558035Y-112942642D01*
X272510416Y-112990261D01*
X272415178Y-113037880D01*
X272224702Y-113037880D01*
X272129464Y-112990261D01*
X272081845Y-112942642D01*
X272034226Y-112847404D01*
X272034226Y-112609309D01*
X272081845Y-112514071D01*
X272129464Y-112466452D01*
X272224702Y-112418833D01*
X272415178Y-112418833D01*
X272510416Y-112466452D01*
X272558035Y-112514071D01*
X272605654Y-112609309D01*
%TO.C,MX55*%
X273224404Y-55887880D02*
X273224404Y-54887880D01*
X272891071Y-55602166D01*
X272557738Y-54887880D01*
X272557738Y-55887880D01*
X272176785Y-54887880D02*
X271510119Y-55887880D01*
X271510119Y-54887880D02*
X272176785Y-55887880D01*
X270652976Y-54887880D02*
X271129166Y-54887880D01*
X271176785Y-55364071D01*
X271129166Y-55316452D01*
X271033928Y-55268833D01*
X270795833Y-55268833D01*
X270700595Y-55316452D01*
X270652976Y-55364071D01*
X270605357Y-55459309D01*
X270605357Y-55697404D01*
X270652976Y-55792642D01*
X270700595Y-55840261D01*
X270795833Y-55887880D01*
X271033928Y-55887880D01*
X271129166Y-55840261D01*
X271176785Y-55792642D01*
X269700595Y-54887880D02*
X270176785Y-54887880D01*
X270224404Y-55364071D01*
X270176785Y-55316452D01*
X270081547Y-55268833D01*
X269843452Y-55268833D01*
X269748214Y-55316452D01*
X269700595Y-55364071D01*
X269652976Y-55459309D01*
X269652976Y-55697404D01*
X269700595Y-55792642D01*
X269748214Y-55840261D01*
X269843452Y-55887880D01*
X270081547Y-55887880D01*
X270176785Y-55840261D01*
X270224404Y-55792642D01*
%TO.C,MX54*%
X263699404Y-36837880D02*
X263699404Y-35837880D01*
X263366071Y-36552166D01*
X263032738Y-35837880D01*
X263032738Y-36837880D01*
X262651785Y-35837880D02*
X261985119Y-36837880D01*
X261985119Y-35837880D02*
X262651785Y-36837880D01*
X261127976Y-35837880D02*
X261604166Y-35837880D01*
X261651785Y-36314071D01*
X261604166Y-36266452D01*
X261508928Y-36218833D01*
X261270833Y-36218833D01*
X261175595Y-36266452D01*
X261127976Y-36314071D01*
X261080357Y-36409309D01*
X261080357Y-36647404D01*
X261127976Y-36742642D01*
X261175595Y-36790261D01*
X261270833Y-36837880D01*
X261508928Y-36837880D01*
X261604166Y-36790261D01*
X261651785Y-36742642D01*
X260223214Y-36171214D02*
X260223214Y-36837880D01*
X260461309Y-35790261D02*
X260699404Y-36504547D01*
X260080357Y-36504547D01*
%TO.C,MX53*%
X251793154Y-113037880D02*
X251793154Y-112037880D01*
X251459821Y-112752166D01*
X251126488Y-112037880D01*
X251126488Y-113037880D01*
X250745535Y-112037880D02*
X250078869Y-113037880D01*
X250078869Y-112037880D02*
X250745535Y-113037880D01*
X249221726Y-112037880D02*
X249697916Y-112037880D01*
X249745535Y-112514071D01*
X249697916Y-112466452D01*
X249602678Y-112418833D01*
X249364583Y-112418833D01*
X249269345Y-112466452D01*
X249221726Y-112514071D01*
X249174107Y-112609309D01*
X249174107Y-112847404D01*
X249221726Y-112942642D01*
X249269345Y-112990261D01*
X249364583Y-113037880D01*
X249602678Y-113037880D01*
X249697916Y-112990261D01*
X249745535Y-112942642D01*
X248840773Y-112037880D02*
X248221726Y-112037880D01*
X248555059Y-112418833D01*
X248412202Y-112418833D01*
X248316964Y-112466452D01*
X248269345Y-112514071D01*
X248221726Y-112609309D01*
X248221726Y-112847404D01*
X248269345Y-112942642D01*
X248316964Y-112990261D01*
X248412202Y-113037880D01*
X248697916Y-113037880D01*
X248793154Y-112990261D01*
X248840773Y-112942642D01*
%TO.C,MX52*%
X249411904Y-93987880D02*
X249411904Y-92987880D01*
X249078571Y-93702166D01*
X248745238Y-92987880D01*
X248745238Y-93987880D01*
X248364285Y-92987880D02*
X247697619Y-93987880D01*
X247697619Y-92987880D02*
X248364285Y-93987880D01*
X246840476Y-92987880D02*
X247316666Y-92987880D01*
X247364285Y-93464071D01*
X247316666Y-93416452D01*
X247221428Y-93368833D01*
X246983333Y-93368833D01*
X246888095Y-93416452D01*
X246840476Y-93464071D01*
X246792857Y-93559309D01*
X246792857Y-93797404D01*
X246840476Y-93892642D01*
X246888095Y-93940261D01*
X246983333Y-93987880D01*
X247221428Y-93987880D01*
X247316666Y-93940261D01*
X247364285Y-93892642D01*
X246411904Y-93083119D02*
X246364285Y-93035500D01*
X246269047Y-92987880D01*
X246030952Y-92987880D01*
X245935714Y-93035500D01*
X245888095Y-93083119D01*
X245840476Y-93178357D01*
X245840476Y-93273595D01*
X245888095Y-93416452D01*
X246459523Y-93987880D01*
X245840476Y-93987880D01*
%TO.C,MX51*%
X258936904Y-74937880D02*
X258936904Y-73937880D01*
X258603571Y-74652166D01*
X258270238Y-73937880D01*
X258270238Y-74937880D01*
X257889285Y-73937880D02*
X257222619Y-74937880D01*
X257222619Y-73937880D02*
X257889285Y-74937880D01*
X256365476Y-73937880D02*
X256841666Y-73937880D01*
X256889285Y-74414071D01*
X256841666Y-74366452D01*
X256746428Y-74318833D01*
X256508333Y-74318833D01*
X256413095Y-74366452D01*
X256365476Y-74414071D01*
X256317857Y-74509309D01*
X256317857Y-74747404D01*
X256365476Y-74842642D01*
X256413095Y-74890261D01*
X256508333Y-74937880D01*
X256746428Y-74937880D01*
X256841666Y-74890261D01*
X256889285Y-74842642D01*
X255365476Y-74937880D02*
X255936904Y-74937880D01*
X255651190Y-74937880D02*
X255651190Y-73937880D01*
X255746428Y-74080738D01*
X255841666Y-74175976D01*
X255936904Y-74223595D01*
%TO.C,MX50*%
X254174404Y-55887880D02*
X254174404Y-54887880D01*
X253841071Y-55602166D01*
X253507738Y-54887880D01*
X253507738Y-55887880D01*
X253126785Y-54887880D02*
X252460119Y-55887880D01*
X252460119Y-54887880D02*
X253126785Y-55887880D01*
X251602976Y-54887880D02*
X252079166Y-54887880D01*
X252126785Y-55364071D01*
X252079166Y-55316452D01*
X251983928Y-55268833D01*
X251745833Y-55268833D01*
X251650595Y-55316452D01*
X251602976Y-55364071D01*
X251555357Y-55459309D01*
X251555357Y-55697404D01*
X251602976Y-55792642D01*
X251650595Y-55840261D01*
X251745833Y-55887880D01*
X251983928Y-55887880D01*
X252079166Y-55840261D01*
X252126785Y-55792642D01*
X250936309Y-54887880D02*
X250841071Y-54887880D01*
X250745833Y-54935500D01*
X250698214Y-54983119D01*
X250650595Y-55078357D01*
X250602976Y-55268833D01*
X250602976Y-55506928D01*
X250650595Y-55697404D01*
X250698214Y-55792642D01*
X250745833Y-55840261D01*
X250841071Y-55887880D01*
X250936309Y-55887880D01*
X251031547Y-55840261D01*
X251079166Y-55792642D01*
X251126785Y-55697404D01*
X251174404Y-55506928D01*
X251174404Y-55268833D01*
X251126785Y-55078357D01*
X251079166Y-54983119D01*
X251031547Y-54935500D01*
X250936309Y-54887880D01*
%TO.C,MX49*%
X244649404Y-36837880D02*
X244649404Y-35837880D01*
X244316071Y-36552166D01*
X243982738Y-35837880D01*
X243982738Y-36837880D01*
X243601785Y-35837880D02*
X242935119Y-36837880D01*
X242935119Y-35837880D02*
X243601785Y-36837880D01*
X242125595Y-36171214D02*
X242125595Y-36837880D01*
X242363690Y-35790261D02*
X242601785Y-36504547D01*
X241982738Y-36504547D01*
X241554166Y-36837880D02*
X241363690Y-36837880D01*
X241268452Y-36790261D01*
X241220833Y-36742642D01*
X241125595Y-36599785D01*
X241077976Y-36409309D01*
X241077976Y-36028357D01*
X241125595Y-35933119D01*
X241173214Y-35885500D01*
X241268452Y-35837880D01*
X241458928Y-35837880D01*
X241554166Y-35885500D01*
X241601785Y-35933119D01*
X241649404Y-36028357D01*
X241649404Y-36266452D01*
X241601785Y-36361690D01*
X241554166Y-36409309D01*
X241458928Y-36456928D01*
X241268452Y-36456928D01*
X241173214Y-36409309D01*
X241125595Y-36361690D01*
X241077976Y-36266452D01*
%TO.C,MX48*%
X227980654Y-106941880D02*
X227980654Y-105941880D01*
X227647321Y-106656166D01*
X227313988Y-105941880D01*
X227313988Y-106941880D01*
X226933035Y-105941880D02*
X226266369Y-106941880D01*
X226266369Y-105941880D02*
X226933035Y-106941880D01*
X225456845Y-106275214D02*
X225456845Y-106941880D01*
X225694940Y-105894261D02*
X225933035Y-106608547D01*
X225313988Y-106608547D01*
X224790178Y-106370452D02*
X224885416Y-106322833D01*
X224933035Y-106275214D01*
X224980654Y-106179976D01*
X224980654Y-106132357D01*
X224933035Y-106037119D01*
X224885416Y-105989500D01*
X224790178Y-105941880D01*
X224599702Y-105941880D01*
X224504464Y-105989500D01*
X224456845Y-106037119D01*
X224409226Y-106132357D01*
X224409226Y-106179976D01*
X224456845Y-106275214D01*
X224504464Y-106322833D01*
X224599702Y-106370452D01*
X224790178Y-106370452D01*
X224885416Y-106418071D01*
X224933035Y-106465690D01*
X224980654Y-106560928D01*
X224980654Y-106751404D01*
X224933035Y-106846642D01*
X224885416Y-106894261D01*
X224790178Y-106941880D01*
X224599702Y-106941880D01*
X224504464Y-106894261D01*
X224456845Y-106846642D01*
X224409226Y-106751404D01*
X224409226Y-106560928D01*
X224456845Y-106465690D01*
X224504464Y-106418071D01*
X224599702Y-106370452D01*
%TO.C,MX47*%
X230361904Y-93987880D02*
X230361904Y-92987880D01*
X230028571Y-93702166D01*
X229695238Y-92987880D01*
X229695238Y-93987880D01*
X229314285Y-92987880D02*
X228647619Y-93987880D01*
X228647619Y-92987880D02*
X229314285Y-93987880D01*
X227838095Y-93321214D02*
X227838095Y-93987880D01*
X228076190Y-92940261D02*
X228314285Y-93654547D01*
X227695238Y-93654547D01*
X227409523Y-92987880D02*
X226742857Y-92987880D01*
X227171428Y-93987880D01*
%TO.C,MX46*%
X239886904Y-74937880D02*
X239886904Y-73937880D01*
X239553571Y-74652166D01*
X239220238Y-73937880D01*
X239220238Y-74937880D01*
X238839285Y-73937880D02*
X238172619Y-74937880D01*
X238172619Y-73937880D02*
X238839285Y-74937880D01*
X237363095Y-74271214D02*
X237363095Y-74937880D01*
X237601190Y-73890261D02*
X237839285Y-74604547D01*
X237220238Y-74604547D01*
X236410714Y-73937880D02*
X236601190Y-73937880D01*
X236696428Y-73985500D01*
X236744047Y-74033119D01*
X236839285Y-74175976D01*
X236886904Y-74366452D01*
X236886904Y-74747404D01*
X236839285Y-74842642D01*
X236791666Y-74890261D01*
X236696428Y-74937880D01*
X236505952Y-74937880D01*
X236410714Y-74890261D01*
X236363095Y-74842642D01*
X236315476Y-74747404D01*
X236315476Y-74509309D01*
X236363095Y-74414071D01*
X236410714Y-74366452D01*
X236505952Y-74318833D01*
X236696428Y-74318833D01*
X236791666Y-74366452D01*
X236839285Y-74414071D01*
X236886904Y-74509309D01*
%TO.C,MX45*%
X235124404Y-55887880D02*
X235124404Y-54887880D01*
X234791071Y-55602166D01*
X234457738Y-54887880D01*
X234457738Y-55887880D01*
X234076785Y-54887880D02*
X233410119Y-55887880D01*
X233410119Y-54887880D02*
X234076785Y-55887880D01*
X232600595Y-55221214D02*
X232600595Y-55887880D01*
X232838690Y-54840261D02*
X233076785Y-55554547D01*
X232457738Y-55554547D01*
X231600595Y-54887880D02*
X232076785Y-54887880D01*
X232124404Y-55364071D01*
X232076785Y-55316452D01*
X231981547Y-55268833D01*
X231743452Y-55268833D01*
X231648214Y-55316452D01*
X231600595Y-55364071D01*
X231552976Y-55459309D01*
X231552976Y-55697404D01*
X231600595Y-55792642D01*
X231648214Y-55840261D01*
X231743452Y-55887880D01*
X231981547Y-55887880D01*
X232076785Y-55840261D01*
X232124404Y-55792642D01*
%TO.C,MX44*%
X225599404Y-36837880D02*
X225599404Y-35837880D01*
X225266071Y-36552166D01*
X224932738Y-35837880D01*
X224932738Y-36837880D01*
X224551785Y-35837880D02*
X223885119Y-36837880D01*
X223885119Y-35837880D02*
X224551785Y-36837880D01*
X223075595Y-36171214D02*
X223075595Y-36837880D01*
X223313690Y-35790261D02*
X223551785Y-36504547D01*
X222932738Y-36504547D01*
X222123214Y-36171214D02*
X222123214Y-36837880D01*
X222361309Y-35790261D02*
X222599404Y-36504547D01*
X221980357Y-36504547D01*
%TO.C,MX43*%
X211311904Y-93987880D02*
X211311904Y-92987880D01*
X210978571Y-93702166D01*
X210645238Y-92987880D01*
X210645238Y-93987880D01*
X210264285Y-92987880D02*
X209597619Y-93987880D01*
X209597619Y-92987880D02*
X210264285Y-93987880D01*
X208788095Y-93321214D02*
X208788095Y-93987880D01*
X209026190Y-92940261D02*
X209264285Y-93654547D01*
X208645238Y-93654547D01*
X208359523Y-92987880D02*
X207740476Y-92987880D01*
X208073809Y-93368833D01*
X207930952Y-93368833D01*
X207835714Y-93416452D01*
X207788095Y-93464071D01*
X207740476Y-93559309D01*
X207740476Y-93797404D01*
X207788095Y-93892642D01*
X207835714Y-93940261D01*
X207930952Y-93987880D01*
X208216666Y-93987880D01*
X208311904Y-93940261D01*
X208359523Y-93892642D01*
%TO.C,MX42*%
X220836904Y-74937880D02*
X220836904Y-73937880D01*
X220503571Y-74652166D01*
X220170238Y-73937880D01*
X220170238Y-74937880D01*
X219789285Y-73937880D02*
X219122619Y-74937880D01*
X219122619Y-73937880D02*
X219789285Y-74937880D01*
X218313095Y-74271214D02*
X218313095Y-74937880D01*
X218551190Y-73890261D02*
X218789285Y-74604547D01*
X218170238Y-74604547D01*
X217836904Y-74033119D02*
X217789285Y-73985500D01*
X217694047Y-73937880D01*
X217455952Y-73937880D01*
X217360714Y-73985500D01*
X217313095Y-74033119D01*
X217265476Y-74128357D01*
X217265476Y-74223595D01*
X217313095Y-74366452D01*
X217884523Y-74937880D01*
X217265476Y-74937880D01*
%TO.C,MX41*%
X216074404Y-55887880D02*
X216074404Y-54887880D01*
X215741071Y-55602166D01*
X215407738Y-54887880D01*
X215407738Y-55887880D01*
X215026785Y-54887880D02*
X214360119Y-55887880D01*
X214360119Y-54887880D02*
X215026785Y-55887880D01*
X213550595Y-55221214D02*
X213550595Y-55887880D01*
X213788690Y-54840261D02*
X214026785Y-55554547D01*
X213407738Y-55554547D01*
X212502976Y-55887880D02*
X213074404Y-55887880D01*
X212788690Y-55887880D02*
X212788690Y-54887880D01*
X212883928Y-55030738D01*
X212979166Y-55125976D01*
X213074404Y-55173595D01*
%TO.C,MX40*%
X206549404Y-36837880D02*
X206549404Y-35837880D01*
X206216071Y-36552166D01*
X205882738Y-35837880D01*
X205882738Y-36837880D01*
X205501785Y-35837880D02*
X204835119Y-36837880D01*
X204835119Y-35837880D02*
X205501785Y-36837880D01*
X204025595Y-36171214D02*
X204025595Y-36837880D01*
X204263690Y-35790261D02*
X204501785Y-36504547D01*
X203882738Y-36504547D01*
X203311309Y-35837880D02*
X203216071Y-35837880D01*
X203120833Y-35885500D01*
X203073214Y-35933119D01*
X203025595Y-36028357D01*
X202977976Y-36218833D01*
X202977976Y-36456928D01*
X203025595Y-36647404D01*
X203073214Y-36742642D01*
X203120833Y-36790261D01*
X203216071Y-36837880D01*
X203311309Y-36837880D01*
X203406547Y-36790261D01*
X203454166Y-36742642D01*
X203501785Y-36647404D01*
X203549404Y-36456928D01*
X203549404Y-36218833D01*
X203501785Y-36028357D01*
X203454166Y-35933119D01*
X203406547Y-35885500D01*
X203311309Y-35837880D01*
%TO.C,MX39*%
X192261904Y-93987880D02*
X192261904Y-92987880D01*
X191928571Y-93702166D01*
X191595238Y-92987880D01*
X191595238Y-93987880D01*
X191214285Y-92987880D02*
X190547619Y-93987880D01*
X190547619Y-92987880D02*
X191214285Y-93987880D01*
X190261904Y-92987880D02*
X189642857Y-92987880D01*
X189976190Y-93368833D01*
X189833333Y-93368833D01*
X189738095Y-93416452D01*
X189690476Y-93464071D01*
X189642857Y-93559309D01*
X189642857Y-93797404D01*
X189690476Y-93892642D01*
X189738095Y-93940261D01*
X189833333Y-93987880D01*
X190119047Y-93987880D01*
X190214285Y-93940261D01*
X190261904Y-93892642D01*
X189166666Y-93987880D02*
X188976190Y-93987880D01*
X188880952Y-93940261D01*
X188833333Y-93892642D01*
X188738095Y-93749785D01*
X188690476Y-93559309D01*
X188690476Y-93178357D01*
X188738095Y-93083119D01*
X188785714Y-93035500D01*
X188880952Y-92987880D01*
X189071428Y-92987880D01*
X189166666Y-93035500D01*
X189214285Y-93083119D01*
X189261904Y-93178357D01*
X189261904Y-93416452D01*
X189214285Y-93511690D01*
X189166666Y-93559309D01*
X189071428Y-93606928D01*
X188880952Y-93606928D01*
X188785714Y-93559309D01*
X188738095Y-93511690D01*
X188690476Y-93416452D01*
%TO.C,MX38*%
X201786904Y-74937880D02*
X201786904Y-73937880D01*
X201453571Y-74652166D01*
X201120238Y-73937880D01*
X201120238Y-74937880D01*
X200739285Y-73937880D02*
X200072619Y-74937880D01*
X200072619Y-73937880D02*
X200739285Y-74937880D01*
X199786904Y-73937880D02*
X199167857Y-73937880D01*
X199501190Y-74318833D01*
X199358333Y-74318833D01*
X199263095Y-74366452D01*
X199215476Y-74414071D01*
X199167857Y-74509309D01*
X199167857Y-74747404D01*
X199215476Y-74842642D01*
X199263095Y-74890261D01*
X199358333Y-74937880D01*
X199644047Y-74937880D01*
X199739285Y-74890261D01*
X199786904Y-74842642D01*
X198596428Y-74366452D02*
X198691666Y-74318833D01*
X198739285Y-74271214D01*
X198786904Y-74175976D01*
X198786904Y-74128357D01*
X198739285Y-74033119D01*
X198691666Y-73985500D01*
X198596428Y-73937880D01*
X198405952Y-73937880D01*
X198310714Y-73985500D01*
X198263095Y-74033119D01*
X198215476Y-74128357D01*
X198215476Y-74175976D01*
X198263095Y-74271214D01*
X198310714Y-74318833D01*
X198405952Y-74366452D01*
X198596428Y-74366452D01*
X198691666Y-74414071D01*
X198739285Y-74461690D01*
X198786904Y-74556928D01*
X198786904Y-74747404D01*
X198739285Y-74842642D01*
X198691666Y-74890261D01*
X198596428Y-74937880D01*
X198405952Y-74937880D01*
X198310714Y-74890261D01*
X198263095Y-74842642D01*
X198215476Y-74747404D01*
X198215476Y-74556928D01*
X198263095Y-74461690D01*
X198310714Y-74414071D01*
X198405952Y-74366452D01*
%TO.C,MX37*%
X197024404Y-55887880D02*
X197024404Y-54887880D01*
X196691071Y-55602166D01*
X196357738Y-54887880D01*
X196357738Y-55887880D01*
X195976785Y-54887880D02*
X195310119Y-55887880D01*
X195310119Y-54887880D02*
X195976785Y-55887880D01*
X195024404Y-54887880D02*
X194405357Y-54887880D01*
X194738690Y-55268833D01*
X194595833Y-55268833D01*
X194500595Y-55316452D01*
X194452976Y-55364071D01*
X194405357Y-55459309D01*
X194405357Y-55697404D01*
X194452976Y-55792642D01*
X194500595Y-55840261D01*
X194595833Y-55887880D01*
X194881547Y-55887880D01*
X194976785Y-55840261D01*
X195024404Y-55792642D01*
X194072023Y-54887880D02*
X193405357Y-54887880D01*
X193833928Y-55887880D01*
%TO.C,MX36*%
X187499404Y-36837880D02*
X187499404Y-35837880D01*
X187166071Y-36552166D01*
X186832738Y-35837880D01*
X186832738Y-36837880D01*
X186451785Y-35837880D02*
X185785119Y-36837880D01*
X185785119Y-35837880D02*
X186451785Y-36837880D01*
X185499404Y-35837880D02*
X184880357Y-35837880D01*
X185213690Y-36218833D01*
X185070833Y-36218833D01*
X184975595Y-36266452D01*
X184927976Y-36314071D01*
X184880357Y-36409309D01*
X184880357Y-36647404D01*
X184927976Y-36742642D01*
X184975595Y-36790261D01*
X185070833Y-36837880D01*
X185356547Y-36837880D01*
X185451785Y-36790261D01*
X185499404Y-36742642D01*
X184023214Y-35837880D02*
X184213690Y-35837880D01*
X184308928Y-35885500D01*
X184356547Y-35933119D01*
X184451785Y-36075976D01*
X184499404Y-36266452D01*
X184499404Y-36647404D01*
X184451785Y-36742642D01*
X184404166Y-36790261D01*
X184308928Y-36837880D01*
X184118452Y-36837880D01*
X184023214Y-36790261D01*
X183975595Y-36742642D01*
X183927976Y-36647404D01*
X183927976Y-36409309D01*
X183975595Y-36314071D01*
X184023214Y-36266452D01*
X184118452Y-36218833D01*
X184308928Y-36218833D01*
X184404166Y-36266452D01*
X184451785Y-36314071D01*
X184499404Y-36409309D01*
%TO.C,MX35*%
X173211904Y-93987880D02*
X173211904Y-92987880D01*
X172878571Y-93702166D01*
X172545238Y-92987880D01*
X172545238Y-93987880D01*
X172164285Y-92987880D02*
X171497619Y-93987880D01*
X171497619Y-92987880D02*
X172164285Y-93987880D01*
X171211904Y-92987880D02*
X170592857Y-92987880D01*
X170926190Y-93368833D01*
X170783333Y-93368833D01*
X170688095Y-93416452D01*
X170640476Y-93464071D01*
X170592857Y-93559309D01*
X170592857Y-93797404D01*
X170640476Y-93892642D01*
X170688095Y-93940261D01*
X170783333Y-93987880D01*
X171069047Y-93987880D01*
X171164285Y-93940261D01*
X171211904Y-93892642D01*
X169688095Y-92987880D02*
X170164285Y-92987880D01*
X170211904Y-93464071D01*
X170164285Y-93416452D01*
X170069047Y-93368833D01*
X169830952Y-93368833D01*
X169735714Y-93416452D01*
X169688095Y-93464071D01*
X169640476Y-93559309D01*
X169640476Y-93797404D01*
X169688095Y-93892642D01*
X169735714Y-93940261D01*
X169830952Y-93987880D01*
X170069047Y-93987880D01*
X170164285Y-93940261D01*
X170211904Y-93892642D01*
%TO.C,MX34*%
X182736904Y-74937880D02*
X182736904Y-73937880D01*
X182403571Y-74652166D01*
X182070238Y-73937880D01*
X182070238Y-74937880D01*
X181689285Y-73937880D02*
X181022619Y-74937880D01*
X181022619Y-73937880D02*
X181689285Y-74937880D01*
X180736904Y-73937880D02*
X180117857Y-73937880D01*
X180451190Y-74318833D01*
X180308333Y-74318833D01*
X180213095Y-74366452D01*
X180165476Y-74414071D01*
X180117857Y-74509309D01*
X180117857Y-74747404D01*
X180165476Y-74842642D01*
X180213095Y-74890261D01*
X180308333Y-74937880D01*
X180594047Y-74937880D01*
X180689285Y-74890261D01*
X180736904Y-74842642D01*
X179260714Y-74271214D02*
X179260714Y-74937880D01*
X179498809Y-73890261D02*
X179736904Y-74604547D01*
X179117857Y-74604547D01*
%TO.C,MX33*%
X177974404Y-55887880D02*
X177974404Y-54887880D01*
X177641071Y-55602166D01*
X177307738Y-54887880D01*
X177307738Y-55887880D01*
X176926785Y-54887880D02*
X176260119Y-55887880D01*
X176260119Y-54887880D02*
X176926785Y-55887880D01*
X175974404Y-54887880D02*
X175355357Y-54887880D01*
X175688690Y-55268833D01*
X175545833Y-55268833D01*
X175450595Y-55316452D01*
X175402976Y-55364071D01*
X175355357Y-55459309D01*
X175355357Y-55697404D01*
X175402976Y-55792642D01*
X175450595Y-55840261D01*
X175545833Y-55887880D01*
X175831547Y-55887880D01*
X175926785Y-55840261D01*
X175974404Y-55792642D01*
X175022023Y-54887880D02*
X174402976Y-54887880D01*
X174736309Y-55268833D01*
X174593452Y-55268833D01*
X174498214Y-55316452D01*
X174450595Y-55364071D01*
X174402976Y-55459309D01*
X174402976Y-55697404D01*
X174450595Y-55792642D01*
X174498214Y-55840261D01*
X174593452Y-55887880D01*
X174879166Y-55887880D01*
X174974404Y-55840261D01*
X175022023Y-55792642D01*
%TO.C,MX32*%
X168449404Y-36837880D02*
X168449404Y-35837880D01*
X168116071Y-36552166D01*
X167782738Y-35837880D01*
X167782738Y-36837880D01*
X167401785Y-35837880D02*
X166735119Y-36837880D01*
X166735119Y-35837880D02*
X167401785Y-36837880D01*
X166449404Y-35837880D02*
X165830357Y-35837880D01*
X166163690Y-36218833D01*
X166020833Y-36218833D01*
X165925595Y-36266452D01*
X165877976Y-36314071D01*
X165830357Y-36409309D01*
X165830357Y-36647404D01*
X165877976Y-36742642D01*
X165925595Y-36790261D01*
X166020833Y-36837880D01*
X166306547Y-36837880D01*
X166401785Y-36790261D01*
X166449404Y-36742642D01*
X165449404Y-35933119D02*
X165401785Y-35885500D01*
X165306547Y-35837880D01*
X165068452Y-35837880D01*
X164973214Y-35885500D01*
X164925595Y-35933119D01*
X164877976Y-36028357D01*
X164877976Y-36123595D01*
X164925595Y-36266452D01*
X165497023Y-36837880D01*
X164877976Y-36837880D01*
%TO.C,MX31*%
X156543154Y-113037880D02*
X156543154Y-112037880D01*
X156209821Y-112752166D01*
X155876488Y-112037880D01*
X155876488Y-113037880D01*
X155495535Y-112037880D02*
X154828869Y-113037880D01*
X154828869Y-112037880D02*
X155495535Y-113037880D01*
X154543154Y-112037880D02*
X153924107Y-112037880D01*
X154257440Y-112418833D01*
X154114583Y-112418833D01*
X154019345Y-112466452D01*
X153971726Y-112514071D01*
X153924107Y-112609309D01*
X153924107Y-112847404D01*
X153971726Y-112942642D01*
X154019345Y-112990261D01*
X154114583Y-113037880D01*
X154400297Y-113037880D01*
X154495535Y-112990261D01*
X154543154Y-112942642D01*
X152971726Y-113037880D02*
X153543154Y-113037880D01*
X153257440Y-113037880D02*
X153257440Y-112037880D01*
X153352678Y-112180738D01*
X153447916Y-112275976D01*
X153543154Y-112323595D01*
%TO.C,MX30*%
X154161904Y-93987880D02*
X154161904Y-92987880D01*
X153828571Y-93702166D01*
X153495238Y-92987880D01*
X153495238Y-93987880D01*
X153114285Y-92987880D02*
X152447619Y-93987880D01*
X152447619Y-92987880D02*
X153114285Y-93987880D01*
X152161904Y-92987880D02*
X151542857Y-92987880D01*
X151876190Y-93368833D01*
X151733333Y-93368833D01*
X151638095Y-93416452D01*
X151590476Y-93464071D01*
X151542857Y-93559309D01*
X151542857Y-93797404D01*
X151590476Y-93892642D01*
X151638095Y-93940261D01*
X151733333Y-93987880D01*
X152019047Y-93987880D01*
X152114285Y-93940261D01*
X152161904Y-93892642D01*
X150923809Y-92987880D02*
X150828571Y-92987880D01*
X150733333Y-93035500D01*
X150685714Y-93083119D01*
X150638095Y-93178357D01*
X150590476Y-93368833D01*
X150590476Y-93606928D01*
X150638095Y-93797404D01*
X150685714Y-93892642D01*
X150733333Y-93940261D01*
X150828571Y-93987880D01*
X150923809Y-93987880D01*
X151019047Y-93940261D01*
X151066666Y-93892642D01*
X151114285Y-93797404D01*
X151161904Y-93606928D01*
X151161904Y-93368833D01*
X151114285Y-93178357D01*
X151066666Y-93083119D01*
X151019047Y-93035500D01*
X150923809Y-92987880D01*
%TO.C,MX29*%
X163686904Y-74937880D02*
X163686904Y-73937880D01*
X163353571Y-74652166D01*
X163020238Y-73937880D01*
X163020238Y-74937880D01*
X162639285Y-73937880D02*
X161972619Y-74937880D01*
X161972619Y-73937880D02*
X162639285Y-74937880D01*
X161639285Y-74033119D02*
X161591666Y-73985500D01*
X161496428Y-73937880D01*
X161258333Y-73937880D01*
X161163095Y-73985500D01*
X161115476Y-74033119D01*
X161067857Y-74128357D01*
X161067857Y-74223595D01*
X161115476Y-74366452D01*
X161686904Y-74937880D01*
X161067857Y-74937880D01*
X160591666Y-74937880D02*
X160401190Y-74937880D01*
X160305952Y-74890261D01*
X160258333Y-74842642D01*
X160163095Y-74699785D01*
X160115476Y-74509309D01*
X160115476Y-74128357D01*
X160163095Y-74033119D01*
X160210714Y-73985500D01*
X160305952Y-73937880D01*
X160496428Y-73937880D01*
X160591666Y-73985500D01*
X160639285Y-74033119D01*
X160686904Y-74128357D01*
X160686904Y-74366452D01*
X160639285Y-74461690D01*
X160591666Y-74509309D01*
X160496428Y-74556928D01*
X160305952Y-74556928D01*
X160210714Y-74509309D01*
X160163095Y-74461690D01*
X160115476Y-74366452D01*
%TO.C,MX28*%
X158924404Y-55887880D02*
X158924404Y-54887880D01*
X158591071Y-55602166D01*
X158257738Y-54887880D01*
X158257738Y-55887880D01*
X157876785Y-54887880D02*
X157210119Y-55887880D01*
X157210119Y-54887880D02*
X157876785Y-55887880D01*
X156876785Y-54983119D02*
X156829166Y-54935500D01*
X156733928Y-54887880D01*
X156495833Y-54887880D01*
X156400595Y-54935500D01*
X156352976Y-54983119D01*
X156305357Y-55078357D01*
X156305357Y-55173595D01*
X156352976Y-55316452D01*
X156924404Y-55887880D01*
X156305357Y-55887880D01*
X155733928Y-55316452D02*
X155829166Y-55268833D01*
X155876785Y-55221214D01*
X155924404Y-55125976D01*
X155924404Y-55078357D01*
X155876785Y-54983119D01*
X155829166Y-54935500D01*
X155733928Y-54887880D01*
X155543452Y-54887880D01*
X155448214Y-54935500D01*
X155400595Y-54983119D01*
X155352976Y-55078357D01*
X155352976Y-55125976D01*
X155400595Y-55221214D01*
X155448214Y-55268833D01*
X155543452Y-55316452D01*
X155733928Y-55316452D01*
X155829166Y-55364071D01*
X155876785Y-55411690D01*
X155924404Y-55506928D01*
X155924404Y-55697404D01*
X155876785Y-55792642D01*
X155829166Y-55840261D01*
X155733928Y-55887880D01*
X155543452Y-55887880D01*
X155448214Y-55840261D01*
X155400595Y-55792642D01*
X155352976Y-55697404D01*
X155352976Y-55506928D01*
X155400595Y-55411690D01*
X155448214Y-55364071D01*
X155543452Y-55316452D01*
%TO.C,MX27*%
X149399404Y-36837880D02*
X149399404Y-35837880D01*
X149066071Y-36552166D01*
X148732738Y-35837880D01*
X148732738Y-36837880D01*
X148351785Y-35837880D02*
X147685119Y-36837880D01*
X147685119Y-35837880D02*
X148351785Y-36837880D01*
X147351785Y-35933119D02*
X147304166Y-35885500D01*
X147208928Y-35837880D01*
X146970833Y-35837880D01*
X146875595Y-35885500D01*
X146827976Y-35933119D01*
X146780357Y-36028357D01*
X146780357Y-36123595D01*
X146827976Y-36266452D01*
X147399404Y-36837880D01*
X146780357Y-36837880D01*
X146447023Y-35837880D02*
X145780357Y-35837880D01*
X146208928Y-36837880D01*
%TO.C,MX26*%
X135111904Y-93987880D02*
X135111904Y-92987880D01*
X134778571Y-93702166D01*
X134445238Y-92987880D01*
X134445238Y-93987880D01*
X134064285Y-92987880D02*
X133397619Y-93987880D01*
X133397619Y-92987880D02*
X134064285Y-93987880D01*
X133064285Y-93083119D02*
X133016666Y-93035500D01*
X132921428Y-92987880D01*
X132683333Y-92987880D01*
X132588095Y-93035500D01*
X132540476Y-93083119D01*
X132492857Y-93178357D01*
X132492857Y-93273595D01*
X132540476Y-93416452D01*
X133111904Y-93987880D01*
X132492857Y-93987880D01*
X131635714Y-92987880D02*
X131826190Y-92987880D01*
X131921428Y-93035500D01*
X131969047Y-93083119D01*
X132064285Y-93225976D01*
X132111904Y-93416452D01*
X132111904Y-93797404D01*
X132064285Y-93892642D01*
X132016666Y-93940261D01*
X131921428Y-93987880D01*
X131730952Y-93987880D01*
X131635714Y-93940261D01*
X131588095Y-93892642D01*
X131540476Y-93797404D01*
X131540476Y-93559309D01*
X131588095Y-93464071D01*
X131635714Y-93416452D01*
X131730952Y-93368833D01*
X131921428Y-93368833D01*
X132016666Y-93416452D01*
X132064285Y-93464071D01*
X132111904Y-93559309D01*
%TO.C,MX25*%
X144636904Y-74937880D02*
X144636904Y-73937880D01*
X144303571Y-74652166D01*
X143970238Y-73937880D01*
X143970238Y-74937880D01*
X143589285Y-73937880D02*
X142922619Y-74937880D01*
X142922619Y-73937880D02*
X143589285Y-74937880D01*
X142589285Y-74033119D02*
X142541666Y-73985500D01*
X142446428Y-73937880D01*
X142208333Y-73937880D01*
X142113095Y-73985500D01*
X142065476Y-74033119D01*
X142017857Y-74128357D01*
X142017857Y-74223595D01*
X142065476Y-74366452D01*
X142636904Y-74937880D01*
X142017857Y-74937880D01*
X141113095Y-73937880D02*
X141589285Y-73937880D01*
X141636904Y-74414071D01*
X141589285Y-74366452D01*
X141494047Y-74318833D01*
X141255952Y-74318833D01*
X141160714Y-74366452D01*
X141113095Y-74414071D01*
X141065476Y-74509309D01*
X141065476Y-74747404D01*
X141113095Y-74842642D01*
X141160714Y-74890261D01*
X141255952Y-74937880D01*
X141494047Y-74937880D01*
X141589285Y-74890261D01*
X141636904Y-74842642D01*
%TO.C,MX24*%
X139874404Y-55887880D02*
X139874404Y-54887880D01*
X139541071Y-55602166D01*
X139207738Y-54887880D01*
X139207738Y-55887880D01*
X138826785Y-54887880D02*
X138160119Y-55887880D01*
X138160119Y-54887880D02*
X138826785Y-55887880D01*
X137826785Y-54983119D02*
X137779166Y-54935500D01*
X137683928Y-54887880D01*
X137445833Y-54887880D01*
X137350595Y-54935500D01*
X137302976Y-54983119D01*
X137255357Y-55078357D01*
X137255357Y-55173595D01*
X137302976Y-55316452D01*
X137874404Y-55887880D01*
X137255357Y-55887880D01*
X136398214Y-55221214D02*
X136398214Y-55887880D01*
X136636309Y-54840261D02*
X136874404Y-55554547D01*
X136255357Y-55554547D01*
%TO.C,MX23*%
X130349404Y-36837880D02*
X130349404Y-35837880D01*
X130016071Y-36552166D01*
X129682738Y-35837880D01*
X129682738Y-36837880D01*
X129301785Y-35837880D02*
X128635119Y-36837880D01*
X128635119Y-35837880D02*
X129301785Y-36837880D01*
X128301785Y-35933119D02*
X128254166Y-35885500D01*
X128158928Y-35837880D01*
X127920833Y-35837880D01*
X127825595Y-35885500D01*
X127777976Y-35933119D01*
X127730357Y-36028357D01*
X127730357Y-36123595D01*
X127777976Y-36266452D01*
X128349404Y-36837880D01*
X127730357Y-36837880D01*
X127397023Y-35837880D02*
X126777976Y-35837880D01*
X127111309Y-36218833D01*
X126968452Y-36218833D01*
X126873214Y-36266452D01*
X126825595Y-36314071D01*
X126777976Y-36409309D01*
X126777976Y-36647404D01*
X126825595Y-36742642D01*
X126873214Y-36790261D01*
X126968452Y-36837880D01*
X127254166Y-36837880D01*
X127349404Y-36790261D01*
X127397023Y-36742642D01*
%TO.C,MX22*%
X116061904Y-93987880D02*
X116061904Y-92987880D01*
X115728571Y-93702166D01*
X115395238Y-92987880D01*
X115395238Y-93987880D01*
X115014285Y-92987880D02*
X114347619Y-93987880D01*
X114347619Y-92987880D02*
X115014285Y-93987880D01*
X114014285Y-93083119D02*
X113966666Y-93035500D01*
X113871428Y-92987880D01*
X113633333Y-92987880D01*
X113538095Y-93035500D01*
X113490476Y-93083119D01*
X113442857Y-93178357D01*
X113442857Y-93273595D01*
X113490476Y-93416452D01*
X114061904Y-93987880D01*
X113442857Y-93987880D01*
X113061904Y-93083119D02*
X113014285Y-93035500D01*
X112919047Y-92987880D01*
X112680952Y-92987880D01*
X112585714Y-93035500D01*
X112538095Y-93083119D01*
X112490476Y-93178357D01*
X112490476Y-93273595D01*
X112538095Y-93416452D01*
X113109523Y-93987880D01*
X112490476Y-93987880D01*
%TO.C,MX21*%
X125586904Y-74937880D02*
X125586904Y-73937880D01*
X125253571Y-74652166D01*
X124920238Y-73937880D01*
X124920238Y-74937880D01*
X124539285Y-73937880D02*
X123872619Y-74937880D01*
X123872619Y-73937880D02*
X124539285Y-74937880D01*
X123539285Y-74033119D02*
X123491666Y-73985500D01*
X123396428Y-73937880D01*
X123158333Y-73937880D01*
X123063095Y-73985500D01*
X123015476Y-74033119D01*
X122967857Y-74128357D01*
X122967857Y-74223595D01*
X123015476Y-74366452D01*
X123586904Y-74937880D01*
X122967857Y-74937880D01*
X122015476Y-74937880D02*
X122586904Y-74937880D01*
X122301190Y-74937880D02*
X122301190Y-73937880D01*
X122396428Y-74080738D01*
X122491666Y-74175976D01*
X122586904Y-74223595D01*
%TO.C,MX20*%
X120824404Y-55887880D02*
X120824404Y-54887880D01*
X120491071Y-55602166D01*
X120157738Y-54887880D01*
X120157738Y-55887880D01*
X119776785Y-54887880D02*
X119110119Y-55887880D01*
X119110119Y-54887880D02*
X119776785Y-55887880D01*
X118776785Y-54983119D02*
X118729166Y-54935500D01*
X118633928Y-54887880D01*
X118395833Y-54887880D01*
X118300595Y-54935500D01*
X118252976Y-54983119D01*
X118205357Y-55078357D01*
X118205357Y-55173595D01*
X118252976Y-55316452D01*
X118824404Y-55887880D01*
X118205357Y-55887880D01*
X117586309Y-54887880D02*
X117491071Y-54887880D01*
X117395833Y-54935500D01*
X117348214Y-54983119D01*
X117300595Y-55078357D01*
X117252976Y-55268833D01*
X117252976Y-55506928D01*
X117300595Y-55697404D01*
X117348214Y-55792642D01*
X117395833Y-55840261D01*
X117491071Y-55887880D01*
X117586309Y-55887880D01*
X117681547Y-55840261D01*
X117729166Y-55792642D01*
X117776785Y-55697404D01*
X117824404Y-55506928D01*
X117824404Y-55268833D01*
X117776785Y-55078357D01*
X117729166Y-54983119D01*
X117681547Y-54935500D01*
X117586309Y-54887880D01*
%TO.C,MX19*%
X111299404Y-36837880D02*
X111299404Y-35837880D01*
X110966071Y-36552166D01*
X110632738Y-35837880D01*
X110632738Y-36837880D01*
X110251785Y-35837880D02*
X109585119Y-36837880D01*
X109585119Y-35837880D02*
X110251785Y-36837880D01*
X108680357Y-36837880D02*
X109251785Y-36837880D01*
X108966071Y-36837880D02*
X108966071Y-35837880D01*
X109061309Y-35980738D01*
X109156547Y-36075976D01*
X109251785Y-36123595D01*
X108204166Y-36837880D02*
X108013690Y-36837880D01*
X107918452Y-36790261D01*
X107870833Y-36742642D01*
X107775595Y-36599785D01*
X107727976Y-36409309D01*
X107727976Y-36028357D01*
X107775595Y-35933119D01*
X107823214Y-35885500D01*
X107918452Y-35837880D01*
X108108928Y-35837880D01*
X108204166Y-35885500D01*
X108251785Y-35933119D01*
X108299404Y-36028357D01*
X108299404Y-36266452D01*
X108251785Y-36361690D01*
X108204166Y-36409309D01*
X108108928Y-36456928D01*
X107918452Y-36456928D01*
X107823214Y-36409309D01*
X107775595Y-36361690D01*
X107727976Y-36266452D01*
%TO.C,MX18*%
X97011904Y-93987880D02*
X97011904Y-92987880D01*
X96678571Y-93702166D01*
X96345238Y-92987880D01*
X96345238Y-93987880D01*
X95964285Y-92987880D02*
X95297619Y-93987880D01*
X95297619Y-92987880D02*
X95964285Y-93987880D01*
X94392857Y-93987880D02*
X94964285Y-93987880D01*
X94678571Y-93987880D02*
X94678571Y-92987880D01*
X94773809Y-93130738D01*
X94869047Y-93225976D01*
X94964285Y-93273595D01*
X93821428Y-93416452D02*
X93916666Y-93368833D01*
X93964285Y-93321214D01*
X94011904Y-93225976D01*
X94011904Y-93178357D01*
X93964285Y-93083119D01*
X93916666Y-93035500D01*
X93821428Y-92987880D01*
X93630952Y-92987880D01*
X93535714Y-93035500D01*
X93488095Y-93083119D01*
X93440476Y-93178357D01*
X93440476Y-93225976D01*
X93488095Y-93321214D01*
X93535714Y-93368833D01*
X93630952Y-93416452D01*
X93821428Y-93416452D01*
X93916666Y-93464071D01*
X93964285Y-93511690D01*
X94011904Y-93606928D01*
X94011904Y-93797404D01*
X93964285Y-93892642D01*
X93916666Y-93940261D01*
X93821428Y-93987880D01*
X93630952Y-93987880D01*
X93535714Y-93940261D01*
X93488095Y-93892642D01*
X93440476Y-93797404D01*
X93440476Y-93606928D01*
X93488095Y-93511690D01*
X93535714Y-93464071D01*
X93630952Y-93416452D01*
%TO.C,MX17*%
X106536904Y-74937880D02*
X106536904Y-73937880D01*
X106203571Y-74652166D01*
X105870238Y-73937880D01*
X105870238Y-74937880D01*
X105489285Y-73937880D02*
X104822619Y-74937880D01*
X104822619Y-73937880D02*
X105489285Y-74937880D01*
X103917857Y-74937880D02*
X104489285Y-74937880D01*
X104203571Y-74937880D02*
X104203571Y-73937880D01*
X104298809Y-74080738D01*
X104394047Y-74175976D01*
X104489285Y-74223595D01*
X103584523Y-73937880D02*
X102917857Y-73937880D01*
X103346428Y-74937880D01*
%TO.C,MX16*%
X101774404Y-55887880D02*
X101774404Y-54887880D01*
X101441071Y-55602166D01*
X101107738Y-54887880D01*
X101107738Y-55887880D01*
X100726785Y-54887880D02*
X100060119Y-55887880D01*
X100060119Y-54887880D02*
X100726785Y-55887880D01*
X99155357Y-55887880D02*
X99726785Y-55887880D01*
X99441071Y-55887880D02*
X99441071Y-54887880D01*
X99536309Y-55030738D01*
X99631547Y-55125976D01*
X99726785Y-55173595D01*
X98298214Y-54887880D02*
X98488690Y-54887880D01*
X98583928Y-54935500D01*
X98631547Y-54983119D01*
X98726785Y-55125976D01*
X98774404Y-55316452D01*
X98774404Y-55697404D01*
X98726785Y-55792642D01*
X98679166Y-55840261D01*
X98583928Y-55887880D01*
X98393452Y-55887880D01*
X98298214Y-55840261D01*
X98250595Y-55792642D01*
X98202976Y-55697404D01*
X98202976Y-55459309D01*
X98250595Y-55364071D01*
X98298214Y-55316452D01*
X98393452Y-55268833D01*
X98583928Y-55268833D01*
X98679166Y-55316452D01*
X98726785Y-55364071D01*
X98774404Y-55459309D01*
%TO.C,MX15*%
X92249404Y-36837880D02*
X92249404Y-35837880D01*
X91916071Y-36552166D01*
X91582738Y-35837880D01*
X91582738Y-36837880D01*
X91201785Y-35837880D02*
X90535119Y-36837880D01*
X90535119Y-35837880D02*
X91201785Y-36837880D01*
X89630357Y-36837880D02*
X90201785Y-36837880D01*
X89916071Y-36837880D02*
X89916071Y-35837880D01*
X90011309Y-35980738D01*
X90106547Y-36075976D01*
X90201785Y-36123595D01*
X88725595Y-35837880D02*
X89201785Y-35837880D01*
X89249404Y-36314071D01*
X89201785Y-36266452D01*
X89106547Y-36218833D01*
X88868452Y-36218833D01*
X88773214Y-36266452D01*
X88725595Y-36314071D01*
X88677976Y-36409309D01*
X88677976Y-36647404D01*
X88725595Y-36742642D01*
X88773214Y-36790261D01*
X88868452Y-36837880D01*
X89106547Y-36837880D01*
X89201785Y-36790261D01*
X89249404Y-36742642D01*
%TO.C,MX14*%
X85105654Y-113037880D02*
X85105654Y-112037880D01*
X84772321Y-112752166D01*
X84438988Y-112037880D01*
X84438988Y-113037880D01*
X84058035Y-112037880D02*
X83391369Y-113037880D01*
X83391369Y-112037880D02*
X84058035Y-113037880D01*
X82486607Y-113037880D02*
X83058035Y-113037880D01*
X82772321Y-113037880D02*
X82772321Y-112037880D01*
X82867559Y-112180738D01*
X82962797Y-112275976D01*
X83058035Y-112323595D01*
X81629464Y-112371214D02*
X81629464Y-113037880D01*
X81867559Y-111990261D02*
X82105654Y-112704547D01*
X81486607Y-112704547D01*
%TO.C,MX13*%
X77961904Y-93987880D02*
X77961904Y-92987880D01*
X77628571Y-93702166D01*
X77295238Y-92987880D01*
X77295238Y-93987880D01*
X76914285Y-92987880D02*
X76247619Y-93987880D01*
X76247619Y-92987880D02*
X76914285Y-93987880D01*
X75342857Y-93987880D02*
X75914285Y-93987880D01*
X75628571Y-93987880D02*
X75628571Y-92987880D01*
X75723809Y-93130738D01*
X75819047Y-93225976D01*
X75914285Y-93273595D01*
X75009523Y-92987880D02*
X74390476Y-92987880D01*
X74723809Y-93368833D01*
X74580952Y-93368833D01*
X74485714Y-93416452D01*
X74438095Y-93464071D01*
X74390476Y-93559309D01*
X74390476Y-93797404D01*
X74438095Y-93892642D01*
X74485714Y-93940261D01*
X74580952Y-93987880D01*
X74866666Y-93987880D01*
X74961904Y-93940261D01*
X75009523Y-93892642D01*
%TO.C,MX12*%
X87486904Y-74937880D02*
X87486904Y-73937880D01*
X87153571Y-74652166D01*
X86820238Y-73937880D01*
X86820238Y-74937880D01*
X86439285Y-73937880D02*
X85772619Y-74937880D01*
X85772619Y-73937880D02*
X86439285Y-74937880D01*
X84867857Y-74937880D02*
X85439285Y-74937880D01*
X85153571Y-74937880D02*
X85153571Y-73937880D01*
X85248809Y-74080738D01*
X85344047Y-74175976D01*
X85439285Y-74223595D01*
X84486904Y-74033119D02*
X84439285Y-73985500D01*
X84344047Y-73937880D01*
X84105952Y-73937880D01*
X84010714Y-73985500D01*
X83963095Y-74033119D01*
X83915476Y-74128357D01*
X83915476Y-74223595D01*
X83963095Y-74366452D01*
X84534523Y-74937880D01*
X83915476Y-74937880D01*
%TO.C,MX11*%
X82724404Y-55887880D02*
X82724404Y-54887880D01*
X82391071Y-55602166D01*
X82057738Y-54887880D01*
X82057738Y-55887880D01*
X81676785Y-54887880D02*
X81010119Y-55887880D01*
X81010119Y-54887880D02*
X81676785Y-55887880D01*
X80105357Y-55887880D02*
X80676785Y-55887880D01*
X80391071Y-55887880D02*
X80391071Y-54887880D01*
X80486309Y-55030738D01*
X80581547Y-55125976D01*
X80676785Y-55173595D01*
X79152976Y-55887880D02*
X79724404Y-55887880D01*
X79438690Y-55887880D02*
X79438690Y-54887880D01*
X79533928Y-55030738D01*
X79629166Y-55125976D01*
X79724404Y-55173595D01*
%TO.C,MX10*%
X73199404Y-36837880D02*
X73199404Y-35837880D01*
X72866071Y-36552166D01*
X72532738Y-35837880D01*
X72532738Y-36837880D01*
X72151785Y-35837880D02*
X71485119Y-36837880D01*
X71485119Y-35837880D02*
X72151785Y-36837880D01*
X70580357Y-36837880D02*
X71151785Y-36837880D01*
X70866071Y-36837880D02*
X70866071Y-35837880D01*
X70961309Y-35980738D01*
X71056547Y-36075976D01*
X71151785Y-36123595D01*
X69961309Y-35837880D02*
X69866071Y-35837880D01*
X69770833Y-35885500D01*
X69723214Y-35933119D01*
X69675595Y-36028357D01*
X69627976Y-36218833D01*
X69627976Y-36456928D01*
X69675595Y-36647404D01*
X69723214Y-36742642D01*
X69770833Y-36790261D01*
X69866071Y-36837880D01*
X69961309Y-36837880D01*
X70056547Y-36790261D01*
X70104166Y-36742642D01*
X70151785Y-36647404D01*
X70199404Y-36456928D01*
X70199404Y-36218833D01*
X70151785Y-36028357D01*
X70104166Y-35933119D01*
X70056547Y-35885500D01*
X69961309Y-35837880D01*
%TO.C,MX9*%
X60816964Y-113037880D02*
X60816964Y-112037880D01*
X60483630Y-112752166D01*
X60150297Y-112037880D01*
X60150297Y-113037880D01*
X59769345Y-112037880D02*
X59102678Y-113037880D01*
X59102678Y-112037880D02*
X59769345Y-113037880D01*
X58674107Y-113037880D02*
X58483630Y-113037880D01*
X58388392Y-112990261D01*
X58340773Y-112942642D01*
X58245535Y-112799785D01*
X58197916Y-112609309D01*
X58197916Y-112228357D01*
X58245535Y-112133119D01*
X58293154Y-112085500D01*
X58388392Y-112037880D01*
X58578869Y-112037880D01*
X58674107Y-112085500D01*
X58721726Y-112133119D01*
X58769345Y-112228357D01*
X58769345Y-112466452D01*
X58721726Y-112561690D01*
X58674107Y-112609309D01*
X58578869Y-112656928D01*
X58388392Y-112656928D01*
X58293154Y-112609309D01*
X58245535Y-112561690D01*
X58197916Y-112466452D01*
%TO.C,MX8*%
X67960714Y-74937880D02*
X67960714Y-73937880D01*
X67627380Y-74652166D01*
X67294047Y-73937880D01*
X67294047Y-74937880D01*
X66913095Y-73937880D02*
X66246428Y-74937880D01*
X66246428Y-73937880D02*
X66913095Y-74937880D01*
X65722619Y-74366452D02*
X65817857Y-74318833D01*
X65865476Y-74271214D01*
X65913095Y-74175976D01*
X65913095Y-74128357D01*
X65865476Y-74033119D01*
X65817857Y-73985500D01*
X65722619Y-73937880D01*
X65532142Y-73937880D01*
X65436904Y-73985500D01*
X65389285Y-74033119D01*
X65341666Y-74128357D01*
X65341666Y-74175976D01*
X65389285Y-74271214D01*
X65436904Y-74318833D01*
X65532142Y-74366452D01*
X65722619Y-74366452D01*
X65817857Y-74414071D01*
X65865476Y-74461690D01*
X65913095Y-74556928D01*
X65913095Y-74747404D01*
X65865476Y-74842642D01*
X65817857Y-74890261D01*
X65722619Y-74937880D01*
X65532142Y-74937880D01*
X65436904Y-74890261D01*
X65389285Y-74842642D01*
X65341666Y-74747404D01*
X65341666Y-74556928D01*
X65389285Y-74461690D01*
X65436904Y-74414071D01*
X65532142Y-74366452D01*
%TO.C,MX7*%
X63198214Y-49791880D02*
X63198214Y-48791880D01*
X62864880Y-49506166D01*
X62531547Y-48791880D01*
X62531547Y-49791880D01*
X62150595Y-48791880D02*
X61483928Y-49791880D01*
X61483928Y-48791880D02*
X62150595Y-49791880D01*
X61198214Y-48791880D02*
X60531547Y-48791880D01*
X60960119Y-49791880D01*
%TO.C,MX6*%
X53673214Y-30741880D02*
X53673214Y-29741880D01*
X53339880Y-30456166D01*
X53006547Y-29741880D01*
X53006547Y-30741880D01*
X52625595Y-29741880D02*
X51958928Y-30741880D01*
X51958928Y-29741880D02*
X52625595Y-30741880D01*
X51149404Y-29741880D02*
X51339880Y-29741880D01*
X51435119Y-29789500D01*
X51482738Y-29837119D01*
X51577976Y-29979976D01*
X51625595Y-30170452D01*
X51625595Y-30551404D01*
X51577976Y-30646642D01*
X51530357Y-30694261D01*
X51435119Y-30741880D01*
X51244642Y-30741880D01*
X51149404Y-30694261D01*
X51101785Y-30646642D01*
X51054166Y-30551404D01*
X51054166Y-30313309D01*
X51101785Y-30218071D01*
X51149404Y-30170452D01*
X51244642Y-30122833D01*
X51435119Y-30122833D01*
X51530357Y-30170452D01*
X51577976Y-30218071D01*
X51625595Y-30313309D01*
%TO.C,MX5*%
X37004464Y-113037880D02*
X37004464Y-112037880D01*
X36671130Y-112752166D01*
X36337797Y-112037880D01*
X36337797Y-113037880D01*
X35956845Y-112037880D02*
X35290178Y-113037880D01*
X35290178Y-112037880D02*
X35956845Y-113037880D01*
X34433035Y-112037880D02*
X34909226Y-112037880D01*
X34956845Y-112514071D01*
X34909226Y-112466452D01*
X34813988Y-112418833D01*
X34575892Y-112418833D01*
X34480654Y-112466452D01*
X34433035Y-112514071D01*
X34385416Y-112609309D01*
X34385416Y-112847404D01*
X34433035Y-112942642D01*
X34480654Y-112990261D01*
X34575892Y-113037880D01*
X34813988Y-113037880D01*
X34909226Y-112990261D01*
X34956845Y-112942642D01*
%TO.C,MX4*%
X46529464Y-93987880D02*
X46529464Y-92987880D01*
X46196130Y-93702166D01*
X45862797Y-92987880D01*
X45862797Y-93987880D01*
X45481845Y-92987880D02*
X44815178Y-93987880D01*
X44815178Y-92987880D02*
X45481845Y-93987880D01*
X44005654Y-93321214D02*
X44005654Y-93987880D01*
X44243750Y-92940261D02*
X44481845Y-93654547D01*
X43862797Y-93654547D01*
%TO.C,MX3*%
X41766964Y-74937880D02*
X41766964Y-73937880D01*
X41433630Y-74652166D01*
X41100297Y-73937880D01*
X41100297Y-74937880D01*
X40719345Y-73937880D02*
X40052678Y-74937880D01*
X40052678Y-73937880D02*
X40719345Y-74937880D01*
X39766964Y-73937880D02*
X39147916Y-73937880D01*
X39481250Y-74318833D01*
X39338392Y-74318833D01*
X39243154Y-74366452D01*
X39195535Y-74414071D01*
X39147916Y-74509309D01*
X39147916Y-74747404D01*
X39195535Y-74842642D01*
X39243154Y-74890261D01*
X39338392Y-74937880D01*
X39624107Y-74937880D01*
X39719345Y-74890261D01*
X39766964Y-74842642D01*
%TO.C,MX2*%
X39385714Y-55887880D02*
X39385714Y-54887880D01*
X39052380Y-55602166D01*
X38719047Y-54887880D01*
X38719047Y-55887880D01*
X38338095Y-54887880D02*
X37671428Y-55887880D01*
X37671428Y-54887880D02*
X38338095Y-55887880D01*
X37338095Y-54983119D02*
X37290476Y-54935500D01*
X37195238Y-54887880D01*
X36957142Y-54887880D01*
X36861904Y-54935500D01*
X36814285Y-54983119D01*
X36766666Y-55078357D01*
X36766666Y-55173595D01*
X36814285Y-55316452D01*
X37385714Y-55887880D01*
X36766666Y-55887880D01*
%TO.C,MX1*%
X34623214Y-30741880D02*
X34623214Y-29741880D01*
X34289880Y-30456166D01*
X33956547Y-29741880D01*
X33956547Y-30741880D01*
X33575595Y-29741880D02*
X32908928Y-30741880D01*
X32908928Y-29741880D02*
X33575595Y-30741880D01*
X32004166Y-30741880D02*
X32575595Y-30741880D01*
X32289880Y-30741880D02*
X32289880Y-29741880D01*
X32385119Y-29884738D01*
X32480357Y-29979976D01*
X32575595Y-30027595D01*
%TO.C,F1*%
X35784571Y-37766666D02*
X35784571Y-37433333D01*
X36308380Y-37433333D02*
X35308380Y-37433333D01*
X35308380Y-37909523D01*
X36308380Y-38814285D02*
X36308380Y-38242857D01*
X36308380Y-38528571D02*
X35308380Y-38528571D01*
X35451238Y-38433333D01*
X35546476Y-38338095D01*
X35594095Y-38242857D01*
%TO.C,D61*%
X308046130Y-108323214D02*
X307046130Y-108323214D01*
X307046130Y-108561309D01*
X307093750Y-108704166D01*
X307188988Y-108799404D01*
X307284226Y-108847023D01*
X307474702Y-108894642D01*
X307617559Y-108894642D01*
X307808035Y-108847023D01*
X307903273Y-108799404D01*
X307998511Y-108704166D01*
X308046130Y-108561309D01*
X308046130Y-108323214D01*
X307046130Y-109751785D02*
X307046130Y-109561309D01*
X307093750Y-109466071D01*
X307141369Y-109418452D01*
X307284226Y-109323214D01*
X307474702Y-109275595D01*
X307855654Y-109275595D01*
X307950892Y-109323214D01*
X307998511Y-109370833D01*
X308046130Y-109466071D01*
X308046130Y-109656547D01*
X307998511Y-109751785D01*
X307950892Y-109799404D01*
X307855654Y-109847023D01*
X307617559Y-109847023D01*
X307522321Y-109799404D01*
X307474702Y-109751785D01*
X307427083Y-109656547D01*
X307427083Y-109466071D01*
X307474702Y-109370833D01*
X307522321Y-109323214D01*
X307617559Y-109275595D01*
X308046130Y-110799404D02*
X308046130Y-110227976D01*
X308046130Y-110513690D02*
X307046130Y-110513690D01*
X307188988Y-110418452D01*
X307284226Y-110323214D01*
X307331845Y-110227976D01*
%TO.C,D60*%
X293758630Y-89273214D02*
X292758630Y-89273214D01*
X292758630Y-89511309D01*
X292806250Y-89654166D01*
X292901488Y-89749404D01*
X292996726Y-89797023D01*
X293187202Y-89844642D01*
X293330059Y-89844642D01*
X293520535Y-89797023D01*
X293615773Y-89749404D01*
X293711011Y-89654166D01*
X293758630Y-89511309D01*
X293758630Y-89273214D01*
X292758630Y-90701785D02*
X292758630Y-90511309D01*
X292806250Y-90416071D01*
X292853869Y-90368452D01*
X292996726Y-90273214D01*
X293187202Y-90225595D01*
X293568154Y-90225595D01*
X293663392Y-90273214D01*
X293711011Y-90320833D01*
X293758630Y-90416071D01*
X293758630Y-90606547D01*
X293711011Y-90701785D01*
X293663392Y-90749404D01*
X293568154Y-90797023D01*
X293330059Y-90797023D01*
X293234821Y-90749404D01*
X293187202Y-90701785D01*
X293139583Y-90606547D01*
X293139583Y-90416071D01*
X293187202Y-90320833D01*
X293234821Y-90273214D01*
X293330059Y-90225595D01*
X292758630Y-91416071D02*
X292758630Y-91511309D01*
X292806250Y-91606547D01*
X292853869Y-91654166D01*
X292949107Y-91701785D01*
X293139583Y-91749404D01*
X293377678Y-91749404D01*
X293568154Y-91701785D01*
X293663392Y-91654166D01*
X293711011Y-91606547D01*
X293758630Y-91511309D01*
X293758630Y-91416071D01*
X293711011Y-91320833D01*
X293663392Y-91273214D01*
X293568154Y-91225595D01*
X293377678Y-91177976D01*
X293139583Y-91177976D01*
X292949107Y-91225595D01*
X292853869Y-91273214D01*
X292806250Y-91320833D01*
X292758630Y-91416071D01*
%TO.C,D59*%
X298521130Y-70223214D02*
X297521130Y-70223214D01*
X297521130Y-70461309D01*
X297568750Y-70604166D01*
X297663988Y-70699404D01*
X297759226Y-70747023D01*
X297949702Y-70794642D01*
X298092559Y-70794642D01*
X298283035Y-70747023D01*
X298378273Y-70699404D01*
X298473511Y-70604166D01*
X298521130Y-70461309D01*
X298521130Y-70223214D01*
X297521130Y-71699404D02*
X297521130Y-71223214D01*
X297997321Y-71175595D01*
X297949702Y-71223214D01*
X297902083Y-71318452D01*
X297902083Y-71556547D01*
X297949702Y-71651785D01*
X297997321Y-71699404D01*
X298092559Y-71747023D01*
X298330654Y-71747023D01*
X298425892Y-71699404D01*
X298473511Y-71651785D01*
X298521130Y-71556547D01*
X298521130Y-71318452D01*
X298473511Y-71223214D01*
X298425892Y-71175595D01*
X298521130Y-72223214D02*
X298521130Y-72413690D01*
X298473511Y-72508928D01*
X298425892Y-72556547D01*
X298283035Y-72651785D01*
X298092559Y-72699404D01*
X297711607Y-72699404D01*
X297616369Y-72651785D01*
X297568750Y-72604166D01*
X297521130Y-72508928D01*
X297521130Y-72318452D01*
X297568750Y-72223214D01*
X297616369Y-72175595D01*
X297711607Y-72127976D01*
X297949702Y-72127976D01*
X298044940Y-72175595D01*
X298092559Y-72223214D01*
X298140178Y-72318452D01*
X298140178Y-72508928D01*
X298092559Y-72604166D01*
X298044940Y-72651785D01*
X297949702Y-72699404D01*
%TO.C,D58*%
X287408630Y-58316964D02*
X286408630Y-58316964D01*
X286408630Y-58555059D01*
X286456250Y-58697916D01*
X286551488Y-58793154D01*
X286646726Y-58840773D01*
X286837202Y-58888392D01*
X286980059Y-58888392D01*
X287170535Y-58840773D01*
X287265773Y-58793154D01*
X287361011Y-58697916D01*
X287408630Y-58555059D01*
X287408630Y-58316964D01*
X286408630Y-59793154D02*
X286408630Y-59316964D01*
X286884821Y-59269345D01*
X286837202Y-59316964D01*
X286789583Y-59412202D01*
X286789583Y-59650297D01*
X286837202Y-59745535D01*
X286884821Y-59793154D01*
X286980059Y-59840773D01*
X287218154Y-59840773D01*
X287313392Y-59793154D01*
X287361011Y-59745535D01*
X287408630Y-59650297D01*
X287408630Y-59412202D01*
X287361011Y-59316964D01*
X287313392Y-59269345D01*
X286837202Y-60412202D02*
X286789583Y-60316964D01*
X286741964Y-60269345D01*
X286646726Y-60221726D01*
X286599107Y-60221726D01*
X286503869Y-60269345D01*
X286456250Y-60316964D01*
X286408630Y-60412202D01*
X286408630Y-60602678D01*
X286456250Y-60697916D01*
X286503869Y-60745535D01*
X286599107Y-60793154D01*
X286646726Y-60793154D01*
X286741964Y-60745535D01*
X286789583Y-60697916D01*
X286837202Y-60602678D01*
X286837202Y-60412202D01*
X286884821Y-60316964D01*
X286932440Y-60269345D01*
X287027678Y-60221726D01*
X287218154Y-60221726D01*
X287313392Y-60269345D01*
X287361011Y-60316964D01*
X287408630Y-60412202D01*
X287408630Y-60602678D01*
X287361011Y-60697916D01*
X287313392Y-60745535D01*
X287218154Y-60793154D01*
X287027678Y-60793154D01*
X286932440Y-60745535D01*
X286884821Y-60697916D01*
X286837202Y-60602678D01*
%TO.C,D57*%
X300902380Y-32123214D02*
X299902380Y-32123214D01*
X299902380Y-32361309D01*
X299950000Y-32504166D01*
X300045238Y-32599404D01*
X300140476Y-32647023D01*
X300330952Y-32694642D01*
X300473809Y-32694642D01*
X300664285Y-32647023D01*
X300759523Y-32599404D01*
X300854761Y-32504166D01*
X300902380Y-32361309D01*
X300902380Y-32123214D01*
X299902380Y-33599404D02*
X299902380Y-33123214D01*
X300378571Y-33075595D01*
X300330952Y-33123214D01*
X300283333Y-33218452D01*
X300283333Y-33456547D01*
X300330952Y-33551785D01*
X300378571Y-33599404D01*
X300473809Y-33647023D01*
X300711904Y-33647023D01*
X300807142Y-33599404D01*
X300854761Y-33551785D01*
X300902380Y-33456547D01*
X300902380Y-33218452D01*
X300854761Y-33123214D01*
X300807142Y-33075595D01*
X299902380Y-33980357D02*
X299902380Y-34647023D01*
X300902380Y-34218452D01*
%TO.C,D56*%
X284233630Y-108323214D02*
X283233630Y-108323214D01*
X283233630Y-108561309D01*
X283281250Y-108704166D01*
X283376488Y-108799404D01*
X283471726Y-108847023D01*
X283662202Y-108894642D01*
X283805059Y-108894642D01*
X283995535Y-108847023D01*
X284090773Y-108799404D01*
X284186011Y-108704166D01*
X284233630Y-108561309D01*
X284233630Y-108323214D01*
X283233630Y-109799404D02*
X283233630Y-109323214D01*
X283709821Y-109275595D01*
X283662202Y-109323214D01*
X283614583Y-109418452D01*
X283614583Y-109656547D01*
X283662202Y-109751785D01*
X283709821Y-109799404D01*
X283805059Y-109847023D01*
X284043154Y-109847023D01*
X284138392Y-109799404D01*
X284186011Y-109751785D01*
X284233630Y-109656547D01*
X284233630Y-109418452D01*
X284186011Y-109323214D01*
X284138392Y-109275595D01*
X283233630Y-110704166D02*
X283233630Y-110513690D01*
X283281250Y-110418452D01*
X283328869Y-110370833D01*
X283471726Y-110275595D01*
X283662202Y-110227976D01*
X284043154Y-110227976D01*
X284138392Y-110275595D01*
X284186011Y-110323214D01*
X284233630Y-110418452D01*
X284233630Y-110608928D01*
X284186011Y-110704166D01*
X284138392Y-110751785D01*
X284043154Y-110799404D01*
X283805059Y-110799404D01*
X283709821Y-110751785D01*
X283662202Y-110704166D01*
X283614583Y-110608928D01*
X283614583Y-110418452D01*
X283662202Y-110323214D01*
X283709821Y-110275595D01*
X283805059Y-110227976D01*
%TO.C,D55*%
X281852380Y-51173214D02*
X280852380Y-51173214D01*
X280852380Y-51411309D01*
X280900000Y-51554166D01*
X280995238Y-51649404D01*
X281090476Y-51697023D01*
X281280952Y-51744642D01*
X281423809Y-51744642D01*
X281614285Y-51697023D01*
X281709523Y-51649404D01*
X281804761Y-51554166D01*
X281852380Y-51411309D01*
X281852380Y-51173214D01*
X280852380Y-52649404D02*
X280852380Y-52173214D01*
X281328571Y-52125595D01*
X281280952Y-52173214D01*
X281233333Y-52268452D01*
X281233333Y-52506547D01*
X281280952Y-52601785D01*
X281328571Y-52649404D01*
X281423809Y-52697023D01*
X281661904Y-52697023D01*
X281757142Y-52649404D01*
X281804761Y-52601785D01*
X281852380Y-52506547D01*
X281852380Y-52268452D01*
X281804761Y-52173214D01*
X281757142Y-52125595D01*
X280852380Y-53601785D02*
X280852380Y-53125595D01*
X281328571Y-53077976D01*
X281280952Y-53125595D01*
X281233333Y-53220833D01*
X281233333Y-53458928D01*
X281280952Y-53554166D01*
X281328571Y-53601785D01*
X281423809Y-53649404D01*
X281661904Y-53649404D01*
X281757142Y-53601785D01*
X281804761Y-53554166D01*
X281852380Y-53458928D01*
X281852380Y-53220833D01*
X281804761Y-53125595D01*
X281757142Y-53077976D01*
%TO.C,D54*%
X272327380Y-32123214D02*
X271327380Y-32123214D01*
X271327380Y-32361309D01*
X271375000Y-32504166D01*
X271470238Y-32599404D01*
X271565476Y-32647023D01*
X271755952Y-32694642D01*
X271898809Y-32694642D01*
X272089285Y-32647023D01*
X272184523Y-32599404D01*
X272279761Y-32504166D01*
X272327380Y-32361309D01*
X272327380Y-32123214D01*
X271327380Y-33599404D02*
X271327380Y-33123214D01*
X271803571Y-33075595D01*
X271755952Y-33123214D01*
X271708333Y-33218452D01*
X271708333Y-33456547D01*
X271755952Y-33551785D01*
X271803571Y-33599404D01*
X271898809Y-33647023D01*
X272136904Y-33647023D01*
X272232142Y-33599404D01*
X272279761Y-33551785D01*
X272327380Y-33456547D01*
X272327380Y-33218452D01*
X272279761Y-33123214D01*
X272232142Y-33075595D01*
X271660714Y-34504166D02*
X272327380Y-34504166D01*
X271279761Y-34266071D02*
X271994047Y-34027976D01*
X271994047Y-34647023D01*
%TO.C,D53*%
X260421130Y-108323214D02*
X259421130Y-108323214D01*
X259421130Y-108561309D01*
X259468750Y-108704166D01*
X259563988Y-108799404D01*
X259659226Y-108847023D01*
X259849702Y-108894642D01*
X259992559Y-108894642D01*
X260183035Y-108847023D01*
X260278273Y-108799404D01*
X260373511Y-108704166D01*
X260421130Y-108561309D01*
X260421130Y-108323214D01*
X259421130Y-109799404D02*
X259421130Y-109323214D01*
X259897321Y-109275595D01*
X259849702Y-109323214D01*
X259802083Y-109418452D01*
X259802083Y-109656547D01*
X259849702Y-109751785D01*
X259897321Y-109799404D01*
X259992559Y-109847023D01*
X260230654Y-109847023D01*
X260325892Y-109799404D01*
X260373511Y-109751785D01*
X260421130Y-109656547D01*
X260421130Y-109418452D01*
X260373511Y-109323214D01*
X260325892Y-109275595D01*
X259421130Y-110180357D02*
X259421130Y-110799404D01*
X259802083Y-110466071D01*
X259802083Y-110608928D01*
X259849702Y-110704166D01*
X259897321Y-110751785D01*
X259992559Y-110799404D01*
X260230654Y-110799404D01*
X260325892Y-110751785D01*
X260373511Y-110704166D01*
X260421130Y-110608928D01*
X260421130Y-110323214D01*
X260373511Y-110227976D01*
X260325892Y-110180357D01*
%TO.C,D52*%
X258039880Y-89273214D02*
X257039880Y-89273214D01*
X257039880Y-89511309D01*
X257087500Y-89654166D01*
X257182738Y-89749404D01*
X257277976Y-89797023D01*
X257468452Y-89844642D01*
X257611309Y-89844642D01*
X257801785Y-89797023D01*
X257897023Y-89749404D01*
X257992261Y-89654166D01*
X258039880Y-89511309D01*
X258039880Y-89273214D01*
X257039880Y-90749404D02*
X257039880Y-90273214D01*
X257516071Y-90225595D01*
X257468452Y-90273214D01*
X257420833Y-90368452D01*
X257420833Y-90606547D01*
X257468452Y-90701785D01*
X257516071Y-90749404D01*
X257611309Y-90797023D01*
X257849404Y-90797023D01*
X257944642Y-90749404D01*
X257992261Y-90701785D01*
X258039880Y-90606547D01*
X258039880Y-90368452D01*
X257992261Y-90273214D01*
X257944642Y-90225595D01*
X257135119Y-91177976D02*
X257087500Y-91225595D01*
X257039880Y-91320833D01*
X257039880Y-91558928D01*
X257087500Y-91654166D01*
X257135119Y-91701785D01*
X257230357Y-91749404D01*
X257325595Y-91749404D01*
X257468452Y-91701785D01*
X258039880Y-91130357D01*
X258039880Y-91749404D01*
%TO.C,D51*%
X267564880Y-70223214D02*
X266564880Y-70223214D01*
X266564880Y-70461309D01*
X266612500Y-70604166D01*
X266707738Y-70699404D01*
X266802976Y-70747023D01*
X266993452Y-70794642D01*
X267136309Y-70794642D01*
X267326785Y-70747023D01*
X267422023Y-70699404D01*
X267517261Y-70604166D01*
X267564880Y-70461309D01*
X267564880Y-70223214D01*
X266564880Y-71699404D02*
X266564880Y-71223214D01*
X267041071Y-71175595D01*
X266993452Y-71223214D01*
X266945833Y-71318452D01*
X266945833Y-71556547D01*
X266993452Y-71651785D01*
X267041071Y-71699404D01*
X267136309Y-71747023D01*
X267374404Y-71747023D01*
X267469642Y-71699404D01*
X267517261Y-71651785D01*
X267564880Y-71556547D01*
X267564880Y-71318452D01*
X267517261Y-71223214D01*
X267469642Y-71175595D01*
X267564880Y-72699404D02*
X267564880Y-72127976D01*
X267564880Y-72413690D02*
X266564880Y-72413690D01*
X266707738Y-72318452D01*
X266802976Y-72223214D01*
X266850595Y-72127976D01*
%TO.C,D50*%
X262802380Y-51173214D02*
X261802380Y-51173214D01*
X261802380Y-51411309D01*
X261850000Y-51554166D01*
X261945238Y-51649404D01*
X262040476Y-51697023D01*
X262230952Y-51744642D01*
X262373809Y-51744642D01*
X262564285Y-51697023D01*
X262659523Y-51649404D01*
X262754761Y-51554166D01*
X262802380Y-51411309D01*
X262802380Y-51173214D01*
X261802380Y-52649404D02*
X261802380Y-52173214D01*
X262278571Y-52125595D01*
X262230952Y-52173214D01*
X262183333Y-52268452D01*
X262183333Y-52506547D01*
X262230952Y-52601785D01*
X262278571Y-52649404D01*
X262373809Y-52697023D01*
X262611904Y-52697023D01*
X262707142Y-52649404D01*
X262754761Y-52601785D01*
X262802380Y-52506547D01*
X262802380Y-52268452D01*
X262754761Y-52173214D01*
X262707142Y-52125595D01*
X261802380Y-53316071D02*
X261802380Y-53411309D01*
X261850000Y-53506547D01*
X261897619Y-53554166D01*
X261992857Y-53601785D01*
X262183333Y-53649404D01*
X262421428Y-53649404D01*
X262611904Y-53601785D01*
X262707142Y-53554166D01*
X262754761Y-53506547D01*
X262802380Y-53411309D01*
X262802380Y-53316071D01*
X262754761Y-53220833D01*
X262707142Y-53173214D01*
X262611904Y-53125595D01*
X262421428Y-53077976D01*
X262183333Y-53077976D01*
X261992857Y-53125595D01*
X261897619Y-53173214D01*
X261850000Y-53220833D01*
X261802380Y-53316071D01*
%TO.C,D49*%
X253277380Y-32123214D02*
X252277380Y-32123214D01*
X252277380Y-32361309D01*
X252325000Y-32504166D01*
X252420238Y-32599404D01*
X252515476Y-32647023D01*
X252705952Y-32694642D01*
X252848809Y-32694642D01*
X253039285Y-32647023D01*
X253134523Y-32599404D01*
X253229761Y-32504166D01*
X253277380Y-32361309D01*
X253277380Y-32123214D01*
X252610714Y-33551785D02*
X253277380Y-33551785D01*
X252229761Y-33313690D02*
X252944047Y-33075595D01*
X252944047Y-33694642D01*
X253277380Y-34123214D02*
X253277380Y-34313690D01*
X253229761Y-34408928D01*
X253182142Y-34456547D01*
X253039285Y-34551785D01*
X252848809Y-34599404D01*
X252467857Y-34599404D01*
X252372619Y-34551785D01*
X252325000Y-34504166D01*
X252277380Y-34408928D01*
X252277380Y-34218452D01*
X252325000Y-34123214D01*
X252372619Y-34075595D01*
X252467857Y-34027976D01*
X252705952Y-34027976D01*
X252801190Y-34075595D01*
X252848809Y-34123214D01*
X252896428Y-34218452D01*
X252896428Y-34408928D01*
X252848809Y-34504166D01*
X252801190Y-34551785D01*
X252705952Y-34599404D01*
%TO.C,D48*%
X217908035Y-117546130D02*
X217908035Y-116546130D01*
X217669940Y-116546130D01*
X217527083Y-116593750D01*
X217431845Y-116688988D01*
X217384226Y-116784226D01*
X217336607Y-116974702D01*
X217336607Y-117117559D01*
X217384226Y-117308035D01*
X217431845Y-117403273D01*
X217527083Y-117498511D01*
X217669940Y-117546130D01*
X217908035Y-117546130D01*
X216479464Y-116879464D02*
X216479464Y-117546130D01*
X216717559Y-116498511D02*
X216955654Y-117212797D01*
X216336607Y-117212797D01*
X215812797Y-116974702D02*
X215908035Y-116927083D01*
X215955654Y-116879464D01*
X216003273Y-116784226D01*
X216003273Y-116736607D01*
X215955654Y-116641369D01*
X215908035Y-116593750D01*
X215812797Y-116546130D01*
X215622321Y-116546130D01*
X215527083Y-116593750D01*
X215479464Y-116641369D01*
X215431845Y-116736607D01*
X215431845Y-116784226D01*
X215479464Y-116879464D01*
X215527083Y-116927083D01*
X215622321Y-116974702D01*
X215812797Y-116974702D01*
X215908035Y-117022321D01*
X215955654Y-117069940D01*
X216003273Y-117165178D01*
X216003273Y-117355654D01*
X215955654Y-117450892D01*
X215908035Y-117498511D01*
X215812797Y-117546130D01*
X215622321Y-117546130D01*
X215527083Y-117498511D01*
X215479464Y-117450892D01*
X215431845Y-117355654D01*
X215431845Y-117165178D01*
X215479464Y-117069940D01*
X215527083Y-117022321D01*
X215622321Y-116974702D01*
%TO.C,D47*%
X238989880Y-89273214D02*
X237989880Y-89273214D01*
X237989880Y-89511309D01*
X238037500Y-89654166D01*
X238132738Y-89749404D01*
X238227976Y-89797023D01*
X238418452Y-89844642D01*
X238561309Y-89844642D01*
X238751785Y-89797023D01*
X238847023Y-89749404D01*
X238942261Y-89654166D01*
X238989880Y-89511309D01*
X238989880Y-89273214D01*
X238323214Y-90701785D02*
X238989880Y-90701785D01*
X237942261Y-90463690D02*
X238656547Y-90225595D01*
X238656547Y-90844642D01*
X237989880Y-91130357D02*
X237989880Y-91797023D01*
X238989880Y-91368452D01*
%TO.C,D46*%
X248514880Y-70223214D02*
X247514880Y-70223214D01*
X247514880Y-70461309D01*
X247562500Y-70604166D01*
X247657738Y-70699404D01*
X247752976Y-70747023D01*
X247943452Y-70794642D01*
X248086309Y-70794642D01*
X248276785Y-70747023D01*
X248372023Y-70699404D01*
X248467261Y-70604166D01*
X248514880Y-70461309D01*
X248514880Y-70223214D01*
X247848214Y-71651785D02*
X248514880Y-71651785D01*
X247467261Y-71413690D02*
X248181547Y-71175595D01*
X248181547Y-71794642D01*
X247514880Y-72604166D02*
X247514880Y-72413690D01*
X247562500Y-72318452D01*
X247610119Y-72270833D01*
X247752976Y-72175595D01*
X247943452Y-72127976D01*
X248324404Y-72127976D01*
X248419642Y-72175595D01*
X248467261Y-72223214D01*
X248514880Y-72318452D01*
X248514880Y-72508928D01*
X248467261Y-72604166D01*
X248419642Y-72651785D01*
X248324404Y-72699404D01*
X248086309Y-72699404D01*
X247991071Y-72651785D01*
X247943452Y-72604166D01*
X247895833Y-72508928D01*
X247895833Y-72318452D01*
X247943452Y-72223214D01*
X247991071Y-72175595D01*
X248086309Y-72127976D01*
%TO.C,D45*%
X243752380Y-51173214D02*
X242752380Y-51173214D01*
X242752380Y-51411309D01*
X242800000Y-51554166D01*
X242895238Y-51649404D01*
X242990476Y-51697023D01*
X243180952Y-51744642D01*
X243323809Y-51744642D01*
X243514285Y-51697023D01*
X243609523Y-51649404D01*
X243704761Y-51554166D01*
X243752380Y-51411309D01*
X243752380Y-51173214D01*
X243085714Y-52601785D02*
X243752380Y-52601785D01*
X242704761Y-52363690D02*
X243419047Y-52125595D01*
X243419047Y-52744642D01*
X242752380Y-53601785D02*
X242752380Y-53125595D01*
X243228571Y-53077976D01*
X243180952Y-53125595D01*
X243133333Y-53220833D01*
X243133333Y-53458928D01*
X243180952Y-53554166D01*
X243228571Y-53601785D01*
X243323809Y-53649404D01*
X243561904Y-53649404D01*
X243657142Y-53601785D01*
X243704761Y-53554166D01*
X243752380Y-53458928D01*
X243752380Y-53220833D01*
X243704761Y-53125595D01*
X243657142Y-53077976D01*
%TO.C,D44*%
X234227380Y-32123214D02*
X233227380Y-32123214D01*
X233227380Y-32361309D01*
X233275000Y-32504166D01*
X233370238Y-32599404D01*
X233465476Y-32647023D01*
X233655952Y-32694642D01*
X233798809Y-32694642D01*
X233989285Y-32647023D01*
X234084523Y-32599404D01*
X234179761Y-32504166D01*
X234227380Y-32361309D01*
X234227380Y-32123214D01*
X233560714Y-33551785D02*
X234227380Y-33551785D01*
X233179761Y-33313690D02*
X233894047Y-33075595D01*
X233894047Y-33694642D01*
X233560714Y-34504166D02*
X234227380Y-34504166D01*
X233179761Y-34266071D02*
X233894047Y-34027976D01*
X233894047Y-34647023D01*
%TO.C,D43*%
X219939880Y-89273214D02*
X218939880Y-89273214D01*
X218939880Y-89511309D01*
X218987500Y-89654166D01*
X219082738Y-89749404D01*
X219177976Y-89797023D01*
X219368452Y-89844642D01*
X219511309Y-89844642D01*
X219701785Y-89797023D01*
X219797023Y-89749404D01*
X219892261Y-89654166D01*
X219939880Y-89511309D01*
X219939880Y-89273214D01*
X219273214Y-90701785D02*
X219939880Y-90701785D01*
X218892261Y-90463690D02*
X219606547Y-90225595D01*
X219606547Y-90844642D01*
X218939880Y-91130357D02*
X218939880Y-91749404D01*
X219320833Y-91416071D01*
X219320833Y-91558928D01*
X219368452Y-91654166D01*
X219416071Y-91701785D01*
X219511309Y-91749404D01*
X219749404Y-91749404D01*
X219844642Y-91701785D01*
X219892261Y-91654166D01*
X219939880Y-91558928D01*
X219939880Y-91273214D01*
X219892261Y-91177976D01*
X219844642Y-91130357D01*
%TO.C,D42*%
X229464880Y-70223214D02*
X228464880Y-70223214D01*
X228464880Y-70461309D01*
X228512500Y-70604166D01*
X228607738Y-70699404D01*
X228702976Y-70747023D01*
X228893452Y-70794642D01*
X229036309Y-70794642D01*
X229226785Y-70747023D01*
X229322023Y-70699404D01*
X229417261Y-70604166D01*
X229464880Y-70461309D01*
X229464880Y-70223214D01*
X228798214Y-71651785D02*
X229464880Y-71651785D01*
X228417261Y-71413690D02*
X229131547Y-71175595D01*
X229131547Y-71794642D01*
X228560119Y-72127976D02*
X228512500Y-72175595D01*
X228464880Y-72270833D01*
X228464880Y-72508928D01*
X228512500Y-72604166D01*
X228560119Y-72651785D01*
X228655357Y-72699404D01*
X228750595Y-72699404D01*
X228893452Y-72651785D01*
X229464880Y-72080357D01*
X229464880Y-72699404D01*
%TO.C,D41*%
X224702380Y-51173214D02*
X223702380Y-51173214D01*
X223702380Y-51411309D01*
X223750000Y-51554166D01*
X223845238Y-51649404D01*
X223940476Y-51697023D01*
X224130952Y-51744642D01*
X224273809Y-51744642D01*
X224464285Y-51697023D01*
X224559523Y-51649404D01*
X224654761Y-51554166D01*
X224702380Y-51411309D01*
X224702380Y-51173214D01*
X224035714Y-52601785D02*
X224702380Y-52601785D01*
X223654761Y-52363690D02*
X224369047Y-52125595D01*
X224369047Y-52744642D01*
X224702380Y-53649404D02*
X224702380Y-53077976D01*
X224702380Y-53363690D02*
X223702380Y-53363690D01*
X223845238Y-53268452D01*
X223940476Y-53173214D01*
X223988095Y-53077976D01*
%TO.C,D40*%
X215177380Y-32123214D02*
X214177380Y-32123214D01*
X214177380Y-32361309D01*
X214225000Y-32504166D01*
X214320238Y-32599404D01*
X214415476Y-32647023D01*
X214605952Y-32694642D01*
X214748809Y-32694642D01*
X214939285Y-32647023D01*
X215034523Y-32599404D01*
X215129761Y-32504166D01*
X215177380Y-32361309D01*
X215177380Y-32123214D01*
X214510714Y-33551785D02*
X215177380Y-33551785D01*
X214129761Y-33313690D02*
X214844047Y-33075595D01*
X214844047Y-33694642D01*
X214177380Y-34266071D02*
X214177380Y-34361309D01*
X214225000Y-34456547D01*
X214272619Y-34504166D01*
X214367857Y-34551785D01*
X214558333Y-34599404D01*
X214796428Y-34599404D01*
X214986904Y-34551785D01*
X215082142Y-34504166D01*
X215129761Y-34456547D01*
X215177380Y-34361309D01*
X215177380Y-34266071D01*
X215129761Y-34170833D01*
X215082142Y-34123214D01*
X214986904Y-34075595D01*
X214796428Y-34027976D01*
X214558333Y-34027976D01*
X214367857Y-34075595D01*
X214272619Y-34123214D01*
X214225000Y-34170833D01*
X214177380Y-34266071D01*
%TO.C,D39*%
X200889880Y-89273214D02*
X199889880Y-89273214D01*
X199889880Y-89511309D01*
X199937500Y-89654166D01*
X200032738Y-89749404D01*
X200127976Y-89797023D01*
X200318452Y-89844642D01*
X200461309Y-89844642D01*
X200651785Y-89797023D01*
X200747023Y-89749404D01*
X200842261Y-89654166D01*
X200889880Y-89511309D01*
X200889880Y-89273214D01*
X199889880Y-90177976D02*
X199889880Y-90797023D01*
X200270833Y-90463690D01*
X200270833Y-90606547D01*
X200318452Y-90701785D01*
X200366071Y-90749404D01*
X200461309Y-90797023D01*
X200699404Y-90797023D01*
X200794642Y-90749404D01*
X200842261Y-90701785D01*
X200889880Y-90606547D01*
X200889880Y-90320833D01*
X200842261Y-90225595D01*
X200794642Y-90177976D01*
X200889880Y-91273214D02*
X200889880Y-91463690D01*
X200842261Y-91558928D01*
X200794642Y-91606547D01*
X200651785Y-91701785D01*
X200461309Y-91749404D01*
X200080357Y-91749404D01*
X199985119Y-91701785D01*
X199937500Y-91654166D01*
X199889880Y-91558928D01*
X199889880Y-91368452D01*
X199937500Y-91273214D01*
X199985119Y-91225595D01*
X200080357Y-91177976D01*
X200318452Y-91177976D01*
X200413690Y-91225595D01*
X200461309Y-91273214D01*
X200508928Y-91368452D01*
X200508928Y-91558928D01*
X200461309Y-91654166D01*
X200413690Y-91701785D01*
X200318452Y-91749404D01*
%TO.C,D38*%
X210414880Y-70223214D02*
X209414880Y-70223214D01*
X209414880Y-70461309D01*
X209462500Y-70604166D01*
X209557738Y-70699404D01*
X209652976Y-70747023D01*
X209843452Y-70794642D01*
X209986309Y-70794642D01*
X210176785Y-70747023D01*
X210272023Y-70699404D01*
X210367261Y-70604166D01*
X210414880Y-70461309D01*
X210414880Y-70223214D01*
X209414880Y-71127976D02*
X209414880Y-71747023D01*
X209795833Y-71413690D01*
X209795833Y-71556547D01*
X209843452Y-71651785D01*
X209891071Y-71699404D01*
X209986309Y-71747023D01*
X210224404Y-71747023D01*
X210319642Y-71699404D01*
X210367261Y-71651785D01*
X210414880Y-71556547D01*
X210414880Y-71270833D01*
X210367261Y-71175595D01*
X210319642Y-71127976D01*
X209843452Y-72318452D02*
X209795833Y-72223214D01*
X209748214Y-72175595D01*
X209652976Y-72127976D01*
X209605357Y-72127976D01*
X209510119Y-72175595D01*
X209462500Y-72223214D01*
X209414880Y-72318452D01*
X209414880Y-72508928D01*
X209462500Y-72604166D01*
X209510119Y-72651785D01*
X209605357Y-72699404D01*
X209652976Y-72699404D01*
X209748214Y-72651785D01*
X209795833Y-72604166D01*
X209843452Y-72508928D01*
X209843452Y-72318452D01*
X209891071Y-72223214D01*
X209938690Y-72175595D01*
X210033928Y-72127976D01*
X210224404Y-72127976D01*
X210319642Y-72175595D01*
X210367261Y-72223214D01*
X210414880Y-72318452D01*
X210414880Y-72508928D01*
X210367261Y-72604166D01*
X210319642Y-72651785D01*
X210224404Y-72699404D01*
X210033928Y-72699404D01*
X209938690Y-72651785D01*
X209891071Y-72604166D01*
X209843452Y-72508928D01*
%TO.C,D37*%
X205652380Y-51173214D02*
X204652380Y-51173214D01*
X204652380Y-51411309D01*
X204700000Y-51554166D01*
X204795238Y-51649404D01*
X204890476Y-51697023D01*
X205080952Y-51744642D01*
X205223809Y-51744642D01*
X205414285Y-51697023D01*
X205509523Y-51649404D01*
X205604761Y-51554166D01*
X205652380Y-51411309D01*
X205652380Y-51173214D01*
X204652380Y-52077976D02*
X204652380Y-52697023D01*
X205033333Y-52363690D01*
X205033333Y-52506547D01*
X205080952Y-52601785D01*
X205128571Y-52649404D01*
X205223809Y-52697023D01*
X205461904Y-52697023D01*
X205557142Y-52649404D01*
X205604761Y-52601785D01*
X205652380Y-52506547D01*
X205652380Y-52220833D01*
X205604761Y-52125595D01*
X205557142Y-52077976D01*
X204652380Y-53030357D02*
X204652380Y-53697023D01*
X205652380Y-53268452D01*
%TO.C,D36*%
X196127380Y-32123214D02*
X195127380Y-32123214D01*
X195127380Y-32361309D01*
X195175000Y-32504166D01*
X195270238Y-32599404D01*
X195365476Y-32647023D01*
X195555952Y-32694642D01*
X195698809Y-32694642D01*
X195889285Y-32647023D01*
X195984523Y-32599404D01*
X196079761Y-32504166D01*
X196127380Y-32361309D01*
X196127380Y-32123214D01*
X195127380Y-33027976D02*
X195127380Y-33647023D01*
X195508333Y-33313690D01*
X195508333Y-33456547D01*
X195555952Y-33551785D01*
X195603571Y-33599404D01*
X195698809Y-33647023D01*
X195936904Y-33647023D01*
X196032142Y-33599404D01*
X196079761Y-33551785D01*
X196127380Y-33456547D01*
X196127380Y-33170833D01*
X196079761Y-33075595D01*
X196032142Y-33027976D01*
X195127380Y-34504166D02*
X195127380Y-34313690D01*
X195175000Y-34218452D01*
X195222619Y-34170833D01*
X195365476Y-34075595D01*
X195555952Y-34027976D01*
X195936904Y-34027976D01*
X196032142Y-34075595D01*
X196079761Y-34123214D01*
X196127380Y-34218452D01*
X196127380Y-34408928D01*
X196079761Y-34504166D01*
X196032142Y-34551785D01*
X195936904Y-34599404D01*
X195698809Y-34599404D01*
X195603571Y-34551785D01*
X195555952Y-34504166D01*
X195508333Y-34408928D01*
X195508333Y-34218452D01*
X195555952Y-34123214D01*
X195603571Y-34075595D01*
X195698809Y-34027976D01*
%TO.C,D35*%
X181839880Y-89273214D02*
X180839880Y-89273214D01*
X180839880Y-89511309D01*
X180887500Y-89654166D01*
X180982738Y-89749404D01*
X181077976Y-89797023D01*
X181268452Y-89844642D01*
X181411309Y-89844642D01*
X181601785Y-89797023D01*
X181697023Y-89749404D01*
X181792261Y-89654166D01*
X181839880Y-89511309D01*
X181839880Y-89273214D01*
X180839880Y-90177976D02*
X180839880Y-90797023D01*
X181220833Y-90463690D01*
X181220833Y-90606547D01*
X181268452Y-90701785D01*
X181316071Y-90749404D01*
X181411309Y-90797023D01*
X181649404Y-90797023D01*
X181744642Y-90749404D01*
X181792261Y-90701785D01*
X181839880Y-90606547D01*
X181839880Y-90320833D01*
X181792261Y-90225595D01*
X181744642Y-90177976D01*
X180839880Y-91701785D02*
X180839880Y-91225595D01*
X181316071Y-91177976D01*
X181268452Y-91225595D01*
X181220833Y-91320833D01*
X181220833Y-91558928D01*
X181268452Y-91654166D01*
X181316071Y-91701785D01*
X181411309Y-91749404D01*
X181649404Y-91749404D01*
X181744642Y-91701785D01*
X181792261Y-91654166D01*
X181839880Y-91558928D01*
X181839880Y-91320833D01*
X181792261Y-91225595D01*
X181744642Y-91177976D01*
%TO.C,D34*%
X191364880Y-70223214D02*
X190364880Y-70223214D01*
X190364880Y-70461309D01*
X190412500Y-70604166D01*
X190507738Y-70699404D01*
X190602976Y-70747023D01*
X190793452Y-70794642D01*
X190936309Y-70794642D01*
X191126785Y-70747023D01*
X191222023Y-70699404D01*
X191317261Y-70604166D01*
X191364880Y-70461309D01*
X191364880Y-70223214D01*
X190364880Y-71127976D02*
X190364880Y-71747023D01*
X190745833Y-71413690D01*
X190745833Y-71556547D01*
X190793452Y-71651785D01*
X190841071Y-71699404D01*
X190936309Y-71747023D01*
X191174404Y-71747023D01*
X191269642Y-71699404D01*
X191317261Y-71651785D01*
X191364880Y-71556547D01*
X191364880Y-71270833D01*
X191317261Y-71175595D01*
X191269642Y-71127976D01*
X190698214Y-72604166D02*
X191364880Y-72604166D01*
X190317261Y-72366071D02*
X191031547Y-72127976D01*
X191031547Y-72747023D01*
%TO.C,D33*%
X186602380Y-51173214D02*
X185602380Y-51173214D01*
X185602380Y-51411309D01*
X185650000Y-51554166D01*
X185745238Y-51649404D01*
X185840476Y-51697023D01*
X186030952Y-51744642D01*
X186173809Y-51744642D01*
X186364285Y-51697023D01*
X186459523Y-51649404D01*
X186554761Y-51554166D01*
X186602380Y-51411309D01*
X186602380Y-51173214D01*
X185602380Y-52077976D02*
X185602380Y-52697023D01*
X185983333Y-52363690D01*
X185983333Y-52506547D01*
X186030952Y-52601785D01*
X186078571Y-52649404D01*
X186173809Y-52697023D01*
X186411904Y-52697023D01*
X186507142Y-52649404D01*
X186554761Y-52601785D01*
X186602380Y-52506547D01*
X186602380Y-52220833D01*
X186554761Y-52125595D01*
X186507142Y-52077976D01*
X185602380Y-53030357D02*
X185602380Y-53649404D01*
X185983333Y-53316071D01*
X185983333Y-53458928D01*
X186030952Y-53554166D01*
X186078571Y-53601785D01*
X186173809Y-53649404D01*
X186411904Y-53649404D01*
X186507142Y-53601785D01*
X186554761Y-53554166D01*
X186602380Y-53458928D01*
X186602380Y-53173214D01*
X186554761Y-53077976D01*
X186507142Y-53030357D01*
%TO.C,D32*%
X177077380Y-32123214D02*
X176077380Y-32123214D01*
X176077380Y-32361309D01*
X176125000Y-32504166D01*
X176220238Y-32599404D01*
X176315476Y-32647023D01*
X176505952Y-32694642D01*
X176648809Y-32694642D01*
X176839285Y-32647023D01*
X176934523Y-32599404D01*
X177029761Y-32504166D01*
X177077380Y-32361309D01*
X177077380Y-32123214D01*
X176077380Y-33027976D02*
X176077380Y-33647023D01*
X176458333Y-33313690D01*
X176458333Y-33456547D01*
X176505952Y-33551785D01*
X176553571Y-33599404D01*
X176648809Y-33647023D01*
X176886904Y-33647023D01*
X176982142Y-33599404D01*
X177029761Y-33551785D01*
X177077380Y-33456547D01*
X177077380Y-33170833D01*
X177029761Y-33075595D01*
X176982142Y-33027976D01*
X176172619Y-34027976D02*
X176125000Y-34075595D01*
X176077380Y-34170833D01*
X176077380Y-34408928D01*
X176125000Y-34504166D01*
X176172619Y-34551785D01*
X176267857Y-34599404D01*
X176363095Y-34599404D01*
X176505952Y-34551785D01*
X177077380Y-33980357D01*
X177077380Y-34599404D01*
%TO.C,D31*%
X165171130Y-108323214D02*
X164171130Y-108323214D01*
X164171130Y-108561309D01*
X164218750Y-108704166D01*
X164313988Y-108799404D01*
X164409226Y-108847023D01*
X164599702Y-108894642D01*
X164742559Y-108894642D01*
X164933035Y-108847023D01*
X165028273Y-108799404D01*
X165123511Y-108704166D01*
X165171130Y-108561309D01*
X165171130Y-108323214D01*
X164171130Y-109227976D02*
X164171130Y-109847023D01*
X164552083Y-109513690D01*
X164552083Y-109656547D01*
X164599702Y-109751785D01*
X164647321Y-109799404D01*
X164742559Y-109847023D01*
X164980654Y-109847023D01*
X165075892Y-109799404D01*
X165123511Y-109751785D01*
X165171130Y-109656547D01*
X165171130Y-109370833D01*
X165123511Y-109275595D01*
X165075892Y-109227976D01*
X165171130Y-110799404D02*
X165171130Y-110227976D01*
X165171130Y-110513690D02*
X164171130Y-110513690D01*
X164313988Y-110418452D01*
X164409226Y-110323214D01*
X164456845Y-110227976D01*
%TO.C,D30*%
X162789880Y-89273214D02*
X161789880Y-89273214D01*
X161789880Y-89511309D01*
X161837500Y-89654166D01*
X161932738Y-89749404D01*
X162027976Y-89797023D01*
X162218452Y-89844642D01*
X162361309Y-89844642D01*
X162551785Y-89797023D01*
X162647023Y-89749404D01*
X162742261Y-89654166D01*
X162789880Y-89511309D01*
X162789880Y-89273214D01*
X161789880Y-90177976D02*
X161789880Y-90797023D01*
X162170833Y-90463690D01*
X162170833Y-90606547D01*
X162218452Y-90701785D01*
X162266071Y-90749404D01*
X162361309Y-90797023D01*
X162599404Y-90797023D01*
X162694642Y-90749404D01*
X162742261Y-90701785D01*
X162789880Y-90606547D01*
X162789880Y-90320833D01*
X162742261Y-90225595D01*
X162694642Y-90177976D01*
X161789880Y-91416071D02*
X161789880Y-91511309D01*
X161837500Y-91606547D01*
X161885119Y-91654166D01*
X161980357Y-91701785D01*
X162170833Y-91749404D01*
X162408928Y-91749404D01*
X162599404Y-91701785D01*
X162694642Y-91654166D01*
X162742261Y-91606547D01*
X162789880Y-91511309D01*
X162789880Y-91416071D01*
X162742261Y-91320833D01*
X162694642Y-91273214D01*
X162599404Y-91225595D01*
X162408928Y-91177976D01*
X162170833Y-91177976D01*
X161980357Y-91225595D01*
X161885119Y-91273214D01*
X161837500Y-91320833D01*
X161789880Y-91416071D01*
%TO.C,D29*%
X172314880Y-70223214D02*
X171314880Y-70223214D01*
X171314880Y-70461309D01*
X171362500Y-70604166D01*
X171457738Y-70699404D01*
X171552976Y-70747023D01*
X171743452Y-70794642D01*
X171886309Y-70794642D01*
X172076785Y-70747023D01*
X172172023Y-70699404D01*
X172267261Y-70604166D01*
X172314880Y-70461309D01*
X172314880Y-70223214D01*
X171410119Y-71175595D02*
X171362500Y-71223214D01*
X171314880Y-71318452D01*
X171314880Y-71556547D01*
X171362500Y-71651785D01*
X171410119Y-71699404D01*
X171505357Y-71747023D01*
X171600595Y-71747023D01*
X171743452Y-71699404D01*
X172314880Y-71127976D01*
X172314880Y-71747023D01*
X172314880Y-72223214D02*
X172314880Y-72413690D01*
X172267261Y-72508928D01*
X172219642Y-72556547D01*
X172076785Y-72651785D01*
X171886309Y-72699404D01*
X171505357Y-72699404D01*
X171410119Y-72651785D01*
X171362500Y-72604166D01*
X171314880Y-72508928D01*
X171314880Y-72318452D01*
X171362500Y-72223214D01*
X171410119Y-72175595D01*
X171505357Y-72127976D01*
X171743452Y-72127976D01*
X171838690Y-72175595D01*
X171886309Y-72223214D01*
X171933928Y-72318452D01*
X171933928Y-72508928D01*
X171886309Y-72604166D01*
X171838690Y-72651785D01*
X171743452Y-72699404D01*
%TO.C,D28*%
X167552380Y-51173214D02*
X166552380Y-51173214D01*
X166552380Y-51411309D01*
X166600000Y-51554166D01*
X166695238Y-51649404D01*
X166790476Y-51697023D01*
X166980952Y-51744642D01*
X167123809Y-51744642D01*
X167314285Y-51697023D01*
X167409523Y-51649404D01*
X167504761Y-51554166D01*
X167552380Y-51411309D01*
X167552380Y-51173214D01*
X166647619Y-52125595D02*
X166600000Y-52173214D01*
X166552380Y-52268452D01*
X166552380Y-52506547D01*
X166600000Y-52601785D01*
X166647619Y-52649404D01*
X166742857Y-52697023D01*
X166838095Y-52697023D01*
X166980952Y-52649404D01*
X167552380Y-52077976D01*
X167552380Y-52697023D01*
X166980952Y-53268452D02*
X166933333Y-53173214D01*
X166885714Y-53125595D01*
X166790476Y-53077976D01*
X166742857Y-53077976D01*
X166647619Y-53125595D01*
X166600000Y-53173214D01*
X166552380Y-53268452D01*
X166552380Y-53458928D01*
X166600000Y-53554166D01*
X166647619Y-53601785D01*
X166742857Y-53649404D01*
X166790476Y-53649404D01*
X166885714Y-53601785D01*
X166933333Y-53554166D01*
X166980952Y-53458928D01*
X166980952Y-53268452D01*
X167028571Y-53173214D01*
X167076190Y-53125595D01*
X167171428Y-53077976D01*
X167361904Y-53077976D01*
X167457142Y-53125595D01*
X167504761Y-53173214D01*
X167552380Y-53268452D01*
X167552380Y-53458928D01*
X167504761Y-53554166D01*
X167457142Y-53601785D01*
X167361904Y-53649404D01*
X167171428Y-53649404D01*
X167076190Y-53601785D01*
X167028571Y-53554166D01*
X166980952Y-53458928D01*
%TO.C,D27*%
X158027380Y-32123214D02*
X157027380Y-32123214D01*
X157027380Y-32361309D01*
X157075000Y-32504166D01*
X157170238Y-32599404D01*
X157265476Y-32647023D01*
X157455952Y-32694642D01*
X157598809Y-32694642D01*
X157789285Y-32647023D01*
X157884523Y-32599404D01*
X157979761Y-32504166D01*
X158027380Y-32361309D01*
X158027380Y-32123214D01*
X157122619Y-33075595D02*
X157075000Y-33123214D01*
X157027380Y-33218452D01*
X157027380Y-33456547D01*
X157075000Y-33551785D01*
X157122619Y-33599404D01*
X157217857Y-33647023D01*
X157313095Y-33647023D01*
X157455952Y-33599404D01*
X158027380Y-33027976D01*
X158027380Y-33647023D01*
X157027380Y-33980357D02*
X157027380Y-34647023D01*
X158027380Y-34218452D01*
%TO.C,D26*%
X143739880Y-89273214D02*
X142739880Y-89273214D01*
X142739880Y-89511309D01*
X142787500Y-89654166D01*
X142882738Y-89749404D01*
X142977976Y-89797023D01*
X143168452Y-89844642D01*
X143311309Y-89844642D01*
X143501785Y-89797023D01*
X143597023Y-89749404D01*
X143692261Y-89654166D01*
X143739880Y-89511309D01*
X143739880Y-89273214D01*
X142835119Y-90225595D02*
X142787500Y-90273214D01*
X142739880Y-90368452D01*
X142739880Y-90606547D01*
X142787500Y-90701785D01*
X142835119Y-90749404D01*
X142930357Y-90797023D01*
X143025595Y-90797023D01*
X143168452Y-90749404D01*
X143739880Y-90177976D01*
X143739880Y-90797023D01*
X142739880Y-91654166D02*
X142739880Y-91463690D01*
X142787500Y-91368452D01*
X142835119Y-91320833D01*
X142977976Y-91225595D01*
X143168452Y-91177976D01*
X143549404Y-91177976D01*
X143644642Y-91225595D01*
X143692261Y-91273214D01*
X143739880Y-91368452D01*
X143739880Y-91558928D01*
X143692261Y-91654166D01*
X143644642Y-91701785D01*
X143549404Y-91749404D01*
X143311309Y-91749404D01*
X143216071Y-91701785D01*
X143168452Y-91654166D01*
X143120833Y-91558928D01*
X143120833Y-91368452D01*
X143168452Y-91273214D01*
X143216071Y-91225595D01*
X143311309Y-91177976D01*
%TO.C,D25*%
X153264880Y-70223214D02*
X152264880Y-70223214D01*
X152264880Y-70461309D01*
X152312500Y-70604166D01*
X152407738Y-70699404D01*
X152502976Y-70747023D01*
X152693452Y-70794642D01*
X152836309Y-70794642D01*
X153026785Y-70747023D01*
X153122023Y-70699404D01*
X153217261Y-70604166D01*
X153264880Y-70461309D01*
X153264880Y-70223214D01*
X152360119Y-71175595D02*
X152312500Y-71223214D01*
X152264880Y-71318452D01*
X152264880Y-71556547D01*
X152312500Y-71651785D01*
X152360119Y-71699404D01*
X152455357Y-71747023D01*
X152550595Y-71747023D01*
X152693452Y-71699404D01*
X153264880Y-71127976D01*
X153264880Y-71747023D01*
X152264880Y-72651785D02*
X152264880Y-72175595D01*
X152741071Y-72127976D01*
X152693452Y-72175595D01*
X152645833Y-72270833D01*
X152645833Y-72508928D01*
X152693452Y-72604166D01*
X152741071Y-72651785D01*
X152836309Y-72699404D01*
X153074404Y-72699404D01*
X153169642Y-72651785D01*
X153217261Y-72604166D01*
X153264880Y-72508928D01*
X153264880Y-72270833D01*
X153217261Y-72175595D01*
X153169642Y-72127976D01*
%TO.C,D24*%
X149296130Y-51173214D02*
X148296130Y-51173214D01*
X148296130Y-51411309D01*
X148343750Y-51554166D01*
X148438988Y-51649404D01*
X148534226Y-51697023D01*
X148724702Y-51744642D01*
X148867559Y-51744642D01*
X149058035Y-51697023D01*
X149153273Y-51649404D01*
X149248511Y-51554166D01*
X149296130Y-51411309D01*
X149296130Y-51173214D01*
X148391369Y-52125595D02*
X148343750Y-52173214D01*
X148296130Y-52268452D01*
X148296130Y-52506547D01*
X148343750Y-52601785D01*
X148391369Y-52649404D01*
X148486607Y-52697023D01*
X148581845Y-52697023D01*
X148724702Y-52649404D01*
X149296130Y-52077976D01*
X149296130Y-52697023D01*
X148629464Y-53554166D02*
X149296130Y-53554166D01*
X148248511Y-53316071D02*
X148962797Y-53077976D01*
X148962797Y-53697023D01*
%TO.C,D23*%
X138977380Y-32123214D02*
X137977380Y-32123214D01*
X137977380Y-32361309D01*
X138025000Y-32504166D01*
X138120238Y-32599404D01*
X138215476Y-32647023D01*
X138405952Y-32694642D01*
X138548809Y-32694642D01*
X138739285Y-32647023D01*
X138834523Y-32599404D01*
X138929761Y-32504166D01*
X138977380Y-32361309D01*
X138977380Y-32123214D01*
X138072619Y-33075595D02*
X138025000Y-33123214D01*
X137977380Y-33218452D01*
X137977380Y-33456547D01*
X138025000Y-33551785D01*
X138072619Y-33599404D01*
X138167857Y-33647023D01*
X138263095Y-33647023D01*
X138405952Y-33599404D01*
X138977380Y-33027976D01*
X138977380Y-33647023D01*
X137977380Y-33980357D02*
X137977380Y-34599404D01*
X138358333Y-34266071D01*
X138358333Y-34408928D01*
X138405952Y-34504166D01*
X138453571Y-34551785D01*
X138548809Y-34599404D01*
X138786904Y-34599404D01*
X138882142Y-34551785D01*
X138929761Y-34504166D01*
X138977380Y-34408928D01*
X138977380Y-34123214D01*
X138929761Y-34027976D01*
X138882142Y-33980357D01*
%TO.C,D22*%
X124689880Y-89273214D02*
X123689880Y-89273214D01*
X123689880Y-89511309D01*
X123737500Y-89654166D01*
X123832738Y-89749404D01*
X123927976Y-89797023D01*
X124118452Y-89844642D01*
X124261309Y-89844642D01*
X124451785Y-89797023D01*
X124547023Y-89749404D01*
X124642261Y-89654166D01*
X124689880Y-89511309D01*
X124689880Y-89273214D01*
X123785119Y-90225595D02*
X123737500Y-90273214D01*
X123689880Y-90368452D01*
X123689880Y-90606547D01*
X123737500Y-90701785D01*
X123785119Y-90749404D01*
X123880357Y-90797023D01*
X123975595Y-90797023D01*
X124118452Y-90749404D01*
X124689880Y-90177976D01*
X124689880Y-90797023D01*
X123785119Y-91177976D02*
X123737500Y-91225595D01*
X123689880Y-91320833D01*
X123689880Y-91558928D01*
X123737500Y-91654166D01*
X123785119Y-91701785D01*
X123880357Y-91749404D01*
X123975595Y-91749404D01*
X124118452Y-91701785D01*
X124689880Y-91130357D01*
X124689880Y-91749404D01*
%TO.C,D21*%
X134214880Y-70223214D02*
X133214880Y-70223214D01*
X133214880Y-70461309D01*
X133262500Y-70604166D01*
X133357738Y-70699404D01*
X133452976Y-70747023D01*
X133643452Y-70794642D01*
X133786309Y-70794642D01*
X133976785Y-70747023D01*
X134072023Y-70699404D01*
X134167261Y-70604166D01*
X134214880Y-70461309D01*
X134214880Y-70223214D01*
X133310119Y-71175595D02*
X133262500Y-71223214D01*
X133214880Y-71318452D01*
X133214880Y-71556547D01*
X133262500Y-71651785D01*
X133310119Y-71699404D01*
X133405357Y-71747023D01*
X133500595Y-71747023D01*
X133643452Y-71699404D01*
X134214880Y-71127976D01*
X134214880Y-71747023D01*
X134214880Y-72699404D02*
X134214880Y-72127976D01*
X134214880Y-72413690D02*
X133214880Y-72413690D01*
X133357738Y-72318452D01*
X133452976Y-72223214D01*
X133500595Y-72127976D01*
%TO.C,D20*%
X129452380Y-51173214D02*
X128452380Y-51173214D01*
X128452380Y-51411309D01*
X128500000Y-51554166D01*
X128595238Y-51649404D01*
X128690476Y-51697023D01*
X128880952Y-51744642D01*
X129023809Y-51744642D01*
X129214285Y-51697023D01*
X129309523Y-51649404D01*
X129404761Y-51554166D01*
X129452380Y-51411309D01*
X129452380Y-51173214D01*
X128547619Y-52125595D02*
X128500000Y-52173214D01*
X128452380Y-52268452D01*
X128452380Y-52506547D01*
X128500000Y-52601785D01*
X128547619Y-52649404D01*
X128642857Y-52697023D01*
X128738095Y-52697023D01*
X128880952Y-52649404D01*
X129452380Y-52077976D01*
X129452380Y-52697023D01*
X128452380Y-53316071D02*
X128452380Y-53411309D01*
X128500000Y-53506547D01*
X128547619Y-53554166D01*
X128642857Y-53601785D01*
X128833333Y-53649404D01*
X129071428Y-53649404D01*
X129261904Y-53601785D01*
X129357142Y-53554166D01*
X129404761Y-53506547D01*
X129452380Y-53411309D01*
X129452380Y-53316071D01*
X129404761Y-53220833D01*
X129357142Y-53173214D01*
X129261904Y-53125595D01*
X129071428Y-53077976D01*
X128833333Y-53077976D01*
X128642857Y-53125595D01*
X128547619Y-53173214D01*
X128500000Y-53220833D01*
X128452380Y-53316071D01*
%TO.C,D19*%
X105989285Y-39727380D02*
X105989285Y-38727380D01*
X105751190Y-38727380D01*
X105608333Y-38775000D01*
X105513095Y-38870238D01*
X105465476Y-38965476D01*
X105417857Y-39155952D01*
X105417857Y-39298809D01*
X105465476Y-39489285D01*
X105513095Y-39584523D01*
X105608333Y-39679761D01*
X105751190Y-39727380D01*
X105989285Y-39727380D01*
X104465476Y-39727380D02*
X105036904Y-39727380D01*
X104751190Y-39727380D02*
X104751190Y-38727380D01*
X104846428Y-38870238D01*
X104941666Y-38965476D01*
X105036904Y-39013095D01*
X103989285Y-39727380D02*
X103798809Y-39727380D01*
X103703571Y-39679761D01*
X103655952Y-39632142D01*
X103560714Y-39489285D01*
X103513095Y-39298809D01*
X103513095Y-38917857D01*
X103560714Y-38822619D01*
X103608333Y-38775000D01*
X103703571Y-38727380D01*
X103894047Y-38727380D01*
X103989285Y-38775000D01*
X104036904Y-38822619D01*
X104084523Y-38917857D01*
X104084523Y-39155952D01*
X104036904Y-39251190D01*
X103989285Y-39298809D01*
X103894047Y-39346428D01*
X103703571Y-39346428D01*
X103608333Y-39298809D01*
X103560714Y-39251190D01*
X103513095Y-39155952D01*
%TO.C,D18*%
X105639880Y-89273214D02*
X104639880Y-89273214D01*
X104639880Y-89511309D01*
X104687500Y-89654166D01*
X104782738Y-89749404D01*
X104877976Y-89797023D01*
X105068452Y-89844642D01*
X105211309Y-89844642D01*
X105401785Y-89797023D01*
X105497023Y-89749404D01*
X105592261Y-89654166D01*
X105639880Y-89511309D01*
X105639880Y-89273214D01*
X105639880Y-90797023D02*
X105639880Y-90225595D01*
X105639880Y-90511309D02*
X104639880Y-90511309D01*
X104782738Y-90416071D01*
X104877976Y-90320833D01*
X104925595Y-90225595D01*
X105068452Y-91368452D02*
X105020833Y-91273214D01*
X104973214Y-91225595D01*
X104877976Y-91177976D01*
X104830357Y-91177976D01*
X104735119Y-91225595D01*
X104687500Y-91273214D01*
X104639880Y-91368452D01*
X104639880Y-91558928D01*
X104687500Y-91654166D01*
X104735119Y-91701785D01*
X104830357Y-91749404D01*
X104877976Y-91749404D01*
X104973214Y-91701785D01*
X105020833Y-91654166D01*
X105068452Y-91558928D01*
X105068452Y-91368452D01*
X105116071Y-91273214D01*
X105163690Y-91225595D01*
X105258928Y-91177976D01*
X105449404Y-91177976D01*
X105544642Y-91225595D01*
X105592261Y-91273214D01*
X105639880Y-91368452D01*
X105639880Y-91558928D01*
X105592261Y-91654166D01*
X105544642Y-91701785D01*
X105449404Y-91749404D01*
X105258928Y-91749404D01*
X105163690Y-91701785D01*
X105116071Y-91654166D01*
X105068452Y-91558928D01*
%TO.C,D17*%
X101226785Y-77827380D02*
X101226785Y-76827380D01*
X100988690Y-76827380D01*
X100845833Y-76875000D01*
X100750595Y-76970238D01*
X100702976Y-77065476D01*
X100655357Y-77255952D01*
X100655357Y-77398809D01*
X100702976Y-77589285D01*
X100750595Y-77684523D01*
X100845833Y-77779761D01*
X100988690Y-77827380D01*
X101226785Y-77827380D01*
X99702976Y-77827380D02*
X100274404Y-77827380D01*
X99988690Y-77827380D02*
X99988690Y-76827380D01*
X100083928Y-76970238D01*
X100179166Y-77065476D01*
X100274404Y-77113095D01*
X99369642Y-76827380D02*
X98702976Y-76827380D01*
X99131547Y-77827380D01*
%TO.C,D16*%
X110402380Y-51173214D02*
X109402380Y-51173214D01*
X109402380Y-51411309D01*
X109450000Y-51554166D01*
X109545238Y-51649404D01*
X109640476Y-51697023D01*
X109830952Y-51744642D01*
X109973809Y-51744642D01*
X110164285Y-51697023D01*
X110259523Y-51649404D01*
X110354761Y-51554166D01*
X110402380Y-51411309D01*
X110402380Y-51173214D01*
X110402380Y-52697023D02*
X110402380Y-52125595D01*
X110402380Y-52411309D02*
X109402380Y-52411309D01*
X109545238Y-52316071D01*
X109640476Y-52220833D01*
X109688095Y-52125595D01*
X109402380Y-53554166D02*
X109402380Y-53363690D01*
X109450000Y-53268452D01*
X109497619Y-53220833D01*
X109640476Y-53125595D01*
X109830952Y-53077976D01*
X110211904Y-53077976D01*
X110307142Y-53125595D01*
X110354761Y-53173214D01*
X110402380Y-53268452D01*
X110402380Y-53458928D01*
X110354761Y-53554166D01*
X110307142Y-53601785D01*
X110211904Y-53649404D01*
X109973809Y-53649404D01*
X109878571Y-53601785D01*
X109830952Y-53554166D01*
X109783333Y-53458928D01*
X109783333Y-53268452D01*
X109830952Y-53173214D01*
X109878571Y-53125595D01*
X109973809Y-53077976D01*
%TO.C,D15*%
X86939285Y-39727380D02*
X86939285Y-38727380D01*
X86701190Y-38727380D01*
X86558333Y-38775000D01*
X86463095Y-38870238D01*
X86415476Y-38965476D01*
X86367857Y-39155952D01*
X86367857Y-39298809D01*
X86415476Y-39489285D01*
X86463095Y-39584523D01*
X86558333Y-39679761D01*
X86701190Y-39727380D01*
X86939285Y-39727380D01*
X85415476Y-39727380D02*
X85986904Y-39727380D01*
X85701190Y-39727380D02*
X85701190Y-38727380D01*
X85796428Y-38870238D01*
X85891666Y-38965476D01*
X85986904Y-39013095D01*
X84510714Y-38727380D02*
X84986904Y-38727380D01*
X85034523Y-39203571D01*
X84986904Y-39155952D01*
X84891666Y-39108333D01*
X84653571Y-39108333D01*
X84558333Y-39155952D01*
X84510714Y-39203571D01*
X84463095Y-39298809D01*
X84463095Y-39536904D01*
X84510714Y-39632142D01*
X84558333Y-39679761D01*
X84653571Y-39727380D01*
X84891666Y-39727380D01*
X84986904Y-39679761D01*
X85034523Y-39632142D01*
%TO.C,D14*%
X93733630Y-108323214D02*
X92733630Y-108323214D01*
X92733630Y-108561309D01*
X92781250Y-108704166D01*
X92876488Y-108799404D01*
X92971726Y-108847023D01*
X93162202Y-108894642D01*
X93305059Y-108894642D01*
X93495535Y-108847023D01*
X93590773Y-108799404D01*
X93686011Y-108704166D01*
X93733630Y-108561309D01*
X93733630Y-108323214D01*
X93733630Y-109847023D02*
X93733630Y-109275595D01*
X93733630Y-109561309D02*
X92733630Y-109561309D01*
X92876488Y-109466071D01*
X92971726Y-109370833D01*
X93019345Y-109275595D01*
X93066964Y-110704166D02*
X93733630Y-110704166D01*
X92686011Y-110466071D02*
X93400297Y-110227976D01*
X93400297Y-110847023D01*
%TO.C,D13*%
X86589880Y-89273214D02*
X85589880Y-89273214D01*
X85589880Y-89511309D01*
X85637500Y-89654166D01*
X85732738Y-89749404D01*
X85827976Y-89797023D01*
X86018452Y-89844642D01*
X86161309Y-89844642D01*
X86351785Y-89797023D01*
X86447023Y-89749404D01*
X86542261Y-89654166D01*
X86589880Y-89511309D01*
X86589880Y-89273214D01*
X86589880Y-90797023D02*
X86589880Y-90225595D01*
X86589880Y-90511309D02*
X85589880Y-90511309D01*
X85732738Y-90416071D01*
X85827976Y-90320833D01*
X85875595Y-90225595D01*
X85589880Y-91130357D02*
X85589880Y-91749404D01*
X85970833Y-91416071D01*
X85970833Y-91558928D01*
X86018452Y-91654166D01*
X86066071Y-91701785D01*
X86161309Y-91749404D01*
X86399404Y-91749404D01*
X86494642Y-91701785D01*
X86542261Y-91654166D01*
X86589880Y-91558928D01*
X86589880Y-91273214D01*
X86542261Y-91177976D01*
X86494642Y-91130357D01*
%TO.C,D12*%
X82176785Y-77827380D02*
X82176785Y-76827380D01*
X81938690Y-76827380D01*
X81795833Y-76875000D01*
X81700595Y-76970238D01*
X81652976Y-77065476D01*
X81605357Y-77255952D01*
X81605357Y-77398809D01*
X81652976Y-77589285D01*
X81700595Y-77684523D01*
X81795833Y-77779761D01*
X81938690Y-77827380D01*
X82176785Y-77827380D01*
X80652976Y-77827380D02*
X81224404Y-77827380D01*
X80938690Y-77827380D02*
X80938690Y-76827380D01*
X81033928Y-76970238D01*
X81129166Y-77065476D01*
X81224404Y-77113095D01*
X80272023Y-76922619D02*
X80224404Y-76875000D01*
X80129166Y-76827380D01*
X79891071Y-76827380D01*
X79795833Y-76875000D01*
X79748214Y-76922619D01*
X79700595Y-77017857D01*
X79700595Y-77113095D01*
X79748214Y-77255952D01*
X80319642Y-77827380D01*
X79700595Y-77827380D01*
%TO.C,D11*%
X91352380Y-51173214D02*
X90352380Y-51173214D01*
X90352380Y-51411309D01*
X90400000Y-51554166D01*
X90495238Y-51649404D01*
X90590476Y-51697023D01*
X90780952Y-51744642D01*
X90923809Y-51744642D01*
X91114285Y-51697023D01*
X91209523Y-51649404D01*
X91304761Y-51554166D01*
X91352380Y-51411309D01*
X91352380Y-51173214D01*
X91352380Y-52697023D02*
X91352380Y-52125595D01*
X91352380Y-52411309D02*
X90352380Y-52411309D01*
X90495238Y-52316071D01*
X90590476Y-52220833D01*
X90638095Y-52125595D01*
X91352380Y-53649404D02*
X91352380Y-53077976D01*
X91352380Y-53363690D02*
X90352380Y-53363690D01*
X90495238Y-53268452D01*
X90590476Y-53173214D01*
X90638095Y-53077976D01*
%TO.C,D10*%
X81827380Y-32123214D02*
X80827380Y-32123214D01*
X80827380Y-32361309D01*
X80875000Y-32504166D01*
X80970238Y-32599404D01*
X81065476Y-32647023D01*
X81255952Y-32694642D01*
X81398809Y-32694642D01*
X81589285Y-32647023D01*
X81684523Y-32599404D01*
X81779761Y-32504166D01*
X81827380Y-32361309D01*
X81827380Y-32123214D01*
X81827380Y-33647023D02*
X81827380Y-33075595D01*
X81827380Y-33361309D02*
X80827380Y-33361309D01*
X80970238Y-33266071D01*
X81065476Y-33170833D01*
X81113095Y-33075595D01*
X80827380Y-34266071D02*
X80827380Y-34361309D01*
X80875000Y-34456547D01*
X80922619Y-34504166D01*
X81017857Y-34551785D01*
X81208333Y-34599404D01*
X81446428Y-34599404D01*
X81636904Y-34551785D01*
X81732142Y-34504166D01*
X81779761Y-34456547D01*
X81827380Y-34361309D01*
X81827380Y-34266071D01*
X81779761Y-34170833D01*
X81732142Y-34123214D01*
X81636904Y-34075595D01*
X81446428Y-34027976D01*
X81208333Y-34027976D01*
X81017857Y-34075595D01*
X80922619Y-34123214D01*
X80875000Y-34170833D01*
X80827380Y-34266071D01*
%TO.C,D9*%
X69921130Y-108799404D02*
X68921130Y-108799404D01*
X68921130Y-109037500D01*
X68968750Y-109180357D01*
X69063988Y-109275595D01*
X69159226Y-109323214D01*
X69349702Y-109370833D01*
X69492559Y-109370833D01*
X69683035Y-109323214D01*
X69778273Y-109275595D01*
X69873511Y-109180357D01*
X69921130Y-109037500D01*
X69921130Y-108799404D01*
X69921130Y-109847023D02*
X69921130Y-110037500D01*
X69873511Y-110132738D01*
X69825892Y-110180357D01*
X69683035Y-110275595D01*
X69492559Y-110323214D01*
X69111607Y-110323214D01*
X69016369Y-110275595D01*
X68968750Y-110227976D01*
X68921130Y-110132738D01*
X68921130Y-109942261D01*
X68968750Y-109847023D01*
X69016369Y-109799404D01*
X69111607Y-109751785D01*
X69349702Y-109751785D01*
X69444940Y-109799404D01*
X69492559Y-109847023D01*
X69540178Y-109942261D01*
X69540178Y-110132738D01*
X69492559Y-110227976D01*
X69444940Y-110275595D01*
X69349702Y-110323214D01*
%TO.C,D8*%
X77064880Y-70699404D02*
X76064880Y-70699404D01*
X76064880Y-70937500D01*
X76112500Y-71080357D01*
X76207738Y-71175595D01*
X76302976Y-71223214D01*
X76493452Y-71270833D01*
X76636309Y-71270833D01*
X76826785Y-71223214D01*
X76922023Y-71175595D01*
X77017261Y-71080357D01*
X77064880Y-70937500D01*
X77064880Y-70699404D01*
X76493452Y-71842261D02*
X76445833Y-71747023D01*
X76398214Y-71699404D01*
X76302976Y-71651785D01*
X76255357Y-71651785D01*
X76160119Y-71699404D01*
X76112500Y-71747023D01*
X76064880Y-71842261D01*
X76064880Y-72032738D01*
X76112500Y-72127976D01*
X76160119Y-72175595D01*
X76255357Y-72223214D01*
X76302976Y-72223214D01*
X76398214Y-72175595D01*
X76445833Y-72127976D01*
X76493452Y-72032738D01*
X76493452Y-71842261D01*
X76541071Y-71747023D01*
X76588690Y-71699404D01*
X76683928Y-71651785D01*
X76874404Y-71651785D01*
X76969642Y-71699404D01*
X77017261Y-71747023D01*
X77064880Y-71842261D01*
X77064880Y-72032738D01*
X77017261Y-72127976D01*
X76969642Y-72175595D01*
X76874404Y-72223214D01*
X76683928Y-72223214D01*
X76588690Y-72175595D01*
X76541071Y-72127976D01*
X76493452Y-72032738D01*
%TO.C,D7*%
X55633630Y-58793154D02*
X54633630Y-58793154D01*
X54633630Y-59031250D01*
X54681250Y-59174107D01*
X54776488Y-59269345D01*
X54871726Y-59316964D01*
X55062202Y-59364583D01*
X55205059Y-59364583D01*
X55395535Y-59316964D01*
X55490773Y-59269345D01*
X55586011Y-59174107D01*
X55633630Y-59031250D01*
X55633630Y-58793154D01*
X54633630Y-59697916D02*
X54633630Y-60364583D01*
X55633630Y-59936011D01*
%TO.C,D6*%
X48363095Y-39727380D02*
X48363095Y-38727380D01*
X48125000Y-38727380D01*
X47982142Y-38775000D01*
X47886904Y-38870238D01*
X47839285Y-38965476D01*
X47791666Y-39155952D01*
X47791666Y-39298809D01*
X47839285Y-39489285D01*
X47886904Y-39584523D01*
X47982142Y-39679761D01*
X48125000Y-39727380D01*
X48363095Y-39727380D01*
X46934523Y-38727380D02*
X47125000Y-38727380D01*
X47220238Y-38775000D01*
X47267857Y-38822619D01*
X47363095Y-38965476D01*
X47410714Y-39155952D01*
X47410714Y-39536904D01*
X47363095Y-39632142D01*
X47315476Y-39679761D01*
X47220238Y-39727380D01*
X47029761Y-39727380D01*
X46934523Y-39679761D01*
X46886904Y-39632142D01*
X46839285Y-39536904D01*
X46839285Y-39298809D01*
X46886904Y-39203571D01*
X46934523Y-39155952D01*
X47029761Y-39108333D01*
X47220238Y-39108333D01*
X47315476Y-39155952D01*
X47363095Y-39203571D01*
X47410714Y-39298809D01*
%TO.C,D5*%
X46108630Y-108799404D02*
X45108630Y-108799404D01*
X45108630Y-109037500D01*
X45156250Y-109180357D01*
X45251488Y-109275595D01*
X45346726Y-109323214D01*
X45537202Y-109370833D01*
X45680059Y-109370833D01*
X45870535Y-109323214D01*
X45965773Y-109275595D01*
X46061011Y-109180357D01*
X46108630Y-109037500D01*
X46108630Y-108799404D01*
X45108630Y-110275595D02*
X45108630Y-109799404D01*
X45584821Y-109751785D01*
X45537202Y-109799404D01*
X45489583Y-109894642D01*
X45489583Y-110132738D01*
X45537202Y-110227976D01*
X45584821Y-110275595D01*
X45680059Y-110323214D01*
X45918154Y-110323214D01*
X46013392Y-110275595D01*
X46061011Y-110227976D01*
X46108630Y-110132738D01*
X46108630Y-109894642D01*
X46061011Y-109799404D01*
X46013392Y-109751785D01*
%TO.C,D4*%
X55633630Y-89749404D02*
X54633630Y-89749404D01*
X54633630Y-89987500D01*
X54681250Y-90130357D01*
X54776488Y-90225595D01*
X54871726Y-90273214D01*
X55062202Y-90320833D01*
X55205059Y-90320833D01*
X55395535Y-90273214D01*
X55490773Y-90225595D01*
X55586011Y-90130357D01*
X55633630Y-89987500D01*
X55633630Y-89749404D01*
X54966964Y-91177976D02*
X55633630Y-91177976D01*
X54586011Y-90939880D02*
X55300297Y-90701785D01*
X55300297Y-91320833D01*
%TO.C,D3*%
X50871130Y-70699404D02*
X49871130Y-70699404D01*
X49871130Y-70937500D01*
X49918750Y-71080357D01*
X50013988Y-71175595D01*
X50109226Y-71223214D01*
X50299702Y-71270833D01*
X50442559Y-71270833D01*
X50633035Y-71223214D01*
X50728273Y-71175595D01*
X50823511Y-71080357D01*
X50871130Y-70937500D01*
X50871130Y-70699404D01*
X49871130Y-71604166D02*
X49871130Y-72223214D01*
X50252083Y-71889880D01*
X50252083Y-72032738D01*
X50299702Y-72127976D01*
X50347321Y-72175595D01*
X50442559Y-72223214D01*
X50680654Y-72223214D01*
X50775892Y-72175595D01*
X50823511Y-72127976D01*
X50871130Y-72032738D01*
X50871130Y-71747023D01*
X50823511Y-71651785D01*
X50775892Y-71604166D01*
%TO.C,D2*%
X46902380Y-56411904D02*
X45902380Y-56411904D01*
X45902380Y-56650000D01*
X45950000Y-56792857D01*
X46045238Y-56888095D01*
X46140476Y-56935714D01*
X46330952Y-56983333D01*
X46473809Y-56983333D01*
X46664285Y-56935714D01*
X46759523Y-56888095D01*
X46854761Y-56792857D01*
X46902380Y-56650000D01*
X46902380Y-56411904D01*
X45997619Y-57364285D02*
X45950000Y-57411904D01*
X45902380Y-57507142D01*
X45902380Y-57745238D01*
X45950000Y-57840476D01*
X45997619Y-57888095D01*
X46092857Y-57935714D01*
X46188095Y-57935714D01*
X46330952Y-57888095D01*
X46902380Y-57316666D01*
X46902380Y-57935714D01*
%TO.C,D1*%
X29375595Y-40108380D02*
X29375595Y-39108380D01*
X29137500Y-39108380D01*
X28994642Y-39156000D01*
X28899404Y-39251238D01*
X28851785Y-39346476D01*
X28804166Y-39536952D01*
X28804166Y-39679809D01*
X28851785Y-39870285D01*
X28899404Y-39965523D01*
X28994642Y-40060761D01*
X29137500Y-40108380D01*
X29375595Y-40108380D01*
X27851785Y-40108380D02*
X28423214Y-40108380D01*
X28137500Y-40108380D02*
X28137500Y-39108380D01*
X28232738Y-39251238D01*
X28327976Y-39346476D01*
X28423214Y-39394095D01*
%TO.C,C7*%
X117673416Y-93736642D02*
X117721035Y-93784261D01*
X117863892Y-93831880D01*
X117959130Y-93831880D01*
X118101988Y-93784261D01*
X118197226Y-93689023D01*
X118244845Y-93593785D01*
X118292464Y-93403309D01*
X118292464Y-93260452D01*
X118244845Y-93069976D01*
X118197226Y-92974738D01*
X118101988Y-92879500D01*
X117959130Y-92831880D01*
X117863892Y-92831880D01*
X117721035Y-92879500D01*
X117673416Y-92927119D01*
X117340083Y-92831880D02*
X116673416Y-92831880D01*
X117101988Y-93831880D01*
%TO.C,C6*%
X121991416Y-117162642D02*
X122039035Y-117210261D01*
X122181892Y-117257880D01*
X122277130Y-117257880D01*
X122419988Y-117210261D01*
X122515226Y-117115023D01*
X122562845Y-117019785D01*
X122610464Y-116829309D01*
X122610464Y-116686452D01*
X122562845Y-116495976D01*
X122515226Y-116400738D01*
X122419988Y-116305500D01*
X122277130Y-116257880D01*
X122181892Y-116257880D01*
X122039035Y-116305500D01*
X121991416Y-116353119D01*
X121134273Y-116257880D02*
X121324750Y-116257880D01*
X121419988Y-116305500D01*
X121467607Y-116353119D01*
X121562845Y-116495976D01*
X121610464Y-116686452D01*
X121610464Y-117067404D01*
X121562845Y-117162642D01*
X121515226Y-117210261D01*
X121419988Y-117257880D01*
X121229511Y-117257880D01*
X121134273Y-117210261D01*
X121086654Y-117162642D01*
X121039035Y-117067404D01*
X121039035Y-116829309D01*
X121086654Y-116734071D01*
X121134273Y-116686452D01*
X121229511Y-116638833D01*
X121419988Y-116638833D01*
X121515226Y-116686452D01*
X121562845Y-116734071D01*
X121610464Y-116829309D01*
%TO.C,C5*%
X117673416Y-95768642D02*
X117721035Y-95816261D01*
X117863892Y-95863880D01*
X117959130Y-95863880D01*
X118101988Y-95816261D01*
X118197226Y-95721023D01*
X118244845Y-95625785D01*
X118292464Y-95435309D01*
X118292464Y-95292452D01*
X118244845Y-95101976D01*
X118197226Y-95006738D01*
X118101988Y-94911500D01*
X117959130Y-94863880D01*
X117863892Y-94863880D01*
X117721035Y-94911500D01*
X117673416Y-94959119D01*
X116768654Y-94863880D02*
X117244845Y-94863880D01*
X117292464Y-95340071D01*
X117244845Y-95292452D01*
X117149607Y-95244833D01*
X116911511Y-95244833D01*
X116816273Y-95292452D01*
X116768654Y-95340071D01*
X116721035Y-95435309D01*
X116721035Y-95673404D01*
X116768654Y-95768642D01*
X116816273Y-95816261D01*
X116911511Y-95863880D01*
X117149607Y-95863880D01*
X117244845Y-95816261D01*
X117292464Y-95768642D01*
%TO.C,C4*%
X108309892Y-102639833D02*
X108357511Y-102592214D01*
X108405130Y-102449357D01*
X108405130Y-102354119D01*
X108357511Y-102211261D01*
X108262273Y-102116023D01*
X108167035Y-102068404D01*
X107976559Y-102020785D01*
X107833702Y-102020785D01*
X107643226Y-102068404D01*
X107547988Y-102116023D01*
X107452750Y-102211261D01*
X107405130Y-102354119D01*
X107405130Y-102449357D01*
X107452750Y-102592214D01*
X107500369Y-102639833D01*
X107738464Y-103496976D02*
X108405130Y-103496976D01*
X107357511Y-103258880D02*
X108071797Y-103020785D01*
X108071797Y-103639833D01*
%TO.C,C3*%
X111796892Y-111275833D02*
X111844511Y-111228214D01*
X111892130Y-111085357D01*
X111892130Y-110990119D01*
X111844511Y-110847261D01*
X111749273Y-110752023D01*
X111654035Y-110704404D01*
X111463559Y-110656785D01*
X111320702Y-110656785D01*
X111130226Y-110704404D01*
X111034988Y-110752023D01*
X110939750Y-110847261D01*
X110892130Y-110990119D01*
X110892130Y-111085357D01*
X110939750Y-111228214D01*
X110987369Y-111275833D01*
X110892130Y-111609166D02*
X110892130Y-112228214D01*
X111273083Y-111894880D01*
X111273083Y-112037738D01*
X111320702Y-112132976D01*
X111368321Y-112180595D01*
X111463559Y-112228214D01*
X111701654Y-112228214D01*
X111796892Y-112180595D01*
X111844511Y-112132976D01*
X111892130Y-112037738D01*
X111892130Y-111752023D01*
X111844511Y-111656785D01*
X111796892Y-111609166D01*
%TO.C,C2*%
X129484416Y-101864642D02*
X129532035Y-101912261D01*
X129674892Y-101959880D01*
X129770130Y-101959880D01*
X129912988Y-101912261D01*
X130008226Y-101817023D01*
X130055845Y-101721785D01*
X130103464Y-101531309D01*
X130103464Y-101388452D01*
X130055845Y-101197976D01*
X130008226Y-101102738D01*
X129912988Y-101007500D01*
X129770130Y-100959880D01*
X129674892Y-100959880D01*
X129532035Y-101007500D01*
X129484416Y-101055119D01*
X129103464Y-101055119D02*
X129055845Y-101007500D01*
X128960607Y-100959880D01*
X128722511Y-100959880D01*
X128627273Y-101007500D01*
X128579654Y-101055119D01*
X128532035Y-101150357D01*
X128532035Y-101245595D01*
X128579654Y-101388452D01*
X129151083Y-101959880D01*
X128532035Y-101959880D01*
%TO.C,C1*%
X129420916Y-111447642D02*
X129468535Y-111495261D01*
X129611392Y-111542880D01*
X129706630Y-111542880D01*
X129849488Y-111495261D01*
X129944726Y-111400023D01*
X129992345Y-111304785D01*
X130039964Y-111114309D01*
X130039964Y-110971452D01*
X129992345Y-110780976D01*
X129944726Y-110685738D01*
X129849488Y-110590500D01*
X129706630Y-110542880D01*
X129611392Y-110542880D01*
X129468535Y-110590500D01*
X129420916Y-110638119D01*
X128468535Y-111542880D02*
X129039964Y-111542880D01*
X128754250Y-111542880D02*
X128754250Y-110542880D01*
X128849488Y-110685738D01*
X128944726Y-110780976D01*
X129039964Y-110828595D01*
%TD*%
M02*
